<svg xmlns="http://www.w3.org/2000/svg" id="svg2985" x="0" y="0" enable-background="new -214.5 316.4 255 210" version="1.1" viewBox="-214.5 316.4 255 210" xml:space="preserve"><style>.st310{enable-background:new}.st311{fill:#fff}.st312{fill:#bf3718}.st313{fill:#038249}</style><switch><g><filter id="filter3970-5" width="1.217" height="1.215" x="-.109" y="-.108" color-interpolation-filters="sRGB"><feGaussianBlur id="feGaussianBlur3972-8" stdDeviation=".128"/></filter><g id="g4630" class="st310" transform="matrix(1.0006 0 0 1 -1.376 203.406)"><g id="g3062"><path id="rect4031" d="M42 263.8l-.2-46.2.2-68.4c.1-22.9-15.9-36.1-40.4-36.1h-154.5c-12.3 0-27.6 14-35.7 21.5-8 7.5-24.3 22.1-24.3 33.6v113.1c0 22.9 5.6 41.3 30.1 41.3l162.2.3c6.4 0 24.3-17.4 32.3-24.8 8.1-7.5 30.3-22.9 30.3-34.3z"/><path id="rect3767" fill="#005f00" d="M29.3 255V150.4c0-13.8-11.1-24.8-24.9-24.9l-152.4-.9c-2 0-32 12.6-32 25.8V255c0 13.8 11.1 24.9 24.9 24.9H4.4c13.8 0 24.9-11.1 24.9-24.9z"/><path id="rect3861" fill="#cddacd" d="M14.3 269.9v-99.6c0-13.8-11.2-24.9-24.9-24.9H-170c-13.8 0-24.9 11.1-24.9 24.9v99.6c0 13.8 11.2 24.9 24.9 24.9h159.4c13.8 0 24.9-11.1 24.9-24.9z"/><path id="rect3765" d="M-.6 279.9V175.3c0-13.8-11.2-24.9-24.9-24.9H-175c-13.8 0-24.9 11.1-24.9 24.9v104.6c0 13.8 11.2 24.9 24.9 24.9h149.4c13.8 0 25-11.1 25-24.9z" class="st311"/><linearGradient id="rect3008_1_" x1="-324.883" x2="-324.883" y1="569.587" y2="531.068" gradientTransform="matrix(0 -4.9837 4.9812 0 -2847.785 -1384.036)" gradientUnits="userSpaceOnUse"><stop offset="0" stop-color="#d0e4cc"/><stop offset="1" stop-color="#fbffec"/></linearGradient><path id="rect3008" fill="url(#rect3008_1_)" d="M-10.6 289.9V180.3c0-11-8.9-19.9-19.9-19.9h-149.4c-11 0-19.9 8.9-19.9 19.9v109.6c0 11 8.9 19.9 19.9 19.9h149.4c11 0 19.9-8.9 19.9-19.9z"/><path id="path3932" d="M16.8 130.2c-1.5 0-2.8 1.3-2.8 2.8s1.3 2.8 2.8 2.8 2.8-1.3 2.8-2.8-1.2-2.8-2.8-2.8z" class="st311"/><g id="path3936" filter="url(#filter3970-5)"><linearGradient id="SVGID_1_" x1="-315.771" x2="-318.887" y1="590.47" y2="587.001" gradientTransform="matrix(0 -7.1056 6.6848 0 -3926.45 -2112.465)" gradientUnits="userSpaceOnUse"><stop offset="0" stop-color="#fff"/><stop offset="1" stop-color="#fff" stop-opacity="0"/></linearGradient><path fill="url(#SVGID_1_)" d="M18.2 135.3l-24.6 28.8-6-8.2 28.3-25.2z"/></g><path id="path3882" d="M-5.1 147.5c-4.8 0-8.7 3.9-8.7 8.7 0 4.8 3.9 8.7 8.7 8.7 4.8 0 8.7-3.9 8.7-8.7 0-4.8-3.9-8.7-8.7-8.7z" class="st311"/><g id="g5676" class="st310" transform="matrix(4.97482 0 0 4.97215 211.388 -208.89)"><g id="g5368" transform="matrix(.74429 0 0 .74429 -31.898 8.745)"><path id="path5370" d="M-43.7 93.8a6.7 6.7 0 100 13.4 6.7 6.7 0 000-13.4z" class="st312"/><g id="g5372" transform="rotate(-45 17.625 29.531)"><path id="path5374" d="M-76.3 36.3s-1.2-1-2.7-1c-1.5 0-2.7 1-2.7 1s1.2 1 2.7 1c1.5 0 2.7-1 2.7-1z" class="st311"/><path id="path5376" d="M-75.6 36.3s1.2 1 2.7 1c1.5 0 2.7-1 2.7-1s-1.2-1-2.7-1c-1.5 0-2.7 1-2.7 1z" class="st311"/><path id="path5378" d="M-75.9 36s1-1.2 1-2.7c0-1.5-1-2.7-1-2.7s-1 1.2-1 2.7 1 2.7 1 2.7z" class="st311"/><path id="path5380" d="M-75.9 36.7s-1 1.2-1 2.7c0 1.5 1 2.7 1 2.7s1-1.2 1-2.7c0-1.5-1-2.7-1-2.7z" class="st311"/></g></g><g id="g5432" transform="matrix(.74429 0 0 .74429 -43.398 8.745)"><path id="path5434" d="M-28.3 109.2a6.7 6.7 0 100 13.4 6.7 6.7 0 000-13.4z" class="st312"/><g id="g5436" transform="rotate(-45 17.625 29.531)"><path id="path5438" d="M-76.3 58.2s-1.2-1-2.7-1c-1.5 0-2.7 1-2.7 1s1.2 1 2.7 1c1.5 0 2.7-1 2.7-1z" class="st311"/><path id="path5440" d="M-75.6 58.2s1.2 1 2.7 1c1.5 0 2.7-1 2.7-1s-1.2-1-2.7-1-2.7 1-2.7 1z" class="st311"/><path id="path5442" d="M-75.9 57.8s1-1.2 1-2.7-1-2.7-1-2.7-1 1.2-1 2.7c0 1.5 1 2.7 1 2.7z" class="st311"/><path id="path5444" d="M-75.9 58.5s-1 1.2-1 2.7c0 1.5 1 2.7 1 2.7s1-1.2 1-2.7c0-1.5-1-2.7-1-2.7z" class="st311"/></g></g><g id="g5446" transform="matrix(.74429 0 0 .74429 -31.898 19.544)"><path id="path5448" d="M-58.2 79.2a6.7 6.7 0 100 13.4 6.7 6.7 0 000-13.4z" class="st312"/><g id="g5450" transform="rotate(-45 17.625 29.531)"><path id="path5452" d="M-76.3 15.8s-1.2-1-2.7-1c-1.5 0-2.7 1-2.7 1s1.2 1 2.7 1c1.5 0 2.7-1 2.7-1z" class="st311"/><path id="path5454" d="M-75.6 15.8s1.2 1 2.7 1c1.5 0 2.7-1 2.7-1s-1.2-1-2.7-1-2.7 1-2.7 1z" class="st311"/><path id="path5456" d="M-75.9 15.5s1-1.2 1-2.7c0-1.5-1-2.7-1-2.7s-1 1.2-1 2.7c0 1.5 1 2.7 1 2.7z" class="st311"/><path id="path5458" d="M-75.9 16.2s-1 1.2-1 2.7c0 1.5 1 2.7 1 2.7s1-1.2 1-2.7c0-1.5-1-2.7-1-2.7z" class="st311"/></g></g><g id="g5460" transform="matrix(.74429 0 0 .74429 -43.398 19.544)"><path id="path5462" d="M-42.8 94.7a6.7 6.7 0 100 13.4 6.7 6.7 0 000-13.4z" class="st312"/><g id="g5464" transform="rotate(-45 17.625 29.531)"><path id="path5466" d="M-76.3 37.7s-1.2-1-2.7-1c-1.5 0-2.7 1-2.7 1s1.2 1 2.7 1 2.7-1 2.7-1z" class="st311"/><path id="path5468" d="M-75.6 37.7s1.2 1 2.7 1 2.7-1 2.7-1-1.2-1-2.7-1-2.7 1-2.7 1z" class="st311"/><path id="path5470" d="M-75.9 37.3s1-1.2 1-2.7-1-2.7-1-2.7-1 1.2-1 2.7c0 1.5 1 2.7 1 2.7z" class="st311"/><path id="path5472" d="M-75.9 38s-1 1.2-1 2.7c0 1.5 1 2.7 1 2.7s1-1.2 1-2.7-1-2.7-1-2.7z" class="st311"/></g></g><g id="g5474" transform="matrix(.74429 0 0 .74429 -31.898 -2.056)"><path id="path5476" d="M-27.1 108.3a6.7 6.7 0 100 13.4 6.7 6.7 0 000-13.4z" class="st313"/><g id="g5478" transform="rotate(-45 17.625 29.531)"><path id="path5480" d="M-74.8 58.4s-1.2-1-2.7-1c-1.5 0-2.7 1-2.7 1s1.2 1 2.7 1c1.5 0 2.7-1 2.7-1z" class="st311"/><path id="path5482" d="M-74.1 58.4s1.2 1 2.7 1c1.5 0 2.7-1 2.7-1s-1.2-1-2.7-1c-1.5 0-2.7 1-2.7 1z" class="st311"/><path id="path5484" d="M-74.4 58s1-1.2 1-2.7-1-2.7-1-2.7-1 1.2-1 2.7c0 1.5 1 2.7 1 2.7z" class="st311"/><path id="path5486" d="M-74.4 58.7s-1 1.2-1 2.7c0 1.5 1 2.7 1 2.7s1-1.2 1-2.7c0-1.5-1-2.7-1-2.7z" class="st311"/></g></g><g id="g5488" transform="matrix(.74429 0 0 .74429 -43.398 -2.056)"><path id="path5490" d="M-11.6 123.7a6.7 6.7 0 100 13.4 6.7 6.7 0 000-13.4z" class="st313"/><g id="g5492" transform="rotate(-45 17.625 29.531)"><path id="path5494" d="M-74.8 80.2s-1.2-1-2.7-1c-1.5 0-2.7 1-2.7 1s1.2 1 2.7 1c1.5 0 2.7-1 2.7-1z" class="st311"/><path id="path5496" d="M-74.1 80.2s1.2 1 2.7 1c1.5 0 2.7-1 2.7-1s-1.2-1-2.7-1c-1.5 0-2.7 1-2.7 1z" class="st311"/><path id="path5498" d="M-74.4 79.9s1-1.2 1-2.7c0-1.5-1-2.7-1-2.7s-1 1.2-1 2.7c0 1.5 1 2.7 1 2.7z" class="st311"/><path id="path5500" d="M-74.4 80.6s-1 1.2-1 2.7c0 1.5 1 2.7 1 2.7s1-1.2 1-2.7c0-1.5-1-2.7-1-2.7z" class="st311"/></g></g></g></g></g></g></switch></svg>