<svg xmlns="http://www.w3.org/2000/svg" id="svg2985" x="0" y="0" enable-background="new -214.5 269.4 255 361.9" version="1.1" viewBox="-214.5 269.4 255 361.9" xml:space="preserve"><style>.st374{enable-background:new}.st375{fill:#005f00}.st376{fill:#cddacd}.st377{fill:#fff}.st378{filter:url(#filter3970-5)}.st379{fill:#bf3718}.st380{fill:#2a3b92}.st381{fill:#038249}</style><switch><g><filter id="filter3970-5" width="1.217" height="1.215" x="-.109" y="-.108" color-interpolation-filters="sRGB"><feGaussianBlur id="feGaussianBlur3972-8" stdDeviation=".128"/></filter><g id="g4630" class="st374" transform="matrix(1.0006 0 0 1 -1.376 203.406)"><g id="g3062"><path id="rect4031" d="M42 368.9l-.2-46.2.1-75.4c0-5.5-4.5-14.9-10-14.7 5.5.3 10-9.1 10-14.5l.1-115.8c.1-22.9-15.9-36.1-40.4-36.1h-154.5c-12.3 0-27.6 14-35.7 21.5-8 7.5-24.3 22.1-24.3 33.6v124.8c0 5.1 3.9 14.2 9 14.5-5 0-9 9-9 14v111.7c0 22.9 5.6 41.3 30.1 41.3l162.2.3c6.4 0 24.3-17.4 32.3-24.8 8.1-7.4 30.3-22.8 30.3-34.2z"/><path id="rect3767" d="M29.3 360.1V255.5c0-13.8-11.1-24.8-24.9-24.9l-152.4-.9c-2 0-32 12.6-32 25.8v104.6c0 13.8 11.1 24.9 24.9 24.9H4.4c13.8 0 24.9-11.1 24.9-24.9z" class="st375"/><path id="rect3861" d="M14.3 375.1v-99.6c0-13.8-11.2-24.9-24.9-24.9H-170c-13.8 0-24.9 11.1-24.9 24.9v99.6c0 13.8 11.2 24.9 24.9 24.9h159.4c13.8 0 24.9-11.2 24.9-24.9z" class="st376"/><path id="rect3765" d="M-.6 385V280.4c0-13.8-11.2-24.9-24.9-24.9H-175c-13.8 0-24.9 11.1-24.9 24.9V385c0 13.8 11.2 24.9 24.9 24.9h149.4c13.8 0 25-11.1 25-24.9z" class="st377"/><linearGradient id="rect3008_2_" x1="-303.791" x2="-303.791" y1="569.587" y2="531.068" gradientTransform="matrix(0 4.9837 4.9812 0 -2847.785 1854.184)" gradientUnits="userSpaceOnUse"><stop offset="0" stop-color="#d0e4cc"/><stop offset="1" stop-color="#fbffec"/></linearGradient><path id="rect3008" fill="url(#rect3008_2_)" d="M-10.6 285.4V395c0 11-8.9 19.9-19.9 19.9h-149.4c-11 0-19.9-8.9-19.9-19.9V285.4c0-11 8.9-19.9 19.9-19.9h149.4c11 0 19.9 8.9 19.9 19.9z"/><path id="path3932" d="M16.8 235.4c-1.5 0-2.8 1.3-2.8 2.8s1.3 2.8 2.8 2.8 2.8-1.3 2.8-2.8-1.2-2.8-2.8-2.8z" class="st377"/><g id="path3936" class="st378"><linearGradient id="SVGID_1_" x1="-330.564" x2="-333.68" y1="590.47" y2="587.001" gradientTransform="matrix(0 -7.1056 6.6848 0 -3926.449 -2112.465)" gradientUnits="userSpaceOnUse"><stop offset="0" stop-color="#fff"/><stop offset="1" stop-color="#fff" stop-opacity="0"/></linearGradient><path fill="url(#SVGID_1_)" d="M18.2 240.4l-24.6 28.8-6-8.2 28.3-25.2z"/></g><path id="path3882" d="M-5.1 252.7c-4.8 0-8.7 3.9-8.7 8.7 0 4.8 3.9 8.7 8.7 8.7 4.8 0 8.7-3.9 8.7-8.7 0-4.8-3.9-8.7-8.7-8.7z" class="st377"/></g></g><g id="g4630_1_" class="st374" transform="matrix(1.0006 0 0 1 -1.376 203.406)"><g id="g3062_1_"><path id="rect3767_1_" d="M29.3 209.1V104.5c0-13.8-11.1-24.8-24.9-24.9l-152.4-.9c-2 0-32 12.6-32 25.8v104.6c0 13.8 11.1 24.9 24.9 24.9H4.4c13.8 0 24.9-11.1 24.9-24.9z" class="st375"/><path id="rect3861_1_" d="M14.3 224.1v-99.6c0-13.8-11.2-24.9-24.9-24.9H-170c-13.8 0-24.9 11.1-24.9 24.9v99.6c0 13.8 11.2 24.9 24.9 24.9h159.4c13.8 0 24.9-11.2 24.9-24.9z" class="st376"/><path id="rect3765_1_" d="M-.6 234V129.4c0-13.8-11.2-24.9-24.9-24.9H-175c-13.8 0-24.9 11.1-24.9 24.9V234c0 13.8 11.2 24.9 24.9 24.9h149.4c13.8 0 25-11.1 25-24.9z" class="st377"/><linearGradient id="rect3008_3_" x1="-334.09" x2="-334.09" y1="569.587" y2="531.068" gradientTransform="matrix(0 4.9837 4.9812 0 -2847.785 1854.184)" gradientUnits="userSpaceOnUse"><stop offset="0" stop-color="#d0e4cc"/><stop offset="1" stop-color="#fbffec"/></linearGradient><path id="rect3008_1_" fill="url(#rect3008_3_)" d="M-10.6 134.4V244c0 11-8.9 19.9-19.9 19.9h-149.4c-11 0-19.9-8.9-19.9-19.9V134.4c0-11 8.9-19.9 19.9-19.9h149.4c11 0 19.9 8.9 19.9 19.9z"/><path id="path3932_1_" d="M16.8 84.4c-1.5 0-2.8 1.3-2.8 2.8 0 1.5 1.3 2.8 2.8 2.8s2.8-1.3 2.8-2.8c0-1.6-1.2-2.8-2.8-2.8z" class="st377"/><g id="path3936_1_" class="st378"><linearGradient id="SVGID_2_" x1="-309.313" x2="-312.429" y1="590.47" y2="587.001" gradientTransform="matrix(0 -7.1056 6.6848 0 -3926.449 -2112.465)" gradientUnits="userSpaceOnUse"><stop offset="0" stop-color="#fff"/><stop offset="1" stop-color="#fff" stop-opacity="0"/></linearGradient><path fill="url(#SVGID_2_)" d="M18.2 89.4l-24.6 28.8-6-8.2 28.3-25.2z"/></g><path id="path3882_1_" d="M-5.1 101.7c-4.8 0-8.7 3.9-8.7 8.7 0 4.8 3.9 8.7 8.7 8.7 4.8 0 8.7-3.9 8.7-8.7 0-4.8-3.9-8.7-8.7-8.7z" class="st377"/></g></g><g id="g7499" class="st374" transform="matrix(4.97481 0 0 4.98413 196.315 -191.185)"><g id="g5773" transform="matrix(.59543 0 0 .59543 -31.994 9.514)"><path id="path5775" d="M-48.6 224.9a6.7 6.7 0 100 13.4 6.7 6.7 0 000-13.4z" class="st379"/><g id="g5777" transform="rotate(-45 17.625 29.531)"><path id="path5779" d="M-172.4 125.6s-1.2-1-2.7-1c-1.5 0-2.7 1-2.7 1s1.2 1 2.7 1c1.5 0 2.7-1 2.7-1z" class="st377"/><path id="path5781" d="M-171.7 125.6s1.2 1 2.7 1c1.5 0 2.7-1 2.7-1s-1.2-1-2.7-1c-1.5 0-2.7 1-2.7 1z" class="st377"/><path id="path5783" d="M-172.1 125.2s1-1.2 1-2.7-1-2.7-1-2.7-1 1.2-1 2.7c0 1.5 1 2.7 1 2.7z" class="st377"/><path id="path5785" d="M-172.1 125.9s-1 1.2-1 2.7c0 1.5 1 2.7 1 2.7s1-1.2 1-2.7c0-1.4-1-2.7-1-2.7z" class="st377"/></g></g><g id="g7345" transform="matrix(.59543 0 0 .59543 -22.994 9.514)"><path id="path7347" d="M-63.7 209.8a6.7 6.7 0 100 13.4 6.7 6.7 0 000-13.4z" class="st379"/><g id="g7349" transform="rotate(-45 17.625 29.531)"><path id="path7351" d="M-172.4 104.2s-1.2-1-2.7-1c-1.5 0-2.7 1-2.7 1s1.2 1 2.7 1c1.5 0 2.7-1 2.7-1z" class="st377"/><path id="path7353" d="M-171.7 104.2s1.2 1 2.7 1c1.5 0 2.7-1 2.7-1s-1.2-1-2.7-1c-1.5 0-2.7 1-2.7 1z" class="st377"/><path id="path7355" d="M-172.1 103.9s1-1.2 1-2.7-1-2.7-1-2.7-1 1.2-1 2.7c0 1.5 1 2.7 1 2.7z" class="st377"/><path id="path7357" d="M-172.1 104.6s-1 1.2-1 2.7 1 2.7 1 2.7 1-1.2 1-2.7c0-1.5-1-2.7-1-2.7z" class="st377"/></g></g><g id="g7359" transform="matrix(.59543 0 0 .59543 -40.994 9.514)"><path id="path7361" d="M-33.5 240a6.7 6.7 0 100 13.4 6.7 6.7 0 000-13.4z" class="st379"/><g id="g7363" transform="rotate(-45 17.625 29.531)"><path id="path7365" d="M-172.4 147s-1.2-1-2.7-1c-1.5 0-2.7 1-2.7 1s1.2 1 2.7 1c1.5 0 2.7-1 2.7-1z" class="st377"/><path id="path7367" d="M-171.7 147s1.2 1 2.7 1c1.5 0 2.7-1 2.7-1s-1.2-1-2.7-1c-1.5 0-2.7 1-2.7 1z" class="st377"/><path id="path7369" d="M-172.1 146.6s1-1.2 1-2.7c0-1.5-1-2.7-1-2.7s-1 1.2-1 2.7 1 2.7 1 2.7z" class="st377"/><path id="path7371" d="M-172.1 147.3s-1 1.2-1 2.7c0 1.5 1 2.7 1 2.7s1-1.2 1-2.7c0-1.5-1-2.7-1-2.7z" class="st377"/></g></g><g id="g7373" transform="matrix(.59543 0 0 .59543 -31.994 -1.986)"><path id="path7375" d="M-29.2 244.2a6.7 6.7 0 100 13.4 6.7 6.7 0 000-13.4z" class="st380"/><g id="g7377" transform="rotate(-45 17.625 29.531)"><path id="path7379" d="M-172.4 152.9s-1.2-1-2.7-1c-1.5 0-2.7 1-2.7 1s1.2 1 2.7 1c1.5 0 2.7-1 2.7-1z" class="st377"/><path id="path7381" d="M-171.7 152.9s1.2 1 2.7 1c1.5 0 2.7-1 2.7-1s-1.2-1-2.7-1c-1.5 0-2.7 1-2.7 1z" class="st377"/><path id="path7383" d="M-172.1 152.6s1-1.2 1-2.7c0-1.5-1-2.7-1-2.7s-1 1.2-1 2.7c0 1.5 1 2.7 1 2.7z" class="st377"/><path id="path7385" d="M-172.1 153.3s-1 1.2-1 2.7c0 1.5 1 2.7 1 2.7s1-1.2 1-2.7c.1-1.5-1-2.7-1-2.7z" class="st377"/></g></g><g id="g7387" transform="matrix(.59543 0 0 .59543 -22.994 -1.986)"><path id="path7389" d="M-44.4 229.1a6.7 6.7 0 106.7 6.7c0-3.7-2.9-6.7-6.7-6.7z" class="st380"/><g id="g7391" transform="rotate(-45 17.625 29.531)"><path id="path7393" d="M-172.4 131.6s-1.2-1-2.7-1c-1.5 0-2.7 1-2.7 1s1.2 1 2.7 1c1.5 0 2.7-1 2.7-1z" class="st377"/><path id="path7395" d="M-171.7 131.6s1.2 1 2.7 1c1.5 0 2.7-1 2.7-1s-1.2-1-2.7-1c-1.5 0-2.7 1-2.7 1z" class="st377"/><path id="path7397" d="M-172.1 131.2s1-1.2 1-2.7c0-1.5-1-2.7-1-2.7s-1 1.2-1 2.7c0 1.5 1 2.7 1 2.7z" class="st377"/><path id="path7399" d="M-172.1 131.9s-1 1.2-1 2.7c0 1.5 1 2.7 1 2.7s1-1.2 1-2.7c0-1.5-1-2.7-1-2.7z" class="st377"/></g></g><g id="g7401" transform="matrix(.59543 0 0 .59543 -40.994 -1.986)"><path id="path7403" d="M-14.1 259.3a6.7 6.7 0 100 13.4 6.7 6.7 0 000-13.4z" class="st380"/><g id="g7405" transform="rotate(-45 17.625 29.531)"><path id="path7407" d="M-172.4 174.3s-1.2-1-2.7-1-2.7 1-2.7 1 1.2 1 2.7 1c1.5 0 2.7-1 2.7-1z" class="st377"/><path id="path7409" d="M-171.7 174.3s1.2 1 2.7 1c1.5 0 2.7-1 2.7-1s-1.2-1-2.7-1c-1.5 0-2.7 1-2.7 1z" class="st377"/><path id="path7411" d="M-172 173.9s1-1.2 1-2.7-1-2.7-1-2.7-1 1.2-1 2.7c0 1.5 1 2.7 1 2.7z" class="st377"/><path id="path7413" d="M-172 174.6s-1 1.2-1 2.7c0 1.5 1 2.7 1 2.7s1-1.2 1-2.7c0-1.4-1-2.7-1-2.7z" class="st377"/></g></g><g id="g7457" transform="matrix(.59543 0 0 .59543 -31.994 21.014)"><path id="path7459" d="M-67.9 205.6a6.7 6.7 0 100 13.4 6.7 6.7 0 000-13.4z" class="st381"/><g id="g7461" transform="rotate(-45 17.625 29.531)"><path id="path7463" d="M-172.5 98.3s-1.2-1-2.7-1c-1.5 0-2.7 1-2.7 1s1.2 1 2.7 1c1.5-.1 2.7-1 2.7-1z" class="st377"/><path id="path7465" d="M-171.8 98.3s1.2 1 2.7 1c1.5 0 2.7-1 2.7-1s-1.2-1-2.7-1c-1.4 0-2.7 1-2.7 1z" class="st377"/><path id="path7467" d="M-172.1 97.9s1-1.2 1-2.7-1-2.7-1-2.7-1 1.2-1 2.7c0 1.5 1 2.7 1 2.7z" class="st377"/><path id="path7469" d="M-172.1 98.6s-1 1.2-1 2.7c0 1.5 1 2.7 1 2.7s1-1.2 1-2.7c0-1.5-1-2.7-1-2.7z" class="st377"/></g></g><g id="g7471" transform="matrix(.59543 0 0 .59543 -22.994 21.014)"><path id="path7473" d="M-83.1 190.5a6.7 6.7 0 106.7 6.7c0-3.7-2.9-6.7-6.7-6.7z" class="st381"/><g id="g7475" transform="rotate(-45 17.625 29.531)"><path id="path7477" d="M-172.5 76.9s-1.2-1-2.7-1-2.7 1-2.7 1 1.2 1 2.7 1c1.5 0 2.7-1 2.7-1z" class="st377"/><path id="path7479" d="M-171.8 76.9s1.2 1 2.7 1c1.5 0 2.7-1 2.7-1s-1.2-1-2.7-1c-1.5 0-2.7 1-2.7 1z" class="st377"/><path id="path7481" d="M-172.1 76.5s1-1.2 1-2.7c0-1.5-1-2.7-1-2.7s-1 1.2-1 2.7c0 1.5 1 2.7 1 2.7z" class="st377"/><path id="path7483" d="M-172.1 77.2s-1 1.2-1 2.7c0 1.5 1 2.7 1 2.7s1-1.2 1-2.7c0-1.5-1-2.7-1-2.7z" class="st377"/></g></g><g id="g7485" transform="matrix(.59543 0 0 .59543 -40.994 21.014)"><path id="path7487" d="M-52.8 220.7a6.7 6.7 0 100 13.4 6.7 6.7 0 000-13.4z" class="st381"/><g id="g7489" transform="rotate(-45 17.625 29.531)"><path id="path7491" d="M-172.4 119.6s-1.2-1-2.7-1c-1.5 0-2.7 1-2.7 1s1.2 1 2.7 1c1.5 0 2.7-1 2.7-1z" class="st377"/><path id="path7493" d="M-171.7 119.6s1.2 1 2.7 1c1.5 0 2.7-1 2.7-1s-1.2-1-2.7-1c-1.5 0-2.7 1-2.7 1z" class="st377"/><path id="path7495" d="M-172.1 119.3s1-1.2 1-2.7c0-1.5-1-2.7-1-2.7s-1 1.2-1 2.7 1 2.7 1 2.7z" class="st377"/><path id="path7497" d="M-172.1 120s-1 1.2-1 2.7c0 1.5 1 2.7 1 2.7s1-1.2 1-2.7-1-2.7-1-2.7z" class="st377"/></g></g></g><g id="g7499_1_" class="st374" transform="matrix(4.97481 0 0 4.98413 196.315 -191.185)"><g id="g5773_1_" transform="matrix(.59543 0 0 .59543 -31.994 9.514)"><path id="path5775_1_" d="M-48.6 174a6.7 6.7 0 100 13.4 6.7 6.7 0 000-13.4z" class="st379"/><g id="g5777_1_" transform="rotate(-45 17.625 29.531)"><path id="path5779_1_" d="M-136.4 89.6s-1.2-1-2.7-1c-1.5 0-2.7 1-2.7 1s1.2 1 2.7 1c1.4 0 2.7-1 2.7-1z" class="st377"/><path id="path5781_1_" d="M-135.7 89.6s1.2 1 2.7 1c1.5 0 2.7-1 2.7-1s-1.2-1-2.7-1c-1.5 0-2.7 1-2.7 1z" class="st377"/><path id="path5783_1_" d="M-136.1 89.3s1-1.2 1-2.7c0-1.5-1-2.7-1-2.7s-1 1.2-1 2.7c0 1.5 1 2.7 1 2.7z" class="st377"/><path id="path5785_1_" d="M-136.1 90s-1 1.2-1 2.7c0 1.5 1 2.7 1 2.7s1-1.2 1-2.7-1-2.7-1-2.7z" class="st377"/></g></g><g id="g7345_1_" transform="matrix(.59543 0 0 .59543 -22.994 9.514)"><path id="path7347_1_" d="M-63.7 158.9a6.7 6.7 0 100 13.4 6.7 6.7 0 000-13.4z" class="st379"/><g id="g7349_1_" transform="rotate(-45 17.625 29.531)"><path id="path7351_1_" d="M-136.5 68.2s-1.2-1-2.7-1c-1.5 0-2.7 1-2.7 1s1.2 1 2.7 1c1.5 0 2.7-1 2.7-1z" class="st377"/><path id="path7353_1_" d="M-135.8 68.3s1.2 1 2.7 1c1.5 0 2.7-1 2.7-1s-1.2-1-2.7-1c-1.5 0-2.7 1-2.7 1z" class="st377"/><path id="path7355_1_" d="M-136.1 67.9s1-1.2 1-2.7c0-1.5-1-2.7-1-2.7s-1 1.2-1 2.7c0 1.5 1 2.7 1 2.7z" class="st377"/><path id="path7357_1_" d="M-136.1 68.6s-1 1.2-1 2.7c0 1.5 1 2.7 1 2.7s1-1.2 1-2.7-1-2.7-1-2.7z" class="st377"/></g></g><g id="g7359_1_" transform="matrix(.59543 0 0 .59543 -40.994 9.514)"><path id="path7361_1_" d="M-33.5 189.1a6.7 6.7 0 100 13.4 6.7 6.7 0 000-13.4z" class="st379"/><g id="g7363_1_" transform="rotate(-45 17.625 29.531)"><path id="path7365_1_" d="M-136.4 111s-1.2-1-2.7-1c-1.5 0-2.7 1-2.7 1s1.2 1 2.7 1c1.5 0 2.7-1 2.7-1z" class="st377"/><path id="path7367_1_" d="M-135.7 111s1.2 1 2.7 1c1.5 0 2.7-1 2.7-1s-1.2-1-2.7-1c-1.5 0-2.7 1-2.7 1z" class="st377"/><path id="path7369_1_" d="M-136.1 110.6s1-1.2 1-2.7c0-1.5-1-2.7-1-2.7s-1 1.2-1 2.7c0 1.5 1 2.7 1 2.7z" class="st377"/><path id="path7371_1_" d="M-136.1 111.3s-1 1.2-1 2.7 1 2.7 1 2.7 1-1.2 1-2.7c0-1.5-1-2.7-1-2.7z" class="st377"/></g></g><g id="g7373_1_" transform="matrix(.59543 0 0 .59543 -31.994 -1.986)"><path id="path7375_1_" d="M-29.2 193.3a6.7 6.7 0 100 13.4 6.7 6.7 0 000-13.4z" class="st380"/><g id="g7377_1_" transform="rotate(-45 17.625 29.531)"><path id="path7379_1_" d="M-136.4 117s-1.2-1-2.7-1c-1.5 0-2.7 1-2.7 1s1.2 1 2.7 1c1.5-.1 2.7-1 2.7-1z" class="st377"/><path id="path7381_1_" d="M-135.7 117s1.2 1 2.7 1c1.5 0 2.7-1 2.7-1s-1.2-1-2.7-1c-1.5 0-2.7 1-2.7 1z" class="st377"/><path id="path7383_1_" d="M-136.1 116.6s1-1.2 1-2.7c0-1.5-1-2.7-1-2.7s-1 1.2-1 2.7 1 2.7 1 2.7z" class="st377"/><path id="path7385_1_" d="M-136.1 117.3s-1 1.2-1 2.7c0 1.5 1 2.7 1 2.7s1-1.2 1-2.7-1-2.7-1-2.7z" class="st377"/></g></g><g id="g7387_1_" transform="matrix(.59543 0 0 .59543 -22.994 -1.986)"><path id="path7389_1_" d="M-44.4 178.2a6.7 6.7 0 106.7 6.7c0-3.7-2.9-6.7-6.7-6.7z" class="st380"/><g id="g7391_1_" transform="rotate(-45 17.625 29.531)"><path id="path7393_1_" d="M-136.4 95.6s-1.2-1-2.7-1c-1.5 0-2.7 1-2.7 1s1.2 1 2.7 1c1.5 0 2.7-1 2.7-1z" class="st377"/><path id="path7395_1_" d="M-135.7 95.6s1.2 1 2.7 1c1.5 0 2.7-1 2.7-1s-1.2-1-2.7-1c-1.5 0-2.7 1-2.7 1z" class="st377"/><path id="path7397_1_" d="M-136.1 95.2s1-1.2 1-2.7c0-1.5-1-2.7-1-2.7s-1 1.2-1 2.7 1 2.7 1 2.7z" class="st377"/><path id="path7399_1_" d="M-136.1 95.9s-1 1.2-1 2.7c0 1.5 1 2.7 1 2.7s1-1.2 1-2.7-1-2.7-1-2.7z" class="st377"/></g></g><g id="g7401_1_" transform="matrix(.59543 0 0 .59543 -40.994 -1.986)"><path id="path7403_1_" d="M-14.1 208.4a6.7 6.7 0 100 13.4 6.7 6.7 0 000-13.4z" class="st380"/><g id="g7405_1_" transform="rotate(-45 17.625 29.531)"><path id="path7407_1_" d="M-136.4 138.3s-1.2-1-2.7-1c-1.5 0-2.7 1-2.7 1s1.2 1 2.7 1 2.7-1 2.7-1z" class="st377"/><path id="path7409_1_" d="M-135.7 138.3s1.2 1 2.7 1c1.5 0 2.7-1 2.7-1s-1.2-1-2.7-1-2.7 1-2.7 1z" class="st377"/><path id="path7411_1_" d="M-136.1 138s1-1.2 1-2.7-1-2.7-1-2.7-1 1.2-1 2.7c0 1.5 1 2.7 1 2.7z" class="st377"/><path id="path7413_1_" d="M-136.1 138.7s-1 1.2-1 2.7 1 2.7 1 2.7 1-1.2 1-2.7c0-1.5-1-2.7-1-2.7z" class="st377"/></g></g><g id="g7457_1_" transform="matrix(.59543 0 0 .59543 -31.994 21.014)"><path id="path7459_1_" d="M-67.9 154.7a6.7 6.7 0 100 13.4 6.7 6.7 0 000-13.4z" class="st381"/><g id="g7461_1_" transform="rotate(-45 17.625 29.531)"><path id="path7463_1_" d="M-136.5 62.3s-1.2-1-2.7-1c-1.5 0-2.7 1-2.7 1s1.2 1 2.7 1c1.5 0 2.7-1 2.7-1z" class="st377"/><path id="path7465_1_" d="M-135.8 62.3s1.2 1 2.7 1c1.5 0 2.7-1 2.7-1s-1.2-1-2.7-1-2.7 1-2.7 1z" class="st377"/><path id="path7467_1_" d="M-136.1 61.9s1-1.2 1-2.7c0-1.5-1-2.7-1-2.7s-1 1.2-1 2.7 1 2.7 1 2.7z" class="st377"/><path id="path7469_1_" d="M-136.1 62.6s-1 1.2-1 2.7c0 1.5 1 2.7 1 2.7s1-1.2 1-2.7c0-1.5-1-2.7-1-2.7z" class="st377"/></g></g><g id="g7471_1_" transform="matrix(.59543 0 0 .59543 -22.994 21.014)"><path id="path7473_1_" d="M-83.1 139.6a6.7 6.7 0 106.7 6.7c0-3.7-2.9-6.7-6.7-6.7z" class="st381"/><g id="g7475_1_" transform="rotate(-45 17.625 29.531)"><path id="path7477_1_" d="M-136.5 40.9s-1.2-1-2.7-1c-1.5 0-2.7 1-2.7 1s1.2 1 2.7 1c1.5 0 2.7-1 2.7-1z" class="st377"/><path id="path7479_1_" d="M-135.8 40.9s1.2 1 2.7 1c1.5 0 2.7-1 2.7-1s-1.2-1-2.7-1c-1.5 0-2.7 1-2.7 1z" class="st377"/><path id="path7481_1_" d="M-136.1 40.6s1-1.2 1-2.7c0-1.5-1-2.7-1-2.7s-1 1.2-1 2.7 1 2.7 1 2.7z" class="st377"/><path id="path7483_1_" d="M-136.1 41.3s-1 1.2-1 2.7c0 1.5 1 2.7 1 2.7s1-1.2 1-2.7c0-1.5-1-2.7-1-2.7z" class="st377"/></g></g><g id="g7485_1_" transform="matrix(.59543 0 0 .59543 -40.994 21.014)"><path id="path7487_1_" d="M-52.8 169.8a6.7 6.7 0 100 13.4 6.7 6.7 0 000-13.4z" class="st381"/><g id="g7489_1_" transform="rotate(-45 17.625 29.531)"><path id="path7491_1_" d="M-136.5 83.6s-1.2-1-2.7-1c-1.5 0-2.7 1-2.7 1s1.2 1 2.7 1 2.7-1 2.7-1z" class="st377"/><path id="path7493_1_" d="M-135.8 83.6s1.2 1 2.7 1c1.5 0 2.7-1 2.7-1s-1.2-1-2.7-1c-1.5 0-2.7 1-2.7 1z" class="st377"/><path id="path7495_1_" d="M-136.1 83.3s1-1.2 1-2.7c0-1.5-1-2.7-1-2.7s-1 1.2-1 2.7c0 1.5 1 2.7 1 2.7z" class="st377"/><path id="path7497_1_" d="M-136.1 84s-1 1.2-1 2.7 1 2.7 1 2.7 1-1.2 1-2.7-1-2.7-1-2.7z" class="st377"/></g></g></g></g></switch></svg>