<svg xmlns="http://www.w3.org/2000/svg" id="svg2985" x="0" y="0" enable-background="new -192 293.9 210 255" version="1.1" viewBox="-192 293.9 210 255" xml:space="preserve"><style>.st422{fill:#fff}.st423{fill:#bf3718}</style><switch><g><filter id="filter3970-5" width="1.217" height="1.215" x="-.109" y="-.108" color-interpolation-filters="sRGB"><feGaussianBlur id="feGaussianBlur3972-8" stdDeviation=".128"/></filter><g id="g4630" transform="matrix(1.0006 0 0 1 -1.376 203.406)"><g id="g3062"><path id="rect4031" d="M-131.2 90.5l46.1.2 68.4-.2c22.9-.1 36.1 15.9 36.1 40.4v154.6c0 12.3-14 27.7-21.4 35.7s-22.1 24.3-33.6 24.3h-113c-22.9 0-41.3-5.6-41.3-30.2l-.3-162.3c0-6.4 17.3-24.3 24.8-32.4 7.4-8 22.7-30.2 34.2-30.1z"/><path id="rect3767" fill="#005f00" d="M-122.4 103.2h104.5c13.8 0 24.8 11.1 24.9 24.9l.9 152.4c0 2-12.6 32-25.8 32h-104.5c-13.8 0-24.9-11.1-24.9-24.9V128.1c0-13.8 11.1-24.9 24.9-24.9z"/><path id="rect3861" fill="#cddacd" d="M-137.4 118.1h99.6c13.7 0 24.9 11.2 24.9 24.9v159.5c0 13.8-11.1 24.9-24.9 24.9h-99.6c-13.7 0-24.9-11.2-24.9-24.9V143.1c0-13.8 11.2-25 24.9-25z"/><path id="rect3765" d="M-147.3 133.1h104.5c13.7 0 24.9 11.2 24.9 24.9v149.5c0 13.8-11.1 24.9-24.9 24.9h-104.5c-13.7 0-24.9-11.2-24.9-24.9V158c0-13.7 11.1-24.9 24.9-24.9z" class="st422"/><linearGradient id="SVGID_1_" x1="-102.529" x2="-102.529" y1="332.463" y2="140.481" gradientUnits="userSpaceOnUse"><stop offset="0" stop-color="#d0e4cc"/><stop offset="1" stop-color="#fbffec"/></linearGradient><path fill="url(#SVGID_1_)" d="M-47.8 143.1h-109.5c-11 0-19.9 8.9-19.9 19.9v149.5c0 11 8.9 19.9 19.9 19.9h109.5c11 0 19.9-8.9 19.9-19.9V163c0-11-8.9-19.9-19.9-19.9zm-71.8 152.4h5-5zm27 0h6-6z"/><path id="path3932" d="M2.2 115.7c0 1.5-1.3 2.8-2.8 2.8s-2.8-1.3-2.8-2.8 1.3-2.8 2.8-2.8 2.8 1.2 2.8 2.8z" class="st422"/><g id="path3936" filter="url(#filter3970-5)"><linearGradient id="SVGID_2_" x1="-315.771" x2="-318.887" y1="590.47" y2="587.001" gradientTransform="matrix(7.1013 0 0 -6.6887 2243.616 4061.265)" gradientUnits="userSpaceOnUse"><stop offset="0" stop-color="#fff"/><stop offset="1" stop-color="#fff" stop-opacity="0"/></linearGradient><path fill="url(#SVGID_2_)" d="M-2.8 114.3l-28.8 24.6 8.2 6 25.2-28.3z"/></g><path id="path3882" d="M-15 137.6c0 4.8-3.9 8.7-8.7 8.7-4.8 0-8.7-3.9-8.7-8.7 0-4.8 3.9-8.7 8.7-8.7 4.7 0 8.7 3.9 8.7 8.7z" class="st422"/></g></g><path d="M-102 476.8c-1.1 0-2 .4-2.8 1.2-.8.8-1.2 1.7-1.2 2.8s.4 2 1.2 2.8c.8.8 1.7 1.2 2.8 1.2s2.1-.4 2.9-1.2c.8-.8 1.2-1.7 1.2-2.8s-.4-2-1.2-2.8c-.9-.8-1.8-1.2-2.9-1.2zM-85.3 478c-.8.8-1.2 1.7-1.2 2.8s.4 2 1.2 2.8c.8.8 1.7 1.2 2.8 1.2s2.1-.4 2.9-1.2c.8-.8 1.2-1.7 1.2-2.8s-.4-2-1.2-2.8c-.8-.8-1.8-1.2-2.9-1.2s-2 .4-2.8 1.2zM-72.8 460c-1.1 0-2 .4-2.8 1.2-.8.8-1.2 1.7-1.2 2.8s.4 2 1.2 2.8c.8.8 1.7 1.2 2.8 1.2s2.1-.4 2.9-1.2c.8-.8 1.2-1.7 1.2-2.8s-.4-2-1.2-2.8c-.8-.8-1.8-1.2-2.9-1.2zM-88.5 363.6l7.8 2.3.8-2-8.1-2.6 10.3-3.1-.8-2-10.3 2.9 4.6-6-1.8-1.4-7.1 9c.9 1.5 1.5 4.2 1.9 8.1.4 3.6.4 9.6.2 15.7h3.7c.3-6.2-.1-13.8-1.2-20.9zM-117 363.6l7.8 2.3.8-2-8.1-2.6 10.3-3.1-.8-2-10.3 2.9 4.6-6-1.8-1.4-7.1 9c.9 1.5 1.5 4.2 1.9 8.1.4 3.7.4 9.6.2 15.7h3.7c.3-6.2-.1-13.9-1.2-20.9zM-92.3 501.6c1.1 0 2.1-.4 2.9-1.2.8-.8 1.2-1.7 1.2-2.8s-.4-2-1.2-2.8c-.8-.8-1.8-1.2-2.9-1.2s-2 .4-2.8 1.2c-.8.8-1.2 1.7-1.2 2.8s.4 2 1.2 2.8c.7.9 1.7 1.2 2.8 1.2zM-92.3 429.4c1 0 1.8-.3 2.5-1s1-1.5 1-2.4c0-1-.3-1.8-1-2.5s-1.5-1-2.5-1-1.8.3-2.4 1c-.7.7-1 1.5-1 2.5s.3 1.8 1 2.4c.6.7 1.4 1 2.4 1zM-92.3 460c-1.1 0-2 .4-2.8 1.2-.8.8-1.2 1.7-1.2 2.8s.4 2 1.2 2.8c.8.8 1.7 1.2 2.8 1.2s2.1-.4 2.9-1.2c.8-.8 1.2-1.7 1.2-2.8s-.4-2-1.2-2.8c-.9-.8-1.8-1.2-2.9-1.2zM-121.6 451c1.1 0 2.1-.4 2.9-1.2.8-.8 1.2-1.7 1.2-2.8 0-1.1-.4-2-1.2-2.8-.8-.8-1.8-1.2-2.9-1.2s-2 .4-2.8 1.2c-.8.8-1.2 1.7-1.2 2.8 0 1.1.4 2 1.2 2.8.8.8 1.7 1.2 2.8 1.2zM-121.6 484.7c1.1 0 2.1-.4 2.9-1.2.8-.8 1.2-1.7 1.2-2.8s-.4-2-1.2-2.8c-.8-.8-1.8-1.2-2.9-1.2s-2 .4-2.8 1.2c-.8.8-1.2 1.7-1.2 2.8s.4 2 1.2 2.8c.8.8 1.7 1.2 2.8 1.2zM-109 466.8c.8-.8 1.2-1.7 1.2-2.8s-.4-2-1.2-2.8c-.8-.8-1.8-1.2-2.9-1.2s-2 .4-2.8 1.2c-.8.8-1.2 1.7-1.2 2.8s.4 2 1.2 2.8c.8.8 1.7 1.2 2.8 1.2s2.1-.5 2.9-1.2zM-85.3 444.2c-.8.8-1.2 1.7-1.2 2.8 0 1.1.4 2 1.2 2.8.8.8 1.7 1.2 2.8 1.2s2.1-.4 2.9-1.2c.8-.8 1.2-1.7 1.2-2.8 0-1.1-.4-2-1.2-2.8-.8-.8-1.8-1.2-2.9-1.2s-2 .5-2.8 1.2zM-111.9 493.7c-1.1 0-2 .4-2.8 1.2-.8.8-1.2 1.7-1.2 2.8s.4 2 1.2 2.8c.8.8 1.7 1.2 2.8 1.2s2.1-.4 2.9-1.2c.8-.8 1.2-1.7 1.2-2.8s-.4-2-1.2-2.8c-.8-.8-1.8-1.2-2.9-1.2zM-104.8 444.2c-.8.8-1.2 1.7-1.2 2.8 0 1.1.4 2 1.2 2.8.8.8 1.7 1.2 2.8 1.2s2.1-.4 2.9-1.2c.8-.8 1.2-1.7 1.2-2.8 0-1.1-.4-2-1.2-2.8-.8-.8-1.8-1.2-2.9-1.2s-2 .5-2.8 1.2zM-131.5 467.9c1.1 0 2.1-.4 2.9-1.2.8-.8 1.2-1.7 1.2-2.8s-.4-2-1.2-2.8c-.8-.8-1.8-1.2-2.9-1.2s-2 .4-2.8 1.2c-.8.8-1.2 1.7-1.2 2.8s.4 2 1.2 2.8c.8.8 1.8 1.2 2.8 1.2z" class="st423"/><path d="M-112.2 406.2l-.3-.2-.2.1z"/><path fill="#038249" d="M-175.2 426.1c.2.7.9.9 2.1.6 10.8-2.6 19.5-5.8 25.9-9.4 1.4 1.2 2.8 2.3 4.3 3.3-7.2 3.7-13.9 6.9-20.2 9.7-7.1 3.1-10.3 5.2-9.6 6.3.7 1 3.4.6 8.2-1.4 4.8-1.9 11.7-5.3 20.9-9.9l4.5-2.2c.1.1.1.1.2.1-13.6 8.5-22.9 14.3-27.8 17.5-5.1 3.3-7.4 5.4-6.7 6.4.7 1 4.4-.8 11.3-5.2 6.8-4.3 16-9.8 27.5-16.4.9.4 1.8.8 2.9 1.2-2.7 2-4.7 4.3-6 6.9-1.8 3.6-.5 5.1 3.8 4.5 2.2-.3 4-.3 5.5 0 .2 0 .3 0 .5.1.2-.1 2.3-2.3 3.7-2.6l7.7-2.5 8.3 2.7c1.2.3 2.5 1 3-.4.1 0 1.3.7 2.5 1.1 2.5.7 3.8 1 3.8 1 1.3.3 3.4.5 4.9.4 2.7-.1 5.2-.5 7.4-1.2.2-.1 1.2-.4 1.4-.5.7-.2 1.3-.5 2-.9.4-.2 1.8-.9 2.5-1.5 2.4-1.5 2.9-3.3 3.3-5.5 7.1-3.1 13.3-7.2 18.5-12.2 9.3-8.9 16.1-18.6 20.3-29.2.2-.8-.4-1.2-1.9-1.2-4.8.1-13.3.2-25.5.2-.4-1.8-2.7-2.7-6.7-2.5-3.3.1-7.5.2-12.6.4 0 0-14.2.3-18.8.3-2.8 0-18.9.4-21 .4-3.4.1-5.2.9-5.3 2.5-7.7-.1-12.6-.1-14.8-.1-9.5 0-16.9-.1-22.1-.2-1.5 0-2.1.4-1.9 1.1 4.2 9.9 10.8 19 19.8 27.2-5.8 3.6-13.5 6.7-23.1 9.2-2.1.6-2.9 1.2-2.7 1.9zm32.1-9.9l.9-.3 9 3-4.2 1.4c-2-1.3-3.9-2.6-5.7-4.1zm22.4-18.7l-8.8 3-8.9-3 8.9-3 8.8 3zm-4.8-4.3l.3-.1c.1.1.3.3.4.3l-.7-.2zm11.6 27.5v.3l-2.6.9-9-3 9-3.1 2.5.9c-.1 1.2-.1 2.5.1 4zm-2.6-7.4l-9-3 9-3.1 6 2.1c-.1 0-.1 0-.2.1-.9.7-1.6 1.6-2.2 2.6l-3.6 1.3zm0-8.5l-9.1-3 7.3-2.4c1.4 1.4 2.6 2.7 3.7 4 .2.2.4.4.5.7l-2.4.7zm-16.8-3l-9 3-8.9-3 9-3 8.9 3zm3.8 1.2l9.1 3.1-9 3-9.1-3 9-3.1zm9.1 11.7l-9 3-9-3 9-3.1 9 3.1zm-14.5 7.3l5.5-1.9 9 3-7.8 2.6c-2.2-1.1-4.5-2.4-6.7-3.7zm2.7 13.6c-3.4.3-3.8-.9-1.3-3.6 1-1.1 2.1-2.1 3.2-3l1-.3 8.9 3-11.8 3.9zm6.7-8.2l9-3 4 1.3c.4 1 .8 2 1.3 2.9l-5.4 1.8-8.9-3zm12.7 4.3l3-1c.6.7 1.2 1.3 1.8 1.9.4.4.9.8 1.4 1.2l-6.2-2.1zm35.1-5.9c-.3-1.8-.9-3.6-1.9-5.2l1.4-.4 6.4 2.1c-1.8 1.1-3.8 2.3-5.9 3.5zm2.7-26.3c.9-1 1.8-2 2.7-3.1l3.2 1.1-5.9 2zm9.7-.7l9 3-9.1 3-8.9-3 9-3zm-3.8 7.3l-9.1 3-5.1-1.6c1.5-1.2 3-2.6 4.6-4.2l.5-.2 9.1 3zm-13 4.3l-7.6 2.5-1.5-.2c.4-.2.7-.4 1.1-.5 1.5-.7 3-1.7 4.6-3l3.4 1.2zm4 1.3l8.8 3-8.9 3-5.7-2c-.7-.5-1.4-1-2.1-1.3l7.9-2.7zm8.8 8.8l-5.1-1.6 8.8-3 1.3.4c-1.5 1.5-3.1 2.9-5 4.2zm10.2-9.2l-6.3 2.1-8.9-3 9.1-3 7.4 2.4c-.4.5-.8.9-1.3 1.5zm3-3.3l-5.4-1.9 9.1-3h.1c-1.2 1.6-2.5 3.3-3.8 4.9zm6.4-8.4l-2.7.9-9-3 9.1-3.1 4.9 1.6c-.7 1.3-1.5 2.4-2.3 3.6zm3.6-5.5l-2.5-.9 3.6-1.2c-.4.7-.7 1.4-1.1 2.1zm-13.8-5.7c6.4.1 11.3 0 14.5-.1 1.2 0 1.8.3 1.8.8l-8.8 3-9-3.1 1.5-.6zm-5.2 1.8l9 3.1-9.1 3-5.4-1.8c.4-.4.7-.8 1.1-1.2.6-.7 1.1-1.4 1.6-2.1l2.8-1zm-57.1-3.6c7.3-.2 13.2-.3 17.9-.3 6.2 0 12.5-.1 18.9-.3 5.1-.2 9.3-.4 12.6-.4 4.5-.1 5.1 1.9 1.6 6.3-8 9.4-15 15.7-21 18.8-6 3.1-8.9 5-8.7 5.7.2.7.9.6 2-.1s2.4-1.2 3.7-1.3c4.3-.5 8 .7 11.1 3.6 2.6 2.4 4 5.3 4.2 8.7.1 2.4-1.4 4.5-4.6 6.2-2.5 1.3-5.7 2.1-9.8 2.3-4.5.2-8.6-1.4-12.3-4.7-2.9-2.8-4.6-6.3-5.2-10.5-.6-4.4.2-7.4 2.3-9.1 3.4-2.7 7.2-5.1 11.3-7.3 4.1-2.1 6-3.4 5.8-3.9s-1.7-.2-4.3.8c-2.7 1-6.5 3.2-11.5 6.8-.1-.3-1.7-2.2-4.7-5.7s-7.2-7.5-12.5-11.9c-2.9-2.4-1.9-3.6 3.2-3.7zm-7.1 3c.4.5 1.1 1.1 1.9 1.6l-2.1.7-7-2.3h7.2zm-13.3.7l9.1 3-8.9 3-9.1-3 8.9-3zm-19.9-1c4 .1 9 .2 15.1.2l-7.5 2.5-8.1-2.7h.5zm-1.3 2.3l4.9 1.6-3.5 1.2c-.4-.9-.9-1.9-1.4-2.8zm2.7 4.8l5.9-2 9 3.1-9 3-4.3-1.4c-.6-.9-1.1-1.8-1.6-2.7zm4.9 7.1l1.1-.3 9 3-6 2c-1.5-1.7-2.8-3.2-4.1-4.7zm6 6.4l7.9-2.6 9.2 3.1-9 3-7-2.3-1.1-1.2z"/><path d="M-66.9 431.3c1-.2 1.5-.7 1.3-1.5-.1-.9-4.1-1.4-11.9-1.5h-.2c-.1.8-.4 1.7-.8 2.4-.3.8-.7 1.5-1.4 2.1 6.8 4 10.6 5.5 11.4 4.6.5-.7.4-1.3-.4-1.9-.8-.6-3.9-2.2-9.5-4.8l.1-.2c6.6.6 10.4.9 11.4.8z" class="st423"/><path fill="#2a3b92" d="M-151 469.5c3.3 3.3 7.3 4.9 12 4.9h.7c-1.2.7-2.4 1.6-3.5 2.7-3.3 3.3-4.9 7.3-4.9 11.9s1.6 8.6 4.9 11.9c3.2 3.2 7.1 4.9 11.6 4.9-1.1 2.2-1.6 4.6-1.6 7.3 0 4.6 1.6 8.6 4.9 11.9s7.3 4.9 12 4.9c4.6 0 8.6-1.6 11.9-4.9 1-1 1.9-2.1 2.5-3.3.7 1.2 1.6 2.3 2.6 3.3 3.3 3.3 7.3 4.9 12 4.9 4.6 0 8.6-1.6 11.9-4.9s4.9-7.3 4.9-11.9c0-2.6-.5-5.1-1.6-7.3 4.2-.3 7.8-1.9 10.8-4.9 3.3-3.3 4.9-7.3 4.9-11.9s-1.6-8.6-4.9-11.9c-1.3-1.3-2.7-2.4-4.3-3.2 3-.7 5.7-2.2 8-4.5 3.3-3.3 4.9-7.3 4.9-11.9 0-2.6-.5-4.9-1.5-7 8.4 4.7 12.9 7 13.5 6.8.8-.2 1-.7.5-1.4s-6.2-4.4-17.1-10.9c2.5.1 6.7.4 12.7 1.1 6 .7 8.9.4 8.7-.8.1-.7-1.1-1.2-3.8-1.6-7.3-1.2-13.5-1.9-18.6-2.2-5.1-.3-9-.7-11.6-1.2-1.8-.4-6.2-3-12.4-6.9-.3.3-.6.4-1 .6l1.8 2.4c-1.4-.2-3.3-.5-4.9-.7-.5.2-.4.3-1 .4-3.6 4-7.9 4.2-11.4 1.4-.6-.1-1.1-.2-1.5-.4-.4-.1-.8-.2-1.1-.4-.6-.1-1.1-.3-1.6-.6-1.1-.3-1.9-1.1-2.4-1.9-.6.5-1.3.9-2.2 1.1-.5.2-1.1.3-1.8.3h-.2c-5.1.5-9.2 1.2-16.2-.3-.4.2-.8.4-1.1.6-.4.2-1.1.8-1.3.9-.5.4-.8.8-1.2 1.2-1.1.9-2 1.9-2.7 2.8h-8.2c-4.7 0-8.7 1.6-12 4.9-3.3 3.3-4.9 7.3-4.9 11.9-.1 4.7 1.5 8.6 4.8 11.9zm11.5-5.5c0-2.2.8-4.1 2.3-5.7 1.5-1.6 3.4-2.4 5.6-2.4s4.1.8 5.7 2.4c1.6 1.6 2.4 3.5 2.4 5.7s-.8 4.1-2.4 5.7c-1.6 1.6-3.5 2.4-5.7 2.4s-4.1-.8-5.6-2.4c-1.5-1.6-2.3-3.5-2.3-5.7zm12.2 11.2c1.5-1.6 3.4-2.4 5.6-2.4s4.1.8 5.7 2.4c1.6 1.6 2.4 3.5 2.4 5.7s-.8 4.1-2.4 5.7c-1.6 1.6-3.5 2.4-5.7 2.4s-4.1-.8-5.6-2.4c-1.5-1.6-2.3-3.5-2.3-5.7s.8-4.1 2.3-5.7zm-4.4 5c-2.1-.3-3.5-.6-4.1-.9-.7-.4-.7-1 .1-2 .7-.9 3.1-2.1 7-3.6-1.8 1.8-2.8 4-3 6.5zm-7 3.5c.4-.4 2.7-.7 7.1-1.1.2 1.2.6 2.2 1.2 3.2-4.9-.4-7.6-.8-8.1-1-.5-.3-.5-.6-.2-1.1zm-1.1 7.3c-.5-.5.9-1.2 4-1.8l6.9-1.5c.1.1.1.2.2.3 1.2 1.1 2.5 1.9 4 2.4l-10.4 1.1c-2.7.2-4.3.1-4.7-.5zm8.5 6.7c-2.6.5-4.3.4-5.1-.2-.8-.7.2-1.4 3-2.3l14.5-4.6c0 .1 0 .1-.1.2-1.5 1.4-2.4 3-2.7 4.9l-9.6 2zm5 6.9c-.3-.4-.1-1 .5-1.8.6-.7 1.9-1.9 3.8-3.4.1 1 .4 2 .9 2.9-3 1.8-4.8 2.6-5.2 2.3zm2.2 5.6c-.4-.2-.4-1 .1-2.2.5-1.2 1.7-2.8 3.5-4.8.4.7.9 1.2 1.4 1.8.3.3.6.5.9.8-3.5 3.1-5.4 4.6-5.9 4.4zm3.4 4.7c-.6-.7.4-3.7 3.1-8.9 1 .8 2.2 1.3 3.4 1.5-3.6 5.8-5.7 8.2-6.5 7.4zm4.2 2.8c-.2-.7.7-4.1 2.6-10.1.6.1 1.2.2 1.9.2.6 0 1.1 0 1.6-.1-2.4 5.6-4 8.8-4.6 9.7-.7.8-1.2.9-1.5.3zm6.3 3.9c-1.3-.1-1.3-4.8.1-14 1.3-.2 2.5-.7 3.6-1.5-1.1 10.4-2.3 15.6-3.7 15.5zm-1.8-15.8c-2.2 0-4.1-.8-5.6-2.4-1.5-1.6-2.3-3.5-2.3-5.7s.8-4.1 2.3-5.7c1.5-1.6 3.4-2.4 5.6-2.4s4.1.8 5.7 2.4c1.6 1.6 2.4 3.5 2.4 5.7s-.8 4.1-2.4 5.7c-1.6 1.6-3.5 2.4-5.7 2.4zm8.6 11.6c-.9-.1-1.8-3.9-2.9-11.4.4-.3.9-.7 1.3-1.1.7-.7 1.3-1.5 1.8-2.3.7 9.9.7 14.8-.2 14.8zm1.3-28.5c-2.2 0-4.1-.8-5.6-2.4-1.5-1.6-2.3-3.5-2.3-5.7s.8-4.1 2.3-5.7c1.5-1.6 3.4-2.4 5.6-2.4s4.1.8 5.7 2.4c1.6 1.6 2.4 3.5 2.4 5.7s-.8 4.1-2.4 5.7c-1.6 1.6-3.5 2.4-5.7 2.4zm4.1 3.2c1.5-1.6 3.4-2.4 5.6-2.4s4.1.8 5.7 2.4c1.6 1.6 2.4 3.5 2.4 5.7s-.8 4.1-2.4 5.7c-1.6 1.6-3.5 2.4-5.7 2.4s-4.1-.8-5.6-2.4c-1.5-1.6-2.3-3.5-2.3-5.7s.7-4.1 2.3-5.7zm25.3-12.9c2.9-.5 4.9-.7 6.2-.4 1.3.2 1.6.7.9 1.3-.7.7-3.1 1.3-7 2 .1-.4.1-.8.1-1.2 0-.6-.1-1.2-.2-1.7zm-.9-3c-.4-.8-1-1.5-1.5-2.2 2 .4 3.9.5 5.8.3-1.4.5-2.8 1.1-4.3 1.9zm6.4-6.5c-1.6 1.6-3.5 2.4-5.7 2.4s-4.1-.8-5.6-2.4c-1.5-1.6-2.3-3.5-2.3-5.7s.8-4.1 2.3-5.7c1.5-1.6 3.4-2.4 5.6-2.4s4.1.8 5.7 2.4c1.6 1.6 2.4 3.5 2.4 5.7s-.8 4.1-2.4 5.7zm-9.7 5.5c1.6 1.6 2.4 3.5 2.4 5.7s-.8 4.1-2.4 5.7c-1.6 1.6-3.5 2.4-5.7 2.4s-4.1-.8-5.6-2.4c-1.5-1.6-2.3-3.5-2.3-5.7s.8-4.1 2.3-5.7c1.5-1.6 3.4-2.4 5.6-2.4s4.1.8 5.7 2.4zm-20.6 42.2c-.5 1.3-1.1 1.8-1.8 1.3-.6-.4-.6-5 0-13.7 1 1 2.2 1.8 3.4 2.2-.5 5.5-1.1 8.9-1.6 10.2zm5.6 3.8c-1 .4-2.3-4.2-3.7-13.8 1 .3 2.1.4 3.2.4h.1c1.4 8.4 1.5 12.9.4 13.4zm6-3c-.6.5-2.6-3-5.9-10.4 1-.1 2-.3 3-.5 2.5 6.7 3.5 10.3 2.9 10.9zm3.9-3.2c-.7.6-2.9-2.1-6.8-7.9.7-.2 1.4-.5 2-1 3.9 5.4 5.5 8.3 4.8 8.9zm2-4.6c-1.3-.8-3.3-2.5-5.9-4.9l.5-.5c.7-.7 1.3-1.5 1.8-2.2 4.5 5.2 6.6 8 6.3 8.5-.3.2-1.2 0-2.7-.9zm4.5-4.4c-.3.4-3-.8-8-3.6.5-.9.8-1.9 1-3.1 2.4 2 4.2 3.4 5.5 4.4 1.3 1 1.9 1.8 1.5 2.3zm12.2-13.2c-.7.2-7.7-.2-20.9-1.3 6.3 2 11 3.6 14 4.8 3 1.1 4.6 1.9 4.6 2.3 0 .4-.2.7-.5.8-.3.1-5.7-.6-16.3-2.3-.1-.8-.2-1.6-.4-2.3l2.1.3c4 .8 4.3.6 1.1-.5l-3.7-1.3c-.5-1-1.2-1.8-2-2.5-.1-.1-.3-.3-.3-.4 1 .4 2 .5 3.2.5 2.5 0 4.6-.7 6.4-2.2 4 .7 7 1.1 9 1.4 2.4.4 3.8.9 4.3 1.5.3.6.1 1-.6 1.2zm.4-6.9c.1.8-1 1.2-3.2 1.2-1.9 0-4.7-.1-8.5-.2.7-.9 1.2-1.8 1.5-2.9 3.3 0 5.8.1 7.4.3 1.7.3 2.7.8 2.8 1.6zm6.7-30.3c-1.2.8-3.8 1.9-8 3.4-.4-.7-1-1.4-1.6-2-.2-.3-.5-.5-.8-.8 4.8-1.2 7.9-1.8 9.6-1.9 1.8-.1 2.1.3.8 1.3zm-3.6-4.4c-.8.6-3.5 2-8 4.2-1.5-.9-3.1-1.3-5.1-1.3h-.5c7.8-2.6 12.2-3.8 13.2-3.8 1.1-.2 1.3.2.4.9zm-3.6-5.6c2.1.1 2.4.5 1.1 1.4-1.2.7-5.1 2.4-11.5 5.1.9-1.5 1.3-3.1 1.3-4.9v-.8c4.3-.7 7.3-1 9.1-.8zm-4-2.2l-5.4 1.4c-.3-1.2-.8-2.4-1.5-3.4 2 1.2 4.3 1.8 6.9 2zm-20.7-1.9c1.5-1.6 3.4-2.4 5.6-2.4s4.1.8 5.7 2.4c1.6 1.6 2.4 3.5 2.4 5.7s-.8 4.1-2.4 5.7c-1.6 1.6-3.5 2.4-5.7 2.4s-4.1-.8-5.6-2.4c-1.5-1.6-2.3-3.5-2.3-5.7s.7-4.2 2.3-5.7zm-4.3 14.5c2.2 0 4.1.8 5.7 2.4 1.6 1.6 2.4 3.5 2.4 5.7s-.8 4.1-2.4 5.7c-1.6 1.6-3.5 2.4-5.7 2.4s-4.1-.8-5.6-2.4c-1.5-1.6-2.3-3.5-2.3-5.7s.8-4.1 2.3-5.7c1.5-1.6 3.4-2.4 5.6-2.4zm-15.3-14.5c1.5-1.6 3.4-2.4 5.6-2.4s4.1.8 5.7 2.4c1.6 1.6 2.4 3.5 2.4 5.7s-.8 4.1-2.4 5.7c-1.6 1.6-3.5 2.4-5.7 2.4s-4.1-.8-5.6-2.4c-1.5-1.6-2.3-3.5-2.3-5.7s.8-4.2 2.3-5.7zm1.4 16.9c1.6 1.6 2.4 3.5 2.4 5.7s-.8 4.1-2.4 5.7c-1.6 1.6-3.5 2.4-5.7 2.4s-4.1-.8-5.6-2.4c-1.5-1.6-2.3-3.5-2.3-5.7s.8-4.1 2.3-5.7c1.5-1.6 3.4-2.4 5.6-2.4s4.1.8 5.7 2.4zm-21-16.9c1.5-1.6 3.4-2.4 5.6-2.4s4.1.8 5.7 2.4c1.6 1.6 2.4 3.5 2.4 5.7s-.8 4.1-2.4 5.7c-1.6 1.6-3.5 2.4-5.7 2.4s-4.1-.8-5.6-2.4c-1.5-1.6-2.3-3.5-2.3-5.7s.8-4.2 2.3-5.7zm-4.2 4.3c-.1.4-.1.9-.1 1.3 0 1 .1 2 .4 3-7.3-2.5-10.8-4.2-10.5-5.1.2-.9 3.6-.7 10.2.8zm.8 5.7c.4 1 1.1 1.9 2 2.7.1.1.2.1.3.2-1-.3-2-.4-3.2-.4-.8 0-1.6.1-2.4.3-6.8-2.5-10.2-4.2-10.2-5.1 0-.9 4.5-.2 13.5 2.3z"/></g></switch></svg>