<svg xmlns="http://www.w3.org/2000/svg" id="svg2985" x="0" y="0" enable-background="new -214.5 269.4 255 361.9" version="1.1" viewBox="-214.5 269.4 255 361.9" xml:space="preserve"><style>.st275{enable-background:new}.st276{fill:#005f00}.st277{fill:#cddacd}.st278{fill:#fff}.st279{filter:url(#filter3970-5)}.st280{fill:#038249}.st281{fill:#2a3b92}</style><switch><g><filter id="filter3970-5" width="1.217" height="1.215" x="-.109" y="-.108" color-interpolation-filters="sRGB"><feGaussianBlur id="feGaussianBlur3972-8" stdDeviation=".128"/></filter><g id="g4630" class="st275" transform="matrix(1.0006 0 0 1 -1.376 203.406)"><g id="g3062"><path id="rect4031" d="M42 368.9l-.2-46.2.1-75.4c0-5.5-4.5-14.9-10-14.7 5.5.3 10-9.1 10-14.5l.1-115.8c.1-22.9-15.9-36.1-40.4-36.1h-154.5c-12.3 0-27.6 14-35.7 21.5-8 7.5-24.3 22.1-24.3 33.6v124.8c0 5.1 3.9 14.2 9 14.5-5 0-9 9-9 14v111.7c0 22.9 5.6 41.3 30.1 41.3l162.2.3c6.4 0 24.3-17.4 32.3-24.8 8.1-7.4 30.3-22.8 30.3-34.2z"/><path id="rect3767" d="M29.3 360.1V255.5c0-13.8-11.1-24.8-24.9-24.9l-152.4-.9c-2 0-32 12.6-32 25.8v104.6c0 13.8 11.1 24.9 24.9 24.9H4.4c13.8 0 24.9-11.1 24.9-24.9z" class="st276"/><path id="rect3861" d="M14.3 375.1v-99.6c0-13.8-11.2-24.9-24.9-24.9H-170c-13.8 0-24.9 11.1-24.9 24.9v99.6c0 13.8 11.2 24.9 24.9 24.9h159.4c13.8 0 24.9-11.2 24.9-24.9z" class="st277"/><path id="rect3765" d="M-.6 385V280.4c0-13.8-11.2-24.9-24.9-24.9H-175c-13.8 0-24.9 11.1-24.9 24.9V385c0 13.8 11.2 24.9 24.9 24.9h149.4c13.8 0 25-11.1 25-24.9z" class="st278"/><linearGradient id="rect3008_2_" x1="-303.791" x2="-303.791" y1="569.587" y2="531.068" gradientTransform="matrix(0 4.9837 4.9812 0 -2847.785 1854.184)" gradientUnits="userSpaceOnUse"><stop offset="0" stop-color="#d0e4cc"/><stop offset="1" stop-color="#fbffec"/></linearGradient><path id="rect3008" fill="url(#rect3008_2_)" d="M-10.6 285.4V395c0 11-8.9 19.9-19.9 19.9h-149.4c-11 0-19.9-8.9-19.9-19.9V285.4c0-11 8.9-19.9 19.9-19.9h149.4c11 0 19.9 8.9 19.9 19.9z"/><path id="path3932" d="M16.8 235.4c-1.5 0-2.8 1.3-2.8 2.8s1.3 2.8 2.8 2.8 2.8-1.3 2.8-2.8-1.2-2.8-2.8-2.8z" class="st278"/><g id="path3936" class="st279"><linearGradient id="SVGID_1_" x1="-330.564" x2="-333.68" y1="590.47" y2="587.001" gradientTransform="matrix(0 -7.1056 6.6848 0 -3926.449 -2112.465)" gradientUnits="userSpaceOnUse"><stop offset="0" stop-color="#fff"/><stop offset="1" stop-color="#fff" stop-opacity="0"/></linearGradient><path fill="url(#SVGID_1_)" d="M18.2 240.4l-24.6 28.8-6-8.2 28.3-25.2z"/></g><path id="path3882" d="M-5.1 252.7c-4.8 0-8.7 3.9-8.7 8.7 0 4.8 3.9 8.7 8.7 8.7 4.8 0 8.7-3.9 8.7-8.7 0-4.8-3.9-8.7-8.7-8.7z" class="st278"/></g></g><g id="g4630_1_" class="st275" transform="matrix(1.0006 0 0 1 -1.376 203.406)"><g id="g3062_1_"><path id="rect3767_1_" d="M29.3 209.1V104.5c0-13.8-11.1-24.8-24.9-24.9l-152.4-.9c-2 0-32 12.6-32 25.8v104.6c0 13.8 11.1 24.9 24.9 24.9H4.4c13.8 0 24.9-11.1 24.9-24.9z" class="st276"/><path id="rect3861_1_" d="M14.3 224.1v-99.6c0-13.8-11.2-24.9-24.9-24.9H-170c-13.8 0-24.9 11.1-24.9 24.9v99.6c0 13.8 11.2 24.9 24.9 24.9h159.4c13.8 0 24.9-11.2 24.9-24.9z" class="st277"/><path id="rect3765_1_" d="M-.6 234V129.4c0-13.8-11.2-24.9-24.9-24.9H-175c-13.8 0-24.9 11.1-24.9 24.9V234c0 13.8 11.2 24.9 24.9 24.9h149.4c13.8 0 25-11.1 25-24.9z" class="st278"/><linearGradient id="rect3008_3_" x1="-334.09" x2="-334.09" y1="569.587" y2="531.068" gradientTransform="matrix(0 4.9837 4.9812 0 -2847.785 1854.184)" gradientUnits="userSpaceOnUse"><stop offset="0" stop-color="#d0e4cc"/><stop offset="1" stop-color="#fbffec"/></linearGradient><path id="rect3008_1_" fill="url(#rect3008_3_)" d="M-10.6 134.4V244c0 11-8.9 19.9-19.9 19.9h-149.4c-11 0-19.9-8.9-19.9-19.9V134.4c0-11 8.9-19.9 19.9-19.9h149.4c11 0 19.9 8.9 19.9 19.9z"/><path id="path3932_1_" d="M16.8 84.4c-1.5 0-2.8 1.3-2.8 2.8 0 1.5 1.3 2.8 2.8 2.8s2.8-1.3 2.8-2.8c0-1.6-1.2-2.8-2.8-2.8z" class="st278"/><g id="path3936_1_" class="st279"><linearGradient id="SVGID_2_" x1="-309.313" x2="-312.429" y1="590.47" y2="587.001" gradientTransform="matrix(0 -7.1056 6.6848 0 -3926.449 -2112.465)" gradientUnits="userSpaceOnUse"><stop offset="0" stop-color="#fff"/><stop offset="1" stop-color="#fff" stop-opacity="0"/></linearGradient><path fill="url(#SVGID_2_)" d="M18.2 89.4l-24.6 28.8-6-8.2 28.3-25.2z"/></g><path id="path3882_1_" d="M-5.1 101.7c-4.8 0-8.7 3.9-8.7 8.7 0 4.8 3.9 8.7 8.7 8.7 4.8 0 8.7-3.9 8.7-8.7 0-4.8-3.9-8.7-8.7-8.7z" class="st278"/></g></g><g id="g3661" class="st275" transform="matrix(4.96327 0 0 4.98168 220.285 -219.446)"><g id="g3889" transform="matrix(.74429 0 0 .74429 -33.497 1.805)"><path id="path4301" d="M-31.4 188.6a6.7 6.7 0 106.7 6.7c.1-3.7-2.9-6.7-6.7-6.7z" class="st280"/><g id="g3847" transform="rotate(-45 17.625 29.531)"><path id="path3849" d="M-134.6 112.1s-1.2-1-2.7-1-2.7 1-2.7 1 1.2 1 2.7 1c1.5 0 2.7-1 2.7-1z" class="st278"/><path id="path3851" d="M-133.9 112.1s1.2 1 2.7 1 2.7-1 2.7-1-1.2-1-2.7-1-2.7 1-2.7 1z" class="st278"/><path id="path3853" d="M-134.2 111.8s1-1.2 1-2.7c0-1.5-1-2.7-1-2.7s-1 1.2-1 2.7c0 1.5 1 2.7 1 2.7z" class="st278"/><path id="path3855" d="M-134.2 112.5s-1 1.2-1 2.7c0 1.5 1 2.7 1 2.7s1-1.2 1-2.7-1-2.7-1-2.7z" class="st278"/></g></g><g id="g5324" transform="matrix(.74429 0 0 .74429 -45.497 1.805)"><path id="path5326" d="M-15.2 204.7a6.7 6.7 0 100 13.4 6.7 6.7 0 000-13.4z" class="st281"/><g id="g5328" transform="rotate(-45 17.625 29.531)"><path id="path5330" d="M-134.6 134.9s-1.2-1-2.7-1-2.7 1-2.7 1 1.2 1 2.7 1c1.5 0 2.7-1 2.7-1z" class="st278"/><path id="path5332" d="M-133.9 134.9s1.2 1 2.7 1c1.5 0 2.7-1 2.7-1s-1.2-1-2.7-1-2.7 1-2.7 1z" class="st278"/><path id="path5334" d="M-134.2 134.5s1-1.2 1-2.7c0-1.5-1-2.7-1-2.7s-1 1.2-1 2.7 1 2.7 1 2.7z" class="st278"/><path id="path5336" d="M-134.2 135.2s-1 1.2-1 2.7 1 2.7 1 2.7 1-1.2 1-2.7c0-1.5-1-2.7-1-2.7z" class="st278"/></g></g><g id="g5340" transform="matrix(.74429 0 0 .74429 -45.497 19.805)"><path id="path5342" d="M-39.5 180.5a6.7 6.7 0 100 13.4 6.7 6.7 0 000-13.4z" class="st280"/><g id="g5344" transform="rotate(-45 17.625 29.531)"><path id="path5346" d="M-134.6 100.6s-1.2-1-2.7-1-2.7 1-2.7 1 1.2 1 2.7 1c1.5 0 2.7-1 2.7-1z" class="st278"/><path id="path5348" d="M-133.9 100.6s1.2 1 2.7 1c1.5 0 2.7-1 2.7-1s-1.2-1-2.7-1-2.7 1-2.7 1z" class="st278"/><path id="path5350" d="M-134.3 100.3s1-1.2 1-2.7-1-2.7-1-2.7-1 1.2-1 2.7c0 1.5 1 2.7 1 2.7z" class="st278"/><path id="path5352" d="M-134.3 101s-1 1.2-1 2.7c0 1.5 1 2.7 1 2.7s1-1.2 1-2.7c0-1.5-1-2.7-1-2.7z" class="st278"/></g></g><g id="g5354" transform="matrix(.74429 0 0 .74429 -33.497 19.805)"><path id="path5356" d="M-55.6 164.4a6.7 6.7 0 100 13.4 6.7 6.7 0 000-13.4z" class="st281"/><g id="g5358" transform="rotate(-45 17.625 29.531)"><path id="path5360" d="M-134.7 77.9s-1.2-1-2.7-1-2.7 1-2.7 1 1.2 1 2.7 1c1.5 0 2.7-1 2.7-1z" class="st278"/><path id="path5362" d="M-134 77.9s1.2 1 2.7 1 2.7-1 2.7-1-1.2-1-2.7-1-2.7 1-2.7 1z" class="st278"/><path id="path5364" d="M-134.3 77.5s1-1.2 1-2.7c0-1.5-1-2.7-1-2.7s-1 1.2-1 2.7c0 1.5 1 2.7 1 2.7z" class="st278"/><path id="path5366" d="M-134.3 78.2s-1 1.2-1 2.7 1 2.7 1 2.7 1-1.2 1-2.7c0-1.5-1-2.7-1-2.7z" class="st278"/></g></g></g><g id="g3661_1_" class="st275" transform="matrix(4.96327 0 0 4.98168 220.285 -219.446)"><g id="g3889_1_" transform="matrix(.74429 0 0 .74429 -33.497 1.805)"><path id="path4301_1_" d="M-31.4 147.9a6.7 6.7 0 106.7 6.7c.1-3.7-2.9-6.7-6.7-6.7z" class="st280"/><g id="g3847_1_" transform="rotate(-45 17.625 29.531)"><path id="path3849_1_" d="M-105.8 83.3s-1.2-1-2.7-1c-1.5 0-2.7 1-2.7 1s1.2 1 2.7 1 2.7-1 2.7-1z" class="st278"/><path id="path3851_1_" d="M-105.1 83.3s1.2 1 2.7 1c1.5 0 2.7-1 2.7-1s-1.2-1-2.7-1-2.7 1-2.7 1z" class="st278"/><path id="path3853_1_" d="M-105.4 83s1-1.2 1-2.7c0-1.5-1-2.7-1-2.7s-1 1.2-1 2.7c-.1 1.5 1 2.7 1 2.7z" class="st278"/><path id="path3855_1_" d="M-105.4 83.7s-1 1.2-1 2.7c0 1.5 1 2.7 1 2.7s1-1.2 1-2.7-1-2.7-1-2.7z" class="st278"/></g></g><g id="g5324_1_" transform="matrix(.74429 0 0 .74429 -45.497 1.805)"><path id="path5326_1_" d="M-15.2 164a6.7 6.7 0 100 13.4 6.7 6.7 0 000-13.4z" class="st281"/><g id="g5328_1_" transform="rotate(-45 17.625 29.531)"><path id="path5330_1_" d="M-105.8 106.1s-1.2-1-2.7-1c-1.5 0-2.7 1-2.7 1s1.2 1 2.7 1c1.5 0 2.7-1 2.7-1z" class="st278"/><path id="path5332_1_" d="M-105.1 106.1s1.2 1 2.7 1 2.7-1 2.7-1-1.2-1-2.7-1-2.7 1-2.7 1z" class="st278"/><path id="path5334_1_" d="M-105.4 105.7s1-1.2 1-2.7c0-1.5-1-2.7-1-2.7s-1 1.2-1 2.7c0 1.5 1 2.7 1 2.7z" class="st278"/><path id="path5336_1_" d="M-105.4 106.4s-1 1.2-1 2.7 1 2.7 1 2.7 1-1.2 1-2.7-1-2.7-1-2.7z" class="st278"/></g></g><g id="g5340_1_" transform="matrix(.74429 0 0 .74429 -45.497 19.805)"><path id="path5342_1_" d="M-39.5 139.8a6.7 6.7 0 100 13.4 6.7 6.7 0 000-13.4z" class="st280"/><g id="g5344_1_" transform="rotate(-45 17.625 29.531)"><path id="path5346_1_" d="M-105.8 71.8s-1.2-1-2.7-1c-1.5 0-2.7 1-2.7 1s1.2 1 2.7 1c1.5 0 2.7-1 2.7-1z" class="st278"/><path id="path5348_1_" d="M-105.1 71.8s1.2 1 2.7 1 2.7-1 2.7-1-1.2-1-2.7-1-2.7 1-2.7 1z" class="st278"/><path id="path5350_1_" d="M-105.5 71.5s1-1.2 1-2.7-1-2.7-1-2.7-1 1.2-1 2.7c0 1.5 1 2.7 1 2.7z" class="st278"/><path id="path5352_1_" d="M-105.5 72.2s-1 1.2-1 2.7c0 1.5 1 2.7 1 2.7s1-1.2 1-2.7c0-1.5-1-2.7-1-2.7z" class="st278"/></g></g><g id="g5354_1_" transform="matrix(.74429 0 0 .74429 -33.497 19.805)"><path id="path5356_1_" d="M-55.6 123.7a6.7 6.7 0 100 13.4 6.7 6.7 0 000-13.4z" class="st281"/><g id="g5358_1_" transform="rotate(-45 17.625 29.531)"><path id="path5360_1_" d="M-105.9 49.1s-1.2-1-2.7-1c-1.5 0-2.7 1-2.7 1s1.2 1 2.7 1 2.7-1 2.7-1z" class="st278"/><path id="path5362_1_" d="M-105.2 49.1s1.2 1 2.7 1c1.5 0 2.7-1 2.7-1s-1.2-1-2.7-1-2.7 1-2.7 1z" class="st278"/><path id="path5364_1_" d="M-105.5 48.7s1-1.2 1-2.7c0-1.5-1-2.7-1-2.7s-1 1.2-1 2.7 1 2.7 1 2.7z" class="st278"/><path id="path5366_1_" d="M-105.5 49.4s-1 1.2-1 2.7c0 1.5 1 2.7 1 2.7s1-1.2 1-2.7c0-1.5-1-2.7-1-2.7z" class="st278"/></g></g></g></g></switch></svg>