<svg xmlns="http://www.w3.org/2000/svg" id="svg2985" x="0" y="0" enable-background="new -214.5 269.4 255 361.9" version="1.1" viewBox="-214.5 269.4 255 361.9" xml:space="preserve"><style>.st337{enable-background:new}.st338{fill:#005f00}.st339{fill:#cddacd}.st340{fill:#fff}.st341{filter:url(#filter3970-5)}.st342{fill:#bf3718}.st343{fill:#038249}</style><switch><g><filter id="filter3970-5" width="1.217" height="1.215" x="-.109" y="-.108" color-interpolation-filters="sRGB"><feGaussianBlur id="feGaussianBlur3972-8" stdDeviation=".128"/></filter><g id="g4630" class="st337" transform="matrix(1.0006 0 0 1 -1.376 203.406)"><g id="g3062"><path id="rect4031" d="M42 368.9l-.2-46.2.1-75.4c0-5.5-4.5-14.9-10-14.7 5.5.3 10-9.1 10-14.5l.1-115.8c.1-22.9-15.9-36.1-40.4-36.1h-154.5c-12.3 0-27.6 14-35.7 21.5-8 7.5-24.3 22.1-24.3 33.6v124.8c0 5.1 3.9 14.2 9 14.5-5 0-9 9-9 14v111.7c0 22.9 5.6 41.3 30.1 41.3l162.2.3c6.4 0 24.3-17.4 32.3-24.8 8.1-7.4 30.3-22.8 30.3-34.2z"/><path id="rect3767" d="M29.3 360.1V255.5c0-13.8-11.1-24.8-24.9-24.9l-152.4-.9c-2 0-32 12.6-32 25.8v104.6c0 13.8 11.1 24.9 24.9 24.9H4.4c13.8 0 24.9-11.1 24.9-24.9z" class="st338"/><path id="rect3861" d="M14.3 375.1v-99.6c0-13.8-11.2-24.9-24.9-24.9H-170c-13.8 0-24.9 11.1-24.9 24.9v99.6c0 13.8 11.2 24.9 24.9 24.9h159.4c13.8 0 24.9-11.2 24.9-24.9z" class="st339"/><path id="rect3765" d="M-.6 385V280.4c0-13.8-11.2-24.9-24.9-24.9H-175c-13.8 0-24.9 11.1-24.9 24.9V385c0 13.8 11.2 24.9 24.9 24.9h149.4c13.8 0 25-11.1 25-24.9z" class="st340"/><linearGradient id="rect3008_2_" x1="-303.791" x2="-303.791" y1="569.587" y2="531.068" gradientTransform="matrix(0 4.9837 4.9812 0 -2847.785 1854.184)" gradientUnits="userSpaceOnUse"><stop offset="0" stop-color="#d0e4cc"/><stop offset="1" stop-color="#fbffec"/></linearGradient><path id="rect3008" fill="url(#rect3008_2_)" d="M-10.6 285.4V395c0 11-8.9 19.9-19.9 19.9h-149.4c-11 0-19.9-8.9-19.9-19.9V285.4c0-11 8.9-19.9 19.9-19.9h149.4c11 0 19.9 8.9 19.9 19.9z"/><path id="path3932" d="M16.8 235.4c-1.5 0-2.8 1.3-2.8 2.8s1.3 2.8 2.8 2.8 2.8-1.3 2.8-2.8-1.2-2.8-2.8-2.8z" class="st340"/><g id="path3936" class="st341"><linearGradient id="SVGID_1_" x1="-330.564" x2="-333.68" y1="590.47" y2="587.001" gradientTransform="matrix(0 -7.1056 6.6848 0 -3926.449 -2112.465)" gradientUnits="userSpaceOnUse"><stop offset="0" stop-color="#fff"/><stop offset="1" stop-color="#fff" stop-opacity="0"/></linearGradient><path fill="url(#SVGID_1_)" d="M18.2 240.4l-24.6 28.8-6-8.2 28.3-25.2z"/></g><path id="path3882" d="M-5.1 252.7c-4.8 0-8.7 3.9-8.7 8.7 0 4.8 3.9 8.7 8.7 8.7 4.8 0 8.7-3.9 8.7-8.7 0-4.8-3.9-8.7-8.7-8.7z" class="st340"/></g></g><g id="g4630_1_" class="st337" transform="matrix(1.0006 0 0 1 -1.376 203.406)"><g id="g3062_1_"><path id="rect3767_1_" d="M29.3 209.1V104.5c0-13.8-11.1-24.8-24.9-24.9l-152.4-.9c-2 0-32 12.6-32 25.8v104.6c0 13.8 11.1 24.9 24.9 24.9H4.4c13.8 0 24.9-11.1 24.9-24.9z" class="st338"/><path id="rect3861_1_" d="M14.3 224.1v-99.6c0-13.8-11.2-24.9-24.9-24.9H-170c-13.8 0-24.9 11.1-24.9 24.9v99.6c0 13.8 11.2 24.9 24.9 24.9h159.4c13.8 0 24.9-11.2 24.9-24.9z" class="st339"/><path id="rect3765_1_" d="M-.6 234V129.4c0-13.8-11.2-24.9-24.9-24.9H-175c-13.8 0-24.9 11.1-24.9 24.9V234c0 13.8 11.2 24.9 24.9 24.9h149.4c13.8 0 25-11.1 25-24.9z" class="st340"/><linearGradient id="rect3008_3_" x1="-334.09" x2="-334.09" y1="569.587" y2="531.068" gradientTransform="matrix(0 4.9837 4.9812 0 -2847.785 1854.184)" gradientUnits="userSpaceOnUse"><stop offset="0" stop-color="#d0e4cc"/><stop offset="1" stop-color="#fbffec"/></linearGradient><path id="rect3008_1_" fill="url(#rect3008_3_)" d="M-10.6 134.4V244c0 11-8.9 19.9-19.9 19.9h-149.4c-11 0-19.9-8.9-19.9-19.9V134.4c0-11 8.9-19.9 19.9-19.9h149.4c11 0 19.9 8.9 19.9 19.9z"/><path id="path3932_1_" d="M16.8 84.4c-1.5 0-2.8 1.3-2.8 2.8 0 1.5 1.3 2.8 2.8 2.8s2.8-1.3 2.8-2.8c0-1.6-1.2-2.8-2.8-2.8z" class="st340"/><g id="path3936_1_" class="st341"><linearGradient id="SVGID_2_" x1="-309.313" x2="-312.429" y1="590.47" y2="587.001" gradientTransform="matrix(0 -7.1056 6.6848 0 -3926.449 -2112.465)" gradientUnits="userSpaceOnUse"><stop offset="0" stop-color="#fff"/><stop offset="1" stop-color="#fff" stop-opacity="0"/></linearGradient><path fill="url(#SVGID_2_)" d="M18.2 89.4l-24.6 28.8-6-8.2 28.3-25.2z"/></g><path id="path3882_1_" d="M-5.1 101.7c-4.8 0-8.7 3.9-8.7 8.7 0 4.8 3.9 8.7 8.7 8.7 4.8 0 8.7-3.9 8.7-8.7 0-4.8-3.9-8.7-8.7-8.7z" class="st340"/></g></g><g id="g5021" class="st337" transform="matrix(.9994 0 0 1 1.365 -203.394)"><g id="g5432" transform="matrix(2.9639 0 0 2.9677 60.694 76.783)"><path id="path5434" d="M-62.8 241a6.7 6.7 0 110-13.4 6.7 6.7 0 010 13.4z" class="st342"/><g id="g5436" transform="rotate(-45 17.625 29.531)"><path id="path5438" d="M-184 117.1s-1-1.2-1-2.7c0-1.5 1-2.7 1-2.7s1 1.2 1 2.7-1 2.7-1 2.7z" class="st340"/><path id="path5440" d="M-184 117.8s1 1.2 1 2.7-1 2.7-1 2.7-1-1.2-1-2.7 1-2.7 1-2.7z" class="st340"/><path id="path5442" d="M-184.3 117.4s-1.2 1-2.7 1c-1.5 0-2.7-1-2.7-1s1.2-1 2.7-1c1.5 0 2.7 1 2.7 1z" class="st340"/><path id="path5444" d="M-183.6 117.4s1.2-1 2.7-1c1.5 0 2.7 1 2.7 1s-1.2 1-2.7 1c-1.5 0-2.7-1-2.7-1z" class="st340"/></g></g><g id="g5773" transform="matrix(2.9639 0 0 2.9677 10.917 76.783)"><path id="path5775" d="M-46 224.2a6.7 6.7 0 110-13.4 6.7 6.7 0 010 13.4z" class="st342"/><g id="g5777" transform="rotate(-45 17.625 29.531)"><path id="path5779" d="M-160.2 117.1s-1-1.2-1-2.7c0-1.5 1-2.7 1-2.7s1 1.2 1 2.7-1 2.7-1 2.7z" class="st340"/><path id="path5781" d="M-160.2 117.8s1 1.2 1 2.7-1 2.7-1 2.7-1-1.2-1-2.7c0-1.5 1-2.7 1-2.7z" class="st340"/><path id="path5783" d="M-160.6 117.4s-1.2 1-2.7 1c-1.5 0-2.7-1-2.7-1s1.2-1 2.7-1c1.5 0 2.7 1 2.7 1z" class="st340"/><path id="path5785" d="M-159.9 117.4s1.2-1 2.7-1c1.5 0 2.7 1 2.7 1s-1.2 1-2.7 1c-1.5 0-2.7-1-2.7-1z" class="st340"/></g></g><g id="g5787" transform="matrix(2.9639 0 0 2.9677 60.694 124.13)"><path id="path5789" d="M-78.8 225a6.7 6.7 0 116.7-6.7c0 3.7-2.9 6.7-6.7 6.7z" class="st342"/><g id="g5791" transform="rotate(-45 17.625 29.531)"><path id="path5793" d="M-184 94.5s-1-1.2-1-2.7 1-2.7 1-2.7 1 1.2 1 2.7-1 2.7-1 2.7z" class="st340"/><path id="path5795" d="M-184 95.2s1 1.2 1 2.7-1 2.7-1 2.7-1-1.2-1-2.7 1-2.7 1-2.7z" class="st340"/><path id="path5797" d="M-184.4 94.8s-1.2 1-2.7 1c-1.5 0-2.7-1-2.7-1s1.2-1 2.7-1c1.5 0 2.7 1 2.7 1z" class="st340"/><path id="path5799" d="M-183.7 94.8s1.2-1 2.7-1c1.5 0 2.7 1 2.7 1s-1.2 1-2.7 1c-1.4 0-2.7-1-2.7-1z" class="st340"/></g></g><g id="g5801" transform="matrix(2.9639 0 0 2.9677 10.917 124.13)"><path id="path5803" d="M-62 208.2a6.7 6.7 0 110-13.4 6.7 6.7 0 010 13.4z" class="st342"/><g id="g5805" transform="rotate(-45 17.625 29.531)"><path id="path5807" d="M-160.3 94.5s-1-1.2-1-2.7c0-1.5 1-2.7 1-2.7s1 1.2 1 2.7-1 2.7-1 2.7z" class="st340"/><path id="path5809" d="M-160.3 95.2s1 1.2 1 2.7-1 2.7-1 2.7-1-1.2-1-2.7c0-1.5 1-2.7 1-2.7z" class="st340"/><path id="path5811" d="M-160.6 94.9s-1.2 1-2.7 1-2.7-1-2.7-1 1.2-1 2.7-1c1.5 0 2.7 1 2.7 1z" class="st340"/><path id="path5813" d="M-159.9 94.9s1.2-1 2.7-1c1.5 0 2.7 1 2.7 1s-1.2 1-2.7 1c-1.5 0-2.7-1-2.7-1z" class="st340"/></g></g><g id="g5488" transform="matrix(2.9639 0 0 2.9677 35.806 15.063)"><path id="path5490" d="M-33.5 253.4a6.7 6.7 0 110-13.4 6.7 6.7 0 010 13.4z" class="st343"/><g id="g5492" transform="rotate(-45 17.625 29.531)"><path id="path5494" d="M-172.1 146.5s-1-1.2-1-2.7c0-1.5 1-2.7 1-2.7s1 1.2 1 2.7c0 1.5-1 2.7-1 2.7z" class="st340"/><path id="path5496" d="M-172.1 147.2s1 1.2 1 2.7c0 1.5-1 2.7-1 2.7s-1-1.2-1-2.7c0-1.5 1-2.7 1-2.7z" class="st340"/><path id="path5498" d="M-172.4 146.9s-1.2 1-2.7 1c-1.5 0-2.7-1-2.7-1s1.2-1 2.7-1c1.5 0 2.7 1 2.7 1z" class="st340"/><path id="path5500" d="M-171.7 146.9s1.2-1 2.7-1c1.5 0 2.7 1 2.7 1s-1.2 1-2.7 1c-1.5 0-2.7-1-2.7-1z" class="st340"/></g></g><g id="g5887" transform="matrix(2.9639 0 0 2.9677 75.628 35)"><path id="path5889" d="M-53.7 260.1a6.7 6.7 0 110-13.4 6.7 6.7 0 010 13.4z" class="st343"/><g id="g5891" transform="rotate(-45 17.625 29.531)"><path id="path5893" d="M-191.1 137s-1-1.2-1-2.7c0-1.5 1-2.7 1-2.7s1 1.2 1 2.7c0 1.5-1 2.7-1 2.7z" class="st340"/><path id="path5895" d="M-191.1 137.7s1 1.2 1 2.7c0 1.5-1 2.7-1 2.7s-1-1.2-1-2.7c0-1.5 1-2.7 1-2.7z" class="st340"/><path id="path5897" d="M-191.4 137.4s-1.2 1-2.7 1c-1.5 0-2.7-1-2.7-1s1.2-1 2.7-1c1.5 0 2.7 1 2.7 1z" class="st340"/><path id="path5899" d="M-190.7 137.4s1.2-1 2.7-1c1.5 0 2.7 1 2.7 1s-1.2 1-2.7 1c-1.5 0-2.7-1-2.7-1z" class="st340"/></g></g><g id="g5901" transform="matrix(2.9639 0 0 2.9677 -4.016 -4.873)"><path id="path5903" d="M-13.4 246.7a6.7 6.7 0 110-13.4 6.7 6.7 0 010 13.4z" class="st343"/><g id="g5905" transform="rotate(-45 17.625 29.531)"><path id="path5907" d="M-153.1 156s-1-1.2-1-2.7c0-1.5 1-2.7 1-2.7s1 1.2 1 2.7c0 1.5-1 2.7-1 2.7z" class="st340"/><path id="path5909" d="M-153.1 156.7s1 1.2 1 2.7c0 1.5-1 2.7-1 2.7s-1-1.2-1-2.7c0-1.4 1-2.7 1-2.7z" class="st340"/><path id="path5911" d="M-153.4 156.4s-1.2 1-2.7 1c-1.5 0-2.7-1-2.7-1s1.2-1 2.7-1c1.5 0 2.7 1 2.7 1z" class="st340"/><path id="path5913" d="M-152.7 156.4s1.2-1 2.7-1c1.5 0 2.7 1 2.7 1s-1.2 1-2.7 1c-1.5 0-2.7-1-2.7-1z" class="st340"/></g></g></g><g id="g5021_1_" class="st337" transform="matrix(.9994 0 0 1 1.365 -203.394)"><g id="g5432_1_" transform="matrix(2.9639 0 0 2.9677 60.694 76.783)"><path id="path5434_1_" d="M-62.8 190a6.7 6.7 0 110-13.4 6.7 6.7 0 010 13.4z" class="st342"/><g id="g5436_1_" transform="rotate(-45 17.625 29.531)"><path id="path5438_1_" d="M-148 81.1s-1-1.2-1-2.7c0-1.5 1-2.7 1-2.7s1 1.2 1 2.7-1 2.7-1 2.7z" class="st340"/><path id="path5440_1_" d="M-148 81.8s1 1.2 1 2.7c0 1.5-1 2.7-1 2.7s-1-1.2-1-2.7c0-1.5 1-2.7 1-2.7z" class="st340"/><path id="path5442_1_" d="M-148.3 81.4s-1.2 1-2.7 1c-1.5 0-2.7-1-2.7-1s1.2-1 2.7-1c1.5 0 2.7 1 2.7 1z" class="st340"/><path id="path5444_1_" d="M-147.6 81.4s1.2-1 2.7-1c1.5 0 2.7 1 2.7 1s-1.2 1-2.7 1c-1.5 0-2.7-1-2.7-1z" class="st340"/></g></g><g id="g5773_1_" transform="matrix(2.9639 0 0 2.9677 10.917 76.783)"><path id="path5775_1_" d="M-46 173.3a6.7 6.7 0 110-13.4 6.7 6.7 0 010 13.4z" class="st342"/><g id="g5777_1_" transform="rotate(-45 17.625 29.531)"><path id="path5779_1_" d="M-124.2 81.1s-1-1.2-1-2.7c0-1.5 1-2.7 1-2.7s1 1.2 1 2.7c0 1.5-1 2.7-1 2.7z" class="st340"/><path id="path5781_1_" d="M-124.2 81.8s1 1.2 1 2.7c0 1.5-1 2.7-1 2.7s-1-1.2-1-2.7c0-1.5 1-2.7 1-2.7z" class="st340"/><path id="path5783_1_" d="M-124.6 81.4s-1.2 1-2.7 1c-1.5 0-2.7-1-2.7-1s1.2-1 2.7-1c1.5 0 2.7 1 2.7 1z" class="st340"/><path id="path5785_1_" d="M-123.9 81.4s1.2-1 2.7-1c1.5 0 2.7 1 2.7 1s-1.2 1-2.7 1-2.7-1-2.7-1z" class="st340"/></g></g><g id="g5787_1_" transform="matrix(2.9639 0 0 2.9677 60.694 124.13)"><path id="path5789_1_" d="M-78.8 174.1a6.7 6.7 0 116.7-6.7c0 3.7-2.9 6.7-6.7 6.7z" class="st342"/><g id="g5791_1_" transform="rotate(-45 17.625 29.531)"><path id="path5793_1_" d="M-148 58.5s-1-1.2-1-2.7c0-1.5 1-2.7 1-2.7s1 1.2 1 2.7c0 1.5-1 2.7-1 2.7z" class="st340"/><path id="path5795_1_" d="M-148 59.2s1 1.2 1 2.7c0 1.5-1 2.7-1 2.7s-1-1.2-1-2.7c0-1.5 1-2.7 1-2.7z" class="st340"/><path id="path5797_1_" d="M-148.3 58.8s-1.2 1-2.7 1c-1.5 0-2.7-1-2.7-1s1.2-1 2.7-1c1.4 0 2.7 1 2.7 1z" class="st340"/><path id="path5799_1_" d="M-147.6 58.8s1.2-1 2.7-1c1.5 0 2.7 1 2.7 1s-1.2 1-2.7 1c-1.5 0-2.7-1-2.7-1z" class="st340"/></g></g><g id="g5801_1_" transform="matrix(2.9639 0 0 2.9677 10.917 124.13)"><path id="path5803_1_" d="M-62 157.3a6.7 6.7 0 110-13.4 6.7 6.7 0 010 13.4z" class="st342"/><g id="g5805_1_" transform="rotate(-45 17.625 29.531)"><path id="path5807_1_" d="M-124.3 58.5s-1-1.2-1-2.7c0-1.5 1-2.7 1-2.7s1 1.2 1 2.7c0 1.5-1 2.7-1 2.7z" class="st340"/><path id="path5809_1_" d="M-124.3 59.2s1 1.2 1 2.7c0 1.5-1 2.7-1 2.7s-1-1.2-1-2.7c0-1.5 1-2.7 1-2.7z" class="st340"/><path id="path5811_1_" d="M-124.6 58.9s-1.2 1-2.7 1c-1.5 0-2.7-1-2.7-1s1.2-1 2.7-1c1.5 0 2.7 1 2.7 1z" class="st340"/><path id="path5813_1_" d="M-123.9 58.9s1.2-1 2.7-1 2.7 1 2.7 1-1.2 1-2.7 1-2.7-1-2.7-1z" class="st340"/></g></g><g id="g5488_1_" transform="matrix(2.9639 0 0 2.9677 35.806 15.063)"><path id="path5490_1_" d="M-33.5 202.4a6.7 6.7 0 110-13.4 6.7 6.7 0 010 13.4z" class="st343"/><g id="g5492_1_" transform="rotate(-45 17.625 29.531)"><path id="path5494_1_" d="M-136.1 110.5s-1-1.2-1-2.7 1-2.7 1-2.7 1 1.2 1 2.7c0 1.5-1 2.7-1 2.7z" class="st340"/><path id="path5496_1_" d="M-136.1 111.2s1 1.2 1 2.7-1 2.7-1 2.7-1-1.2-1-2.7 1-2.7 1-2.7z" class="st340"/><path id="path5498_1_" d="M-136.4 110.9s-1.2 1-2.7 1c-1.5 0-2.7-1-2.7-1s1.2-1 2.7-1c1.5 0 2.7 1 2.7 1z" class="st340"/><path id="path5500_1_" d="M-135.7 110.9s1.2-1 2.7-1c1.5 0 2.7 1 2.7 1s-1.2 1-2.7 1c-1.5 0-2.7-1-2.7-1z" class="st340"/></g></g><g id="g5887_1_" transform="matrix(2.9639 0 0 2.9677 75.628 35)"><path id="path5889_1_" d="M-53.7 209.1a6.7 6.7 0 110-13.4 6.7 6.7 0 010 13.4z" class="st343"/><g id="g5891_1_" transform="rotate(-45 17.625 29.531)"><path id="path5893_1_" d="M-155.1 101s-1-1.2-1-2.7 1-2.7 1-2.7 1 1.2 1 2.7c0 1.5-1 2.7-1 2.7z" class="st340"/><path id="path5895_1_" d="M-155.1 101.7s1 1.2 1 2.7c0 1.5-1 2.7-1 2.7s-1-1.2-1-2.7 1-2.7 1-2.7z" class="st340"/><path id="path5897_1_" d="M-155.4 101.3s-1.2 1-2.7 1c-1.5 0-2.7-1-2.7-1s1.2-1 2.7-1c1.5 0 2.7 1 2.7 1z" class="st340"/><path id="path5899_1_" d="M-154.7 101.3s1.2-1 2.7-1 2.7 1 2.7 1-1.2 1-2.7 1c-1.5.1-2.7-1-2.7-1z" class="st340"/></g></g><g id="g5901_1_" transform="matrix(2.9639 0 0 2.9677 -4.016 -4.873)"><path id="path5903_1_" d="M-13.4 195.7a6.7 6.7 0 110-13.4 6.7 6.7 0 010 13.4z" class="st343"/><g id="g5905_1_" transform="rotate(-45 17.625 29.531)"><path id="path5907_1_" d="M-117.1 120s-1-1.2-1-2.7c0-1.5 1-2.7 1-2.7s1 1.2 1 2.7c0 1.5-1 2.7-1 2.7z" class="st340"/><path id="path5909_1_" d="M-117.1 120.7s1 1.2 1 2.7c0 1.5-1 2.7-1 2.7s-1-1.2-1-2.7c0-1.5 1-2.7 1-2.7z" class="st340"/><path id="path5911_1_" d="M-117.4 120.4s-1.2 1-2.7 1c-1.5 0-2.7-1-2.7-1s1.2-1 2.7-1c1.5 0 2.7 1 2.7 1z" class="st340"/><path id="path5913_1_" d="M-116.7 120.4s1.2-1 2.7-1c1.5 0 2.7 1 2.7 1s-1.2 1-2.7 1-2.7-1-2.7-1z" class="st340"/></g></g></g></g></switch></svg>