<svg xmlns="http://www.w3.org/2000/svg" id="svg2985" x="0" y="0" enable-background="new -214.5 269.4 255 361.9" version="1.1" viewBox="-214.5 269.4 255 361.9" xml:space="preserve"><style>.st314{enable-background:new}.st315{fill:#005f00}.st316{fill:#cddacd}.st317{fill:#fff}.st318{filter:url(#filter3970-5)}.st319{fill:#bf3718}.st320{fill:#038249}</style><switch><g><filter id="filter3970-5" width="1.217" height="1.215" x="-.109" y="-.108" color-interpolation-filters="sRGB"><feGaussianBlur id="feGaussianBlur3972-8" stdDeviation=".128"/></filter><g id="g4630" class="st314" transform="matrix(1.0006 0 0 1 -1.376 203.406)"><g id="g3062"><path id="rect4031" d="M42 368.9l-.2-46.2.1-75.4c0-5.5-4.5-14.9-10-14.7 5.5.3 10-9.1 10-14.5l.1-115.8c.1-22.9-15.9-36.1-40.4-36.1h-154.5c-12.3 0-27.6 14-35.7 21.5-8 7.5-24.3 22.1-24.3 33.6v124.8c0 5.1 3.9 14.2 9 14.5-5 0-9 9-9 14v111.7c0 22.9 5.6 41.3 30.1 41.3l162.2.3c6.4 0 24.3-17.4 32.3-24.8 8.1-7.4 30.3-22.8 30.3-34.2z"/><path id="rect3767" d="M29.3 360.1V255.5c0-13.8-11.1-24.8-24.9-24.9l-152.4-.9c-2 0-32 12.6-32 25.8v104.6c0 13.8 11.1 24.9 24.9 24.9H4.4c13.8 0 24.9-11.1 24.9-24.9z" class="st315"/><path id="rect3861" d="M14.3 375.1v-99.6c0-13.8-11.2-24.9-24.9-24.9H-170c-13.8 0-24.9 11.1-24.9 24.9v99.6c0 13.8 11.2 24.9 24.9 24.9h159.4c13.8 0 24.9-11.2 24.9-24.9z" class="st316"/><path id="rect3765" d="M-.6 385V280.4c0-13.8-11.2-24.9-24.9-24.9H-175c-13.8 0-24.9 11.1-24.9 24.9V385c0 13.8 11.2 24.9 24.9 24.9h149.4c13.8 0 25-11.1 25-24.9z" class="st317"/><linearGradient id="rect3008_2_" x1="-303.791" x2="-303.791" y1="569.587" y2="531.068" gradientTransform="matrix(0 4.9837 4.9812 0 -2847.785 1854.184)" gradientUnits="userSpaceOnUse"><stop offset="0" stop-color="#d0e4cc"/><stop offset="1" stop-color="#fbffec"/></linearGradient><path id="rect3008" fill="url(#rect3008_2_)" d="M-10.6 285.4V395c0 11-8.9 19.9-19.9 19.9h-149.4c-11 0-19.9-8.9-19.9-19.9V285.4c0-11 8.9-19.9 19.9-19.9h149.4c11 0 19.9 8.9 19.9 19.9z"/><path id="path3932" d="M16.8 235.4c-1.5 0-2.8 1.3-2.8 2.8s1.3 2.8 2.8 2.8 2.8-1.3 2.8-2.8-1.2-2.8-2.8-2.8z" class="st317"/><g id="path3936" class="st318"><linearGradient id="SVGID_1_" x1="-330.564" x2="-333.68" y1="590.47" y2="587.001" gradientTransform="matrix(0 -7.1056 6.6848 0 -3926.449 -2112.465)" gradientUnits="userSpaceOnUse"><stop offset="0" stop-color="#fff"/><stop offset="1" stop-color="#fff" stop-opacity="0"/></linearGradient><path fill="url(#SVGID_1_)" d="M18.2 240.4l-24.6 28.8-6-8.2 28.3-25.2z"/></g><path id="path3882" d="M-5.1 252.7c-4.8 0-8.7 3.9-8.7 8.7 0 4.8 3.9 8.7 8.7 8.7 4.8 0 8.7-3.9 8.7-8.7 0-4.8-3.9-8.7-8.7-8.7z" class="st317"/></g></g><g id="g4630_1_" class="st314" transform="matrix(1.0006 0 0 1 -1.376 203.406)"><g id="g3062_1_"><path id="rect3767_1_" d="M29.3 209.1V104.5c0-13.8-11.1-24.8-24.9-24.9l-152.4-.9c-2 0-32 12.6-32 25.8v104.6c0 13.8 11.1 24.9 24.9 24.9H4.4c13.8 0 24.9-11.1 24.9-24.9z" class="st315"/><path id="rect3861_1_" d="M14.3 224.1v-99.6c0-13.8-11.2-24.9-24.9-24.9H-170c-13.8 0-24.9 11.1-24.9 24.9v99.6c0 13.8 11.2 24.9 24.9 24.9h159.4c13.8 0 24.9-11.2 24.9-24.9z" class="st316"/><path id="rect3765_1_" d="M-.6 234V129.4c0-13.8-11.2-24.9-24.9-24.9H-175c-13.8 0-24.9 11.1-24.9 24.9V234c0 13.8 11.2 24.9 24.9 24.9h149.4c13.8 0 25-11.1 25-24.9z" class="st317"/><linearGradient id="rect3008_3_" x1="-334.09" x2="-334.09" y1="569.587" y2="531.068" gradientTransform="matrix(0 4.9837 4.9812 0 -2847.785 1854.184)" gradientUnits="userSpaceOnUse"><stop offset="0" stop-color="#d0e4cc"/><stop offset="1" stop-color="#fbffec"/></linearGradient><path id="rect3008_1_" fill="url(#rect3008_3_)" d="M-10.6 134.4V244c0 11-8.9 19.9-19.9 19.9h-149.4c-11 0-19.9-8.9-19.9-19.9V134.4c0-11 8.9-19.9 19.9-19.9h149.4c11 0 19.9 8.9 19.9 19.9z"/><path id="path3932_1_" d="M16.8 84.4c-1.5 0-2.8 1.3-2.8 2.8 0 1.5 1.3 2.8 2.8 2.8s2.8-1.3 2.8-2.8c0-1.6-1.2-2.8-2.8-2.8z" class="st317"/><g id="path3936_1_" class="st318"><linearGradient id="SVGID_2_" x1="-309.313" x2="-312.429" y1="590.47" y2="587.001" gradientTransform="matrix(0 -7.1056 6.6848 0 -3926.449 -2112.465)" gradientUnits="userSpaceOnUse"><stop offset="0" stop-color="#fff"/><stop offset="1" stop-color="#fff" stop-opacity="0"/></linearGradient><path fill="url(#SVGID_2_)" d="M18.2 89.4l-24.6 28.8-6-8.2 28.3-25.2z"/></g><path id="path3882_1_" d="M-5.1 101.7c-4.8 0-8.7 3.9-8.7 8.7 0 4.8 3.9 8.7 8.7 8.7 4.8 0 8.7-3.9 8.7-8.7 0-4.8-3.9-8.7-8.7-8.7z" class="st317"/></g></g><g id="g5676" class="st314" transform="matrix(4.97482 0 0 4.97215 211.388 -208.89)"><g id="g5368" transform="matrix(.74429 0 0 .74429 -31.898 8.745)"><path id="path5370" d="M-44.1 177.2a6.7 6.7 0 100 13.4 6.7 6.7 0 000-13.4z" class="st319"/><g id="g5372" transform="rotate(-45 17.625 29.531)"><path id="path5374" d="M-135.5 95s-1.2-1-2.7-1c-1.5 0-2.7 1-2.7 1s1.2 1 2.7 1 2.7-1 2.7-1z" class="st317"/><path id="path5376" d="M-134.8 95s1.2 1 2.7 1c1.5 0 2.7-1 2.7-1s-1.2-1-2.7-1c-1.5 0-2.7 1-2.7 1z" class="st317"/><path id="path5378" d="M-135.2 94.7s1-1.2 1-2.7c0-1.5-1-2.7-1-2.7s-1 1.2-1 2.7c0 1.5 1 2.7 1 2.7z" class="st317"/><path id="path5380" d="M-135.2 95.4s-1 1.2-1 2.7c0 1.5 1 2.7 1 2.7s1-1.2 1-2.7c0-1.5-1-2.7-1-2.7z" class="st317"/></g></g><g id="g5432" transform="matrix(.74429 0 0 .74429 -43.398 8.745)"><path id="path5434" d="M-28.7 192.6a6.7 6.7 0 100 13.4 6.7 6.7 0 000-13.4z" class="st319"/><g id="g5436" transform="rotate(-45 17.625 29.531)"><path id="path5438" d="M-135.5 116.9s-1.2-1-2.7-1-2.7 1-2.7 1 1.2 1 2.7 1c1.5 0 2.7-1 2.7-1z" class="st317"/><path id="path5440" d="M-134.8 116.9s1.2 1 2.7 1c1.5 0 2.7-1 2.7-1s-1.2-1-2.7-1-2.7 1-2.7 1z" class="st317"/><path id="path5442" d="M-135.2 116.5s1-1.2 1-2.7c0-1.5-1-2.7-1-2.7s-1 1.2-1 2.7c0 1.5 1 2.7 1 2.7z" class="st317"/><path id="path5444" d="M-135.2 117.2s-1 1.2-1 2.7c0 1.5 1 2.7 1 2.7s1-1.2 1-2.7c0-1.5-1-2.7-1-2.7z" class="st317"/></g></g><g id="g5446" transform="matrix(.74429 0 0 .74429 -31.898 19.544)"><path id="path5448" d="M-58.6 162.6a6.7 6.7 0 100 13.4 6.7 6.7 0 000-13.4z" class="st319"/><g id="g5450" transform="rotate(-45 17.625 29.531)"><path id="path5452" d="M-135.5 74.5s-1.2-1-2.7-1-2.7 1-2.7 1 1.2 1 2.7 1c1.5 0 2.7-1 2.7-1z" class="st317"/><path id="path5454" d="M-134.8 74.5s1.2 1 2.7 1c1.5 0 2.7-1 2.7-1s-1.2-1-2.7-1-2.7 1-2.7 1z" class="st317"/><path id="path5456" d="M-135.2 74.1s1-1.2 1-2.7c0-1.5-1-2.7-1-2.7s-1 1.2-1 2.7c0 1.5 1 2.7 1 2.7z" class="st317"/><path id="path5458" d="M-135.2 74.8s-1 1.2-1 2.7c0 1.5 1 2.7 1 2.7s1-1.2 1-2.7c0-1.4-1-2.7-1-2.7z" class="st317"/></g></g><g id="g5460" transform="matrix(.74429 0 0 .74429 -43.398 19.544)"><path id="path5462" d="M-43.2 178.1a6.7 6.7 0 100 13.4 6.7 6.7 0 000-13.4z" class="st319"/><g id="g5464" transform="rotate(-45 17.625 29.531)"><path id="path5466" d="M-135.5 96.4s-1.2-1-2.7-1c-1.5 0-2.7 1-2.7 1s1.2 1 2.7 1c1.5 0 2.7-1 2.7-1z" class="st317"/><path id="path5468" d="M-134.8 96.4s1.2 1 2.7 1c1.5 0 2.7-1 2.7-1s-1.2-1-2.7-1c-1.5 0-2.7 1-2.7 1z" class="st317"/><path id="path5470" d="M-135.2 96s1-1.2 1-2.7c0-1.5-1-2.7-1-2.7s-1 1.2-1 2.7c0 1.5 1 2.7 1 2.7z" class="st317"/><path id="path5472" d="M-135.2 96.7s-1 1.2-1 2.7c0 1.5 1 2.7 1 2.7s1-1.2 1-2.7c0-1.5-1-2.7-1-2.7z" class="st317"/></g></g><g id="g5474" transform="matrix(.74429 0 0 .74429 -31.898 -2.056)"><path id="path5476" d="M-27.5 191.7a6.7 6.7 0 106.7 6.7c0-3.7-2.9-6.7-6.7-6.7z" class="st320"/><g id="g5478" transform="rotate(-45 17.625 29.531)"><path id="path5480" d="M-134 117.1s-1.2-1-2.7-1c-1.5 0-2.7 1-2.7 1s1.2 1 2.7 1c1.5 0 2.7-1 2.7-1z" class="st317"/><path id="path5482" d="M-133.3 117.1s1.2 1 2.7 1c1.5 0 2.7-1 2.7-1s-1.2-1-2.7-1c-1.5 0-2.7 1-2.7 1z" class="st317"/><path id="path5484" d="M-133.7 116.7s1-1.2 1-2.7c0-1.5-1-2.7-1-2.7s-1 1.2-1 2.7c0 1.5 1 2.7 1 2.7z" class="st317"/><path id="path5486" d="M-133.7 117.4s-1 1.2-1 2.7c0 1.5 1 2.7 1 2.7s1-1.2 1-2.7c0-1.5-1-2.7-1-2.7z" class="st317"/></g></g><g id="g5488" transform="matrix(.74429 0 0 .74429 -43.398 -2.056)"><path id="path5490" d="M-12 207.1a6.7 6.7 0 100 13.4 6.7 6.7 0 000-13.4z" class="st320"/><g id="g5492" transform="rotate(-45 17.625 29.531)"><path id="path5494" d="M-134 138.9s-1.2-1-2.7-1-2.7 1-2.7 1 1.2 1 2.7 1c1.5 0 2.7-1 2.7-1z" class="st317"/><path id="path5496" d="M-133.3 138.9s1.2 1 2.7 1c1.5 0 2.7-1 2.7-1s-1.2-1-2.7-1c-1.5 0-2.7 1-2.7 1z" class="st317"/><path id="path5498" d="M-133.7 138.6s1-1.2 1-2.7c0-1.5-1-2.7-1-2.7s-1 1.2-1 2.7c0 1.5 1 2.7 1 2.7z" class="st317"/><path id="path5500" d="M-133.7 139.3s-1 1.2-1 2.7c0 1.5 1 2.7 1 2.7s1-1.2 1-2.7c0-1.5-1-2.7-1-2.7z" class="st317"/></g></g></g><g id="g5676_1_" class="st314" transform="matrix(4.97482 0 0 4.97215 211.388 -208.89)"><g id="g5368_1_" transform="matrix(.74429 0 0 .74429 -31.898 8.745)"><path id="path5370_1_" d="M-44.1 136.3a6.7 6.7 0 100 13.4 6.7 6.7 0 000-13.4z" class="st319"/><g id="g5372_1_" transform="rotate(-45 17.625 29.531)"><path id="path5374_1_" d="M-106.6 66.1s-1.2-1-2.7-1c-1.5 0-2.7 1-2.7 1s1.2 1 2.7 1c1.4 0 2.7-1 2.7-1z" class="st317"/><path id="path5376_1_" d="M-105.9 66.1s1.2 1 2.7 1c1.5 0 2.7-1 2.7-1s-1.2-1-2.7-1c-1.5 0-2.7 1-2.7 1z" class="st317"/><path id="path5378_1_" d="M-106.3 65.8s1-1.2 1-2.7c0-1.5-1-2.7-1-2.7s-1 1.2-1 2.7c0 1.5 1 2.7 1 2.7z" class="st317"/><path id="path5380_1_" d="M-106.3 66.5s-1 1.2-1 2.7 1 2.7 1 2.7 1-1.2 1-2.7c0-1.5-1-2.7-1-2.7z" class="st317"/></g></g><g id="g5432_1_" transform="matrix(.74429 0 0 .74429 -43.398 8.745)"><path id="path5434_1_" d="M-28.7 151.8a6.7 6.7 0 100 13.4 6.7 6.7 0 000-13.4z" class="st319"/><g id="g5436_1_" transform="rotate(-45 17.625 29.531)"><path id="path5438_1_" d="M-106.7 88s-1.2-1-2.7-1c-1.5 0-2.7 1-2.7 1s1.2 1 2.7 1c1.5 0 2.7-1 2.7-1z" class="st317"/><path id="path5440_1_" d="M-106 88s1.2 1 2.7 1 2.7-1 2.7-1-1.2-1-2.7-1c-1.4 0-2.7 1-2.7 1z" class="st317"/><path id="path5442_1_" d="M-106.3 87.6s1-1.2 1-2.7-1-2.7-1-2.7-1 1.2-1 2.7c0 1.5 1 2.7 1 2.7z" class="st317"/><path id="path5444_1_" d="M-106.3 88.3s-1 1.2-1 2.7c0 1.5 1 2.7 1 2.7s1-1.2 1-2.7-1-2.7-1-2.7z" class="st317"/></g></g><g id="g5446_1_" transform="matrix(.74429 0 0 .74429 -31.898 19.544)"><path id="path5448_1_" d="M-58.6 121.8a6.7 6.7 0 100 13.4 6.7 6.7 0 000-13.4z" class="st319"/><g id="g5450_1_" transform="rotate(-45 17.625 29.531)"><path id="path5452_1_" d="M-106.6 45.6s-1.2-1-2.7-1c-1.5 0-2.7 1-2.7 1s1.2 1 2.7 1c1.5 0 2.7-1 2.7-1z" class="st317"/><path id="path5454_1_" d="M-105.9 45.6s1.2 1 2.7 1 2.7-1 2.7-1-1.2-1-2.7-1c-1.5 0-2.7 1-2.7 1z" class="st317"/><path id="path5456_1_" d="M-106.3 45.3s1-1.2 1-2.7-1-2.7-1-2.7-1 1.2-1 2.7c0 1.5 1 2.7 1 2.7z" class="st317"/><path id="path5458_1_" d="M-106.3 46s-1 1.2-1 2.7c0 1.5 1 2.7 1 2.7s1-1.2 1-2.7c0-1.5-1-2.7-1-2.7z" class="st317"/></g></g><g id="g5460_1_" transform="matrix(.74429 0 0 .74429 -43.398 19.544)"><path id="path5462_1_" d="M-43.2 137.3a6.7 6.7 0 100 13.4 6.7 6.7 0 000-13.4z" class="st319"/><g id="g5464_1_" transform="rotate(-45 17.625 29.531)"><path id="path5466_1_" d="M-106.7 67.5s-1.2-1-2.7-1c-1.5 0-2.7 1-2.7 1s1.2 1 2.7 1c1.5 0 2.7-1 2.7-1z" class="st317"/><path id="path5468_1_" d="M-105.9 67.5s1.2 1 2.7 1 2.7-1 2.7-1-1.2-1-2.7-1c-1.5 0-2.7 1-2.7 1z" class="st317"/><path id="path5470_1_" d="M-106.3 67.1s1-1.2 1-2.7c0-1.5-1-2.7-1-2.7s-1 1.2-1 2.7c0 1.5 1 2.7 1 2.7z" class="st317"/><path id="path5472_1_" d="M-106.3 67.8s-1 1.2-1 2.7c0 1.5 1 2.7 1 2.7s1-1.2 1-2.7c0-1.5-1-2.7-1-2.7z" class="st317"/></g></g><g id="g5474_1_" transform="matrix(.74429 0 0 .74429 -31.898 -2.056)"><path id="path5476_1_" d="M-27.5 150.8a6.7 6.7 0 106.7 6.7c0-3.7-2.9-6.7-6.7-6.7z" class="st320"/><g id="g5478_1_" transform="rotate(-45 17.625 29.531)"><path id="path5480_1_" d="M-105.1 88.2s-1.2-1-2.7-1c-1.5 0-2.7 1-2.7 1s1.2 1 2.7 1c1.5 0 2.7-1 2.7-1z" class="st317"/><path id="path5482_1_" d="M-104.4 88.2s1.2 1 2.7 1c1.5 0 2.7-1 2.7-1s-1.2-1-2.7-1c-1.5 0-2.7 1-2.7 1z" class="st317"/><path id="path5484_1_" d="M-104.8 87.8s1-1.2 1-2.7c0-1.5-1-2.7-1-2.7s-1 1.2-1 2.7c0 1.5 1 2.7 1 2.7z" class="st317"/><path id="path5486_1_" d="M-104.8 88.5s-1 1.2-1 2.7c0 1.5 1 2.7 1 2.7s1-1.2 1-2.7c0-1.5-1-2.7-1-2.7z" class="st317"/></g></g><g id="g5488_1_" transform="matrix(.74429 0 0 .74429 -43.398 -2.056)"><path id="path5490_1_" d="M-12 166.3a6.7 6.7 0 100 13.4 6.7 6.7 0 000-13.4z" class="st320"/><g id="g5492_1_" transform="rotate(-45 17.625 29.531)"><path id="path5494_1_" d="M-105.1 110s-1.2-1-2.7-1c-1.5 0-2.7 1-2.7 1s1.2 1 2.7 1c1.5 0 2.7-1 2.7-1z" class="st317"/><path id="path5496_1_" d="M-104.4 110s1.2 1 2.7 1c1.5 0 2.7-1 2.7-1s-1.2-1-2.7-1c-1.5 0-2.7 1-2.7 1z" class="st317"/><path id="path5498_1_" d="M-104.8 109.7s1-1.2 1-2.7c0-1.5-1-2.7-1-2.7s-1 1.2-1 2.7c0 1.5 1 2.7 1 2.7z" class="st317"/><path id="path5500_1_" d="M-104.8 110.4s-1 1.2-1 2.7c0 1.5 1 2.7 1 2.7s1-1.2 1-2.7-1-2.7-1-2.7z" class="st317"/></g></g></g></g></switch></svg>