<svg xmlns="http://www.w3.org/2000/svg" id="svg2985" x="0" y="0" enable-background="new -214.5 269.4 255 361.9" version="1.1" viewBox="-214.5 269.4 255 361.9" xml:space="preserve"><style>.st22{enable-background:new}.st23{fill:#005f00}.st24{fill:#cddacd}.st25{fill:#fff}.st26{filter:url(#filter3970-5)}.st27{fill:#2a3b92}</style><switch><g><filter id="filter3970-5" width="1.217" height="1.215" x="-.109" y="-.108" color-interpolation-filters="sRGB"><feGaussianBlur id="feGaussianBlur3972-8" stdDeviation=".128"/></filter><g id="g4630" class="st22" transform="matrix(1.0006 0 0 1 -1.376 203.406)"><g id="g3062"><path id="rect4031" d="M42 368.9l-.2-46.2.1-75.4c0-5.5-4.5-14.9-10-14.7 5.5.3 10-9.1 10-14.5l.1-115.8c.1-22.9-15.9-36.1-40.4-36.1h-154.5c-12.3 0-27.6 14-35.7 21.5-8 7.5-24.3 22.1-24.3 33.6v124.8c0 5.1 3.9 14.2 9 14.5-5 0-9 9-9 14v111.7c0 22.9 5.6 41.3 30.1 41.3l162.2.3c6.4 0 24.3-17.4 32.3-24.8 8.1-7.4 30.3-22.8 30.3-34.2z"/><path id="rect3767" d="M29.3 360.1V255.5c0-13.8-11.1-24.8-24.9-24.9l-152.4-.9c-2 0-32 12.6-32 25.8v104.6c0 13.8 11.1 24.9 24.9 24.9H4.4c13.8 0 24.9-11.1 24.9-24.9z" class="st23"/><path id="rect3861" d="M14.3 375.1v-99.6c0-13.8-11.2-24.9-24.9-24.9H-170c-13.8 0-24.9 11.1-24.9 24.9v99.6c0 13.8 11.2 24.9 24.9 24.9h159.4c13.8 0 24.9-11.2 24.9-24.9z" class="st24"/><path id="rect3765" d="M-.6 385V280.4c0-13.8-11.2-24.9-24.9-24.9H-175c-13.8 0-24.9 11.1-24.9 24.9V385c0 13.8 11.2 24.9 24.9 24.9h149.4c13.8 0 25-11.1 25-24.9z" class="st25"/><linearGradient id="rect3008_2_" x1="-303.791" x2="-303.791" y1="569.587" y2="531.068" gradientTransform="matrix(0 4.9837 4.9812 0 -2847.785 1854.184)" gradientUnits="userSpaceOnUse"><stop offset="0" stop-color="#d0e4cc"/><stop offset="1" stop-color="#fbffec"/></linearGradient><path id="rect3008" fill="url(#rect3008_2_)" d="M-10.6 285.4V395c0 11-8.9 19.9-19.9 19.9h-149.4c-11 0-19.9-8.9-19.9-19.9V285.4c0-11 8.9-19.9 19.9-19.9h149.4c11 0 19.9 8.9 19.9 19.9z"/><path id="path3932" d="M16.8 235.4c-1.5 0-2.8 1.3-2.8 2.8s1.3 2.8 2.8 2.8 2.8-1.3 2.8-2.8-1.2-2.8-2.8-2.8z" class="st25"/><g id="path3936" class="st26"><linearGradient id="SVGID_1_" x1="-330.564" x2="-333.68" y1="590.47" y2="587.001" gradientTransform="matrix(0 -7.1056 6.6848 0 -3926.449 -2112.465)" gradientUnits="userSpaceOnUse"><stop offset="0" stop-color="#fff"/><stop offset="1" stop-color="#fff" stop-opacity="0"/></linearGradient><path fill="url(#SVGID_1_)" d="M18.2 240.4l-24.6 28.8-6-8.2 28.3-25.2z"/></g><path id="path3882" d="M-5.1 252.7c-4.8 0-8.7 3.9-8.7 8.7 0 4.8 3.9 8.7 8.7 8.7 4.8 0 8.7-3.9 8.7-8.7 0-4.8-3.9-8.7-8.7-8.7z" class="st25"/></g></g><g id="g4630_1_" class="st22" transform="matrix(1.0006 0 0 1 -1.376 203.406)"><g id="g3062_1_"><path id="rect3767_1_" d="M29.3 209.1V104.5c0-13.8-11.1-24.8-24.9-24.9l-152.4-.9c-2 0-32 12.6-32 25.8v104.6c0 13.8 11.1 24.9 24.9 24.9H4.4c13.8 0 24.9-11.1 24.9-24.9z" class="st23"/><path id="rect3861_1_" d="M14.3 224.1v-99.6c0-13.8-11.2-24.9-24.9-24.9H-170c-13.8 0-24.9 11.1-24.9 24.9v99.6c0 13.8 11.2 24.9 24.9 24.9h159.4c13.8 0 24.9-11.2 24.9-24.9z" class="st24"/><path id="rect3765_1_" d="M-.6 234V129.4c0-13.8-11.2-24.9-24.9-24.9H-175c-13.8 0-24.9 11.1-24.9 24.9V234c0 13.8 11.2 24.9 24.9 24.9h149.4c13.8 0 25-11.1 25-24.9z" class="st25"/><linearGradient id="rect3008_3_" x1="-334.09" x2="-334.09" y1="569.587" y2="531.068" gradientTransform="matrix(0 4.9837 4.9812 0 -2847.785 1854.184)" gradientUnits="userSpaceOnUse"><stop offset="0" stop-color="#d0e4cc"/><stop offset="1" stop-color="#fbffec"/></linearGradient><path id="rect3008_1_" fill="url(#rect3008_3_)" d="M-10.6 134.4V244c0 11-8.9 19.9-19.9 19.9h-149.4c-11 0-19.9-8.9-19.9-19.9V134.4c0-11 8.9-19.9 19.9-19.9h149.4c11 0 19.9 8.9 19.9 19.9z"/><path id="path3932_1_" d="M16.8 84.4c-1.5 0-2.8 1.3-2.8 2.8 0 1.5 1.3 2.8 2.8 2.8s2.8-1.3 2.8-2.8c0-1.6-1.2-2.8-2.8-2.8z" class="st25"/><g id="path3936_1_" class="st26"><linearGradient id="SVGID_2_" x1="-309.313" x2="-312.429" y1="590.47" y2="587.001" gradientTransform="matrix(0 -7.1056 6.6848 0 -3926.449 -2112.465)" gradientUnits="userSpaceOnUse"><stop offset="0" stop-color="#fff"/><stop offset="1" stop-color="#fff" stop-opacity="0"/></linearGradient><path fill="url(#SVGID_2_)" d="M18.2 89.4l-24.6 28.8-6-8.2 28.3-25.2z"/></g><path id="path3882_1_" d="M-5.1 101.7c-4.8 0-8.7 3.9-8.7 8.7 0 4.8 3.9 8.7 8.7 8.7 4.8 0 8.7-3.9 8.7-8.7 0-4.8-3.9-8.7-8.7-8.7z" class="st25"/></g></g><path d="M-151.8 585.6c-5.5-4.1-7.6-9.3-8.5-16.1 4.4-4.3 10.1-2.6 14.1-6.2 0-1.9.4-3.9-.7-5.4 2.5-6.4-4.4-39.3-8.1-45.2-.5-2.6-2.3-4.1-2.3-7.1.7-.6.9-1.5 1.6-2.1 2.5-2.4 13.4-10.1 16.4-10.7.7-1.3 32.2-11.4 35.5-11.6 3.7 1.9 7.4 3.6 10.6 6.2l.2 2.6c-8-4.1-21.7 6.7-20.1 9.7l5.7 2.8v.7c3.7 2.6 6 14 9.2 17.6 4.1-.9 7.4-3.6 11.5-4.7 7.8 4.1-2.5 11.4-3.7 15.5-3 .4-3.5 2.4-5.5 4.1 1.8 6-.9 14.8 7.8 14.8.9-.6 2.1-.6 3 .2 3.2-.2 5.5-2.6 7.2-5-.2-1.5.5-2.8 1.2-3.9.9.9 1.1 0 1.6-.6-3.2-10.3-.4-21.7-4.9-32.2 0-1.9-1.9-2.4-2.3-5.8 4.9-.2 7.8 11.4 11.5 14.6-.7.7-.4.9.4 1.1 2.8-1.1 10.1-7.7 13.2-10.1l2.3.7c.5 7.3 2.3 36.5 8.3 39.6.9 1.7 2.5 3 2.3 5.2 1.2 1.7-.7 4.3-.7 6.2-1.4 2.8-5.3 8.8-7.8 10.3-2.6 1.7-4.8 3.6-8.1 3.2-3.4-.4-7.4-20.6-9.4-22.8-1.1 3-2.8 5.6-3.7 8.6-4.4 6-6.4 12.3-14.8 12 1.1 9.5 1.2 19.4-4.4 27.5-1.9 2.6-7.6 8.4-11 8-10.5-1.3-38.6-14.9-47.6-21.7zm36.9-64.1c-.4-.9-.4-2.1-.5-3-1.9-3.4-.7-8.6-.9-12.3-3.9-3-17.5-.9-22.6-.9-1.6 3 .5 16.8 3.2 16.6 7.2-.9 13.4-1.1 20.8-.4zm7.6 21.1l-.9-2.1c-1.2-2.2-1.1-4.5-4.1-3.6-3-2.4-18-3.2-22.4-3.4.2 2.2 1.2 6.5 2.8 8.2 1.9 2.2 20.8 4.7 24.6 4.7v-3.8zm7.1 26.8c-9.2-4.5-19.3-7.9-28.8-11.4-1.4 0-1.9 1.3-2.3 2.4 0 4.9.9 9-4.1 9.7l-2.3 2.8c6.2 6.2 29 13.1 37.8 14.2 1.3-1.8 0-14.7-.3-17.7zM-151.8 434.5c-5.5-4.1-7.6-9.3-8.5-16.1 4.4-4.3 10.1-2.6 14.1-6.2 0-1.9.4-3.9-.7-5.4 2.5-6.4-4.4-39.3-8.1-45.2-.5-2.6-2.3-4.1-2.3-7.1.7-.6.9-1.5 1.6-2.1 2.5-2.4 13.4-10.1 16.4-10.7.7-1.3 32.2-11.4 35.5-11.6 3.7 1.9 7.4 3.6 10.6 6.2l.2 2.6c-8-4.1-21.7 6.7-20.1 9.7l5.7 2.8v.7c3.7 2.6 6 14 9.2 17.6 4.1-.9 7.4-3.6 11.5-4.7 7.8 4.1-2.5 11.4-3.7 15.5-3 .4-3.5 2.4-5.5 4.1 1.8 6-.9 14.8 7.8 14.8.9-.6 2.1-.6 3 .2 3.2-.2 5.5-2.6 7.2-5-.2-1.5.5-2.8 1.2-3.9.9.9 1.1 0 1.6-.6-3.2-10.3-.4-21.7-4.9-32.2 0-1.9-1.9-2.4-2.3-5.8 4.9-.2 7.8 11.4 11.5 14.6-.7.7-.4.9.4 1.1 2.8-1.1 10.1-7.7 13.2-10.1l2.3.7c.5 7.3 2.3 36.5 8.3 39.6.9 1.7 2.5 3 2.3 5.2 1.2 1.7-.7 4.3-.7 6.2-1.4 2.8-5.3 8.8-7.8 10.3-2.6 1.7-4.8 3.6-8.1 3.2-3.4-.4-7.4-20.6-9.4-22.8-1.1 3-2.8 5.6-3.7 8.6-4.4 6-6.4 12.3-14.8 12 1.1 9.5 1.2 19.4-4.4 27.5-1.9 2.6-7.6 8.4-11 8-10.5-1.3-38.6-14.9-47.6-21.7zm36.9-64.1c-.4-.9-.4-2.1-.5-3-1.9-3.4-.7-8.6-.9-12.3-3.9-3-17.5-.9-22.6-.9-1.6 3 .5 16.8 3.2 16.6 7.2-.9 13.4-1.1 20.8-.4zm7.6 21.2l-.9-2.1c-1.2-2.2-1.1-4.5-4.1-3.6-3-2.4-18-3.2-22.4-3.4.2 2.2 1.2 6.5 2.8 8.2 1.9 2.2 20.8 4.7 24.6 4.7v-3.8zm7.1 26.7c-9.2-4.5-19.3-7.9-28.8-11.4-1.4 0-1.9 1.3-2.3 2.4 0 4.9.9 9-4.1 9.7l-2.3 2.8c6.2 6.2 29 13.1 37.8 14.2 1.3-1.8 0-14.7-.3-17.7z" class="st27"/></g></switch></svg>