<svg xmlns="http://www.w3.org/2000/svg" id="svg2985" x="0" y="0" enable-background="new -214.5 316.4 255 210" version="1.1" viewBox="-214.5 316.4 255 210" xml:space="preserve"><style>.st31{fill:#fff}</style><switch><g><filter id="filter3970-5" width="1.217" height="1.215" x="-.109" y="-.108" color-interpolation-filters="sRGB"><feGaussianBlur id="feGaussianBlur3972-8" stdDeviation=".128"/></filter><g id="g4630" transform="matrix(1.0006 0 0 1 -1.376 203.406)"><g id="g3062"><path id="rect4031" d="M42 263.8l-.2-46.2.2-68.4c.1-22.9-15.9-36.1-40.4-36.1h-154.5c-12.3 0-27.6 14-35.7 21.5-8 7.5-24.3 22.1-24.3 33.6v113.1c0 22.9 5.6 41.3 30.1 41.3l162.2.3c6.4 0 24.3-17.4 32.3-24.8 8.1-7.5 30.3-22.9 30.3-34.3z"/><path id="rect3767" fill="#005f00" d="M29.3 255V150.4c0-13.8-11.1-24.8-24.9-24.9l-152.4-.9c-2 0-32 12.6-32 25.8V255c0 13.8 11.1 24.9 24.9 24.9H4.4c13.8 0 24.9-11.1 24.9-24.9z"/><path id="rect3861" fill="#cddacd" d="M14.3 269.9v-99.6c0-13.8-11.2-24.9-24.9-24.9H-170c-13.8 0-24.9 11.1-24.9 24.9v99.6c0 13.8 11.2 24.9 24.9 24.9h159.4c13.8 0 24.9-11.1 24.9-24.9z"/><path id="rect3765" d="M-.6 279.9V175.3c0-13.8-11.2-24.9-24.9-24.9H-175c-13.8 0-24.9 11.1-24.9 24.9v104.6c0 13.8 11.2 24.9 24.9 24.9h149.4c13.8 0 25-11.1 25-24.9z" class="st31"/><linearGradient id="rect3008_1_" x1="-324.883" x2="-324.883" y1="569.587" y2="531.068" gradientTransform="matrix(0 4.9837 4.9812 0 -2847.785 1854.184)" gradientUnits="userSpaceOnUse"><stop offset="0" stop-color="#d0e4cc"/><stop offset="1" stop-color="#fbffec"/></linearGradient><path id="rect3008" fill="url(#rect3008_1_)" d="M-10.6 180.3v109.6c0 11-8.9 19.9-19.9 19.9h-149.4c-11 0-19.9-8.9-19.9-19.9V180.3c0-11 8.9-19.9 19.9-19.9h149.4c11 0 19.9 8.9 19.9 19.9z"/><path id="path3932" d="M16.8 130.2c-1.5 0-2.8 1.3-2.8 2.8s1.3 2.8 2.8 2.8 2.8-1.3 2.8-2.8-1.2-2.8-2.8-2.8z" class="st31"/><g id="path3936" filter="url(#filter3970-5)"><linearGradient id="SVGID_1_" x1="-315.771" x2="-318.887" y1="590.47" y2="587.001" gradientTransform="matrix(0 -7.1056 6.6848 0 -3926.45 -2112.465)" gradientUnits="userSpaceOnUse"><stop offset="0" stop-color="#fff"/><stop offset="1" stop-color="#fff" stop-opacity="0"/></linearGradient><path fill="url(#SVGID_1_)" d="M18.2 135.3l-24.6 28.8-6-8.2 28.3-25.2z"/></g><path id="path3882" d="M-5.1 147.5c-4.8 0-8.7 3.9-8.7 8.7 0 4.8 3.9 8.7 8.7 8.7 4.8 0 8.7-3.9 8.7-8.7 0-4.8-3.9-8.7-8.7-8.7z" class="st31"/></g></g><path fill="#2a3b92" d="M-164.9 479.4c-.7-1.5 6.8 6.7 6.7 5.2-1.1-7.5-.4-22.2 2.7-25.2 11.5-19.2 31.4-8.5 47.7-8.6 2.7-1.9-2.3-7.7-3.5-9.3-5.4-6.7-16.8-15.7-25.6-15.7-8.5-.1-16-2.8-24.1-5.2.3-5.7 14.7-3.8 8.6-9.3-5.9-5.1-16.6-12.1-16.5-21.7-.1-5.7 4.9-7.8 9.2-10 7.7-3.8 35.3 17.6 38.9 14.4.4-3 1.9-5.5 4.2-7.6 5.1-1.2 7.3-5.7 13.5-4.2 1.3 3.9-.3 7.7.5 11.4 1.1 5.9 3.5 6.5 3.8 12.5l.5 5.3c7.9 1.6 21-2.9 32.1-2.9-.2 2.5 7.1 5.6 5.7 7.3.2 6.1-3.7 6.7-7.3 9.3-8.3 10.7-39.1 2.3-55 2.7 5.2 5.4 10.4 6.9 15.4 12.7 2.6 3.1 4.7 6.7 7.8 9.4 4.4 3.8 13.2 2.4 18.5 2.8 8.5.7 17.5 1.6 24.8-3.3 4.4-.5 7.2-6.3 11.9-2.8-.5 6.9-5.1 10.2-7.7 15.7-.7 1.4-1.1 3-1.8 4.4-3.7 9-28.1-.6-35.2.4-3.6 4.4 8.8 16 10.3 20.7 2.4 6.6-1.4 7.7-4.7 11.3-4.3 2.7-7 2.1-10-.7-3.1-2.9-4.9-17.6-8.7-22.7-2.6-3.4-2.8-6.6-1.3-11-7.6-2.4-30.7-4.2-37.7 1-4.3 11 5 19.7 2.3 30-.9 3.2-3.4 5.2-4.7 8.3-4.1 3-5.9 3.8-11.3 2.7-10.9-13-3.4-12.9-10-27.3zm48.7-65.4c-1.4-3.2-5.4-11.4-7.8-16.6-4.7-2.6-20.2-13.5-25.5-12.2 1.1 6.6 8.6 29.4 17.1 27.4 2.1 1.1 3.5 1.3 5.8 1.5 1.3-.2 11.3 1.7 10.4-.1z"/></g></switch></svg>