<svg xmlns="http://www.w3.org/2000/svg" id="svg2985" x="0" y="0" enable-background="new -214.5 316.4 255 210" version="1.1" viewBox="-214.5 316.4 255 210" xml:space="preserve"><style>.st48{fill:#fff}</style><switch><g><filter id="filter3970-5" width="1.217" height="1.215" x="-.109" y="-.108" color-interpolation-filters="sRGB"><feGaussianBlur id="feGaussianBlur3972-8" stdDeviation=".128"/></filter><g id="g4630" transform="matrix(1.0006 0 0 1 -1.376 203.406)"><g id="g3062"><path id="rect4031" d="M42 263.8l-.2-46.2.2-68.4c.1-22.9-15.9-36.1-40.4-36.1h-154.5c-12.3 0-27.6 14-35.7 21.5-8 7.5-24.3 22.1-24.3 33.6v113.1c0 22.9 5.6 41.3 30.1 41.3l162.2.3c6.4 0 24.3-17.4 32.3-24.8 8.1-7.5 30.3-22.9 30.3-34.3z"/><path id="rect3767" fill="#005f00" d="M29.3 255V150.4c0-13.8-11.1-24.8-24.9-24.9l-152.4-.9c-2 0-32 12.6-32 25.8V255c0 13.8 11.1 24.9 24.9 24.9H4.4c13.8 0 24.9-11.1 24.9-24.9z"/><path id="rect3861" fill="#cddacd" d="M14.3 269.9v-99.6c0-13.8-11.2-24.9-24.9-24.9H-170c-13.8 0-24.9 11.1-24.9 24.9v99.6c0 13.8 11.2 24.9 24.9 24.9h159.4c13.8 0 24.9-11.1 24.9-24.9z"/><path id="rect3765" d="M-.6 279.9V175.3c0-13.8-11.2-24.9-24.9-24.9H-175c-13.8 0-24.9 11.1-24.9 24.9v104.6c0 13.8 11.2 24.9 24.9 24.9h149.4c13.8 0 25-11.1 25-24.9z" class="st48"/><linearGradient id="rect3008_1_" x1="-324.883" x2="-324.883" y1="569.587" y2="531.068" gradientTransform="matrix(0 4.9837 4.9812 0 -2847.785 1854.184)" gradientUnits="userSpaceOnUse"><stop offset="0" stop-color="#d0e4cc"/><stop offset="1" stop-color="#fbffec"/></linearGradient><path id="rect3008" fill="url(#rect3008_1_)" d="M-10.6 180.3v109.6c0 11-8.9 19.9-19.9 19.9h-149.4c-11 0-19.9-8.9-19.9-19.9V180.3c0-11 8.9-19.9 19.9-19.9h149.4c11 0 19.9 8.9 19.9 19.9z"/><path id="path3932" d="M16.8 130.2c-1.5 0-2.8 1.3-2.8 2.8s1.3 2.8 2.8 2.8 2.8-1.3 2.8-2.8-1.2-2.8-2.8-2.8z" class="st48"/><g id="path3936" filter="url(#filter3970-5)"><linearGradient id="SVGID_1_" x1="-315.771" x2="-318.887" y1="590.47" y2="587.001" gradientTransform="matrix(0 -7.1056 6.6848 0 -3926.45 -2112.465)" gradientUnits="userSpaceOnUse"><stop offset="0" stop-color="#fff"/><stop offset="1" stop-color="#fff" stop-opacity="0"/></linearGradient><path fill="url(#SVGID_1_)" d="M18.2 135.3l-24.6 28.8-6-8.2 28.3-25.2z"/></g><path id="path3882" d="M-5.1 147.5c-4.8 0-8.7 3.9-8.7 8.7 0 4.8 3.9 8.7 8.7 8.7 4.8 0 8.7-3.9 8.7-8.7 0-4.8-3.9-8.7-8.7-8.7z" class="st48"/></g></g><path fill="#038249" d="M-103.8 509.3c-1.1-.4-1-5.4-1.1-6.1-.8-3.8-4.7-8.3-3.4-11.7 2.3-5.9 12.8-10.1 19.4-17.1.6-.7 2.1-1.6 2.1-2.7-3.6-1-11.9-3.6-15.4-4.1l-.9.5c-.7 1.2-.4 4-.9 6.1-1 .9-.3 2.2-1.7 2.7-2.5 2-4.8 3.8-8.4 3.8-1.9-2.3-3-1-3.2-4.6-.1-2.8-1.6-5.3-2.3-8.1-1.5-1.9-2.7-4.2-4.4-5.9l-.5 2.2c-3.5 7.5-13.9 9.8-20.1 3.5-3-1.4-6.1-2.4-9.1-3.8-11.7 10-9 29.1-30.1 29.7-2.3-1.9-6.2-.2-7.5-3.4 4.1-7.3 28.1-28.7 26.3-34.3-2.6-9.6-12.3-9.9-8.6-26.3.5-2.6 6.2-7.8 9.8-6.4l3-.5c-3.2 3.2-5.8 7.1-4.4 12.4.8 4.1 6.1 9.9 10.2 11.5 3.4-3.6 9.3-16.3 5.6-20.6-3.8-1-7.9-2.9-11.5-4.7-6.9-1.1-25-14.1-20.7-21.6 4.1-6.8 23.9-9.1 31-6.1-2.2.3-14.1 4.4-13.8 6.8.8 5.6 14.4 12.2 19.9 12 4.1-1.9-8.4-17.4-5.8-21.6 4.1-2.3 6.6 1 10.7-.6 1.9 1.9 5.1 3.5 5 6.5 2.1 3 7.2 7.5 10.5 9.8-1.1-3.8-2.1-7.5-2.4-11.4 3.5-2.1 8.7.1 11.8 1.9 3.1 3.6 2.3 7 6.6 10.4 2.9 2.3 5 5.7 8.6 7.3 2.1-2 .4-5.4 3.1-7.3-8.3-8.3-17.6-14.7-21.3-25.9-2-6.1-3.6-13.7 3.7-5.6l6.7 7.1c6.6 6.5 12.6 14.5 23.6 18.5.9-7 .3-2.2 1.9-7.9 3.2-4.7 12.2-8.4 18.1-5 .2 6.1 1.2 4.7-1.2 11.1-.5 1.3-1.3 3.1-.2 4.3 0 5.2 4.9 7.8 9.9 8.3.9-2.6 8-14.8 11.6-13.6 1 1 .7 2.1.5 3.2l.6 1.3c-2.1 8.7 15.7 16.9 2 25.9l-2 .9-5.3 1.5c.5 2.6.2 5.6 1.3 7.8 1.3 2.8 10 16.1 13.5 15.3.9-2 3.2-4 5.5-2.4-.1 2.6-.8 9.3-3 11.1-.9 3.5-5.8 3.5-7.9 6.1-2.4-.4-7.9 1.1-8.4-2.1-2.1-3-3.5-12.4-4.8-16.3-2.1 3.3-4.9 6-7.4 8.9-2.7 3.3 7.6 12.7 10.3 14.3 2.6 1.4 3.4.7 6 .6 2.4.3 1.3 3.4 1.2 4.9-3.2 3.8-8.9 12.5-15.7 9.4-.7-2.4-7.3-20.7-8.2-21.3-18.5 14.7-24.4 34.1-37.8 42.8l-.6-1.4zm26.6-46.3c1.9-1.8 4.4-4.1 5.6-5.2 1.2-1.5 2.1-1.8 1.4-5-.5-2.8-3.6-10.9-3.3-13.3.1-2 1.6-.3 1.4 1 2.9 3.4 3.1 8.5 6.8 11.6 3.8-3.8 16.5-17.6 11.6-22.4-6.1-6-25.4-12.8-35.2-18.8.9 3 7.2 12.9 5.2 15.6-.3 1.9-2.2 4.4-2 5.5-3.9 1.6-4.8 5.6-9.8 4-3.1-3.1-10-11.1-14-12.5-.7 1.3-1.5 2.6-2.5 3.5-.7 2-4.1 1.7-5.9 1.5-5.6-5-8.8-12-14.9-16.6.3 2.2 0 4.3-.4 6.1.1 1.7-1.1 4.5-3 5.4-1.7 2.7-7.3 3.2-10.5 3.1 3.9 1.9 5.1 3.9 5.8 7.1 1.5-1.4 3.9-1.7 5.4-3.2 1.6-.1 2.8.3 3.4 1.8 3.4 10 8.3 19 16.9 26 1.6 1.4 2.4.4 3.7-.8 2.7-2.5 13.4-1.8 16.9-.6.2-.9 1.8-9.6-1.3-6.7-7.4-1.7-26.1-6.4-31.4-10.8-4.1-3.7 3.3-6.8 6.7-6.7 1.1-2.2 4.7-.8 6.7-1.3 3.4 4.6 9.9 4.2 14.9 6.4 5.9 2.8 9.5-1.2 15.3.7.2 1.1-.1 2.6-1.3 3.1-.3 2-2.9 2.9-2.2 4.8 3.7 3.8 10.6 12.4 8.4 17.7-1.1 1.2 1-.3 1.6-1zm-64.6-22.8c-.7 3-3.8 9.5-6.3 11.3 2.7 2.5 11.1 4.3 14.9 4.6 3.2-3.1-5.8-13.6-8.6-15.9z"/></g></switch></svg>