<svg xmlns="http://www.w3.org/2000/svg" id="svg2985" x="0" y="0" enable-background="new -214.5 316.4 255 210" version="1.1" viewBox="-214.5 316.4 255 210" xml:space="preserve"><style>.st19{fill:#fff}</style><switch><g><filter id="filter3970-5" width="1.217" height="1.215" x="-.109" y="-.108" color-interpolation-filters="sRGB"><feGaussianBlur id="feGaussianBlur3972-8" stdDeviation=".128"/></filter><g id="g4630" transform="matrix(1.0006 0 0 1 -1.376 203.406)"><g id="g3062"><path id="rect4031" d="M42 263.8l-.2-46.2.2-68.4c.1-22.9-15.9-36.1-40.4-36.1h-154.5c-12.3 0-27.6 14-35.7 21.5-8 7.5-24.3 22.1-24.3 33.6v113.1c0 22.9 5.6 41.3 30.1 41.3l162.2.3c6.4 0 24.3-17.4 32.3-24.8 8.1-7.5 30.3-22.9 30.3-34.3z"/><path id="rect3767" fill="#005f00" d="M29.3 255V150.4c0-13.8-11.1-24.8-24.9-24.9l-152.4-.9c-2 0-32 12.6-32 25.8V255c0 13.8 11.1 24.9 24.9 24.9H4.4c13.8 0 24.9-11.1 24.9-24.9z"/><path id="rect3861" fill="#cddacd" d="M14.3 269.9v-99.6c0-13.8-11.2-24.9-24.9-24.9H-170c-13.8 0-24.9 11.1-24.9 24.9v99.6c0 13.8 11.2 24.9 24.9 24.9h159.4c13.8 0 24.9-11.1 24.9-24.9z"/><path id="rect3765" d="M-.6 279.9V175.3c0-13.8-11.2-24.9-24.9-24.9H-175c-13.8 0-24.9 11.1-24.9 24.9v104.6c0 13.8 11.2 24.9 24.9 24.9h149.4c13.8 0 25-11.1 25-24.9z" class="st19"/><linearGradient id="rect3008_1_" x1="-324.883" x2="-324.883" y1="569.587" y2="531.068" gradientTransform="matrix(0 4.9837 4.9812 0 -2847.785 1854.184)" gradientUnits="userSpaceOnUse"><stop offset="0" stop-color="#d0e4cc"/><stop offset="1" stop-color="#fbffec"/></linearGradient><path id="rect3008" fill="url(#rect3008_1_)" d="M-10.6 180.3v109.6c0 11-8.9 19.9-19.9 19.9h-149.4c-11 0-19.9-8.9-19.9-19.9V180.3c0-11 8.9-19.9 19.9-19.9h149.4c11 0 19.9 8.9 19.9 19.9z"/><path id="path3932" d="M16.8 130.2c-1.5 0-2.8 1.3-2.8 2.8s1.3 2.8 2.8 2.8 2.8-1.3 2.8-2.8-1.2-2.8-2.8-2.8z" class="st19"/><g id="path3936" filter="url(#filter3970-5)"><linearGradient id="SVGID_1_" x1="-315.771" x2="-318.887" y1="590.47" y2="587.001" gradientTransform="matrix(0 -7.1056 6.6848 0 -3926.45 -2112.465)" gradientUnits="userSpaceOnUse"><stop offset="0" stop-color="#fff"/><stop offset="1" stop-color="#fff" stop-opacity="0"/></linearGradient><path fill="url(#SVGID_1_)" d="M18.2 135.3l-24.6 28.8-6-8.2 28.3-25.2z"/></g><path id="path3882" d="M-5.1 147.5c-4.8 0-8.7 3.9-8.7 8.7 0 4.8 3.9 8.7 8.7 8.7 4.8 0 8.7-3.9 8.7-8.7 0-4.8-3.9-8.7-8.7-8.7z" class="st19"/></g></g><path fill="#2a3b92" d="M-68.1 383.9c10.9 1.7 35.2 10.8 36.4 24.9.2 2.1-.8 2.7-2.3 3-3.1 2.3-8.2 5.4-10 9.1-2 1.1-3 3.5-5.4 4.5-1 1.5-2.4 2.6-3.2 4.1-2.4 1.2-5.5.9-7.2 3.5-1.6.1-2.1-1.4-1.8-2.8 3.7-3.9 11.1-20 8.5-25.5-10.4-7.3-39.7-12.4-52.5-11.8-7.2 6.2-5.1 17.3-6.1 25.9 2.2 2.4 8 6 11.2 6.7 9.6-18.4 14.7 2.8 19.2 4.2.7-3 2.1-6.8 4.5-8.8 1.5-2.6 7.9-6.1 9.7-2 1.2 3.5.7 7.5 1.2 11.2-.2 1.3.4 2.3.7 3.7 7.1 2.5 15.1 1.5 22 4.9 1.6.1 3 .5 4.4 1 .1 2.1 4.5 1.2 3 4.4-3.2 2.9-7 5.8-11.4 5.6-3.3 1.8-7.1.2-10.5 1.2-.2 3.5.9 11-1.5 13-5 .3-9.4 4-12.8-2.4-.4-3.1-1.2-12.4-5.9-10.3 2.4 8.6 3.4 16.3-6.9 15-1.9-1.2-3.2-3.2-5.1-4.9-2.4 1-6 .5-7.7 2.3.2 3.5 2.6 7.6 3.3 11.3.9.4 1.5 1.2 1.3 2.2 8.2 12.9 41-4 47.6 5.7.9 2.7-1 2.5-2.1 3.9-5.4 4.5-16 9.1-22.9 8.4-2.5-.1-4.9-.6-7.6-1-7.9-1.2-20.2 4.4-25.4 1.8-3.5-1.7-3-7.7-2.6-10.9 2.4-6.4 1-13.2-4.1-17.3 1-2.1-2.9-1.7-4-2.3-.6-1.4-.4-2.7-.5-4.1.2-4-7.8-5.8-10.7-6.3-2.7 15.3-1.8 21.5-17 28 .1-6.5-.9-12.9-1.2-19.5-1-.2-1.1-1.8-.9-2.7-1.2-3.3-2.3-6.8-4.3-9.6-5.6-.3-22.5-3.6-26.6-1.3-2 1.1-.8 6.1-4 6.7-3.7.6-4.2-3.9-6.1-6.1-.6-5 3.2-10 6.7-12.9 5.1-9.6 12.7-6.5 20.4-5.3.3-1.7 0-3.5-.1-5.2 1.8-6.8 4-19.4 12.7-20 1.6-.1 1.5 1.2 1.8 2.6.6 6.2 1.9 19.3 6.6 23.4 1 2 6.6 3.4 8.5 4.1-3.1-5.5-3-6.9-2.2-13.4.8-1.1 1-3.2 2.6-3.3 2.1-2.8 5.5-3 8.3-4 1.1-7.8.6-15.7 2.2-23.4 1.7-5.9 11.4-22.9 18.3-18.9 10.1 6 20.6 7.4 31.5 9.7zm-33.8 102.8c7.2.2 8-3.5 1.6-6.8-1 2-1.3 4.5-1.6 6.8zm-1.2-36.2c2.8-.1 5.5-.7 8-1.1-2.2-9.3-3.2-10.7-11.7-12.9-1.2 2.2 2.4 11 3.7 14zm-18.6-10c1.9 1.1 4 1.5 5.9 1.8-.1-1.5-.4-9.8-1.3-10.3-9.6-5-6.4 2.3-4.6 8.5z"/></g></switch></svg>