<svg xmlns="http://www.w3.org/2000/svg" id="svg2985" x="0" y="0" enable-background="new -214.5 316.4 255 210" version="1.1" viewBox="-214.5 316.4 255 210" xml:space="preserve"><style>.st219{enable-background:new}.st220{fill:#fff}.st221{fill:none;stroke:#038249;stroke-width:1.5}</style><switch><g><filter id="filter3970-5" width="1.217" height="1.215" x="-.109" y="-.108" color-interpolation-filters="sRGB"><feGaussianBlur id="feGaussianBlur3972-8" stdDeviation=".128"/></filter><g id="g4630" class="st219" transform="matrix(1.0006 0 0 1 -1.376 203.406)"><g id="g3062"><path id="rect4031" d="M42 263.8l-.2-46.2.2-68.4c.1-22.9-15.9-36.1-40.4-36.1h-154.5c-12.3 0-27.6 14-35.7 21.5-8 7.5-24.3 22.1-24.3 33.6v113.1c0 22.9 5.6 41.3 30.1 41.3l162.2.3c6.4 0 24.3-17.4 32.3-24.8 8.1-7.5 30.3-22.9 30.3-34.3z"/><path id="rect3767" fill="#005f00" d="M29.3 255V150.4c0-13.8-11.1-24.8-24.9-24.9l-152.4-.9c-2 0-32 12.6-32 25.8V255c0 13.8 11.1 24.9 24.9 24.9H4.4c13.8 0 24.9-11.1 24.9-24.9z"/><path id="rect3861" fill="#cddacd" d="M14.3 269.9v-99.6c0-13.8-11.2-24.9-24.9-24.9H-170c-13.8 0-24.9 11.1-24.9 24.9v99.6c0 13.8 11.2 24.9 24.9 24.9h159.4c13.8 0 24.9-11.1 24.9-24.9z"/><path id="rect3765" d="M-.6 279.9V175.3c0-13.8-11.2-24.9-24.9-24.9H-175c-13.8 0-24.9 11.1-24.9 24.9v104.6c0 13.8 11.2 24.9 24.9 24.9h149.4c13.8 0 25-11.1 25-24.9z" class="st220"/><linearGradient id="rect3008_1_" x1="-324.883" x2="-324.883" y1="569.587" y2="531.068" gradientTransform="matrix(0 -4.9837 4.9812 0 -2847.785 -1384.036)" gradientUnits="userSpaceOnUse"><stop offset="0" stop-color="#d0e4cc"/><stop offset="1" stop-color="#fbffec"/></linearGradient><path id="rect3008" fill="url(#rect3008_1_)" d="M-10.6 289.9V180.3c0-11-8.9-19.9-19.9-19.9h-149.4c-11 0-19.9 8.9-19.9 19.9v109.6c0 11 8.9 19.9 19.9 19.9h149.4c11 0 19.9-8.9 19.9-19.9z"/><path id="path3932" d="M16.8 130.2c-1.5 0-2.8 1.3-2.8 2.8s1.3 2.8 2.8 2.8 2.8-1.3 2.8-2.8-1.2-2.8-2.8-2.8z" class="st220"/><g id="path3936" filter="url(#filter3970-5)"><linearGradient id="SVGID_1_" x1="-315.771" x2="-318.887" y1="590.47" y2="587.001" gradientTransform="matrix(0 -7.1056 6.6848 0 -3926.45 -2112.465)" gradientUnits="userSpaceOnUse"><stop offset="0" stop-color="#fff"/><stop offset="1" stop-color="#fff" stop-opacity="0"/></linearGradient><path fill="url(#SVGID_1_)" d="M18.2 135.3l-24.6 28.8-6-8.2 28.3-25.2z"/></g><path id="path3882" d="M-5.1 147.5c-4.8 0-8.7 3.9-8.7 8.7 0 4.8 3.9 8.7 8.7 8.7s8.7-3.9 8.7-8.7c0-4.8-3.9-8.7-8.7-8.7z" class="st220"/><g id="g3855" class="st219" transform="matrix(4.97804 0 0 4.98098 1.619 -203.22)"><path id="path4291" fill="none" stroke="#038249" stroke-linecap="round" stroke-width="1.378" d="M-21.5 75.5C-28.4 75.5-34 81.1-34 88s5.6 12.5 12.5 12.5S-9 94.9-9 88s-5.6-12.5-12.5-12.5z"/><path id="path4295" fill="none" stroke="#038249" stroke-linecap="round" stroke-width="1.629" d="M-21.5 77.4C-27.3 77.4-32 82.2-32 88s4.7 10.6 10.6 10.6 10.6-4.7 10.6-10.6c-.1-5.8-4.8-10.6-10.7-10.6z"/><path id="path4327" d="M-11 88h-3.6" class="st221"/><path id="path4346" d="M-21.5 98.5v-3.6" class="st221"/><path id="path4356" d="M-32 88h3.6" class="st221"/><path id="path4358" d="M-21.5 77.5v3.6" class="st221"/><path id="path4360" d="M-14 95.4l-2.5-2.5" class="st221"/><path id="path4362" d="M-28.9 95.4l2.5-2.5" class="st221"/><path id="path4364" d="M-28.9 80.6l2.5 2.5" class="st221"/><path id="path4366" d="M-14 80.6l-2.5 2.5" class="st221"/><path id="path4376" d="M-11.8 92l-3.3-1.4" class="st221"/><path id="path4378" d="M-25.5 97.7l1.4-3.3" class="st221"/><path id="path4380" d="M-31.2 84l3.3 1.4" class="st221"/><path id="path4382" d="M-17.4 78.3l-1.4 3.3" class="st221"/><path id="path4384" d="M-17.4 97.7l-1.4-3.3" class="st221"/><path id="path4386" d="M-31.2 92l3.3-1.4" class="st221"/><path id="path4388" d="M-25.5 78.3l1.4 3.3" class="st221"/><path id="path4390" d="M-11.8 84l-3.3 1.4" class="st221"/><path id="path4301" fill="#bf3718" stroke="#038249" stroke-linecap="round" stroke-width="1.5" d="M-21.5 80.6c-4.1 0-7.4 3.3-7.4 7.4 0 4.1 3.3 7.4 7.4 7.4s7.4-3.3 7.4-7.4c0-4.1-3.3-7.4-7.4-7.4z"/><g id="g3849" transform="rotate(-45 17.625 29.531)"><path id="path4497" d="M-51.7 43.2s-1.3-1.1-3-1.1c-1.6 0-3 1.1-3 1.1s1.3 1.1 3 1.1c1.6 0 3-1.1 3-1.1z" class="st220"/><path id="path4533" d="M-51 43.2s1.3 1.1 3 1.1 3-1.1 3-1.1-1.3-1.1-3-1.1c-1.6 0-3 1.1-3 1.1z" class="st220"/><path id="path4575" d="M-51.4 42.8s1.1-1.3 1.1-3c0-1.6-1.1-3-1.1-3s-1.1 1.3-1.1 3 1.1 3 1.1 3z" class="st220"/><path id="path4577" d="M-51.4 43.6s-1.1 1.3-1.1 3c0 1.6 1.1 3 1.1 3s1.1-1.3 1.1-3c.1-1.6-1.1-3-1.1-3z" class="st220"/></g></g></g></g></g></switch></svg>