<svg xmlns="http://www.w3.org/2000/svg" id="svg2985" x="0" y="0" enable-background="new -192 293.9 210 255" version="1.1" viewBox="-192 293.9 210 255" xml:space="preserve"><style>.st364{enable-background:new}.st365{fill:#fff}.st366{fill:#bf3718}.st367{fill:#2a3b92}.st368{fill:#038249}</style><switch><g><filter id="filter3970-5" width="1.217" height="1.215" x="-.109" y="-.108" color-interpolation-filters="sRGB"><feGaussianBlur id="feGaussianBlur3972-8" stdDeviation=".128"/></filter><g id="g4630" class="st364" transform="matrix(1.0006 0 0 1 -1.376 203.406)"><g id="g3062"><path id="rect4031" d="M-131.2 90.5l46.1.2 68.4-.2c22.9-.1 36.1 15.9 36.1 40.4v154.6c0 12.3-14 27.7-21.4 35.7s-22.1 24.3-33.6 24.3h-113c-22.9 0-41.3-5.6-41.3-30.2l-.3-162.3c0-6.4 17.3-24.3 24.8-32.4 7.4-8 22.7-30.2 34.2-30.1z"/><path id="rect3767" fill="#005f00" d="M-122.4 103.2h104.5c13.8 0 24.8 11.1 24.9 24.9l.9 152.4c0 2-12.6 32-25.8 32h-104.5c-13.8 0-24.9-11.1-24.9-24.9V128.1c0-13.8 11.1-24.9 24.9-24.9z"/><path id="rect3861" fill="#cddacd" d="M-137.4 118.1h99.6c13.7 0 24.9 11.2 24.9 24.9v159.5c0 13.8-11.1 24.9-24.9 24.9h-99.6c-13.7 0-24.9-11.2-24.9-24.9V143.1c0-13.8 11.2-25 24.9-25z"/><path id="rect3765" d="M-147.3 133.1h104.5c13.7 0 24.9 11.2 24.9 24.9v149.5c0 13.8-11.1 24.9-24.9 24.9h-104.5c-13.7 0-24.9-11.2-24.9-24.9V158c0-13.7 11.1-24.9 24.9-24.9z" class="st365"/><linearGradient id="rect3008_1_" x1="-324.883" x2="-324.883" y1="569.587" y2="531.068" gradientTransform="matrix(4.9807 0 0 -4.9841 1515.62 2981.96)" gradientUnits="userSpaceOnUse"><stop offset="0" stop-color="#d0e4cc"/><stop offset="1" stop-color="#fbffec"/></linearGradient><path id="rect3008" fill="url(#rect3008_1_)" d="M-157.3 143.1h109.5c11 0 19.9 8.9 19.9 19.9v149.5c0 11-8.9 19.9-19.9 19.9h-109.5c-11 0-19.9-8.9-19.9-19.9V163c0-11 8.9-19.9 19.9-19.9z"/><path id="path3932" d="M2.2 115.7c0 1.5-1.3 2.8-2.8 2.8s-2.8-1.3-2.8-2.8 1.3-2.8 2.8-2.8 2.8 1.2 2.8 2.8z" class="st365"/><g id="path3936" filter="url(#filter3970-5)"><linearGradient id="SVGID_1_" x1="-315.771" x2="-318.887" y1="590.47" y2="587.001" gradientTransform="matrix(7.1013 0 0 -6.6887 2243.616 4061.265)" gradientUnits="userSpaceOnUse"><stop offset="0" stop-color="#fff"/><stop offset="1" stop-color="#fff" stop-opacity="0"/></linearGradient><path fill="url(#SVGID_1_)" d="M-2.8 114.3l-28.8 24.6 8.2 6 25.2-28.3z"/></g><path id="path3882" d="M-15 137.6c0 4.8-3.9 8.7-8.7 8.7-4.8 0-8.7-3.9-8.7-8.7 0-4.8 3.9-8.7 8.7-8.7 4.7 0 8.7 3.9 8.7 8.7z" class="st365"/><g id="g7499" class="st364" transform="matrix(4.97481 0 0 4.98413 196.315 -191.185)"><g id="g5773" transform="matrix(.59543 0 0 .59543 -31.994 9.514)"><path id="path5775" d="M-40.4 128.6a6.7 6.7 0 11-13.4 0 6.7 6.7 0 0113.4 0z" class="st366"/><g id="g5777" transform="rotate(-45 17.625 29.531)"><path id="path5779" d="M-98.6 53.7s-1.2 1-2.7 1c-1.5 0-2.7-1-2.7-1s1.2-1 2.7-1c1.5 0 2.7 1 2.7 1z" class="st365"/><path id="path5781" d="M-97.9 53.7s1.2-1 2.7-1c1.5 0 2.7 1 2.7 1s-1.2 1-2.7 1c-1.4 0-2.7-1-2.7-1z" class="st365"/><path id="path5783" d="M-98.2 54.1s1 1.2 1 2.7c0 1.5-1 2.7-1 2.7s-1-1.2-1-2.7c0-1.5 1-2.7 1-2.7z" class="st365"/><path id="path5785" d="M-98.2 53.4s-1-1.2-1-2.7 1-2.7 1-2.7 1 1.2 1 2.7c0 1.5-1 2.7-1 2.7z" class="st365"/></g></g><g id="g7345" transform="matrix(.59543 0 0 .59543 -22.994 9.514)"><path id="path7347" d="M-40.4 128.6a6.7 6.7 0 11-13.4 0 6.7 6.7 0 0113.4 0z" class="st366"/><g id="g7349" transform="rotate(-45 17.625 29.531)"><path id="path7351" d="M-98.6 53.7s-1.2 1-2.7 1c-1.5 0-2.7-1-2.7-1s1.2-1 2.7-1c1.5 0 2.7 1 2.7 1z" class="st365"/><path id="path7353" d="M-97.9 53.7s1.2-1 2.7-1c1.5 0 2.7 1 2.7 1s-1.2 1-2.7 1c-1.4 0-2.7-1-2.7-1z" class="st365"/><path id="path7355" d="M-98.2 54.1s1 1.2 1 2.7-1 2.7-1 2.7-1-1.2-1-2.7 1-2.7 1-2.7z" class="st365"/><path id="path7357" d="M-98.2 53.4s-1-1.2-1-2.7 1-2.7 1-2.7 1 1.2 1 2.7-1 2.7-1 2.7z" class="st365"/></g></g><g id="g7359" transform="matrix(.59543 0 0 .59543 -40.994 9.514)"><path id="path7361" d="M-40.4 128.6a6.7 6.7 0 11-6.7-6.7c3.7-.1 6.7 3 6.7 6.7z" class="st366"/><g id="g7363" transform="rotate(-45 17.625 29.531)"><path id="path7365" d="M-98.6 53.7s-1.2 1-2.7 1-2.7-1-2.7-1 1.2-1 2.7-1 2.7 1 2.7 1z" class="st365"/><path id="path7367" d="M-97.9 53.7s1.2-1 2.7-1c1.5 0 2.7 1 2.7 1s-1.2 1-2.7 1c-1.4 0-2.7-1-2.7-1z" class="st365"/><path id="path7369" d="M-98.2 54.1s1 1.2 1 2.7c0 1.5-1 2.7-1 2.7s-1-1.2-1-2.7c0-1.5 1-2.7 1-2.7z" class="st365"/><path id="path7371" d="M-98.2 53.4s-1-1.2-1-2.7 1-2.7 1-2.7 1 1.2 1 2.7-1 2.7-1 2.7z" class="st365"/></g></g><g id="g7373" transform="matrix(.59543 0 0 .59543 -31.994 -1.986)"><path id="path7375" d="M-40.4 128.6a6.7 6.7 0 11-13.4 0 6.7 6.7 0 0113.4 0z" class="st367"/><g id="g7377" transform="rotate(-45 17.625 29.531)"><path id="path7379" d="M-98.6 53.7s-1.2 1-2.7 1c-1.5 0-2.7-1-2.7-1s1.2-1 2.7-1c1.5 0 2.7 1 2.7 1z" class="st365"/><path id="path7381" d="M-97.9 53.7s1.2-1 2.7-1c1.5 0 2.7 1 2.7 1s-1.2 1-2.7 1c-1.4 0-2.7-1-2.7-1z" class="st365"/><path id="path7383" d="M-98.2 54.1s1 1.2 1 2.7-1 2.7-1 2.7-1-1.2-1-2.7c0-1.5 1-2.7 1-2.7z" class="st365"/><path id="path7385" d="M-98.2 53.4s-1-1.2-1-2.7 1-2.7 1-2.7 1 1.2 1 2.7-1 2.7-1 2.7z" class="st365"/></g></g><g id="g7387" transform="matrix(.59543 0 0 .59543 -22.994 -1.986)"><path id="path7389" d="M-40.4 128.6a6.7 6.7 0 11-13.4 0 6.7 6.7 0 0113.4 0z" class="st367"/><g id="g7391" transform="rotate(-45 17.625 29.531)"><path id="path7393" d="M-98.6 53.7s-1.2 1-2.7 1c-1.5 0-2.7-1-2.7-1s1.2-1 2.7-1c1.5 0 2.7 1 2.7 1z" class="st365"/><path id="path7395" d="M-97.9 53.7s1.2-1 2.7-1c1.5 0 2.7 1 2.7 1s-1.2 1-2.7 1c-1.4 0-2.7-1-2.7-1z" class="st365"/><path id="path7397" d="M-98.2 54.1s1 1.2 1 2.7c0 1.5-1 2.7-1 2.7s-1-1.2-1-2.7c0-1.5 1-2.7 1-2.7z" class="st365"/><path id="path7399" d="M-98.2 53.4s-1-1.2-1-2.7 1-2.7 1-2.7 1 1.2 1 2.7-1 2.7-1 2.7z" class="st365"/></g></g><g id="g7401" transform="matrix(.59543 0 0 .59543 -40.994 -1.986)"><path id="path7403" d="M-40.4 128.6a6.7 6.7 0 11-6.7-6.7c3.7-.1 6.7 3 6.7 6.7z" class="st367"/><g id="g7405" transform="rotate(-45 17.625 29.531)"><path id="path7407" d="M-98.6 53.7s-1.2 1-2.7 1c-1.5 0-2.7-1-2.7-1s1.2-1 2.7-1c1.5 0 2.7 1 2.7 1z" class="st365"/><path id="path7409" d="M-97.9 53.7s1.2-1 2.7-1c1.5 0 2.7 1 2.7 1s-1.2 1-2.7 1c-1.4 0-2.7-1-2.7-1z" class="st365"/><path id="path7411" d="M-98.2 54.1s1 1.2 1 2.7-1 2.7-1 2.7-1-1.2-1-2.7 1-2.7 1-2.7z" class="st365"/><path id="path7413" d="M-98.2 53.4s-1-1.2-1-2.7 1-2.7 1-2.7 1 1.2 1 2.7-1 2.7-1 2.7z" class="st365"/></g></g><g id="g7457" transform="matrix(.59543 0 0 .59543 -31.994 21.014)"><path id="path7459" d="M-40.4 128.6a6.7 6.7 0 11-13.4 0 6.7 6.7 0 0113.4 0z" class="st368"/><g id="g7461" transform="rotate(-45 17.625 29.531)"><path id="path7463" d="M-98.6 53.7s-1.2 1-2.7 1c-1.5 0-2.7-1-2.7-1s1.2-1 2.7-1c1.5 0 2.7 1 2.7 1z" class="st365"/><path id="path7465" d="M-97.9 53.7s1.2-1 2.7-1c1.5 0 2.7 1 2.7 1s-1.2 1-2.7 1c-1.4 0-2.7-1-2.7-1z" class="st365"/><path id="path7467" d="M-98.2 54.1s1 1.2 1 2.7c0 1.5-1 2.7-1 2.7s-1-1.2-1-2.7 1-2.7 1-2.7z" class="st365"/><path id="path7469" d="M-98.2 53.4s-1-1.2-1-2.7 1-2.7 1-2.7 1 1.2 1 2.7-1 2.7-1 2.7z" class="st365"/></g></g><g id="g7471" transform="matrix(.59543 0 0 .59543 -22.994 21.014)"><path id="path7473" d="M-40.4 128.6a6.7 6.7 0 11-13.4 0 6.7 6.7 0 0113.4 0z" class="st368"/><g id="g7475" transform="rotate(-45 17.625 29.531)"><path id="path7477" d="M-98.6 53.7s-1.2 1-2.7 1-2.7-1-2.7-1 1.2-1 2.7-1 2.7 1 2.7 1z" class="st365"/><path id="path7479" d="M-97.9 53.7s1.2-1 2.7-1c1.5 0 2.7 1 2.7 1s-1.2 1-2.7 1c-1.4 0-2.7-1-2.7-1z" class="st365"/><path id="path7481" d="M-98.2 54.1s1 1.2 1 2.7-1 2.7-1 2.7-1-1.2-1-2.7 1-2.7 1-2.7z" class="st365"/><path id="path7483" d="M-98.2 53.4s-1-1.2-1-2.7 1-2.7 1-2.7 1 1.2 1 2.7-1 2.7-1 2.7z" class="st365"/></g></g><g id="g7485" transform="matrix(.59543 0 0 .59543 -40.994 21.014)"><path id="path7487" d="M-40.4 128.6a6.7 6.7 0 11-6.7-6.7c3.7-.1 6.7 3 6.7 6.7z" class="st368"/><g id="g7489" transform="rotate(-45 17.625 29.531)"><path id="path7491" d="M-98.6 53.7s-1.2 1-2.7 1c-1.5 0-2.7-1-2.7-1s1.2-1 2.7-1c1.5 0 2.7 1 2.7 1z" class="st365"/><path id="path7493" d="M-97.9 53.7s1.2-1 2.7-1c1.5 0 2.7 1 2.7 1s-1.2 1-2.7 1c-1.4 0-2.7-1-2.7-1z" class="st365"/><path id="path7495" d="M-98.2 54.1s1 1.2 1 2.7-1 2.7-1 2.7-1-1.2-1-2.7c0-1.5 1-2.7 1-2.7z" class="st365"/><path id="path7497" d="M-98.2 53.4s-1-1.2-1-2.7c0-1.5 1-2.7 1-2.7s1 1.2 1 2.7-1 2.7-1 2.7z" class="st365"/></g></g></g></g></g></g></switch></svg>