<svg xmlns="http://www.w3.org/2000/svg" id="svg2985" x="0" y="0" enable-background="new -214.5 316.4 255 210" version="1.1" viewBox="-214.5 316.4 255 210" xml:space="preserve"><style>.st355{enable-background:new}.st356{fill:#fff}.st357{fill:#2a3b92}</style><switch><g><filter id="filter3970-5" width="1.217" height="1.215" x="-.109" y="-.108" color-interpolation-filters="sRGB"><feGaussianBlur id="feGaussianBlur3972-8" stdDeviation=".128"/></filter><g id="g4630" class="st355" transform="matrix(1.0006 0 0 1 -1.376 203.406)"><g id="g3062"><path id="rect4031" d="M42 263.8l-.2-46.2.2-68.4c.1-22.9-15.9-36.1-40.4-36.1h-154.5c-12.3 0-27.6 14-35.7 21.5-8 7.5-24.3 22.1-24.3 33.6v113.1c0 22.9 5.6 41.3 30.1 41.3l162.2.3c6.4 0 24.3-17.4 32.3-24.8 8.1-7.5 30.3-22.9 30.3-34.3z"/><path id="rect3767" fill="#005f00" d="M29.3 255V150.4c0-13.8-11.1-24.8-24.9-24.9l-152.4-.9c-2 0-32 12.6-32 25.8V255c0 13.8 11.1 24.9 24.9 24.9H4.4c13.8 0 24.9-11.1 24.9-24.9z"/><path id="rect3861" fill="#cddacd" d="M14.3 269.9v-99.6c0-13.8-11.2-24.9-24.9-24.9H-170c-13.8 0-24.9 11.1-24.9 24.9v99.6c0 13.8 11.2 24.9 24.9 24.9h159.4c13.8 0 24.9-11.1 24.9-24.9z"/><path id="rect3765" d="M-.6 279.9V175.3c0-13.8-11.2-24.9-24.9-24.9H-175c-13.8 0-24.9 11.1-24.9 24.9v104.6c0 13.8 11.2 24.9 24.9 24.9h149.4c13.8 0 25-11.1 25-24.9z" class="st356"/><linearGradient id="rect3008_1_" x1="-324.883" x2="-324.883" y1="569.587" y2="531.068" gradientTransform="matrix(0 -4.9837 4.9812 0 -2847.785 -1384.036)" gradientUnits="userSpaceOnUse"><stop offset="0" stop-color="#d0e4cc"/><stop offset="1" stop-color="#fbffec"/></linearGradient><path id="rect3008" fill="url(#rect3008_1_)" d="M-10.6 289.9V180.3c0-11-8.9-19.9-19.9-19.9h-149.4c-11 0-19.9 8.9-19.9 19.9v109.6c0 11 8.9 19.9 19.9 19.9h149.4c11 0 19.9-8.9 19.9-19.9z"/><path id="path3932" d="M16.8 130.2c-1.5 0-2.8 1.3-2.8 2.8s1.3 2.8 2.8 2.8 2.8-1.3 2.8-2.8-1.2-2.8-2.8-2.8z" class="st356"/><g id="path3936" filter="url(#filter3970-5)"><linearGradient id="SVGID_1_" x1="-315.771" x2="-318.887" y1="590.47" y2="587.001" gradientTransform="matrix(0 -7.1056 6.6848 0 -3926.45 -2112.465)" gradientUnits="userSpaceOnUse"><stop offset="0" stop-color="#fff"/><stop offset="1" stop-color="#fff" stop-opacity="0"/></linearGradient><path fill="url(#SVGID_1_)" d="M18.2 135.3l-24.6 28.8-6-8.2 28.3-25.2z"/></g><path id="path3882" d="M-5.1 147.5c-4.8 0-8.7 3.9-8.7 8.7 0 4.8 3.9 8.7 8.7 8.7 4.8 0 8.7-3.9 8.7-8.7 0-4.8-3.9-8.7-8.7-8.7z" class="st356"/><g id="g7265" class="st355" transform="matrix(4.97481 0 0 4.98413 283.644 -198.721)"><g id="g6764" transform="translate(-56.68 -18.563)"><path id="path5789" d="M-16.8 96.6c-2.2 0-4 1.8-4 4s1.8 4 4 4 4-1.8 4-4-1.8-4-4-4z" class="st357"/><g id="g5791" transform="rotate(-45 46.603 15.386) scale(.59543)"><path id="path5793" d="M-98.6 51.8s-1.2-1-2.7-1-2.7 1-2.7 1 1.2 1 2.7 1c1.5 0 2.7-1 2.7-1z" class="st356"/><path id="path5795" d="M-97.9 51.8s1.2 1 2.7 1c1.5 0 2.7-1 2.7-1s-1.2-1-2.7-1c-1.4 0-2.7 1-2.7 1z" class="st356"/><path id="path5797" d="M-98.2 51.4s1-1.2 1-2.7c0-1.5-1-2.7-1-2.7s-1 1.2-1 2.7c0 1.5 1 2.7 1 2.7z" class="st356"/><path id="path5799" d="M-98.2 52.1s-1 1.2-1 2.7c0 1.5 1 2.7 1 2.7s1-1.2 1-2.7c0-1.5-1-2.7-1-2.7z" class="st356"/></g></g><g id="g5801" transform="matrix(.59543 0 0 .59543 -54.549 6.326)"><path id="path5803" d="M-31.8 137.2a6.7 6.7 0 106.7 6.7c0-3.7-2.9-6.7-6.7-6.7z" class="st357"/><g id="g5805" transform="rotate(-45 17.625 29.531)"><path id="path5807" d="M-98.5 75.5s-1.2-1-2.7-1c-1.5 0-2.7 1-2.7 1s1.2 1 2.7 1c1.5 0 2.7-1 2.7-1z" class="st356"/><path id="path5809" d="M-97.8 75.5s1.2 1 2.7 1c1.5 0 2.7-1 2.7-1s-1.2-1-2.7-1c-1.5 0-2.7 1-2.7 1z" class="st356"/><path id="path5811" d="M-98.2 75.2s1-1.2 1-2.7c0-1.5-1-2.7-1-2.7s-1 1.2-1 2.7c0 1.4 1 2.7 1 2.7z" class="st356"/><path id="path5813" d="M-98.2 75.9s-1 1.2-1 2.7c0 1.5 1 2.7 1 2.7s1-1.2 1-2.7c0-1.5-1-2.7-1-2.7z" class="st356"/></g></g><g id="g7181" transform="translate(-56.68 -27.963)"><path id="path7183" d="M-7.4 106c-2.2 0-4 1.8-4 4s1.8 4 4 4 4-1.8 4-4-1.8-4-4-4z" class="st357"/><g id="g7185" transform="rotate(-45 46.603 15.386) scale(.59543)"><path id="path7187" d="M-98.5 74.1s-1.2-1-2.7-1c-1.5 0-2.7 1-2.7 1s1.2 1 2.7 1c1.4 0 2.7-1 2.7-1z" class="st356"/><path id="path7189" d="M-97.8 74.1s1.2 1 2.7 1c1.5 0 2.7-1 2.7-1s-1.2-1-2.7-1c-1.5 0-2.7 1-2.7 1z" class="st356"/><path id="path7191" d="M-98.2 73.8s1-1.2 1-2.7c0-1.5-1-2.7-1-2.7s-1 1.2-1 2.7c0 1.4 1 2.7 1 2.7z" class="st356"/><path id="path7193" d="M-98.2 74.5s-1 1.2-1 2.7c0 1.5 1 2.7 1 2.7s1-1.2 1-2.7c0-1.5-1-2.7-1-2.7z" class="st356"/></g></g><g id="g7195" transform="matrix(.59543 0 0 .59543 -54.549 -3.074)"><path id="path7197" d="M-16 153a6.7 6.7 0 106.7 6.7c0-3.7-2.9-6.7-6.7-6.7z" class="st357"/><g id="g7199" transform="rotate(-45 17.625 29.531)"><path id="path7201" d="M-98.5 97.8s-1.2-1-2.7-1c-1.5 0-2.7 1-2.7 1s1.2 1 2.7 1c1.5 0 2.7-1 2.7-1z" class="st356"/><path id="path7203" d="M-97.8 97.8s1.2 1 2.7 1c1.5 0 2.7-1 2.7-1s-1.2-1-2.7-1c-1.5 0-2.7 1-2.7 1z" class="st356"/><path id="path7205" d="M-98.2 97.5s1-1.2 1-2.7c0-1.5-1-2.7-1-2.7s-1 1.2-1 2.7c0 1.5 1 2.7 1 2.7z" class="st356"/><path id="path7207" d="M-98.2 98.2s-1 1.2-1 2.7c0 1.5 1 2.7 1 2.7s1-1.2 1-2.7c0-1.5-1-2.7-1-2.7z" class="st356"/></g></g><g id="g7209" transform="translate(-56.68 -9.163)"><path id="path7211" d="M-26.2 87.2c-2.2 0-4 1.8-4 4s1.8 4 4 4 4-1.8 4-4-1.8-4-4-4z" class="st357"/><g id="g7213" transform="rotate(-45 46.603 15.386) scale(.59543)"><path id="path7215" d="M-98.6 29.4s-1.2-1-2.7-1c-1.5 0-2.7 1-2.7 1s1.2 1 2.7 1c1.5 0 2.7-1 2.7-1z" class="st356"/><path id="path7217" d="M-97.9 29.4s1.2 1 2.7 1c1.5 0 2.7-1 2.7-1s-1.2-1-2.7-1c-1.5 0-2.7 1-2.7 1z" class="st356"/><path id="path7219" d="M-98.2 29.1s1-1.2 1-2.7c0-1.5-1-2.7-1-2.7s-1 1.2-1 2.7c0 1.5 1 2.7 1 2.7z" class="st356"/><path id="path7221" d="M-98.2 29.8s-1 1.2-1 2.7c0 1.5 1 2.7 1 2.7s1-1.2 1-2.7c0-1.5-1-2.7-1-2.7z" class="st356"/></g></g><g id="g7223" transform="matrix(.59543 0 0 .59543 -54.549 15.726)"><path id="path7225" d="M-47.6 121.4a6.7 6.7 0 106.7 6.7c.1-3.7-3-6.7-6.7-6.7z" class="st357"/><g id="g7227" transform="rotate(-45 17.625 29.531)"><path id="path7229" d="M-98.6 53.2s-1.2-1-2.7-1c-1.5 0-2.7 1-2.7 1s1.2 1 2.7 1c1.5 0 2.7-1 2.7-1z" class="st356"/><path id="path7231" d="M-97.9 53.2s1.2 1 2.7 1 2.7-1 2.7-1-1.2-1-2.7-1c-1.4 0-2.7 1-2.7 1z" class="st356"/><path id="path7233" d="M-98.2 52.8s1-1.2 1-2.7c0-1.5-1-2.7-1-2.7s-1 1.2-1 2.7c0 1.5 1 2.7 1 2.7z" class="st356"/><path id="path7235" d="M-98.2 53.5s-1 1.2-1 2.7c0 1.5 1 2.7 1 2.7s1-1.2 1-2.7c0-1.5-1-2.7-1-2.7z" class="st356"/></g></g><g id="g7237" transform="translate(-56.68 .237)"><path id="path7239" d="M-35.6 77.8c-2.2 0-4 1.8-4 4s1.8 4 4 4 4-1.8 4-4-1.8-4-4-4z" class="st357"/><g id="g7241" transform="rotate(-45 46.603 15.386) scale(.59543)"><path id="path7243" d="M-98.6 7.1s-1.2-1-2.7-1-2.7 1-2.7 1 1.2 1 2.7 1c1.5 0 2.7-1 2.7-1z" class="st356"/><path id="path7245" d="M-97.9 7.1s1.2 1 2.7 1c1.5 0 2.7-1 2.7-1s-1.2-1-2.7-1c-1.5 0-2.7 1-2.7 1z" class="st356"/><path id="path7247" d="M-98.2 6.7s1-1.2 1-2.7c0-1.5-1-2.7-1-2.7s-1 1.2-1 2.7c0 1.5 1 2.7 1 2.7z" class="st356"/><path id="path7249" d="M-98.2 7.4s-1 1.2-1 2.7c0 1.5 1 2.7 1 2.7s1-1.2 1-2.7c0-1.5-1-2.7-1-2.7z" class="st356"/></g></g><g id="g7251" transform="matrix(.59543 0 0 .59543 -54.549 25.126)"><path id="path7253" d="M-63.4 105.7a6.7 6.7 0 100 13.4 6.7 6.7 0 000-13.4z" class="st357"/><g id="g7255" transform="rotate(-45 17.625 29.531)"><path id="path7257" d="M-98.6 30.8s-1.2-1-2.7-1c-1.5 0-2.7 1-2.7 1s1.2 1 2.7 1c1.5 0 2.7-1 2.7-1z" class="st356"/><path id="path7259" d="M-97.9 30.8s1.2 1 2.7 1c1.5 0 2.7-1 2.7-1s-1.2-1-2.7-1-2.7 1-2.7 1z" class="st356"/><path id="path7261" d="M-98.2 30.5s1-1.2 1-2.7c0-1.5-1-2.7-1-2.7s-1 1.2-1 2.7c0 1.5 1 2.7 1 2.7z" class="st356"/><path id="path7263" d="M-98.2 31.2s-1 1.2-1 2.7c0 1.5 1 2.7 1 2.7s1-1.2 1-2.7c0-1.5-1-2.7-1-2.7z" class="st356"/></g></g></g></g></g></g></switch></svg>