<svg xmlns="http://www.w3.org/2000/svg" id="svg2985" x="0" y="0" enable-background="new -192 293.9 210 255" version="1.1" viewBox="-192 293.9 210 255" xml:space="preserve"><style>.st541{fill:#fff}</style><switch><g><filter id="filter3970-5" width="1.217" height="1.215" x="-.109" y="-.108" color-interpolation-filters="sRGB"><feGaussianBlur id="feGaussianBlur3972-8" stdDeviation=".128"/></filter><g id="g4630" transform="matrix(1.0006 0 0 1 -1.376 203.406)"><g id="g3062"><path id="rect4031" d="M-131.2 90.5l46.1.2 68.4-.2c22.9-.1 36.1 15.9 36.1 40.4v154.6c0 12.3-14 27.7-21.4 35.7s-22.1 24.3-33.6 24.3h-113c-22.9 0-41.3-5.6-41.3-30.2l-.3-162.3c0-6.4 17.3-24.3 24.8-32.4 7.4-8 22.7-30.2 34.2-30.1z"/><path id="rect3767" fill="#005f00" d="M-122.4 103.2h104.5c13.8 0 24.8 11.1 24.9 24.9l.9 152.4c0 2-12.6 32-25.8 32h-104.5c-13.8 0-24.9-11.1-24.9-24.9V128.1c0-13.8 11.1-24.9 24.9-24.9z"/><path id="rect3861" fill="#cddacd" d="M-137.4 118.1h99.6c13.7 0 24.9 11.2 24.9 24.9v159.5c0 13.8-11.1 24.9-24.9 24.9h-99.6c-13.7 0-24.9-11.2-24.9-24.9V143.1c0-13.8 11.2-25 24.9-25z"/><path id="rect3765" d="M-147.3 133.1h104.5c13.7 0 24.9 11.2 24.9 24.9v149.5c0 13.8-11.1 24.9-24.9 24.9h-104.5c-13.7 0-24.9-11.2-24.9-24.9V158c0-13.7 11.1-24.9 24.9-24.9z" class="st541"/><linearGradient id="rect3008_1_" x1="-324.883" x2="-324.883" y1="569.587" y2="531.068" gradientTransform="matrix(4.9807 0 0 -4.9841 1515.62 2981.96)" gradientUnits="userSpaceOnUse"><stop offset="0" stop-color="#d0e4cc"/><stop offset="1" stop-color="#fbffec"/></linearGradient><path id="rect3008" fill="url(#rect3008_1_)" d="M-157.3 143.1h109.5c11 0 19.9 8.9 19.9 19.9v149.5c0 11-8.9 19.9-19.9 19.9h-109.5c-11 0-19.9-8.9-19.9-19.9V163c0-11 8.9-19.9 19.9-19.9z"/><path id="path3932" d="M2.2 115.7c0 1.5-1.3 2.8-2.8 2.8s-2.8-1.3-2.8-2.8 1.3-2.8 2.8-2.8 2.8 1.2 2.8 2.8z" class="st541"/><g id="path3936" filter="url(#filter3970-5)"><linearGradient id="SVGID_1_" x1="-315.771" x2="-318.887" y1="590.47" y2="587.001" gradientTransform="matrix(7.1013 0 0 -6.6887 2243.616 4061.265)" gradientUnits="userSpaceOnUse"><stop offset="0" stop-color="#fff"/><stop offset="1" stop-color="#fff" stop-opacity="0"/></linearGradient><path fill="url(#SVGID_1_)" d="M-2.8 114.3l-28.8 24.6 8.2 6 25.2-28.3z"/></g><path id="path3882" d="M-15 137.6c0 4.8-3.9 8.7-8.7 8.7-4.8 0-8.7-3.9-8.7-8.7 0-4.8 3.9-8.7 8.7-8.7 4.7 0 8.7 3.9 8.7 8.7z" class="st541"/></g></g><path fill="#e6491c" stroke="#e6491c" stroke-linecap="round" stroke-miterlimit="10" stroke-width="10" d="M-135 395.7c7.5.7 11.2 4.2 11.2 10.8 0 7.2-3.7 10.8-11 10.8-8.3 0-12.4-5.5-12.4-16.4 0-9.6 3.9-18.3 11.6-26 8.8-9 20-13.5 33.5-13.5 14.7 0 26.4 4.4 35.2 13.1 7.2 7 10.8 16.2 10.8 27.8 0 14.6-7.9 27.2-23.6 37.8l-6.9 4.7c-11 7.4-16.5 17.7-16.5 30.9v5.2h-9v-5.6c0-13.9 5.1-25.6 15.2-34.9l4.1-3.8c7.7-7.3 12.7-12.8 14.9-16.4 3-4.9 4.5-10.7 4.5-17.4 0-9.9-2.9-17.9-8.8-24-5.6-6-12.8-9-21.8-9-9.7 0-17.8 3.6-24.3 10.8-3.8 4.3-6.1 9.4-6.7 15.1zm28.5 102.8c3.2 0 6 1.2 8.5 3.6 2.6 2.6 3.8 5.5 3.8 8.9 0 8.3-4.1 12.4-12.3 12.4-8.4 0-12.6-4.1-12.6-12.4 0-3.2 1.3-6.1 3.8-8.7 2.5-2.5 5.5-3.8 8.8-3.8z"/></g></switch></svg>