<svg xmlns="http://www.w3.org/2000/svg" id="svg2985" x="0" y="0" enable-background="new -214.5 269.4 255 361.9" version="1.1" viewBox="-214.5 269.4 255 361.9" xml:space="preserve"><style>.st255{enable-background:new}.st256{fill:#005f00}.st257{fill:#cddacd}.st258{fill:#fff}.st259{filter:url(#filter3970-5)}.st260{fill:#bf3718}.st261{fill:#2a3b92}.st262{fill:#038249}</style><switch><g><filter id="filter3970-5" width="1.217" height="1.215" x="-.109" y="-.108" color-interpolation-filters="sRGB"><feGaussianBlur id="feGaussianBlur3972-8" stdDeviation=".128"/></filter><g id="g4630" class="st255" transform="matrix(1.0006 0 0 1 -1.376 203.406)"><g id="g3062"><path id="rect4031" d="M42 368.9l-.2-46.2.1-75.4c0-5.5-4.5-14.9-10-14.7 5.5.3 10-9.1 10-14.5l.1-115.8c.1-22.9-15.9-36.1-40.4-36.1h-154.5c-12.3 0-27.6 14-35.7 21.5-8 7.5-24.3 22.1-24.3 33.6v124.8c0 5.1 3.9 14.2 9 14.5-5 0-9 9-9 14v111.7c0 22.9 5.6 41.3 30.1 41.3l162.2.3c6.4 0 24.3-17.4 32.3-24.8 8.1-7.4 30.3-22.8 30.3-34.2z"/><path id="rect3767" d="M29.3 360.1V255.5c0-13.8-11.1-24.8-24.9-24.9l-152.4-.9c-2 0-32 12.6-32 25.8v104.6c0 13.8 11.1 24.9 24.9 24.9H4.4c13.8 0 24.9-11.1 24.9-24.9z" class="st256"/><path id="rect3861" d="M14.3 375.1v-99.6c0-13.8-11.2-24.9-24.9-24.9H-170c-13.8 0-24.9 11.1-24.9 24.9v99.6c0 13.8 11.2 24.9 24.9 24.9h159.4c13.8 0 24.9-11.2 24.9-24.9z" class="st257"/><path id="rect3765" d="M-.6 385V280.4c0-13.8-11.2-24.9-24.9-24.9H-175c-13.8 0-24.9 11.1-24.9 24.9V385c0 13.8 11.2 24.9 24.9 24.9h149.4c13.8 0 25-11.1 25-24.9z" class="st258"/><linearGradient id="rect3008_2_" x1="-303.791" x2="-303.791" y1="569.587" y2="531.068" gradientTransform="matrix(0 4.9837 4.9812 0 -2847.785 1854.184)" gradientUnits="userSpaceOnUse"><stop offset="0" stop-color="#d0e4cc"/><stop offset="1" stop-color="#fbffec"/></linearGradient><path id="rect3008" fill="url(#rect3008_2_)" d="M-10.6 285.4V395c0 11-8.9 19.9-19.9 19.9h-149.4c-11 0-19.9-8.9-19.9-19.9V285.4c0-11 8.9-19.9 19.9-19.9h149.4c11 0 19.9 8.9 19.9 19.9z"/><path id="path3932" d="M16.8 235.4c-1.5 0-2.8 1.3-2.8 2.8s1.3 2.8 2.8 2.8 2.8-1.3 2.8-2.8-1.2-2.8-2.8-2.8z" class="st258"/><g id="path3936" class="st259"><linearGradient id="SVGID_1_" x1="-330.564" x2="-333.68" y1="590.47" y2="587.001" gradientTransform="matrix(0 -7.1056 6.6848 0 -3926.449 -2112.465)" gradientUnits="userSpaceOnUse"><stop offset="0" stop-color="#fff"/><stop offset="1" stop-color="#fff" stop-opacity="0"/></linearGradient><path fill="url(#SVGID_1_)" d="M18.2 240.4l-24.6 28.8-6-8.2 28.3-25.2z"/></g><path id="path3882" d="M-5.1 252.7c-4.8 0-8.7 3.9-8.7 8.7 0 4.8 3.9 8.7 8.7 8.7 4.8 0 8.7-3.9 8.7-8.7 0-4.8-3.9-8.7-8.7-8.7z" class="st258"/></g></g><g id="g4630_1_" class="st255" transform="matrix(1.0006 0 0 1 -1.376 203.406)"><g id="g3062_1_"><path id="rect3767_1_" d="M29.3 209.1V104.5c0-13.8-11.1-24.8-24.9-24.9l-152.4-.9c-2 0-32 12.6-32 25.8v104.6c0 13.8 11.1 24.9 24.9 24.9H4.4c13.8 0 24.9-11.1 24.9-24.9z" class="st256"/><path id="rect3861_1_" d="M14.3 224.1v-99.6c0-13.8-11.2-24.9-24.9-24.9H-170c-13.8 0-24.9 11.1-24.9 24.9v99.6c0 13.8 11.2 24.9 24.9 24.9h159.4c13.8 0 24.9-11.2 24.9-24.9z" class="st257"/><path id="rect3765_1_" d="M-.6 234V129.4c0-13.8-11.2-24.9-24.9-24.9H-175c-13.8 0-24.9 11.1-24.9 24.9V234c0 13.8 11.2 24.9 24.9 24.9h149.4c13.8 0 25-11.1 25-24.9z" class="st258"/><linearGradient id="rect3008_3_" x1="-334.09" x2="-334.09" y1="569.587" y2="531.068" gradientTransform="matrix(0 4.9837 4.9812 0 -2847.785 1854.184)" gradientUnits="userSpaceOnUse"><stop offset="0" stop-color="#d0e4cc"/><stop offset="1" stop-color="#fbffec"/></linearGradient><path id="rect3008_1_" fill="url(#rect3008_3_)" d="M-10.6 134.4V244c0 11-8.9 19.9-19.9 19.9h-149.4c-11 0-19.9-8.9-19.9-19.9V134.4c0-11 8.9-19.9 19.9-19.9h149.4c11 0 19.9 8.9 19.9 19.9z"/><path id="path3932_1_" d="M16.8 84.4c-1.5 0-2.8 1.3-2.8 2.8 0 1.5 1.3 2.8 2.8 2.8s2.8-1.3 2.8-2.8c0-1.6-1.2-2.8-2.8-2.8z" class="st258"/><g id="path3936_1_" class="st259"><linearGradient id="SVGID_2_" x1="-309.313" x2="-312.429" y1="590.47" y2="587.001" gradientTransform="matrix(0 -7.1056 6.6848 0 -3926.449 -2112.465)" gradientUnits="userSpaceOnUse"><stop offset="0" stop-color="#fff"/><stop offset="1" stop-color="#fff" stop-opacity="0"/></linearGradient><path fill="url(#SVGID_2_)" d="M18.2 89.4l-24.6 28.8-6-8.2 28.3-25.2z"/></g><path id="path3882_1_" d="M-5.1 101.7c-4.8 0-8.7 3.9-8.7 8.7 0 4.8 3.9 8.7 8.7 8.7 4.8 0 8.7-3.9 8.7-8.7 0-4.8-3.9-8.7-8.7-8.7z" class="st258"/></g></g><g id="g3383" class="st255" transform="matrix(.99247 0 0 1 -.326 -201.684)"><g id="g3897_2_" transform="matrix(4.25073 0 0 4.26397 13.116 4.295)"><g id="g3911_2_" transform="translate(0 4)"><path id="path3899_2_" d="M-28.7 163.7c-3.7 0-6.8 3-6.8 6.7s3 6.7 6.8 6.7 6.8-3 6.8-6.7-3.1-6.7-6.8-6.7z" class="st260"/><g id="g3901_2_" transform="rotate(-45 17.625 29.531)"><path id="path3903_2_" d="M-115.1 96.3s-1.2-1-2.7-1c-1.5 0-2.7 1-2.7 1s1.2 1 2.7 1c1.5 0 2.7-1 2.7-1z" class="st258"/><path id="path3905_2_" d="M-114.4 96.3s1.2 1 2.7 1c1.5 0 2.7-1 2.7-1s-1.2-1-2.7-1-2.7 1-2.7 1z" class="st258"/><path id="path3907_2_" d="M-114.7 96s1-1.2 1-2.7c0-1.5-1-2.7-1-2.7s-1 1.2-1 2.7c0 1.5 1 2.7 1 2.7z" class="st258"/><path id="path3909_2_" d="M-114.7 96.7s-1 1.2-1 2.7c0 1.5 1 2.7 1 2.7s1-1.2 1-2.7c0-1.5-1-2.7-1-2.7z" class="st258"/></g></g></g><g id="g3977" transform="matrix(4.25073 0 0 4.26397 -21.958 -48.947)"><g id="g3979" transform="translate(0 4)"><path id="path3981" d="M-7.9 184.3c-3.7 0-6.8 3-6.8 6.7s3 6.7 6.8 6.7 6.8-3 6.8-6.7-3-6.7-6.8-6.7z" class="st261"/><g id="g3983" transform="rotate(-45 17.625 29.531)"><path id="path3985" d="M-114.9 125.7s-1.2-1-2.7-1-2.7 1-2.7 1 1.2 1 2.7 1 2.7-1 2.7-1z" class="st258"/><path id="path3987" d="M-114.2 125.7s1.2 1 2.7 1c1.5 0 2.7-1 2.7-1s-1.2-1-2.7-1-2.7 1-2.7 1z" class="st258"/><path id="path3989" d="M-114.6 125.3s1-1.2 1-2.7c0-1.5-1-2.7-1-2.7s-1 1.2-1 2.7 1 2.7 1 2.7z" class="st258"/><path id="path3991" d="M-114.6 126s-1 1.2-1 2.7c0 1.5 1 2.7 1 2.7s1-1.2 1-2.7c.1-1.4-1-2.7-1-2.7z" class="st258"/></g></g></g><g id="g3993" transform="matrix(4.25073 0 0 4.26397 52.845 54.112)"><g id="g3995" transform="translate(0 4)"><path id="path3997" d="M-49.9 142.7c-3.7 0-6.8 3-6.8 6.7s3 6.7 6.8 6.7c3.7 0 6.8-3 6.8-6.7s-3-6.7-6.8-6.7z" class="st262"/><g id="g3999" transform="rotate(-45 17.625 29.531)"><path id="path4001" d="M-115.2 66.6s-1.2-1-2.7-1-2.7 1-2.7 1 1.2 1 2.7 1c1.5-.1 2.7-1 2.7-1z" class="st258"/><path id="path4003" d="M-114.5 66.6s1.2 1 2.7 1c1.5 0 2.7-1 2.7-1s-1.2-1-2.7-1c-1.5 0-2.7 1-2.7 1z" class="st258"/><path id="path4005" d="M-114.9 66.2s1-1.2 1-2.7c0-1.5-1-2.7-1-2.7s-1 1.2-1 2.7c0 1.5 1 2.7 1 2.7z" class="st258"/><path id="path4007" d="M-114.9 66.9s-1 1.2-1 2.7 1 2.7 1 2.7 1-1.2 1-2.7c0-1.5-1-2.7-1-2.7z" class="st258"/></g></g></g></g><g id="g3383_1_" class="st255" transform="matrix(.99247 0 0 1 -.326 -201.684)"><g id="g3897_3_" transform="matrix(4.25073 0 0 4.26397 13.116 4.295)"><g id="g3911_3_" transform="translate(0 4)"><path id="path3899_3_" d="M-28.7 128.2c-3.7 0-6.8 3-6.8 6.7s3 6.7 6.8 6.7 6.8-3 6.8-6.7-3.1-6.7-6.8-6.7z" class="st260"/><g id="g3901_3_" transform="rotate(-45 17.625 29.531)"><path id="path3903_3_" d="M-90 71.2s-1.2-1-2.7-1c-1.5 0-2.7 1-2.7 1s1.2 1 2.7 1 2.7-1 2.7-1z" class="st258"/><path id="path3905_3_" d="M-89.3 71.3s1.2 1 2.7 1c1.5 0 2.7-1 2.7-1s-1.2-1-2.7-1c-1.5 0-2.7 1-2.7 1z" class="st258"/><path id="path3907_3_" d="M-89.6 70.9s1-1.2 1-2.7-1-2.7-1-2.7-1 1.2-1 2.7c-.1 1.5 1 2.7 1 2.7z" class="st258"/><path id="path3909_3_" d="M-89.6 71.6s-1 1.2-1 2.7c0 1.5 1 2.7 1 2.7s1-1.2 1-2.7c0-1.5-1-2.7-1-2.7z" class="st258"/></g></g></g><g id="g3977_1_" transform="matrix(4.25073 0 0 4.26397 -21.958 -48.947)"><g id="g3979_1_" transform="translate(0 4)"><path id="path3981_1_" d="M-7.9 148.9c-3.7 0-6.8 3-6.8 6.7s3 6.7 6.8 6.7 6.8-3 6.8-6.7-3-6.7-6.8-6.7z" class="st261"/><g id="g3983_1_" transform="rotate(-45 17.625 29.531)"><path id="path3985_1_" d="M-89.8 100.6s-1.2-1-2.7-1-2.7 1-2.7 1 1.2 1 2.7 1c1.5 0 2.7-1 2.7-1z" class="st258"/><path id="path3987_1_" d="M-89.1 100.6s1.2 1 2.7 1 2.7-1 2.7-1-1.2-1-2.7-1-2.7 1-2.7 1z" class="st258"/><path id="path3989_1_" d="M-89.5 100.3s1-1.2 1-2.7c0-1.5-1-2.7-1-2.7s-1 1.2-1 2.7c0 1.4 1 2.7 1 2.7z" class="st258"/><path id="path3991_1_" d="M-89.5 101s-1 1.2-1 2.7c0 1.5 1 2.7 1 2.7s1-1.2 1-2.7c0-1.5-1-2.7-1-2.7z" class="st258"/></g></g></g><g id="g3993_1_" transform="matrix(4.25073 0 0 4.26397 52.845 54.112)"><g id="g3995_1_" transform="translate(0 4)"><path id="path3997_1_" d="M-49.9 107.3c-3.7 0-6.8 3-6.8 6.7s3 6.7 6.8 6.7c3.7 0 6.8-3 6.8-6.7s-3-6.7-6.8-6.7z" class="st262"/><g id="g3999_1_" transform="rotate(-45 17.625 29.531)"><path id="path4001_1_" d="M-90.2 41.5s-1.2-1-2.7-1c-1.5 0-2.7 1-2.7 1s1.2 1 2.7 1c1.6 0 2.7-1 2.7-1z" class="st258"/><path id="path4003_1_" d="M-89.4 41.5s1.2 1 2.7 1c1.5 0 2.7-1 2.7-1s-1.2-1-2.7-1c-1.6 0-2.7 1-2.7 1z" class="st258"/><path id="path4005_1_" d="M-89.8 41.1s1-1.2 1-2.7c0-1.5-1-2.7-1-2.7s-1 1.2-1 2.7c0 1.5 1 2.7 1 2.7z" class="st258"/><path id="path4007_1_" d="M-89.8 41.8s-1 1.2-1 2.7c0 1.5 1 2.7 1 2.7s1-1.2 1-2.7c0-1.4-1-2.7-1-2.7z" class="st258"/></g></g></g></g></g></switch></svg>