<svg xmlns="http://www.w3.org/2000/svg" id="svg2985" x="0" y="0" enable-background="new -214.5 269.4 255 361.9" version="1.1" viewBox="-214.5 269.4 255 361.9" xml:space="preserve"><style>.st165{enable-background:new}.st166{fill:#005f00}.st167{fill:#cddacd}.st168{fill:#fff}.st169{filter:url(#filter3970-5)}.st170{fill:#2a3b92}.st171{fill:#bf3718}</style><switch><g><filter id="filter3970-5" width="1.217" height="1.215" x="-.109" y="-.108" color-interpolation-filters="sRGB"><feGaussianBlur id="feGaussianBlur3972-8" stdDeviation=".128"/></filter><g id="g4630" class="st165" transform="matrix(1.0006 0 0 1 -1.376 203.406)"><g id="g3062"><path id="rect4031" d="M42 368.9l-.2-46.2.1-75.4c0-5.5-4.5-14.9-10-14.7 5.5.3 10-9.1 10-14.5l.1-115.8c.1-22.9-15.9-36.1-40.4-36.1h-154.5c-12.3 0-27.6 14-35.7 21.5-8 7.5-24.3 22.1-24.3 33.6v124.8c0 5.1 3.9 14.2 9 14.5-5 0-9 9-9 14v111.7c0 22.9 5.6 41.3 30.1 41.3l162.2.3c6.4 0 24.3-17.4 32.3-24.8 8.1-7.4 30.3-22.8 30.3-34.2z"/><path id="rect3767" d="M29.3 360.1V255.5c0-13.8-11.1-24.8-24.9-24.9l-152.4-.9c-2 0-32 12.6-32 25.8v104.6c0 13.8 11.1 24.9 24.9 24.9H4.4c13.8 0 24.9-11.1 24.9-24.9z" class="st166"/><path id="rect3861" d="M14.3 375.1v-99.6c0-13.8-11.2-24.9-24.9-24.9H-170c-13.8 0-24.9 11.1-24.9 24.9v99.6c0 13.8 11.2 24.9 24.9 24.9h159.4c13.8 0 24.9-11.2 24.9-24.9z" class="st167"/><path id="rect3765" d="M-.6 385V280.4c0-13.8-11.2-24.9-24.9-24.9H-175c-13.8 0-24.9 11.1-24.9 24.9V385c0 13.8 11.2 24.9 24.9 24.9h149.4c13.8 0 25-11.1 25-24.9z" class="st168"/><linearGradient id="rect3008_2_" x1="-303.791" x2="-303.791" y1="569.587" y2="531.068" gradientTransform="matrix(0 4.9837 4.9812 0 -2847.785 1854.184)" gradientUnits="userSpaceOnUse"><stop offset="0" stop-color="#d0e4cc"/><stop offset="1" stop-color="#fbffec"/></linearGradient><path id="rect3008" fill="url(#rect3008_2_)" d="M-10.6 285.4V395c0 11-8.9 19.9-19.9 19.9h-149.4c-11 0-19.9-8.9-19.9-19.9V285.4c0-11 8.9-19.9 19.9-19.9h149.4c11 0 19.9 8.9 19.9 19.9z"/><path id="path3932" d="M16.8 235.4c-1.5 0-2.8 1.3-2.8 2.8s1.3 2.8 2.8 2.8 2.8-1.3 2.8-2.8-1.2-2.8-2.8-2.8z" class="st168"/><g id="path3936" class="st169"><linearGradient id="SVGID_1_" x1="-330.564" x2="-333.68" y1="590.47" y2="587.001" gradientTransform="matrix(0 -7.1056 6.6848 0 -3926.449 -2112.465)" gradientUnits="userSpaceOnUse"><stop offset="0" stop-color="#fff"/><stop offset="1" stop-color="#fff" stop-opacity="0"/></linearGradient><path fill="url(#SVGID_1_)" d="M18.2 240.4l-24.6 28.8-6-8.2 28.3-25.2z"/></g><path id="path3882" d="M-5.1 252.7c-4.8 0-8.7 3.9-8.7 8.7 0 4.8 3.9 8.7 8.7 8.7 4.8 0 8.7-3.9 8.7-8.7 0-4.8-3.9-8.7-8.7-8.7z" class="st168"/></g></g><g id="g4630_1_" class="st165" transform="matrix(1.0006 0 0 1 -1.376 203.406)"><g id="g3062_1_"><path id="rect3767_1_" d="M29.3 209.1V104.5c0-13.8-11.1-24.8-24.9-24.9l-152.4-.9c-2 0-32 12.6-32 25.8v104.6c0 13.8 11.1 24.9 24.9 24.9H4.4c13.8 0 24.9-11.1 24.9-24.9z" class="st166"/><path id="rect3861_1_" d="M14.3 224.1v-99.6c0-13.8-11.2-24.9-24.9-24.9H-170c-13.8 0-24.9 11.1-24.9 24.9v99.6c0 13.8 11.2 24.9 24.9 24.9h159.4c13.8 0 24.9-11.2 24.9-24.9z" class="st167"/><path id="rect3765_1_" d="M-.6 234V129.4c0-13.8-11.2-24.9-24.9-24.9H-175c-13.8 0-24.9 11.1-24.9 24.9V234c0 13.8 11.2 24.9 24.9 24.9h149.4c13.8 0 25-11.1 25-24.9z" class="st168"/><linearGradient id="rect3008_3_" x1="-334.09" x2="-334.09" y1="569.587" y2="531.068" gradientTransform="matrix(0 4.9837 4.9812 0 -2847.785 1854.184)" gradientUnits="userSpaceOnUse"><stop offset="0" stop-color="#d0e4cc"/><stop offset="1" stop-color="#fbffec"/></linearGradient><path id="rect3008_1_" fill="url(#rect3008_3_)" d="M-10.6 134.4V244c0 11-8.9 19.9-19.9 19.9h-149.4c-11 0-19.9-8.9-19.9-19.9V134.4c0-11 8.9-19.9 19.9-19.9h149.4c11 0 19.9 8.9 19.9 19.9z"/><path id="path3932_1_" d="M16.8 84.4c-1.5 0-2.8 1.3-2.8 2.8 0 1.5 1.3 2.8 2.8 2.8s2.8-1.3 2.8-2.8c0-1.6-1.2-2.8-2.8-2.8z" class="st168"/><g id="path3936_1_" class="st169"><linearGradient id="SVGID_2_" x1="-309.313" x2="-312.429" y1="590.47" y2="587.001" gradientTransform="matrix(0 -7.1056 6.6848 0 -3926.449 -2112.465)" gradientUnits="userSpaceOnUse"><stop offset="0" stop-color="#fff"/><stop offset="1" stop-color="#fff" stop-opacity="0"/></linearGradient><path fill="url(#SVGID_2_)" d="M18.2 89.4l-24.6 28.8-6-8.2 28.3-25.2z"/></g><path id="path3882_1_" d="M-5.1 101.7c-4.8 0-8.7 3.9-8.7 8.7 0 4.8 3.9 8.7 8.7 8.7 4.8 0 8.7-3.9 8.7-8.7 0-4.8-3.9-8.7-8.7-8.7z" class="st168"/></g></g><path d="M-57.9 565.6c-.8-3.2-4.7-18-5.9-19.9-3.2-.3-8.1-.8-10.8 1.6-5.2 4.6-5.9 19.4-5 26.1-.1 2.9-1.3 5.3-3.2 6.5-2.2.7-3.3 1.8-4.9 1.1-4.2-1.8-3.6-9-5.6-12.2-2-3.2.1-3.1-2.3-10.1-2.1-6.1 4.9 10.1 5.8 8.3.9-1.7-.1-7.3.1-10.8.3-4.4 2.2-8.5 4.4-12.5 2.1-3.9 8.1-9.7 12.1-9.8 1.2-1.3 4.3.3 4.6-1.1.3-1.1-8.9-20.1-10-22.8-1.3-2.8-2.7-6.2-1.2-9.3 1.4-2.4 3.4-4.6 4.9-7 .5-.9 1.1-2.3 1.6-3.1 1-1.2 2.2-1.1 3 .4v2.8c.1 2.8 10.7 35 12.6 38.6 2 .1 4-.1 5.9 0 4.9.1 9.8-.1 12-.5 1.8-1.8 4.1-2.4 4.6-4.1.6-2 1.1-2.4 2.6-3.5 1.3-.9 2.1-2.3 3.6-1.3 5.4 3.4-2.2 19.3-5.6 21.9-5.1 4-17.2-2.6-18.9-.3 2 10.4 5.7 20.1 7.4 30.4.8 4.2.5 10-.7 14-.7 2-3 7.3-5.2 6.6-5-1.4-4.6-24.2-5.9-30z" class="st170"/><path d="M-170.3 588.5c-7.6-5-16.3-5.8-23-13.2-1.7-1.8-4.5-5.7-4.6-8.3.5-.7 1.1-1.3 1.3-2.4 1.9-.3 3.1-2.2 4.7-3.2.9-1.8 6.4-7.1 7.9-8.8-2.8 6.1-2 9.2-3 15.3 2.6 3.6 18 10.6 21.8 9.3 2.4-.8.9-18.3-.2-21-3.6 2.6-3.8 10.5-11.5 9.6-1.3.4-2.5-.3-3.5-1.1-.9-3.6 1-4.6 2.7-6.7.1-8.1-7.5-27.1-7.5-29.1 2.8-2.3 3.6-8.9 8-4.8-.7 3.6 1.4 8.3 3 11.4 1.3 1.1 3.2 1.6 4.7.8l-5.8-18.3c-6 1.5-10.9 3.2-17.2 1.5 1.2-2.6 2.9-3.8 4.9-5.3 2.3-3.6 5.9-1.6 9-3-.2-1.6-.9-3-1-4.4-1-2.7 4-7.5 5.3-5.4.6 2.4 1 5.4 2.1 7.5 1.7 0 4.1-.3 4.6 2.4 1.5 2.3 6.8 15.1 7.9 15.3 2.3-5.8 13.7-9.2 18.5-11.3 1.2.3 3.4-.7 4 1.2.8.8 1 2 .8 3.1l-1 .7c1.4 3.1 3.3 5.9 4.3 9.2 2-1.9 4.8-2 5.9-3.2-.7-1.8-5.3-11.6-4.8-12.7.6-1.5 1.9-2 2.6-3.5.8.5 3.3-3 5.5-1.6.9 3 1 2.6-.3 5.3 0 2.8 1 8.9 2 11.4 1.1 2.7 13.1-5.5 15.2-5.1-.3 3-.9 6.2-2.4 8.8-1.3 2.3-6.7 7.8-9.1 7.1-1.4.7.4 9.7.8 11.2 2.8 1.6 5.9 2.2 8.8 3.2 2.4.9 5.3-2.6 6.4-4.8 2.5.1.7 10.1-.1 11.8-3.2 6.9-7.7 5-12.1 1.6-.5 1.6 2.8 10.8 2.1 13.9-1.8 1.1-4.1 7-6.7 6.2 0-2.7-2.5-23.3-3.3-24.4-.3-2.2-5.3-5.1-6.5-7.3.4 4.6 1.5 10.2 1.2 14.8-.2 4.2-4.7 13.2-8.7 11.8-3.7-1.2-16.8-9.8-18.4-14-.9-1.1-.3-3.4.1-4.7l1.2-.3c-.3-1.9-1.5-2.3-1.5-5.1 0-1.1-.1-2.3-.7-3.2-3.4-.7-1.6-.4-5.5-.7.1 1.5.4 3 .8 4.4 1.4 7.1 3.1 18.6 2.3 25.9 1.4 2.6-.2 8.3-1.9 10.4-1.1 1.3-3.3 3.9-4.8 4.2-2.3.4-3.3-1.2-5.3-2.4zm10.5-54c-.1-3.6-7.1-19.4-9.3-21.8-2.2 1.8 4.6 19.9 5.7 23.4 1.3.8 2.9.4 4.3.4l-.7-2zm23.3-.1c-.5-2.8-1.3-10.1-3.3-11.4-1.7.1-3.4-.5-5 .4-3.3 1.9-5.8 2.7-9.5 2.6 1.6 3.5 4.1 6.9 6.4 9.4.1-2.6 1.2-10.2 3.2-11.4 1.8 3.4 2.9 10.1 4.6 12.4 1.4 1.6 2.3-1.5 3.6-2zm16.5 7.6c-.1-1.5-1.4-5.1-2-6.5-2.5-.3-8-3.9-9.9-3.5.3 5.9 7.6 12.5 11.9 14v-4zm-46.8 9.2c0-1.8-.3-3.5-.5-5.3-1.8-.1-3.5-.1-5.4-.7.1 3 .1 6.3.8 9.2 1.5-1.2 3.4-2.1 5.1-3.2zm31.7-5.4c-.7 1.8-2 .9-2.6 2.8-.3.9-.4 1.9-.9 2.8-.1 1.1-1.2 1.9-1.5 2.8-3.7 1.9-4.6-5.3-6.5-7.3l-2.9-.4c.1 3.5.4 2.3-.7 5.3-1 1.8-.7.9-1.1 2.3.7 0 5.1 0 5.7.3-1.6.5-1.1.3-1.4 2 1.9.9 12.8 7.1 13.6 4.6 2-5.6-1.3-9.8-1.7-15.2z" class="st171"/><g><path d="M-57.9 414.8c-.8-3.2-4.7-18-5.9-19.9-3.2-.3-8.1-.8-10.8 1.6-5.2 4.6-5.9 19.4-5 26.1-.1 2.9-1.3 5.3-3.2 6.5-2.2.7-3.3 1.8-4.9 1.1-4.2-1.8-3.6-9-5.6-12.2-2-3.2.1-3.1-2.3-10.1-2.1-6.1 4.9 10.1 5.8 8.3.9-1.7-.1-7.3.1-10.8.3-4.4 2.2-8.5 4.4-12.5 2.1-3.9 8.1-9.7 12.1-9.8 1.2-1.3 4.3.3 4.6-1.1.3-1.1-8.9-20.1-10-22.8-1.3-2.8-2.7-6.2-1.2-9.3 1.4-2.4 3.4-4.6 4.9-7 .5-.9 1.1-2.3 1.6-3.1 1-1.2 2.2-1.1 3 .4v2.8c.1 2.8 10.7 35 12.6 38.6 2 .1 4-.1 5.9 0 4.9.1 9.8-.1 12-.5 1.8-1.8 4.1-2.4 4.6-4.1.6-2 1.1-2.4 2.6-3.5 1.3-.9 2.1-2.3 3.6-1.3 5.4 3.4-2.2 19.3-5.6 21.9-5.1 4-17.2-2.6-18.9-.3 2 10.4 5.7 20.1 7.4 30.4.8 4.2.5 10-.7 14-.7 2-3 7.3-5.2 6.6-5-1.5-4.6-24.2-5.9-30z" class="st170"/><path d="M-170.3 437.7c-7.6-5-16.3-5.8-23-13.2-1.7-1.8-4.5-5.7-4.6-8.3.5-.7 1.1-1.3 1.3-2.4 1.9-.3 3.1-2.2 4.7-3.2.9-1.8 6.4-7.1 7.9-8.8-2.8 6.1-2 9.2-3 15.3 2.6 3.6 18 10.6 21.8 9.3 2.4-.8.9-18.3-.2-21-3.6 2.6-3.8 10.5-11.5 9.6-1.3.4-2.5-.3-3.5-1.1-.9-3.6 1-4.6 2.7-6.7.1-8.1-7.5-27.1-7.5-29.1 2.8-2.3 3.6-8.9 8-4.8-.7 3.6 1.4 8.3 3 11.4 1.3 1.1 3.2 1.6 4.7.8l-5.8-18.3c-6 1.5-10.9 3.2-17.2 1.5 1.2-2.6 2.9-3.8 4.9-5.3 2.3-3.6 5.9-1.6 9-3-.2-1.6-.9-3-1-4.4-1-2.7 4-7.5 5.3-5.4.6 2.4 1 5.4 2.1 7.5 1.7 0 4.1-.3 4.6 2.4 1.5 2.3 6.8 15.1 7.9 15.3 2.3-5.8 13.7-9.2 18.5-11.3 1.2.3 3.4-.7 4 1.2.8.8 1 2 .8 3.1l-1 .7c1.4 3.1 3.3 5.9 4.3 9.2 2-1.9 4.8-2 5.9-3.2-.7-1.8-5.3-11.6-4.8-12.7.6-1.5 1.9-2 2.6-3.5.8.5 3.3-3 5.5-1.6.9 3 1 2.6-.3 5.3 0 2.8 1 8.9 2 11.4 1.1 2.7 13.1-5.5 15.2-5.1-.3 3-.9 6.2-2.4 8.8-1.3 2.3-6.7 7.8-9.1 7.1-1.4.7.4 9.7.8 11.2 2.8 1.6 5.9 2.2 8.8 3.2 2.4.9 5.3-2.6 6.4-4.8 2.5.1.7 10.1-.1 11.8-3.2 6.9-7.7 5-12.1 1.6-.5 1.6 2.8 10.8 2.1 13.9-1.8 1.1-4.1 7-6.7 6.2 0-2.7-2.5-23.3-3.3-24.4-.3-2.2-5.3-5.1-6.5-7.3.4 4.6 1.5 10.2 1.2 14.8-.2 4.2-4.7 13.2-8.7 11.8-3.7-1.2-16.8-9.8-18.4-14-.9-1.1-.3-3.4.1-4.7l1.2-.3c-.3-1.9-1.5-2.3-1.5-5.1 0-1.1-.1-2.3-.7-3.2-3.4-.7-1.6-.4-5.5-.7.1 1.5.4 3 .8 4.4 1.4 7.1 3.1 18.6 2.3 25.9 1.4 2.6-.2 8.3-1.9 10.4-1.1 1.3-3.3 3.9-4.8 4.2-2.3.4-3.3-1.2-5.3-2.4zm10.5-54c-.1-3.6-7.1-19.4-9.3-21.8-2.2 1.8 4.6 19.9 5.7 23.4 1.3.8 2.9.4 4.3.4l-.7-2zm23.3-.2c-.5-2.8-1.3-10.1-3.3-11.4-1.7.1-3.4-.5-5 .4-3.3 1.9-5.8 2.7-9.5 2.6 1.6 3.5 4.1 6.9 6.4 9.4.1-2.6 1.2-10.2 3.2-11.4 1.8 3.4 2.9 10.1 4.6 12.4 1.4 1.7 2.3-1.4 3.6-2zm16.5 7.7c-.1-1.5-1.4-5.1-2-6.5-2.5-.3-8-3.9-9.9-3.5.3 5.9 7.6 12.5 11.9 14v-4zm-46.8 9.2c0-1.8-.3-3.5-.5-5.3-1.8-.1-3.5-.1-5.4-.7.1 3 .1 6.3.8 9.2 1.5-1.2 3.4-2.2 5.1-3.2zm31.7-5.4c-.7 1.8-2 .9-2.6 2.8-.3.9-.4 1.9-.9 2.8-.1 1.1-1.2 1.9-1.5 2.8-3.7 1.9-4.6-5.3-6.5-7.3l-2.9-.4c.1 3.5.4 2.3-.7 5.3-1 1.8-.7.9-1.1 2.3.7 0 5.1 0 5.7.3-1.6.5-1.1.3-1.4 2 1.9.9 12.8 7.1 13.6 4.6 2-5.7-1.3-9.8-1.7-15.2z" class="st171"/></g></g></switch></svg>