<svg xmlns="http://www.w3.org/2000/svg" id="svg2985" x="0" y="0" enable-background="new -214.5 316.4 255 210" version="1.1" viewBox="-214.5 316.4 255 210" xml:space="preserve"><style>.st424{fill:#fff}.st425{fill:#bf3718}</style><switch><g><filter id="filter3970-5" width="1.217" height="1.215" x="-.109" y="-.108" color-interpolation-filters="sRGB"><feGaussianBlur id="feGaussianBlur3972-8" stdDeviation=".128"/></filter><g id="g4630" transform="matrix(1.0006 0 0 1 -1.376 203.406)"><g id="g3062"><path id="rect4031" d="M42 263.8l-.2-46.2.2-68.4c.1-22.9-15.9-36.1-40.4-36.1h-154.5c-12.3 0-27.6 14-35.7 21.5-8 7.5-24.3 22.1-24.3 33.6v113.1c0 22.9 5.6 41.3 30.1 41.3l162.2.3c6.4 0 24.3-17.4 32.3-24.8 8.1-7.5 30.3-22.9 30.3-34.3z"/><path id="rect3767" fill="#005f00" d="M29.3 255V150.4c0-13.8-11.1-24.8-24.9-24.9l-152.4-.9c-2 0-32 12.6-32 25.8V255c0 13.8 11.1 24.9 24.9 24.9H4.4c13.8 0 24.9-11.1 24.9-24.9z"/><path id="rect3861" fill="#cddacd" d="M14.3 269.9v-99.6c0-13.8-11.2-24.9-24.9-24.9H-170c-13.8 0-24.9 11.1-24.9 24.9v99.6c0 13.8 11.2 24.9 24.9 24.9h159.4c13.8 0 24.9-11.1 24.9-24.9z"/><path id="rect3765" d="M-.6 279.9V175.3c0-13.8-11.2-24.9-24.9-24.9H-175c-13.8 0-24.9 11.1-24.9 24.9v104.6c0 13.8 11.2 24.9 24.9 24.9h149.4c13.8 0 25-11.1 25-24.9z" class="st424"/><linearGradient id="SVGID_1_" x1="-102.529" x2="-102.529" y1="332.463" y2="140.481" gradientTransform="matrix(0 -1.0006 .9994 0 -342.841 132.484)" gradientUnits="userSpaceOnUse"><stop offset="0" stop-color="#d0e4cc"/><stop offset="1" stop-color="#fbffec"/></linearGradient><path fill="url(#SVGID_1_)" d="M-199.9 180.3v109.6c0 11 8.9 19.9 19.9 19.9h149.4c11 0 19.9-8.9 19.9-19.9V180.3c0-11-8.9-19.9-19.9-19.9H-180c-10.9 0-19.9 8.9-19.9 19.9zm152.4 71.8v-5 5zm0-27v-6 6z"/><path id="path3932" d="M16.8 130.2c-1.5 0-2.8 1.3-2.8 2.8s1.3 2.8 2.8 2.8 2.8-1.3 2.8-2.8-1.2-2.8-2.8-2.8z" class="st424"/><g id="path3936" filter="url(#filter3970-5)"><linearGradient id="SVGID_2_" x1="-315.771" x2="-318.887" y1="590.47" y2="587.001" gradientTransform="matrix(0 -7.1056 6.6848 0 -3926.45 -2112.465)" gradientUnits="userSpaceOnUse"><stop offset="0" stop-color="#fff"/><stop offset="1" stop-color="#fff" stop-opacity="0"/></linearGradient><path fill="url(#SVGID_2_)" d="M18.2 135.3l-24.6 28.8-6-8.2 28.3-25.2z"/></g><path id="path3882" d="M-5.1 147.5c-4.8 0-8.7 3.9-8.7 8.7 0 4.8 3.9 8.7 8.7 8.7 4.8 0 8.7-3.9 8.7-8.7 0-4.8-3.9-8.7-8.7-8.7z" class="st424"/></g></g><path d="M-142.3 440.4c0-1.1-.4-2-1.2-2.8-.8-.8-1.7-1.2-2.8-1.2s-2 .4-2.8 1.2c-.8.8-1.2 1.7-1.2 2.8s.4 2.1 1.2 2.9c.8.8 1.7 1.2 2.8 1.2s2-.4 2.8-1.2c.8-.8 1.2-1.8 1.2-2.9zM-143.5 457.2c-.8-.8-1.7-1.2-2.8-1.2s-2 .4-2.8 1.2c-.8.8-1.2 1.7-1.2 2.8s.4 2.1 1.2 2.9c.8.8 1.7 1.2 2.8 1.2s2-.4 2.8-1.2c.8-.8 1.2-1.8 1.2-2.9s-.4-2-1.2-2.8zM-125.5 469.7c0-1.1-.4-2-1.2-2.8-.8-.8-1.7-1.2-2.8-1.2s-2 .4-2.8 1.2c-.8.8-1.2 1.7-1.2 2.8s.4 2.1 1.2 2.9c.8.8 1.7 1.2 2.8 1.2s2-.4 2.8-1.2c.8-.9 1.2-1.8 1.2-2.9zM-29.1 453.9l-2.3 7.8 2 .8 2.6-8.1 3.1 10.3 2-.8-2.9-10.3 6 4.6 1.4-1.8-9-7.1c-1.5.9-4.2 1.5-8.1 1.9-3.6.4-9.6.4-15.7.2v3.7c6.2.3 13.8-.1 20.9-1.2zM-29.1 425.5l-2.3 7.8 2 .8 2.6-8.1 3.1 10.3 2-.8-2.9-10.3 6 4.6 1.4-1.8-9-7.1c-1.5.9-4.2 1.5-8.1 1.9-3.7.4-9.6.4-15.7.2v3.7c6.3.2 13.9-.2 20.9-1.2zM-167.1 450.1c0 1.1.4 2.1 1.2 2.9.8.8 1.7 1.2 2.8 1.2s2-.4 2.8-1.2c.8-.8 1.2-1.8 1.2-2.9s-.4-2-1.2-2.8c-.8-.8-1.7-1.2-2.8-1.2s-2 .4-2.8 1.2c-.8.8-1.2 1.7-1.2 2.8zM-94.9 450.1c0 1 .3 1.8 1 2.5s1.5 1 2.4 1c1 0 1.8-.3 2.5-1s1-1.5 1-2.5-.3-1.8-1-2.4c-.7-.7-1.5-1-2.5-1s-1.8.3-2.4 1c-.6.6-1 1.4-1 2.4zM-125.5 450.1c0-1.1-.4-2-1.2-2.8-.8-.8-1.7-1.2-2.8-1.2s-2 .4-2.8 1.2c-.8.8-1.2 1.7-1.2 2.8s.4 2.1 1.2 2.9c.8.8 1.7 1.2 2.8 1.2s2-.4 2.8-1.2c.8-.8 1.2-1.8 1.2-2.9zM-116.5 420.9c0 1.1.4 2.1 1.2 2.9.8.8 1.7 1.2 2.8 1.2 1.1 0 2-.4 2.8-1.2.8-.8 1.2-1.8 1.2-2.9s-.4-2-1.2-2.8c-.8-.8-1.7-1.2-2.8-1.2-1.1 0-2 .4-2.8 1.2-.8.8-1.2 1.7-1.2 2.8zM-150.2 420.9c0 1.1.4 2.1 1.2 2.9.8.8 1.7 1.2 2.8 1.2s2-.4 2.8-1.2c.8-.8 1.2-1.8 1.2-2.9s-.4-2-1.2-2.8c-.8-.8-1.7-1.2-2.8-1.2s-2 .4-2.8 1.2c-.8.8-1.2 1.7-1.2 2.8zM-132.2 433.4c.8.8 1.7 1.2 2.8 1.2s2-.4 2.8-1.2c.8-.8 1.2-1.8 1.2-2.9s-.4-2-1.2-2.8c-.8-.8-1.7-1.2-2.8-1.2s-2 .4-2.8 1.2c-.8.8-1.2 1.7-1.2 2.8s.4 2.1 1.2 2.9zM-109.7 457.2c-.8-.8-1.7-1.2-2.8-1.2-1.1 0-2 .4-2.8 1.2-.8.8-1.2 1.7-1.2 2.8s.4 2.1 1.2 2.9c.8.8 1.7 1.2 2.8 1.2 1.1 0 2-.4 2.8-1.2.8-.8 1.2-1.8 1.2-2.9s-.5-2-1.2-2.8zM-159.2 430.6c0-1.1-.4-2-1.2-2.8-.8-.8-1.7-1.2-2.8-1.2s-2 .4-2.8 1.2c-.8.8-1.2 1.7-1.2 2.8s.4 2.1 1.2 2.9c.8.8 1.7 1.2 2.8 1.2s2-.4 2.8-1.2c.8-.9 1.2-1.9 1.2-2.9zM-109.7 437.6c-.8-.8-1.7-1.2-2.8-1.2-1.1 0-2 .4-2.8 1.2-.8.8-1.2 1.7-1.2 2.8s.4 2.1 1.2 2.9c.8.8 1.7 1.2 2.8 1.2 1.1 0 2-.4 2.8-1.2.8-.8 1.2-1.8 1.2-2.9s-.5-2-1.2-2.8zM-133.4 411c0 1.1.4 2.1 1.2 2.9.8.8 1.7 1.2 2.8 1.2s2-.4 2.8-1.2c.8-.8 1.2-1.8 1.2-2.9s-.4-2-1.2-2.8c-.8-.8-1.7-1.2-2.8-1.2s-2 .4-2.8 1.2c-.8.8-1.2 1.7-1.2 2.8z" class="st425"/><path d="M-71.7 430.2l.2-.2-.1-.2z"/><path fill="#038249" d="M-91.6 367.2c-.7.2-.9.9-.6 2.1 2.6 10.8 5.8 19.5 9.4 25.9-1.2 1.4-2.3 2.8-3.3 4.3-3.7-7.2-6.9-13.9-9.7-20.2-3.1-7.1-5.2-10.3-6.3-9.6-1 .7-.6 3.4 1.4 8.2 1.9 4.8 5.3 11.7 9.9 20.9l2.2 4.5c-.1.1-.1.1-.1.2-8.5-13.6-14.3-22.9-17.5-27.8-3.3-5.1-5.4-7.4-6.4-6.7-1 .7.8 4.4 5.2 11.3 4.3 6.8 9.8 16 16.4 27.5-.4.9-.8 1.8-1.2 2.9-2-2.7-4.3-4.7-6.9-6-3.6-1.8-5.1-.5-4.5 3.8.3 2.2.3 4 0 5.5 0 .2 0 .3-.1.5.1.2 2.3 2.3 2.6 3.7l2.5 7.7-2.7 8.3c-.3 1.2-1 2.5.4 3 0 .1-.7 1.3-1.1 2.5-.7 2.5-1 3.8-1 3.8-.3 1.3-.5 3.4-.4 4.9.1 2.7.5 5.2 1.2 7.4.1.2.4 1.2.5 1.4.2.7.5 1.3.9 2 .2.4.9 1.8 1.5 2.5 1.5 2.4 3.3 2.9 5.5 3.3 3.1 7.1 7.2 13.3 12.2 18.5 8.9 9.3 18.6 16.1 29.2 20.3.8.2 1.2-.4 1.2-1.9-.1-4.8-.2-13.3-.2-25.5 1.8-.4 2.7-2.7 2.5-6.7-.1-3.3-.2-7.5-.4-12.6 0 0-.3-14.2-.3-18.8 0-2.8-.4-18.9-.4-21-.1-3.4-.9-5.2-2.5-5.3.1-7.7.1-12.6.1-14.8 0-9.5.1-16.9.2-22.1 0-1.5-.4-2.1-1.1-1.9-9.9 4.2-19 10.8-27.2 19.8-3.6-5.8-6.7-13.5-9.2-23.1-.6-2-1.2-2.9-1.9-2.7zm9.9 32.1l.3.9-3 9-1.4-4.2c1.3-1.9 2.6-3.8 4.1-5.7zm18.7 22.5l-3-8.8 3-8.9 3 8.9-3 8.8zm4.3-4.9l.1.3c-.1.1-.3.3-.3.4l.2-.7zm-27.5 11.7h-.3l-.9-2.6 3-9 3.1 9-.9 2.5c-1.2-.2-2.5-.2-4 .1zm7.4-2.7l3-9 3.1 9-2.1 6c0-.1 0-.1-.1-.2-.7-.9-1.6-1.6-2.6-2.2l-1.3-3.6zm8.5 0l3-9.1 2.4 7.3c-1.4 1.4-2.7 2.6-4 3.7-.2.2-.4.4-.7.5l-.7-2.4zm3-16.8l-3-9 3-8.9 3 9-3 8.9zm-1.2 3.9l-3.1 9.1-3-9 3-9.1 3.1 9zm-11.6 9.1l-3-9 3-9 3.1 9-3.1 9zm-7.4-14.5l1.9 5.5-3 9-2.6-7.8c1.1-2.3 2.4-4.5 3.7-6.7zm-13.6 2.6c-.3-3.4.9-3.8 3.6-1.3 1.1 1 2.1 2.1 3 3.2l.3 1-3 8.9-3.9-11.8zm8.2 6.7l3 9-1.3 4c-1 .4-2 .8-2.9 1.3l-1.8-5.4 3-8.9zm-4.3 12.8l1 3c-.7.6-1.3 1.2-1.9 1.8-.4.4-.8.9-1.2 1.4l2.1-6.2zm6 35c1.8-.3 3.6-.9 5.2-1.9l.4 1.4-2.1 6.4c-1.2-1.8-2.4-3.8-3.5-5.9zm26.2 2.8c1 .9 2 1.8 3.1 2.7l-1.1 3.2-2-5.9zm.7 9.6l-3 9-3-9.1 3-8.9 3 9zm-7.3-3.7l-3-9.1 1.6-5.1c1.2 1.5 2.6 3 4.2 4.6l.2.5-3 9.1zm-4.3-13.1l-2.5-7.6.2-1.5c.2.4.4.7.5 1.1.7 1.5 1.7 3 3 4.6l-1.2 3.4zm-1.3 4.1l-3 8.8-3-8.9 2-5.7c.5-.7 1-1.4 1.3-2.1l2.7 7.9zm-8.8 8.8l1.6-5.1 3 8.8-.4 1.3c-1.5-1.5-2.9-3.2-4.2-5zm9.3 10.2l-2.1-6.3 3-8.9 3 9.1-2.4 7.4c-.6-.4-1-.9-1.5-1.3zm3.3 3l1.9-5.4 3 9.1v.1c-1.7-1.2-3.3-2.5-4.9-3.8zm8.3 6.3l-.9-2.7 3-9 3.1 9.1-1.6 4.9c-1.3-.7-2.4-1.5-3.6-2.3zm5.5 3.7l.9-2.5 1.2 3.6c-.7-.4-1.4-.8-2.1-1.1zm5.7-13.9c-.1 6.4 0 11.3.1 14.5 0 1.2-.3 1.8-.8 1.8l-3-8.8 3.1-9 .6 1.5zm-1.8-5.2l-3.1 9-3-9.1 1.8-5.4c.4.4.8.7 1.2 1.1.7.6 1.4 1.1 2.1 1.6l1 2.8zm3.6-57.1c.2 7.3.3 13.2.3 17.9 0 6.2.1 12.5.3 18.9.2 5.1.4 9.3.4 12.6.1 4.5-1.9 5.1-6.3 1.6-9.4-8-15.7-15-18.8-21-3.1-6-5-8.9-5.7-8.7-.7.2-.6.9.1 2s1.2 2.4 1.3 3.7c.5 4.3-.7 8-3.6 11.1-2.4 2.6-5.3 4-8.7 4.2-2.4.1-4.5-1.4-6.2-4.6-1.3-2.5-2.1-5.7-2.3-9.8-.2-4.5 1.4-8.6 4.7-12.3 2.8-2.9 6.3-4.6 10.5-5.2 4.4-.6 7.4.2 9.1 2.3 2.7 3.4 5.1 7.2 7.3 11.3 2.1 4.1 3.4 6 3.9 5.8s.2-1.7-.8-4.3c-1-2.7-3.2-6.5-6.8-11.5.3-.1 2.2-1.7 5.7-4.7s7.5-7.2 11.9-12.5c2.5-2.9 3.6-1.8 3.7 3.2zm-3-7c-.5.4-1.1 1.1-1.6 1.9l-.7-2.1 2.3-7v7.2zm-.7-13.3l-3 9.1-3-8.9 3-9.1 3 8.9zm1-20c-.1 4-.2 9-.2 15.1l-2.5-7.5 2.7-8.1v.5zm-2.3-1.2l-1.6 4.9-1.2-3.5c.9-.5 1.9-1 2.8-1.4zm-4.8 2.6l2 5.9-3.1 9-3-9 1.4-4.3c.9-.5 1.8-1.1 2.7-1.6zm-7 5l.3 1.1-3 9-2-6c1.6-1.5 3.1-2.9 4.7-4.1zm-6.5 5.9l2.6 7.9-3.1 9.2-3-9 2.3-7 1.2-1.1z"/><path d="M-96.8 475.5c.2 1 .7 1.5 1.5 1.3.9-.1 1.4-4.1 1.5-11.9v-.2c-.8-.1-1.7-.4-2.4-.8-.8-.3-1.5-.7-2.1-1.4-4 6.8-5.5 10.6-4.6 11.4.7.5 1.3.4 1.9-.4.6-.8 2.2-3.9 4.8-9.5l.2.1c-.6 6.7-.9 10.5-.8 11.4z" class="st425"/><path fill="#2a3b92" d="M-135 391.5c-3.3 3.3-4.9 7.3-4.9 12v.7c-.7-1.2-1.6-2.4-2.7-3.5-3.3-3.3-7.3-4.9-11.9-4.9s-8.6 1.6-11.9 4.9c-3.2 3.2-4.9 7.1-4.9 11.6-2.2-1.1-4.6-1.6-7.3-1.6-4.6 0-8.6 1.6-11.9 4.9s-4.9 7.3-4.9 12c0 4.6 1.6 8.6 4.9 11.9 1 1 2.1 1.9 3.3 2.5-1.2.7-2.3 1.6-3.3 2.6-3.3 3.3-4.9 7.3-4.9 12 0 4.6 1.6 8.6 4.9 11.9s7.3 4.9 11.9 4.9c2.6 0 5.1-.5 7.3-1.6.3 4.2 1.9 7.8 4.9 10.8 3.3 3.3 7.3 4.9 11.9 4.9s8.6-1.6 11.9-4.9c1.3-1.3 2.4-2.7 3.2-4.3.7 3 2.2 5.7 4.5 8 3.3 3.3 7.3 4.9 11.9 4.9 2.6 0 4.9-.5 7-1.5-4.7 8.4-7 12.9-6.8 13.5.2.8.7 1 1.4.5s4.4-6.2 10.9-17.1c-.1 2.5-.4 6.7-1.1 12.7-.7 6-.4 8.9.8 8.7.7.1 1.2-1.1 1.6-3.8 1.2-7.3 1.9-13.5 2.2-18.6.3-5.1.7-9 1.2-11.6.4-1.8 3-6.2 6.9-12.4-.3-.3-.4-.6-.6-1l-2.4 1.8c.2-1.4.5-3.3.7-4.9-.2-.5-.3-.4-.4-1-4-3.6-4.2-7.9-1.4-11.4.1-.6.2-1.1.4-1.5.1-.4.2-.8.4-1.1.1-.6.3-1.1.6-1.6.3-1.1 1.1-1.9 1.9-2.4-.5-.6-.9-1.3-1.1-2.2-.2-.5-.3-1.1-.3-1.8v-.2c-.5-5.1-1.2-9.2.3-16.2-.2-.4-.4-.8-.6-1.1-.2-.4-.8-1.1-.9-1.3-.4-.5-.8-.8-1.2-1.2-.9-1.1-1.9-2-2.8-2.7v-8.2c0-4.7-1.6-8.7-4.9-12-3.3-3.3-7.3-4.9-11.9-4.9-4.7-.2-8.6 1.5-11.9 4.8zm5.5 11.5c2.2 0 4.1.8 5.7 2.3 1.6 1.5 2.4 3.4 2.4 5.6s-.8 4.1-2.4 5.7c-1.6 1.6-3.5 2.4-5.7 2.4s-4.1-.8-5.7-2.4c-1.6-1.6-2.4-3.5-2.4-5.7s.8-4.1 2.4-5.6c1.6-1.5 3.5-2.3 5.7-2.3zm-11.2 12.2c1.6 1.5 2.4 3.4 2.4 5.6s-.8 4.1-2.4 5.7c-1.6 1.6-3.5 2.4-5.7 2.4s-4.1-.8-5.7-2.4c-1.6-1.6-2.4-3.5-2.4-5.7s.8-4.1 2.4-5.6c1.6-1.5 3.5-2.3 5.7-2.3s4.1.8 5.7 2.3zm-5-4.4c.3-2.1.6-3.5.9-4.1.4-.7 1-.7 2 .1.9.7 2.1 3.1 3.6 7-1.8-1.8-4-2.9-6.5-3zm-3.5-7c.4.4.7 2.7 1.1 7.1-1.2.2-2.2.6-3.2 1.2.4-4.9.8-7.6 1-8.1.3-.5.7-.6 1.1-.2zm-7.3-1.2c.5-.5 1.2.9 1.8 4l1.5 6.9c-.1.1-.2.1-.3.2-1.1 1.2-1.9 2.5-2.4 4l-1.1-10.4c-.2-2.7-.1-4.2.5-4.7zm-6.6 8.5c-.5-2.6-.4-4.3.2-5.1.7-.8 1.4.2 2.3 3l4.6 14.5c-.1 0-.1 0-.2-.1-1.4-1.5-3-2.4-4.9-2.7l-2-9.6zm-7 5.1c.4-.3 1-.1 1.8.5.7.6 1.9 1.9 3.4 3.8-1 .1-2 .4-2.9.9-1.8-3.1-2.6-4.9-2.3-5.2zm-5.6 2.2c.2-.4 1-.4 2.2.1 1.2.5 2.8 1.7 4.8 3.5-.7.4-1.2.9-1.8 1.4-.3.3-.5.6-.8.9-3.1-3.5-4.6-5.5-4.4-5.9zm-4.7 3.4c.7-.6 3.7.4 8.9 3.1-.8 1-1.3 2.2-1.5 3.4-5.7-3.6-8.2-5.8-7.4-6.5zm-2.7 4.2c.7-.2 4.1.7 10.1 2.6-.1.6-.2 1.2-.2 1.9 0 .6 0 1.1.1 1.6-5.6-2.4-8.8-4-9.7-4.6-.9-.7-1-1.3-.3-1.5zm-4 6.2c.1-1.3 4.8-1.3 14 .1.2 1.3.7 2.5 1.5 3.6-10.4-1-15.6-2.3-15.5-3.7zm15.8-1.7c0-2.2.8-4.1 2.4-5.6 1.6-1.5 3.5-2.3 5.7-2.3s4.1.8 5.7 2.3c1.6 1.5 2.4 3.4 2.4 5.6s-.8 4.1-2.4 5.7c-1.6 1.6-3.5 2.4-5.7 2.4s-4.1-.8-5.7-2.4c-1.6-1.7-2.4-3.5-2.4-5.7zm-11.6 8.5c.1-.9 3.9-1.8 11.4-2.9.3.4.7.9 1.1 1.3.7.7 1.5 1.3 2.3 1.8-9.9.8-14.8.7-14.8-.2zm28.5 1.3c0-2.2.8-4.1 2.4-5.6 1.6-1.5 3.5-2.3 5.7-2.3s4.1.8 5.7 2.3c1.6 1.5 2.4 3.4 2.4 5.6s-.8 4.1-2.4 5.7c-1.6 1.6-3.5 2.4-5.7 2.4s-4.1-.8-5.7-2.4c-1.6-1.6-2.4-3.5-2.4-5.7zm-3.2 4.1c1.6 1.5 2.4 3.4 2.4 5.6s-.8 4.1-2.4 5.7c-1.6 1.6-3.5 2.4-5.7 2.4s-4.1-.8-5.7-2.4c-1.6-1.6-2.4-3.5-2.4-5.7s.8-4.1 2.4-5.6c1.6-1.5 3.5-2.3 5.7-2.3s4.1.8 5.7 2.3zm12.9 25.4c.5 2.9.7 4.9.4 6.2-.2 1.3-.7 1.6-1.3.9-.7-.7-1.3-3.1-2-7 .4.1.8.1 1.2.1.6-.1 1.2-.1 1.7-.2zm3-1c.8-.4 1.5-1 2.2-1.5-.4 2-.5 3.9-.3 5.8-.5-1.3-1.1-2.8-1.9-4.3zm6.5 6.4c-1.6-1.6-2.4-3.5-2.4-5.7s.8-4.1 2.4-5.6c1.6-1.5 3.5-2.3 5.7-2.3s4.1.8 5.7 2.3c1.6 1.5 2.4 3.4 2.4 5.6s-.8 4.1-2.4 5.7c-1.6 1.6-3.5 2.4-5.7 2.4s-4.1-.8-5.7-2.4zm-5.5-9.6c-1.6 1.6-3.5 2.4-5.7 2.4s-4.1-.8-5.7-2.4c-1.6-1.6-2.4-3.5-2.4-5.7s.8-4.1 2.4-5.6c1.6-1.5 3.5-2.3 5.7-2.3s4.1.8 5.7 2.3c1.6 1.5 2.4 3.4 2.4 5.6s-.8 4.1-2.4 5.7zm-42.2-20.6c-1.3-.5-1.8-1.1-1.3-1.8.4-.6 5-.6 13.7 0-1 1-1.8 2.2-2.2 3.4-5.5-.6-8.9-1.1-10.2-1.6zm-3.8 5.6c-.4-1 4.2-2.3 13.8-3.7-.3 1-.4 2.1-.4 3.2v.1c-8.4 1.3-12.8 1.5-13.4.4zm3 5.9c-.5-.6 3-2.6 10.4-5.9.1 1 .3 2 .5 3-6.6 2.6-10.3 3.6-10.9 2.9zm3.2 4c-.6-.7 2.1-2.9 7.9-6.8.2.7.5 1.4 1 2-5.4 3.8-8.3 5.4-8.9 4.8zm4.6 1.9c.8-1.3 2.5-3.3 4.9-5.9l.5.5c.7.7 1.5 1.3 2.2 1.8-5.2 4.5-8 6.6-8.5 6.3-.2-.3 0-1.1.9-2.7zm4.4 4.5c-.4-.3.8-3 3.6-8 .9.5 1.9.8 3.1 1-2 2.4-3.4 4.2-4.4 5.5-1 1.4-1.8 1.9-2.3 1.5zm13.2 12.2c-.2-.7.2-7.7 1.3-20.9-2 6.3-3.6 11-4.8 14-1.1 3-1.9 4.6-2.3 4.6-.4 0-.7-.2-.8-.5-.1-.3.6-5.7 2.3-16.3.8-.1 1.6-.2 2.3-.4l-.3 2.1c-.8 4-.6 4.3.5 1.1l1.3-3.7c1-.5 1.8-1.2 2.5-2 .1-.1.3-.3.4-.3-.4 1-.5 2-.5 3.2 0 2.5.7 4.6 2.2 6.4-.7 4-1.1 7-1.4 9-.4 2.4-.9 3.8-1.5 4.3-.6.3-1 .2-1.2-.6zm6.9.4c-.8.1-1.2-1-1.2-3.2 0-1.9.1-4.7.2-8.5.9.7 1.8 1.2 2.9 1.5 0 3.3-.1 5.8-.3 7.4-.3 1.8-.8 2.7-1.6 2.8zm30.3 6.8c-.8-1.2-1.9-3.8-3.4-8 .7-.4 1.4-1 2-1.6.3-.2.5-.5.8-.8 1.2 4.8 1.8 7.9 1.9 9.6.1 1.7-.3 2-1.3.8zm4.4-3.7c-.6-.8-2-3.5-4.2-8 .9-1.5 1.3-3.1 1.3-5.1v-.5c2.6 7.8 3.8 12.2 3.8 13.2.2 1.2-.1 1.3-.9.4zm5.6-3.6c-.1 2.1-.5 2.4-1.4 1.1-.7-1.2-2.4-5.1-5.1-11.5 1.5.9 3.1 1.3 4.9 1.3h.8c.7 4.3 1 7.4.8 9.1zm2.2-3.9l-1.4-5.4c1.2-.3 2.4-.8 3.4-1.5-1.2 1.9-1.8 4.2-2 6.9zm1.9-20.8c1.6 1.5 2.4 3.4 2.4 5.6s-.8 4.1-2.4 5.7c-1.6 1.6-3.5 2.4-5.7 2.4s-4.1-.8-5.7-2.4c-1.6-1.6-2.4-3.5-2.4-5.7s.8-4.1 2.4-5.6c1.6-1.5 3.5-2.3 5.7-2.3s4.2.8 5.7 2.3zm-14.5-4.3c0 2.2-.8 4.1-2.4 5.7-1.6 1.6-3.5 2.4-5.7 2.4s-4.1-.8-5.7-2.4c-1.6-1.6-2.4-3.5-2.4-5.7s.8-4.1 2.4-5.6c1.6-1.5 3.5-2.3 5.7-2.3s4.1.8 5.7 2.3c1.6 1.6 2.4 3.4 2.4 5.6zm14.5-15.3c1.6 1.5 2.4 3.4 2.4 5.6s-.8 4.1-2.4 5.7c-1.6 1.6-3.5 2.4-5.7 2.4s-4.1-.8-5.7-2.4c-1.6-1.6-2.4-3.5-2.4-5.7s.8-4.1 2.4-5.6c1.6-1.5 3.5-2.3 5.7-2.3s4.2.8 5.7 2.3zm-16.9 1.4c-1.6 1.6-3.5 2.4-5.7 2.4s-4.1-.8-5.7-2.4c-1.6-1.6-2.4-3.5-2.4-5.7s.8-4.1 2.4-5.6c1.6-1.5 3.5-2.3 5.7-2.3s4.1.8 5.7 2.3c1.6 1.5 2.4 3.4 2.4 5.6s-.8 4.1-2.4 5.7zm16.9-20.9c1.6 1.5 2.4 3.4 2.4 5.6s-.8 4.1-2.4 5.7c-1.6 1.6-3.5 2.4-5.7 2.4s-4.1-.8-5.7-2.4c-1.6-1.6-2.4-3.5-2.4-5.7s.8-4.1 2.4-5.6c1.6-1.5 3.5-2.3 5.7-2.3s4.2.8 5.7 2.3zm-4.3-4.3c-.4-.1-.9-.1-1.3-.1-1 0-2 .1-3 .4 2.5-7.3 4.2-10.8 5.1-10.5.9.2.7 3.6-.8 10.2zm-5.7.9c-1 .4-1.9 1.1-2.7 2-.1.1-.1.2-.2.3.3-1 .4-2 .4-3.2 0-.8-.1-1.6-.3-2.4 2.5-6.8 4.2-10.2 5.1-10.2.9 0 .2 4.5-2.3 13.5z"/></g></switch></svg>