<svg xmlns="http://www.w3.org/2000/svg" id="svg2985" x="0" y="0" enable-background="new -192 293.9 210 255" version="1.1" viewBox="-192 293.9 210 255" xml:space="preserve"><style>.st96{fill:#fff}</style><switch><g><filter id="filter3970-5" width="1.217" height="1.215" x="-.109" y="-.108" color-interpolation-filters="sRGB"><feGaussianBlur id="feGaussianBlur3972-8" stdDeviation=".128"/></filter><g id="g4630" transform="matrix(1.0006 0 0 1 -1.376 203.406)"><g id="g3062"><path id="rect4031" d="M-131.2 90.5l46.1.2 68.4-.2c22.9-.1 36.1 15.9 36.1 40.4v154.6c0 12.3-14 27.7-21.4 35.7s-22.1 24.3-33.6 24.3h-113c-22.9 0-41.3-5.6-41.3-30.2l-.3-162.3c0-6.4 17.3-24.3 24.8-32.4 7.4-8 22.7-30.2 34.2-30.1z"/><path id="rect3767" fill="#005f00" d="M-122.4 103.2h104.5c13.8 0 24.8 11.1 24.9 24.9l.9 152.4c0 2-12.6 32-25.8 32h-104.5c-13.8 0-24.9-11.1-24.9-24.9V128.1c0-13.8 11.1-24.9 24.9-24.9z"/><path id="rect3861" fill="#cddacd" d="M-137.4 118.1h99.6c13.7 0 24.9 11.2 24.9 24.9v159.5c0 13.8-11.1 24.9-24.9 24.9h-99.6c-13.7 0-24.9-11.2-24.9-24.9V143.1c0-13.8 11.2-25 24.9-25z"/><path id="rect3765" d="M-147.3 133.1h104.5c13.7 0 24.9 11.2 24.9 24.9v149.5c0 13.8-11.1 24.9-24.9 24.9h-104.5c-13.7 0-24.9-11.2-24.9-24.9V158c0-13.7 11.1-24.9 24.9-24.9z" class="st96"/><linearGradient id="rect3008_1_" x1="-324.883" x2="-324.883" y1="569.587" y2="531.068" gradientTransform="matrix(4.9807 0 0 -4.9841 1515.62 2981.96)" gradientUnits="userSpaceOnUse"><stop offset="0" stop-color="#d0e4cc"/><stop offset="1" stop-color="#fbffec"/></linearGradient><path id="rect3008" fill="url(#rect3008_1_)" d="M-157.3 143.1h109.5c11 0 19.9 8.9 19.9 19.9v149.5c0 11-8.9 19.9-19.9 19.9h-109.5c-11 0-19.9-8.9-19.9-19.9V163c0-11 8.9-19.9 19.9-19.9z"/><path id="path3932" d="M2.2 115.7c0 1.5-1.3 2.8-2.8 2.8s-2.8-1.3-2.8-2.8 1.3-2.8 2.8-2.8 2.8 1.2 2.8 2.8z" class="st96"/><g id="path3936" filter="url(#filter3970-5)"><linearGradient id="SVGID_1_" x1="-315.771" x2="-318.887" y1="590.47" y2="587.001" gradientTransform="matrix(7.1013 0 0 -6.6887 2243.616 4061.265)" gradientUnits="userSpaceOnUse"><stop offset="0" stop-color="#fff"/><stop offset="1" stop-color="#fff" stop-opacity="0"/></linearGradient><path fill="url(#SVGID_1_)" d="M-2.8 114.3l-28.8 24.6 8.2 6 25.2-28.3z"/></g><path id="path3882" d="M-15 137.6c0 4.8-3.9 8.7-8.7 8.7-4.8 0-8.7-3.9-8.7-8.7 0-4.8 3.9-8.7 8.7-8.7 4.7 0 8.7 3.9 8.7 8.7z" class="st96"/></g></g><path fill="#2a3b92" d="M-124.9 486c5.8-.3 11.3-2.7 16.7-4.3-2 2-8.3 5.3-11.4 6-1.5.9-3.1 1.8-4.3 3 9.8 0 27.2-.5 35.8-4.1 4.6-1.9 8.5-4.9 13.6-6.2 7.3-1.8 12.4 2.8 15.9 7.3 1.3 1.8 3.5 3.1 3.2 5.3-2.6 0-5.1-.3-7.7 0-7.3.4-14.7 2.1-21.9 3.1-13.9 2-28 2.9-41.7 5.3-3.6.7-10.8 2.7-14.3 1.9-2.3-.5-12.4-5.4-14.4-6.7-9.4-14.9 23.1-7.3 30.5-10.6z"/><path fill="#bf3718" d="M-149.1 377.5c5-7.6 5.8-16.3 13.2-23 1.8-1.7 5.7-4.5 8.3-4.6.7.5 1.3 1.1 2.4 1.3.3 1.9 2.2 3.1 3.2 4.7 1.8.9 7.1 6.4 8.8 7.9-6.1-2.8-9.2-2-15.3-3-3.6 2.6-10.6 18-9.3 21.8.8 2.4 18.3.9 21-.2-2.6-3.6-10.5-3.8-9.6-11.5-.4-1.3.3-2.5 1.1-3.5 3.6-.9 4.6 1 6.7 2.7 8.1.1 27.1-7.5 29.1-7.5 2.3 2.8 8.9 3.6 4.8 8-3.6-.7-8.3 1.4-11.4 3-1.1 1.3-1.6 3.2-.8 4.7l18.3-5.8c-1.5-6-3.2-10.9-1.5-17.2 2.6 1.2 3.8 2.9 5.3 4.9 3.6 2.3 1.6 5.9 3 9 1.6-.2 3-.9 4.4-1 2.7-1 7.5 4 5.4 5.3-2.4.6-5.4 1-7.5 2.1 0 1.7.3 4.1-2.4 4.6-2.3 1.5-15.1 6.8-15.3 7.9 5.8 2.3 9.2 13.7 11.3 18.5-.3 1.2.7 3.4-1.2 4-.8.8-2 1-3.1.8l-.7-1c-3.1 1.4-5.9 3.3-9.2 4.3 1.9 2 2 4.8 3.2 5.9 1.8-.7 11.6-5.3 12.7-4.8 1.5.6 2 1.9 3.5 2.6-.5.8 3 3.3 1.6 5.5-3 .9-2.6 1-5.3-.3-2.8 0-8.9 1-11.4 2-2.7 1.1 5.5 13.1 5.1 15.2-3-.3-6.2-.9-8.8-2.4-2.3-1.3-7.8-6.7-7.1-9.1-.7-1.4-9.7.4-11.2.8-1.6 2.8-2.2 5.9-3.2 8.8-.9 2.4 2.6 5.3 4.8 6.4-.1 2.5-10.1.7-11.8-.1-6.9-3.2-5-7.7-1.6-12.1-1.6-.5-10.8 2.8-13.9 2.1-1.1-1.8-7-4.1-6.2-6.7 2.7 0 23.3-2.5 24.4-3.3 2.2-.3 5.1-5.3 7.3-6.5-4.6.4-10.2 1.5-14.8 1.2-4.2-.2-13.2-4.7-11.8-8.7 1.2-3.7 9.8-16.8 14-18.4 1.1-.9 3.4-.3 4.7.1l.3 1.2c1.9-.3 2.3-1.5 5.1-1.5 1.1 0 2.3-.1 3.2-.7.7-3.4.4-1.6.7-5.5-1.5.1-3 .4-4.4.8-7.1 1.4-18.6 3.1-25.9 2.3-2.6 1.4-8.3-.2-10.4-1.9-1.3-1.1-3.9-3.3-4.2-4.8-.4-2.3 1.2-3.3 2.4-5.3zm54 10.5c3.6-.1 19.4-7.1 21.8-9.3-1.8-2.2-19.9 4.6-23.4 5.7-.8 1.3-.4 2.9-.4 4.3l2-.7zm.1 23.3c2.8-.5 10.1-1.3 11.4-3.3-.1-1.7.5-3.4-.4-5-1.9-3.3-2.7-5.8-2.6-9.5-3.5 1.6-6.9 4.1-9.4 6.4 2.6.1 10.2 1.2 11.4 3.2-3.4 1.8-10.1 2.9-12.4 4.6-1.6 1.4 1.5 2.3 2 3.6zm-7.6 16.5c1.5-.1 5.1-1.4 6.5-2 .3-2.5 3.9-8 3.5-9.9-5.9.3-12.5 7.6-14 11.9h4zm-9.2-46.7c1.8 0 3.5-.3 5.3-.5.1-1.8.1-3.5.7-5.4-3 .1-6.3.1-9.2.8 1.2 1.4 2.1 3.3 3.2 5.1zm5.4 31.6c-1.8-.7-.9-2-2.8-2.6-.9-.3-1.9-.4-2.8-.9-1.1-.1-1.9-1.2-2.8-1.5-1.9-3.7 5.3-4.6 7.3-6.5l.4-2.9c-3.5.1-2.3.4-5.3-.7-1.8-1-.9-.7-2.3-1.1 0 .7 0 5.1-.3 5.7-.5-1.6-.3-1.1-2-1.4-.9 1.9-7.1 12.8-4.6 13.6 5.6 2.1 9.8-1.2 15.2-1.7z"/></g></switch></svg>