<svg xmlns="http://www.w3.org/2000/svg" id="svg2985" x="0" y="0" enable-background="new -192 293.9 210 255" version="1.1" viewBox="-192 293.9 210 255" xml:space="preserve"><style>.st502{fill:#fff}.st503{fill:#038249;stroke:#038249;stroke-width:2;stroke-miterlimit:10}</style><switch><g><filter id="filter3970-5" width="1.217" height="1.215" x="-.109" y="-.108" color-interpolation-filters="sRGB"><feGaussianBlur id="feGaussianBlur3972-8" stdDeviation=".128"/></filter><g id="g4630" transform="matrix(1.0006 0 0 1 -1.376 203.406)"><g id="g3062"><path id="rect4031" d="M-131.2 90.5l46.1.2 68.4-.2c22.9-.1 36.1 15.9 36.1 40.4v154.6c0 12.3-14 27.7-21.4 35.7s-22.1 24.3-33.6 24.3h-113c-22.9 0-41.3-5.6-41.3-30.2l-.3-162.3c0-6.4 17.3-24.3 24.8-32.4 7.4-8 22.7-30.2 34.2-30.1z"/><path id="rect3767" fill="#005f00" d="M-122.4 103.2h104.5c13.8 0 24.8 11.1 24.9 24.9l.9 152.4c0 2-12.6 32-25.8 32h-104.5c-13.8 0-24.9-11.1-24.9-24.9V128.1c0-13.8 11.1-24.9 24.9-24.9z"/><path id="rect3861" fill="#cddacd" d="M-137.4 118.1h99.6c13.7 0 24.9 11.2 24.9 24.9v159.5c0 13.8-11.1 24.9-24.9 24.9h-99.6c-13.7 0-24.9-11.2-24.9-24.9V143.1c0-13.8 11.2-25 24.9-25z"/><path id="rect3765" d="M-147.3 133.1h104.5c13.7 0 24.9 11.2 24.9 24.9v149.5c0 13.8-11.1 24.9-24.9 24.9h-104.5c-13.7 0-24.9-11.2-24.9-24.9V158c0-13.7 11.1-24.9 24.9-24.9z" class="st502"/><linearGradient id="rect3008_1_" x1="-324.883" x2="-324.883" y1="569.587" y2="531.068" gradientTransform="matrix(4.9807 0 0 -4.9841 1515.62 2981.96)" gradientUnits="userSpaceOnUse"><stop offset="0" stop-color="#d0e4cc"/><stop offset="1" stop-color="#fbffec"/></linearGradient><path id="rect3008" fill="url(#rect3008_1_)" d="M-157.3 143.1h109.5c11 0 19.9 8.9 19.9 19.9v149.5c0 11-8.9 19.9-19.9 19.9h-109.5c-11 0-19.9-8.9-19.9-19.9V163c0-11 8.9-19.9 19.9-19.9z"/><path id="path3932" d="M2.2 115.7c0 1.5-1.3 2.8-2.8 2.8s-2.8-1.3-2.8-2.8 1.3-2.8 2.8-2.8 2.8 1.2 2.8 2.8z" class="st502"/><g id="path3936" filter="url(#filter3970-5)"><linearGradient id="SVGID_1_" x1="-315.771" x2="-318.887" y1="590.47" y2="587.001" gradientTransform="matrix(7.1013 0 0 -6.6887 2243.616 4061.265)" gradientUnits="userSpaceOnUse"><stop offset="0" stop-color="#fff"/><stop offset="1" stop-color="#fff" stop-opacity="0"/></linearGradient><path fill="url(#SVGID_1_)" d="M-2.8 114.3l-28.8 24.6 8.2 6 25.2-28.3z"/></g><path id="path3882" d="M-15 137.6c0 4.8-3.9 8.7-8.7 8.7-4.8 0-8.7-3.9-8.7-8.7 0-4.8 3.9-8.7 8.7-8.7 4.7 0 8.7 3.9 8.7 8.7z" class="st502"/></g></g><path d="M-71.1 400.8c-3.2.5-4.8 1.1-4.8 2 0 .8 1.6 1.4 4.8 2 3.2.6 6.9.8 11.3.8s8.1-.3 11.3-.8c3.1-.6 4.7-1.2 4.7-2s-1.6-1.5-4.7-2c-.2-.1-.5-.1-.9-.2v-18.2c.4-.1.7-.1.9-.2 3.1-.6 4.7-1.2 4.7-2s-1.6-1.5-4.7-2.1c-.2 0-.5 0-.9-.1v-18.2c.4-.1.7-.1.9-.2 3.1-.6 4.7-1.2 4.7-2s-1.6-1.5-4.7-2-6.9-.8-11.3-.8c-4.3 0-8.1.3-11.3.8-3.2.5-4.8 1.2-4.8 2s1.6 1.4 4.8 2c.4.1.9.2 1.3.2v18.1c-.4.1-.9.2-1.3.2-3.2.6-4.8 1.2-4.8 2.1 0 .8 1.6 1.4 4.8 2 .4.1.9.1 1.3.2v18.2c-.5 0-.9.1-1.3.2zm15.4.6c0 1.4-1.5 2.1-4.4 2.1-2.9 0-4.4-.7-4.4-2.1v-18.5c1.5.1 3 .1 4.5.1h4.3v18.4zm-8.7-42.4c0-1.5 1.5-2.2 4.4-2.2 2.9 0 4.4.7 4.4 2.2v18.5c-1.3-.1-2.7-.1-4.3-.1s-3 0-4.5.1V359zm-2.3 20.1c2-.3 4.2-.4 6.8-.4 2.6 0 4.9.1 6.8.4 1.9.3 2.8.6 2.8 1 0 .3-.9.7-2.8 1-1.9.3-4.1.5-6.8.5-2.6 0-4.8-.2-6.8-.5s-3-.6-3-1c0-.3 1-.7 3-1zM-71.1 461.8c-3.2.5-4.8 1.2-4.8 2.1 0 .7 1.6 1.3 4.8 1.9 3.2.6 6.9.9 11.3.9s8.1-.3 11.3-.9c3.1-.6 4.7-1.2 4.7-1.9 0-.9-1.6-1.6-4.7-2.1-.2-.1-.5-.1-.9-.1v-18.3c.4 0 .7 0 .9-.1 3.1-.6 4.7-1.3 4.7-2.1s-1.6-1.5-4.7-2c-.2-.1-.5-.1-.9-.1v-18.3c.4-.1.7-.1.9-.1 3.1-.6 4.7-1.2 4.7-2.1s-1.6-1.5-4.7-2-6.9-.7-11.3-.7c-4.3 0-8.1.2-11.3.7-3.2.5-4.8 1.1-4.8 2s1.6 1.5 4.8 2.1c.4.1.9.1 1.3.2V439c-.4.1-.9.1-1.3.2-3.2.5-4.8 1.1-4.8 2 0 .8 1.6 1.5 4.8 2.1.4.1.9.1 1.3.2v18.1c-.5 0-.9.1-1.3.2zm15.4.7c0 1.4-1.5 2.1-4.4 2.1-2.9 0-4.4-.7-4.4-2.1V444c1.5.1 3 .1 4.5.1s3 0 4.3-.1v18.5zm-8.7-42.6c0-1.4 1.5-2.1 4.4-2.1 2.9 0 4.4.7 4.4 2.1v18.5h-8.8v-18.5zm-2.3 20.3c2-.2 4.2-.4 6.8-.4 2.6 0 4.9.1 6.8.4 1.9.2 2.8.6 2.8 1s-.9.8-2.8 1.1c-1.9.3-4.1.5-6.8.5-2.6 0-4.8-.2-6.8-.5s-3-.7-3-1.1 1-.8 3-1z" class="st503"/><path fill="#bf3718" stroke="#bf3718" stroke-miterlimit="10" stroke-width="2" d="M-115.1 522.3c-3.2.5-4.8 1.2-4.8 2.1 0 .7 1.6 1.3 4.8 1.9 3.2.6 6.9.9 11.3.9s8.1-.3 11.3-.9c3.1-.6 4.7-1.2 4.7-1.9 0-.9-1.6-1.6-4.7-2.1-.2-.1-.5-.1-.9-.1v-18.3c.4 0 .7 0 .9-.1 3.1-.6 4.7-1.3 4.7-2.1s-1.6-1.5-4.7-2c-.2-.1-.5-.1-.9-.1v-18.3c.4-.1.7-.1.9-.1 3.1-.6 4.7-1.2 4.7-2.1s-1.6-1.5-4.7-2-6.9-.7-11.3-.7c-4.3 0-8.1.2-11.3.7-3.2.5-4.8 1.1-4.8 2s1.6 1.5 4.8 2.1c.4.1.9.1 1.3.2v18.1c-.4.1-.9.1-1.3.2-3.2.5-4.8 1.1-4.8 2 0 .8 1.6 1.5 4.8 2.1.4.1.9.1 1.3.2v18.1c-.4 0-.8.1-1.3.2zm15.5.7c0 1.4-1.5 2.1-4.4 2.1-2.9 0-4.4-.7-4.4-2.1v-18.5c1.5.1 3 .1 4.5.1s3 0 4.3-.1V523zm-8.8-42.6c0-1.4 1.5-2.1 4.4-2.1 2.9 0 4.4.7 4.4 2.1V499h-8.8v-18.6zm-2.3 20.3c2-.2 4.2-.4 6.8-.4 2.6 0 4.9.1 6.8.4 1.9.2 2.8.6 2.8 1s-.9.8-2.8 1.1c-1.9.3-4.1.5-6.8.5-2.6 0-4.8-.2-6.8-.5s-3-.7-3-1.1 1-.8 3-1z"/><path d="M-159 461.8c-3.2.5-4.8 1.2-4.8 2.1 0 .7 1.6 1.3 4.8 1.9 3.2.6 6.9.9 11.3.9s8.1-.3 11.3-.9c3.1-.6 4.7-1.2 4.7-1.9 0-.9-1.6-1.6-4.7-2.1-.2-.1-.5-.1-.9-.1v-18.3c.4 0 .7 0 .9-.1 3.1-.6 4.7-1.3 4.7-2.1s-1.6-1.5-4.7-2c-.2-.1-.5-.1-.9-.1v-18.3c.4-.1.7-.1.9-.1 3.1-.6 4.7-1.2 4.7-2.1s-1.6-1.5-4.7-2-6.9-.7-11.3-.7c-4.3 0-8.1.2-11.3.7-3.2.5-4.8 1.1-4.8 2s1.6 1.5 4.8 2.1c.4.1.9.1 1.3.2V439c-.4.1-.9.1-1.3.2-3.2.5-4.8 1.1-4.8 2 0 .8 1.6 1.5 4.8 2.1.4.1.9.1 1.3.2v18.1c-.5 0-.9.1-1.3.2zm15.5.7c0 1.4-1.5 2.1-4.4 2.1-2.9 0-4.4-.7-4.4-2.1V444c1.5.1 3 .1 4.5.1s3 0 4.3-.1v18.5zm-8.8-42.6c0-1.4 1.5-2.1 4.4-2.1 2.9 0 4.4.7 4.4 2.1v18.5h-8.8v-18.5zm-2.3 20.3c2-.2 4.2-.4 6.8-.4 2.6 0 4.9.1 6.8.4 1.9.2 2.8.6 2.8 1s-.9.8-2.8 1.1c-1.9.3-4.1.5-6.8.5-2.6 0-4.8-.2-6.8-.5s-3-.7-3-1.1 1-.8 3-1zM-115.1 400.8c-3.2.5-4.8 1.1-4.8 2 0 .8 1.6 1.4 4.8 2 3.2.6 6.9.8 11.3.8s8.1-.3 11.3-.8c3.1-.6 4.7-1.2 4.7-2s-1.6-1.5-4.7-2c-.2-.1-.5-.1-.9-.2v-18.2c.4-.1.7-.1.9-.2 3.1-.6 4.7-1.2 4.7-2s-1.6-1.5-4.7-2.1c-.2 0-.5 0-.9-.1v-18.2c.4-.1.7-.1.9-.2 3.1-.6 4.7-1.2 4.7-2s-1.6-1.5-4.7-2-6.9-.8-11.3-.8c-4.3 0-8.1.3-11.3.8-3.2.5-4.8 1.2-4.8 2s1.6 1.4 4.8 2c.4.1.9.2 1.3.2v18.1c-.4.1-.9.2-1.3.2-3.2.6-4.8 1.2-4.8 2.1 0 .8 1.6 1.4 4.8 2 .4.1.9.1 1.3.2v18.2c-.4 0-.8.1-1.3.2zm15.5.6c0 1.4-1.5 2.1-4.4 2.1-2.9 0-4.4-.7-4.4-2.1v-18.5c1.5.1 3 .1 4.5.1h4.3v18.4zm-8.8-42.4c0-1.5 1.5-2.2 4.4-2.2 2.9 0 4.4.7 4.4 2.2v18.5c-1.3-.1-2.7-.1-4.3-.1s-3 0-4.5.1V359zm-2.3 20.1c2-.3 4.2-.4 6.8-.4 2.6 0 4.9.1 6.8.4 1.9.3 2.8.6 2.8 1 0 .3-.9.7-2.8 1-1.9.3-4.1.5-6.8.5-2.6 0-4.8-.2-6.8-.5s-3-.6-3-1c0-.3 1-.7 3-1zM-159 400.8c-3.2.5-4.8 1.1-4.8 2 0 .8 1.6 1.4 4.8 2 3.2.6 6.9.8 11.3.8s8.1-.3 11.3-.8c3.1-.6 4.7-1.2 4.7-2s-1.6-1.5-4.7-2c-.2-.1-.5-.1-.9-.2v-18.2c.4-.1.7-.1.9-.2 3.1-.6 4.7-1.2 4.7-2s-1.6-1.5-4.7-2.1c-.2 0-.5 0-.9-.1v-18.2c.4-.1.7-.1.9-.2 3.1-.6 4.7-1.2 4.7-2s-1.6-1.5-4.7-2-6.9-.8-11.3-.8c-4.3 0-8.1.3-11.3.8-3.2.5-4.8 1.2-4.8 2s1.6 1.4 4.8 2c.4.1.9.2 1.3.2v18.1c-.4.1-.9.2-1.3.2-3.2.6-4.8 1.2-4.8 2.1 0 .8 1.6 1.4 4.8 2 .4.1.9.1 1.3.2v18.2c-.5 0-.9.1-1.3.2zm15.5.6c0 1.4-1.5 2.1-4.4 2.1-2.9 0-4.4-.7-4.4-2.1v-18.5c1.5.1 3 .1 4.5.1h4.3v18.4zm-8.8-42.4c0-1.5 1.5-2.2 4.4-2.2 2.9 0 4.4.7 4.4 2.2v18.5c-1.3-.1-2.7-.1-4.3-.1s-3 0-4.5.1V359zm-2.3 20.1c2-.3 4.2-.4 6.8-.4 2.6 0 4.9.1 6.8.4 1.9.3 2.8.6 2.8 1 0 .3-.9.7-2.8 1-1.9.3-4.1.5-6.8.5-2.6 0-4.8-.2-6.8-.5s-3-.6-3-1c0-.3 1-.7 3-1zM-115.1 461.8c-3.2.5-4.8 1.2-4.8 2.1 0 .7 1.6 1.3 4.8 1.9 3.2.6 6.9.9 11.3.9s8.1-.3 11.3-.9c3.1-.6 4.7-1.2 4.7-1.9 0-.9-1.6-1.6-4.7-2.1-.2-.1-.5-.1-.9-.1v-18.3c.4 0 .7 0 .9-.1 3.1-.6 4.7-1.3 4.7-2.1s-1.6-1.5-4.7-2c-.2-.1-.5-.1-.9-.1v-18.3c.4-.1.7-.1.9-.1 3.1-.6 4.7-1.2 4.7-2.1s-1.6-1.5-4.7-2-6.9-.7-11.3-.7c-4.3 0-8.1.2-11.3.7-3.2.5-4.8 1.1-4.8 2s1.6 1.5 4.8 2.1c.4.1.9.1 1.3.2V439c-.4.1-.9.1-1.3.2-3.2.5-4.8 1.1-4.8 2 0 .8 1.6 1.5 4.8 2.1.4.1.9.1 1.3.2v18.1c-.4 0-.8.1-1.3.2zm15.5.7c0 1.4-1.5 2.1-4.4 2.1-2.9 0-4.4-.7-4.4-2.1V444c1.5.1 3 .1 4.5.1s3 0 4.3-.1v18.5zm-8.8-42.6c0-1.4 1.5-2.1 4.4-2.1 2.9 0 4.4.7 4.4 2.1v18.5h-8.8v-18.5zm-2.3 20.3c2-.2 4.2-.4 6.8-.4 2.6 0 4.9.1 6.8.4 1.9.2 2.8.6 2.8 1s-.9.8-2.8 1.1c-1.9.3-4.1.5-6.8.5-2.6 0-4.8-.2-6.8-.5s-3-.7-3-1.1 1-.8 3-1z" class="st503"/></g></switch></svg>