<svg xmlns="http://www.w3.org/2000/svg" id="svg2985" x="0" y="0" enable-background="new -214.5 316.4 255 210" version="1.1" viewBox="-214.5 316.4 255 210" xml:space="preserve"><style>.st265{enable-background:new}.st266{fill:#fff}</style><switch><g><filter id="filter3970-5" width="1.217" height="1.215" x="-.109" y="-.108" color-interpolation-filters="sRGB"><feGaussianBlur id="feGaussianBlur3972-8" stdDeviation=".128"/></filter><g id="g4630" class="st265" transform="matrix(1.0006 0 0 1 -1.376 203.406)"><g id="g3062"><path id="rect4031" d="M42 263.8l-.2-46.2.2-68.4c.1-22.9-15.9-36.1-40.4-36.1h-154.5c-12.3 0-27.6 14-35.7 21.5-8 7.5-24.3 22.1-24.3 33.6v113.1c0 22.9 5.6 41.3 30.1 41.3l162.2.3c6.4 0 24.3-17.4 32.3-24.8 8.1-7.5 30.3-22.9 30.3-34.3z"/><path id="rect3767" fill="#005f00" d="M29.3 255V150.4c0-13.8-11.1-24.8-24.9-24.9l-152.4-.9c-2 0-32 12.6-32 25.8V255c0 13.8 11.1 24.9 24.9 24.9H4.4c13.8 0 24.9-11.1 24.9-24.9z"/><path id="rect3861" fill="#cddacd" d="M14.3 269.9v-99.6c0-13.8-11.2-24.9-24.9-24.9H-170c-13.8 0-24.9 11.1-24.9 24.9v99.6c0 13.8 11.2 24.9 24.9 24.9h159.4c13.8 0 24.9-11.1 24.9-24.9z"/><path id="rect3765" d="M-.6 279.9V175.3c0-13.8-11.2-24.9-24.9-24.9H-175c-13.8 0-24.9 11.1-24.9 24.9v104.6c0 13.8 11.2 24.9 24.9 24.9h149.4c13.8 0 25-11.1 25-24.9z" class="st266"/><linearGradient id="rect3008_1_" x1="-324.883" x2="-324.883" y1="569.587" y2="531.068" gradientTransform="matrix(0 -4.9837 4.9812 0 -2847.785 -1384.036)" gradientUnits="userSpaceOnUse"><stop offset="0" stop-color="#d0e4cc"/><stop offset="1" stop-color="#fbffec"/></linearGradient><path id="rect3008" fill="url(#rect3008_1_)" d="M-10.6 289.9V180.3c0-11-8.9-19.9-19.9-19.9h-149.4c-11 0-19.9 8.9-19.9 19.9v109.6c0 11 8.9 19.9 19.9 19.9h149.4c11 0 19.9-8.9 19.9-19.9z"/><path id="path3932" d="M16.8 130.2c-1.5 0-2.8 1.3-2.8 2.8s1.3 2.8 2.8 2.8 2.8-1.3 2.8-2.8-1.2-2.8-2.8-2.8z" class="st266"/><g id="path3936" filter="url(#filter3970-5)"><linearGradient id="SVGID_1_" x1="-315.771" x2="-318.887" y1="590.47" y2="587.001" gradientTransform="matrix(0 -7.1056 6.6848 0 -3926.45 -2112.465)" gradientUnits="userSpaceOnUse"><stop offset="0" stop-color="#fff"/><stop offset="1" stop-color="#fff" stop-opacity="0"/></linearGradient><path fill="url(#SVGID_1_)" d="M18.2 135.3l-24.6 28.8-6-8.2 28.3-25.2z"/></g><path id="path3882" d="M-5.1 147.5c-4.8 0-8.7 3.9-8.7 8.7 0 4.8 3.9 8.7 8.7 8.7 4.8 0 8.7-3.9 8.7-8.7 0-4.8-3.9-8.7-8.7-8.7z" class="st266"/><g id="g3383" class="st265" transform="matrix(.99247 0 0 1 -.326 -201.684)"><g id="g3897" transform="matrix(4.25073 0 0 4.26397 13.116 4.295)"><g id="g3911" transform="translate(0 4)"><path id="path3899" fill="#bf3718" d="M-28.4 91.3c-3.7 0-6.8 3-6.8 6.7s3 6.7 6.8 6.7 6.8-3 6.8-6.7-3-6.7-6.8-6.7z"/><g id="g3901" transform="rotate(-45 17.625 29.531)"><path id="path3903" d="M-63.6 45.4s-1.2-1-2.7-1c-1.5 0-2.7 1-2.7 1s1.2 1 2.7 1c1.5 0 2.7-1 2.7-1z" class="st266"/><path id="path3905" d="M-62.9 45.4s1.2 1 2.7 1c1.5 0 2.7-1 2.7-1s-1.2-1-2.7-1-2.7 1-2.7 1z" class="st266"/><path id="path3907" d="M-63.3 45.1s1-1.2 1-2.7-1-2.7-1-2.7-1 1.2-1 2.7c0 1.4 1 2.7 1 2.7z" class="st266"/><path id="path3909" d="M-63.3 45.8s-1 1.2-1 2.7c0 1.5 1 2.7 1 2.7s1-1.2 1-2.7-1-2.7-1-2.7z" class="st266"/></g></g></g><g id="g3977" transform="matrix(4.25073 0 0 4.26397 -21.958 -48.947)"><g id="g3979" transform="translate(0 4)"><path id="path3981" fill="#038249" d="M-7.5 112c-3.7 0-6.8 3-6.8 6.7s3 6.7 6.8 6.7 6.8-3 6.8-6.7-3-6.7-6.8-6.7z"/><g id="g3983" transform="rotate(-45 17.625 29.531)"><path id="path3985" d="M-63.5 74.8s-1.2-1-2.7-1c-1.5 0-2.7 1-2.7 1s1.2 1 2.7 1c1.5 0 2.7-1 2.7-1z" class="st266"/><path id="path3987" d="M-62.8 74.8s1.2 1 2.7 1c1.5 0 2.7-1 2.7-1s-1.2-1-2.7-1c-1.5 0-2.7 1-2.7 1z" class="st266"/><path id="path3989" d="M-63.1 74.4s1-1.2 1-2.7c0-1.5-1-2.7-1-2.7s-1 1.2-1 2.7c0 1.5 1 2.7 1 2.7z" class="st266"/><path id="path3991" d="M-63.1 75.1s-1 1.2-1 2.7c0 1.5 1 2.7 1 2.7s1-1.2 1-2.7c0-1.5-1-2.7-1-2.7z" class="st266"/></g></g></g><g id="g3993" transform="matrix(4.25073 0 0 4.26397 52.845 54.112)"><g id="g3995" transform="translate(0 4)"><path id="path3997" fill="#2a3b92" d="M-49.5 70.4c-3.7 0-6.8 3-6.8 6.7s3 6.7 6.8 6.7c3.7 0 6.8-3 6.8-6.7s-3.1-6.7-6.8-6.7z"/><g id="g3999" transform="rotate(-45 17.625 29.531)"><path id="path4001" d="M-63.8 15.6s-1.2-1-2.7-1c-1.5 0-2.7 1-2.7 1s1.2 1 2.7 1c1.5 0 2.7-1 2.7-1z" class="st266"/><path id="path4003" d="M-63.1 15.7s1.2 1 2.7 1c1.5 0 2.7-1 2.7-1s-1.2-1-2.7-1-2.7 1-2.7 1z" class="st266"/><path id="path4005" d="M-63.4 15.3s1-1.2 1-2.7c0-1.5-1-2.7-1-2.7s-1 1.2-1 2.7c0 1.5 1 2.7 1 2.7z" class="st266"/><path id="path4007" d="M-63.4 16s-1 1.2-1 2.7c0 1.5 1 2.7 1 2.7s1-1.2 1-2.7c0-1.5-1-2.7-1-2.7z" class="st266"/></g></g></g></g></g></g></g></switch></svg>