<svg xmlns="http://www.w3.org/2000/svg" id="svg2985" x="0" y="0" enable-background="new -214.5 269.4 255 361.9" version="1.1" viewBox="-214.5 269.4 255 361.9" xml:space="preserve"><style>.st358{enable-background:new}.st359{fill:#005f00}.st360{fill:#cddacd}.st361{fill:#fff}.st362{filter:url(#filter3970-5)}.st363{fill:#2a3b92}</style><switch><g><filter id="filter3970-5" width="1.217" height="1.215" x="-.109" y="-.108" color-interpolation-filters="sRGB"><feGaussianBlur id="feGaussianBlur3972-8" stdDeviation=".128"/></filter><g id="g4630" class="st358" transform="matrix(1.0006 0 0 1 -1.376 203.406)"><g id="g3062"><path id="rect4031" d="M42 368.9l-.2-46.2.1-75.4c0-5.5-4.5-14.9-10-14.7 5.5.3 10-9.1 10-14.5l.1-115.8c.1-22.9-15.9-36.1-40.4-36.1h-154.5c-12.3 0-27.6 14-35.7 21.5-8 7.5-24.3 22.1-24.3 33.6v124.8c0 5.1 3.9 14.2 9 14.5-5 0-9 9-9 14v111.7c0 22.9 5.6 41.3 30.1 41.3l162.2.3c6.4 0 24.3-17.4 32.3-24.8 8.1-7.4 30.3-22.8 30.3-34.2z"/><path id="rect3767" d="M29.3 360.1V255.5c0-13.8-11.1-24.8-24.9-24.9l-152.4-.9c-2 0-32 12.6-32 25.8v104.6c0 13.8 11.1 24.9 24.9 24.9H4.4c13.8 0 24.9-11.1 24.9-24.9z" class="st359"/><path id="rect3861" d="M14.3 375.1v-99.6c0-13.8-11.2-24.9-24.9-24.9H-170c-13.8 0-24.9 11.1-24.9 24.9v99.6c0 13.8 11.2 24.9 24.9 24.9h159.4c13.8 0 24.9-11.2 24.9-24.9z" class="st360"/><path id="rect3765" d="M-.6 385V280.4c0-13.8-11.2-24.9-24.9-24.9H-175c-13.8 0-24.9 11.1-24.9 24.9V385c0 13.8 11.2 24.9 24.9 24.9h149.4c13.8 0 25-11.1 25-24.9z" class="st361"/><linearGradient id="rect3008_2_" x1="-303.791" x2="-303.791" y1="569.587" y2="531.068" gradientTransform="matrix(0 4.9837 4.9812 0 -2847.785 1854.184)" gradientUnits="userSpaceOnUse"><stop offset="0" stop-color="#d0e4cc"/><stop offset="1" stop-color="#fbffec"/></linearGradient><path id="rect3008" fill="url(#rect3008_2_)" d="M-10.6 285.4V395c0 11-8.9 19.9-19.9 19.9h-149.4c-11 0-19.9-8.9-19.9-19.9V285.4c0-11 8.9-19.9 19.9-19.9h149.4c11 0 19.9 8.9 19.9 19.9z"/><path id="path3932" d="M16.8 235.4c-1.5 0-2.8 1.3-2.8 2.8s1.3 2.8 2.8 2.8 2.8-1.3 2.8-2.8-1.2-2.8-2.8-2.8z" class="st361"/><g id="path3936" class="st362"><linearGradient id="SVGID_1_" x1="-330.564" x2="-333.68" y1="590.47" y2="587.001" gradientTransform="matrix(0 -7.1056 6.6848 0 -3926.449 -2112.465)" gradientUnits="userSpaceOnUse"><stop offset="0" stop-color="#fff"/><stop offset="1" stop-color="#fff" stop-opacity="0"/></linearGradient><path fill="url(#SVGID_1_)" d="M18.2 240.4l-24.6 28.8-6-8.2 28.3-25.2z"/></g><path id="path3882" d="M-5.1 252.7c-4.8 0-8.7 3.9-8.7 8.7 0 4.8 3.9 8.7 8.7 8.7 4.8 0 8.7-3.9 8.7-8.7 0-4.8-3.9-8.7-8.7-8.7z" class="st361"/></g></g><g id="g4630_1_" class="st358" transform="matrix(1.0006 0 0 1 -1.376 203.406)"><g id="g3062_1_"><path id="rect3767_1_" d="M29.3 209.1V104.5c0-13.8-11.1-24.8-24.9-24.9l-152.4-.9c-2 0-32 12.6-32 25.8v104.6c0 13.8 11.1 24.9 24.9 24.9H4.4c13.8 0 24.9-11.1 24.9-24.9z" class="st359"/><path id="rect3861_1_" d="M14.3 224.1v-99.6c0-13.8-11.2-24.9-24.9-24.9H-170c-13.8 0-24.9 11.1-24.9 24.9v99.6c0 13.8 11.2 24.9 24.9 24.9h159.4c13.8 0 24.9-11.2 24.9-24.9z" class="st360"/><path id="rect3765_1_" d="M-.6 234V129.4c0-13.8-11.2-24.9-24.9-24.9H-175c-13.8 0-24.9 11.1-24.9 24.9V234c0 13.8 11.2 24.9 24.9 24.9h149.4c13.8 0 25-11.1 25-24.9z" class="st361"/><linearGradient id="rect3008_3_" x1="-334.09" x2="-334.09" y1="569.587" y2="531.068" gradientTransform="matrix(0 4.9837 4.9812 0 -2847.785 1854.184)" gradientUnits="userSpaceOnUse"><stop offset="0" stop-color="#d0e4cc"/><stop offset="1" stop-color="#fbffec"/></linearGradient><path id="rect3008_1_" fill="url(#rect3008_3_)" d="M-10.6 134.4V244c0 11-8.9 19.9-19.9 19.9h-149.4c-11 0-19.9-8.9-19.9-19.9V134.4c0-11 8.9-19.9 19.9-19.9h149.4c11 0 19.9 8.9 19.9 19.9z"/><path id="path3932_1_" d="M16.8 84.4c-1.5 0-2.8 1.3-2.8 2.8 0 1.5 1.3 2.8 2.8 2.8s2.8-1.3 2.8-2.8c0-1.6-1.2-2.8-2.8-2.8z" class="st361"/><g id="path3936_1_" class="st362"><linearGradient id="SVGID_2_" x1="-309.313" x2="-312.429" y1="590.47" y2="587.001" gradientTransform="matrix(0 -7.1056 6.6848 0 -3926.449 -2112.465)" gradientUnits="userSpaceOnUse"><stop offset="0" stop-color="#fff"/><stop offset="1" stop-color="#fff" stop-opacity="0"/></linearGradient><path fill="url(#SVGID_2_)" d="M18.2 89.4l-24.6 28.8-6-8.2 28.3-25.2z"/></g><path id="path3882_1_" d="M-5.1 101.7c-4.8 0-8.7 3.9-8.7 8.7 0 4.8 3.9 8.7 8.7 8.7 4.8 0 8.7-3.9 8.7-8.7 0-4.8-3.9-8.7-8.7-8.7z" class="st361"/></g></g><g id="g7265" class="st358" transform="matrix(4.97481 0 0 4.98413 283.644 -198.721)"><g id="g6764" transform="translate(-56.68 -18.563)"><path id="path5789" d="M-17.1 158.5c-2.2 0-4 1.8-4 4s1.8 4 4 4 4-1.8 4-4-1.8-4-4-4z" class="st363"/><g id="g5791" transform="rotate(-45 46.603 15.386) scale(.59543)"><path id="path5793" d="M-172.4 125s-1.2-1-2.7-1c-1.5 0-2.7 1-2.7 1s1.2 1 2.7 1c1.5 0 2.7-1 2.7-1z" class="st361"/><path id="path5795" d="M-171.7 125s1.2 1 2.7 1c1.5 0 2.7-1 2.7-1s-1.2-1-2.7-1c-1.5 0-2.7 1-2.7 1z" class="st361"/><path id="path5797" d="M-172.1 124.6s1-1.2 1-2.7c0-1.5-1-2.7-1-2.7s-1 1.2-1 2.7c0 1.5 1 2.7 1 2.7z" class="st361"/><path id="path5799" d="M-172.1 125.3s-1 1.2-1 2.7c0 1.5 1 2.7 1 2.7s1-1.2 1-2.7c0-1.5-1-2.7-1-2.7z" class="st361"/></g></g><g id="g5801" transform="matrix(.59543 0 0 .59543 -54.549 6.326)"><path id="path5803" d="M-32.2 241.2a6.7 6.7 0 100 13.4 6.7 6.7 0 000-13.4z" class="st363"/><g id="g5805" transform="rotate(-45 17.625 29.531)"><path id="path5807" d="M-172.4 148.7s-1.2-1-2.7-1c-1.5 0-2.7 1-2.7 1s1.2 1 2.7 1c1.5 0 2.7-1 2.7-1z" class="st361"/><path id="path5809" d="M-171.7 148.7s1.2 1 2.7 1c1.5 0 2.7-1 2.7-1s-1.2-1-2.7-1-2.7 1-2.7 1z" class="st361"/><path id="path5811" d="M-172.1 148.3s1-1.2 1-2.7c0-1.5-1-2.7-1-2.7s-1 1.2-1 2.7c0 1.5 1 2.7 1 2.7z" class="st361"/><path id="path5813" d="M-172.1 149s-1 1.2-1 2.7c0 1.5 1 2.7 1 2.7s1-1.2 1-2.7-1-2.7-1-2.7z" class="st361"/></g></g><g id="g7181" transform="translate(-56.68 -27.963)"><path id="path7183" d="M-7.6 167.9c-2.2 0-4 1.8-4 4s1.8 4 4 4 4-1.8 4-4-1.8-4-4-4z" class="st363"/><g id="g7185" transform="rotate(-45 46.603 15.386) scale(.59543)"><path id="path7187" d="M-172.4 147.3s-1.2-1-2.7-1c-1.5 0-2.7 1-2.7 1s1.2 1 2.7 1c1.5 0 2.7-1 2.7-1z" class="st361"/><path id="path7189" d="M-171.7 147.3s1.2 1 2.7 1c1.5 0 2.7-1 2.7-1s-1.2-1-2.7-1c-1.5 0-2.7 1-2.7 1z" class="st361"/><path id="path7191" d="M-172.1 147s1-1.2 1-2.7c0-1.5-1-2.7-1-2.7s-1 1.2-1 2.7c0 1.4 1 2.7 1 2.7z" class="st361"/><path id="path7193" d="M-172.1 147.7s-1 1.2-1 2.7c0 1.5 1 2.7 1 2.7s1-1.2 1-2.7-1-2.7-1-2.7z" class="st361"/></g></g><g id="g7195" transform="matrix(.59543 0 0 .59543 -54.549 -3.074)"><path id="path7197" d="M-16.4 257a6.7 6.7 0 100 13.4 6.7 6.7 0 000-13.4z" class="st363"/><g id="g7199" transform="rotate(-45 17.625 29.531)"><path id="path7201" d="M-172.4 171s-1.2-1-2.7-1c-1.5 0-2.7 1-2.7 1s1.2 1 2.7 1c1.5 0 2.7-1 2.7-1z" class="st361"/><path id="path7203" d="M-171.7 171s1.2 1 2.7 1 2.7-1 2.7-1-1.2-1-2.7-1c-1.5 0-2.7 1-2.7 1z" class="st361"/><path id="path7205" d="M-172 170.7s1-1.2 1-2.7c0-1.5-1-2.7-1-2.7s-1 1.2-1 2.7c0 1.5 1 2.7 1 2.7z" class="st361"/><path id="path7207" d="M-172 171.4s-1 1.2-1 2.7 1 2.7 1 2.7 1-1.2 1-2.7c0-1.5-1-2.7-1-2.7z" class="st361"/></g></g><g id="g7209" transform="translate(-56.68 -9.163)"><path id="path7211" d="M-26.5 149.1c-2.2 0-4 1.8-4 4s1.8 4 4 4 4-1.8 4-4-1.8-4-4-4z" class="st363"/><g id="g7213" transform="rotate(-45 46.603 15.386) scale(.59543)"><path id="path7215" d="M-172.4 102.6s-1.2-1-2.7-1c-1.5 0-2.7 1-2.7 1s1.2 1 2.7 1c1.4 0 2.7-1 2.7-1z" class="st361"/><path id="path7217" d="M-171.7 102.6s1.2 1 2.7 1c1.5 0 2.7-1 2.7-1s-1.2-1-2.7-1c-1.5 0-2.7 1-2.7 1z" class="st361"/><path id="path7219" d="M-172.1 102.3s1-1.2 1-2.7c0-1.5-1-2.7-1-2.7s-1 1.2-1 2.7c0 1.4 1 2.7 1 2.7z" class="st361"/><path id="path7221" d="M-172.1 103s-1 1.2-1 2.7 1 2.7 1 2.7 1-1.2 1-2.7-1-2.7-1-2.7z" class="st361"/></g></g><g id="g7223" transform="matrix(.59543 0 0 .59543 -54.549 15.726)"><path id="path7225" d="M-48.1 225.4a6.7 6.7 0 106.7 6.7c0-3.7-2.9-6.7-6.7-6.7z" class="st363"/><g id="g7227" transform="rotate(-45 17.625 29.531)"><path id="path7229" d="M-172.4 126.3s-1.2-1-2.7-1c-1.5 0-2.7 1-2.7 1s1.2 1 2.7 1c1.5 0 2.7-1 2.7-1z" class="st361"/><path id="path7231" d="M-171.7 126.3s1.2 1 2.7 1c1.5 0 2.7-1 2.7-1s-1.2-1-2.7-1c-1.5 0-2.7 1-2.7 1z" class="st361"/><path id="path7233" d="M-172.1 126s1-1.2 1-2.7c0-1.5-1-2.7-1-2.7s-1 1.2-1 2.7c0 1.5 1 2.7 1 2.7z" class="st361"/><path id="path7235" d="M-172.1 126.7s-1 1.2-1 2.7c0 1.5 1 2.7 1 2.7s1-1.2 1-2.7c0-1.5-1-2.7-1-2.7z" class="st361"/></g></g><g id="g7237" transform="translate(-56.68 .237)"><path id="path7239" d="M-35.9 139.7c-2.2 0-4 1.8-4 4s1.8 4 4 4 4-1.8 4-4-1.8-4-4-4z" class="st363"/><g id="g7241" transform="rotate(-45 46.603 15.386) scale(.59543)"><path id="path7243" d="M-172.5 80.3s-1.2-1-2.7-1c-1.5 0-2.7 1-2.7 1s1.2 1 2.7 1 2.7-1 2.7-1z" class="st361"/><path id="path7245" d="M-171.8 80.3s1.2 1 2.7 1c1.5 0 2.7-1 2.7-1s-1.2-1-2.7-1c-1.5 0-2.7 1-2.7 1z" class="st361"/><path id="path7247" d="M-172.1 79.9s1-1.2 1-2.7c0-1.5-1-2.7-1-2.7s-1 1.2-1 2.7c0 1.5 1 2.7 1 2.7z" class="st361"/><path id="path7249" d="M-172.1 80.6s-1 1.2-1 2.7 1 2.7 1 2.7 1-1.2 1-2.7-1-2.7-1-2.7z" class="st361"/></g></g><g id="g7251" transform="matrix(.59543 0 0 .59543 -54.549 25.126)"><path id="path7253" d="M-63.9 209.6a6.7 6.7 0 100 13.4 6.7 6.7 0 000-13.4z" class="st363"/><g id="g7255" transform="rotate(-45 17.625 29.531)"><path id="path7257" d="M-172.5 104s-1.2-1-2.7-1c-1.5 0-2.7 1-2.7 1s1.2 1 2.7 1c1.5 0 2.7-1 2.7-1z" class="st361"/><path id="path7259" d="M-171.8 104s1.2 1 2.7 1 2.7-1 2.7-1-1.2-1-2.7-1c-1.4 0-2.7 1-2.7 1z" class="st361"/><path id="path7261" d="M-172.1 103.6s1-1.2 1-2.7c0-1.5-1-2.7-1-2.7s-1 1.2-1 2.7 1 2.7 1 2.7z" class="st361"/><path id="path7263" d="M-172.1 104.3s-1 1.2-1 2.7c0 1.5 1 2.7 1 2.7s1-1.2 1-2.7c0-1.4-1-2.7-1-2.7z" class="st361"/></g></g></g><g id="g7265_1_" class="st358" transform="matrix(4.97481 0 0 4.98413 283.644 -198.721)"><g id="g6764_1_" transform="translate(-56.68 -18.563)"><path id="path5789_1_" d="M-17.1 128.2c-2.2 0-4 1.8-4 4s1.8 4 4 4 4-1.8 4-4-1.8-4-4-4z" class="st363"/><g id="g5791_1_" transform="rotate(-45 46.603 15.386) scale(.59543)"><path id="path5793_1_" d="M-136.4 88.9s-1.2-1-2.7-1c-1.5 0-2.7 1-2.7 1s1.2 1 2.7 1c1.5 0 2.7-1 2.7-1z" class="st361"/><path id="path5795_1_" d="M-135.7 88.9s1.2 1 2.7 1c1.5 0 2.7-1 2.7-1s-1.2-1-2.7-1c-1.5 0-2.7 1-2.7 1z" class="st361"/><path id="path5797_1_" d="M-136.1 88.6s1-1.2 1-2.7-1-2.7-1-2.7-1 1.2-1 2.7c0 1.5 1 2.7 1 2.7z" class="st361"/><path id="path5799_1_" d="M-136.1 89.3s-1 1.2-1 2.7 1 2.7 1 2.7 1-1.2 1-2.7c0-1.5-1-2.7-1-2.7z" class="st361"/></g></g><g id="g5801_1_" transform="matrix(.59543 0 0 .59543 -54.549 6.326)"><path id="path5803_1_" d="M-32.2 190.3a6.7 6.7 0 100 13.4 6.7 6.7 0 000-13.4z" class="st363"/><g id="g5805_1_" transform="rotate(-45 17.625 29.531)"><path id="path5807_1_" d="M-136.4 112.7s-1.2-1-2.7-1c-1.5 0-2.7 1-2.7 1s1.2 1 2.7 1c1.5 0 2.7-1 2.7-1z" class="st361"/><path id="path5809_1_" d="M-135.7 112.7s1.2 1 2.7 1c1.5 0 2.7-1 2.7-1s-1.2-1-2.7-1c-1.5 0-2.7 1-2.7 1z" class="st361"/><path id="path5811_1_" d="M-136.1 112.3s1-1.2 1-2.7c0-1.5-1-2.7-1-2.7s-1 1.2-1 2.7c0 1.5 1 2.7 1 2.7z" class="st361"/><path id="path5813_1_" d="M-136 113s-1 1.2-1 2.7 1 2.7 1 2.7 1-1.2 1-2.7-1-2.7-1-2.7z" class="st361"/></g></g><g id="g7181_1_" transform="translate(-56.68 -27.963)"><path id="path7183_1_" d="M-7.6 137.6c-2.2 0-4 1.8-4 4s1.8 4 4 4 4-1.8 4-4-1.8-4-4-4z" class="st363"/><g id="g7185_1_" transform="rotate(-45 46.603 15.386) scale(.59543)"><path id="path7187_1_" d="M-136.4 111.3s-1.2-1-2.7-1c-1.5 0-2.7 1-2.7 1s1.2 1 2.7 1c1.5 0 2.7-1 2.7-1z" class="st361"/><path id="path7189_1_" d="M-135.7 111.3s1.2 1 2.7 1c1.5 0 2.7-1 2.7-1s-1.2-1-2.7-1c-1.5 0-2.7 1-2.7 1z" class="st361"/><path id="path7191_1_" d="M-136 110.9s1-1.2 1-2.7c0-1.5-1-2.7-1-2.7s-1 1.2-1 2.7c0 1.5 1 2.7 1 2.7z" class="st361"/><path id="path7193_1_" d="M-136 111.6s-1 1.2-1 2.7 1 2.7 1 2.7 1-1.2 1-2.7c0-1.4-1-2.7-1-2.7z" class="st361"/></g></g><g id="g7195_1_" transform="matrix(.59543 0 0 .59543 -54.549 -3.074)"><path id="path7197_1_" d="M-16.4 206.1a6.7 6.7 0 100 13.4 6.7 6.7 0 000-13.4z" class="st363"/><g id="g7199_1_" transform="rotate(-45 17.625 29.531)"><path id="path7201_1_" d="M-136.4 135s-1.2-1-2.7-1c-1.5 0-2.7 1-2.7 1s1.2 1 2.7 1c1.5 0 2.7-1 2.7-1z" class="st361"/><path id="path7203_1_" d="M-135.7 135s1.2 1 2.7 1c1.5 0 2.7-1 2.7-1s-1.2-1-2.7-1c-1.5 0-2.7 1-2.7 1z" class="st361"/><path id="path7205_1_" d="M-136 134.7s1-1.2 1-2.7c0-1.5-1-2.7-1-2.7s-1 1.2-1 2.7c0 1.5 1 2.7 1 2.7z" class="st361"/><path id="path7207_1_" d="M-136 135.4s-1 1.2-1 2.7c0 1.5 1 2.7 1 2.7s1-1.2 1-2.7c0-1.5-1-2.7-1-2.7z" class="st361"/></g></g><g id="g7209_1_" transform="translate(-56.68 -9.163)"><path id="path7211_1_" d="M-26.5 118.8c-2.2 0-4 1.8-4 4s1.8 4 4 4 4-1.8 4-4-1.8-4-4-4z" class="st363"/><g id="g7213_1_" transform="rotate(-45 46.603 15.386) scale(.59543)"><path id="path7215_1_" d="M-136.4 66.6s-1.2-1-2.7-1c-1.5 0-2.7 1-2.7 1s1.2 1 2.7 1c1.5 0 2.7-1 2.7-1z" class="st361"/><path id="path7217_1_" d="M-135.7 66.6s1.2 1 2.7 1c1.5 0 2.7-1 2.7-1s-1.2-1-2.7-1c-1.5 0-2.7 1-2.7 1z" class="st361"/><path id="path7219_1_" d="M-136.1 66.3s1-1.2 1-2.7-1-2.7-1-2.7-1 1.2-1 2.7c0 1.4 1 2.7 1 2.7z" class="st361"/><path id="path7221_1_" d="M-136.1 67s-1 1.2-1 2.7c0 1.5 1 2.7 1 2.7s1-1.2 1-2.7c0-1.5-1-2.7-1-2.7z" class="st361"/></g></g><g id="g7223_1_" transform="matrix(.59543 0 0 .59543 -54.549 15.726)"><path id="path7225_1_" d="M-48.1 174.5a6.7 6.7 0 106.7 6.7c.1-3.7-2.9-6.7-6.7-6.7z" class="st363"/><g id="g7227_1_" transform="rotate(-45 17.625 29.531)"><path id="path7229_1_" d="M-136.4 90.3s-1.2-1-2.7-1c-1.5 0-2.7 1-2.7 1s1.2 1 2.7 1 2.7-1 2.7-1z" class="st361"/><path id="path7231_1_" d="M-135.7 90.3s1.2 1 2.7 1c1.5 0 2.7-1 2.7-1s-1.2-1-2.7-1c-1.5 0-2.7 1-2.7 1z" class="st361"/><path id="path7233_1_" d="M-136.1 90s1-1.2 1-2.7c0-1.5-1-2.7-1-2.7s-1 1.2-1 2.7c0 1.5 1 2.7 1 2.7z" class="st361"/><path id="path7235_1_" d="M-136.1 90.7s-1 1.2-1 2.7 1 2.7 1 2.7 1-1.2 1-2.7-1-2.7-1-2.7z" class="st361"/></g></g><g id="g7237_1_" transform="translate(-56.68 .237)"><path id="path7239_1_" d="M-35.9 109.4c-2.2 0-4 1.8-4 4s1.8 4 4 4 4-1.8 4-4-1.8-4-4-4z" class="st363"/><g id="g7241_1_" transform="rotate(-45 46.603 15.386) scale(.59543)"><path id="path7243_1_" d="M-136.5 44.3s-1.2-1-2.7-1c-1.5 0-2.7 1-2.7 1s1.2 1 2.7 1c1.5 0 2.7-1 2.7-1z" class="st361"/><path id="path7245_1_" d="M-135.8 44.3s1.2 1 2.7 1c1.5 0 2.7-1 2.7-1s-1.2-1-2.7-1c-1.4 0-2.7 1-2.7 1z" class="st361"/><path id="path7247_1_" d="M-136.1 43.9s1-1.2 1-2.7c0-1.5-1-2.7-1-2.7s-1 1.2-1 2.7c0 1.5 1 2.7 1 2.7z" class="st361"/><path id="path7249_1_" d="M-136.1 44.6s-1 1.2-1 2.7c0 1.5 1 2.7 1 2.7s1-1.2 1-2.7c0-1.5-1-2.7-1-2.7z" class="st361"/></g></g><g id="g7251_1_" transform="matrix(.59543 0 0 .59543 -54.549 25.126)"><path id="path7253_1_" d="M-63.9 158.7a6.7 6.7 0 100 13.4 6.7 6.7 0 000-13.4z" class="st363"/><g id="g7255_1_" transform="rotate(-45 17.625 29.531)"><path id="path7257_1_" d="M-136.4 68s-1.2-1-2.7-1c-1.5 0-2.7 1-2.7 1s1.2 1 2.7 1c1.5 0 2.7-1 2.7-1z" class="st361"/><path id="path7259_1_" d="M-135.7 68s1.2 1 2.7 1c1.5 0 2.7-1 2.7-1s-1.2-1-2.7-1c-1.5 0-2.7 1-2.7 1z" class="st361"/><path id="path7261_1_" d="M-136.1 67.6s1-1.2 1-2.7c0-1.5-1-2.7-1-2.7s-1 1.2-1 2.7 1 2.7 1 2.7z" class="st361"/><path id="path7263_1_" d="M-136.1 68.3s-1 1.2-1 2.7c0 1.5 1 2.7 1 2.7s1-1.2 1-2.7c0-1.4-1-2.7-1-2.7z" class="st361"/></g></g></g></g></switch></svg>