<svg xmlns="http://www.w3.org/2000/svg" id="svg2985" x="0" y="0" enable-background="new -192 293.9 210 255" version="1.1" viewBox="-192 293.9 210 255" xml:space="preserve"><style>.st216{enable-background:new}.st217{fill:#fff}.st218{fill:none;stroke:#038249;stroke-width:1.5}</style><switch><g><filter id="filter3970-5" width="1.217" height="1.215" x="-.109" y="-.108" color-interpolation-filters="sRGB"><feGaussianBlur id="feGaussianBlur3972-8" stdDeviation=".128"/></filter><g id="g4630" class="st216" transform="matrix(1.0006 0 0 1 -1.376 203.406)"><g id="g3062"><path id="rect4031" d="M-131.2 90.5l46.1.2 68.4-.2c22.9-.1 36.1 15.9 36.1 40.4v154.6c0 12.3-14 27.7-21.4 35.7s-22.1 24.3-33.6 24.3h-113c-22.9 0-41.3-5.6-41.3-30.2l-.3-162.3c0-6.4 17.3-24.3 24.8-32.4 7.4-8 22.7-30.2 34.2-30.1z"/><path id="rect3767" fill="#005f00" d="M-122.4 103.2h104.5c13.8 0 24.8 11.1 24.9 24.9l.9 152.4c0 2-12.6 32-25.8 32h-104.5c-13.8 0-24.9-11.1-24.9-24.9V128.1c0-13.8 11.1-24.9 24.9-24.9z"/><path id="rect3861" fill="#cddacd" d="M-137.4 118.1h99.6c13.7 0 24.9 11.2 24.9 24.9v159.5c0 13.8-11.1 24.9-24.9 24.9h-99.6c-13.7 0-24.9-11.2-24.9-24.9V143.1c0-13.8 11.2-25 24.9-25z"/><path id="rect3765" d="M-147.3 133.1h104.5c13.7 0 24.9 11.2 24.9 24.9v149.5c0 13.8-11.1 24.9-24.9 24.9h-104.5c-13.7 0-24.9-11.2-24.9-24.9V158c0-13.7 11.1-24.9 24.9-24.9z" class="st217"/><linearGradient id="rect3008_1_" x1="-324.883" x2="-324.883" y1="569.587" y2="531.068" gradientTransform="matrix(4.9807 0 0 -4.9841 1515.62 2981.96)" gradientUnits="userSpaceOnUse"><stop offset="0" stop-color="#d0e4cc"/><stop offset="1" stop-color="#fbffec"/></linearGradient><path id="rect3008" fill="url(#rect3008_1_)" d="M-157.3 143.1h109.5c11 0 19.9 8.9 19.9 19.9v149.5c0 11-8.9 19.9-19.9 19.9h-109.5c-11 0-19.9-8.9-19.9-19.9V163c0-11 8.9-19.9 19.9-19.9z"/><path id="path3932" d="M2.2 115.7c0 1.5-1.3 2.8-2.8 2.8s-2.8-1.3-2.8-2.8 1.3-2.8 2.8-2.8 2.8 1.2 2.8 2.8z" class="st217"/><g id="path3936" filter="url(#filter3970-5)"><linearGradient id="SVGID_1_" x1="-315.771" x2="-318.887" y1="590.47" y2="587.001" gradientTransform="matrix(7.1013 0 0 -6.6887 2243.616 4061.265)" gradientUnits="userSpaceOnUse"><stop offset="0" stop-color="#fff"/><stop offset="1" stop-color="#fff" stop-opacity="0"/></linearGradient><path fill="url(#SVGID_1_)" d="M-2.8 114.3l-28.8 24.6 8.2 6 25.2-28.3z"/></g><path id="path3882" d="M-15 137.6c0 4.8-3.9 8.7-8.7 8.7s-8.7-3.9-8.7-8.7c0-4.8 3.9-8.7 8.7-8.7s8.7 3.9 8.7 8.7z" class="st217"/><g id="g3855" class="st216" transform="matrix(4.97804 0 0 4.98098 1.619 -203.22)"><path id="path4291" fill="none" stroke="#038249" stroke-linecap="round" stroke-width="1.378" d="M-8.4 88.5c0 6.9-5.6 12.5-12.5 12.5s-12.5-5.6-12.5-12.5S-27.8 76-20.9 76s12.5 5.6 12.5 12.5z"/><path id="path4295" fill="none" stroke="#038249" stroke-linecap="round" stroke-width="1.629" d="M-10.3 88.5c0 5.8-4.7 10.6-10.6 10.6s-10.6-4.7-10.6-10.6c0-5.8 4.7-10.6 10.6-10.6s10.6 4.8 10.6 10.6z"/><path id="path4327" d="M-20.9 78v3.6" class="st218"/><path id="path4346" d="M-31.4 88.5h3.6" class="st218"/><path id="path4356" d="M-20.9 99v-3.6" class="st218"/><path id="path4358" d="M-10.4 88.5H-14" class="st218"/><path id="path4360" d="M-28.3 81.1l2.5 2.5" class="st218"/><path id="path4362" d="M-28.3 96l2.5-2.5" class="st218"/><path id="path4364" d="M-13.5 96l-2.5-2.5" class="st218"/><path id="path4366" d="M-13.5 81.1l-2.5 2.5" class="st218"/><path id="path4376" d="M-24.9 78.8l1.4 3.3" class="st218"/><path id="path4378" d="M-30.6 92.6l3.3-1.4" class="st218"/><path id="path4380" d="M-16.9 98.2l-1.4-3.3" class="st218"/><path id="path4382" d="M-11.2 84.5l-3.3 1.4" class="st218"/><path id="path4384" d="M-30.6 84.5l3.3 1.4" class="st218"/><path id="path4386" d="M-24.9 98.2l1.4-3.3" class="st218"/><path id="path4388" d="M-11.2 92.6l-3.3-1.4" class="st218"/><path id="path4390" d="M-16.9 78.8l-1.4 3.3" class="st218"/><path id="path4301" fill="#bf3718" stroke="#038249" stroke-linecap="round" stroke-width="1.5" d="M-13.5 88.5c0 4.1-3.3 7.4-7.4 7.4s-7.4-3.3-7.4-7.4 3.3-7.4 7.4-7.4 7.4 3.4 7.4 7.4z"/><g id="g3849" transform="rotate(-45 17.625 29.531)"><path id="path4497" d="M-51.7 44s-1.3 1.1-3 1.1c-1.6 0-3-1.1-3-1.1s1.3-1.1 3-1.1c1.6 0 3 1.1 3 1.1z" class="st217"/><path id="path4533" d="M-51 44s1.3-1.1 3-1.1c1.6 0 3 1.1 3 1.1s-1.3 1.1-3 1.1c-1.6 0-3-1.1-3-1.1z" class="st217"/><path id="path4575" d="M-51.4 44.4s1.1 1.3 1.1 3-1.1 3-1.1 3-1.1-1.3-1.1-3 1.1-3 1.1-3z" class="st217"/><path id="path4577" d="M-51.4 43.6s-1.1-1.3-1.1-3 1.1-3 1.1-3 1.1 1.3 1.1 3-1.1 3-1.1 3z" class="st217"/></g></g></g></g></g></switch></svg>