<svg xmlns="http://www.w3.org/2000/svg" id="svg2985" x="0" y="0" enable-background="new -192 293.9 210 255" version="1.1" viewBox="-192 293.9 210 255" xml:space="preserve"><style>.st344{enable-background:new}.st345{fill:#fff}.st346{fill:#bf3718}.st347{fill:#038249}</style><switch><g><filter id="filter3970-5" width="1.217" height="1.215" x="-.109" y="-.108" color-interpolation-filters="sRGB"><feGaussianBlur id="feGaussianBlur3972-8" stdDeviation=".128"/></filter><g id="g4630" class="st344" transform="matrix(1.0006 0 0 1 -1.376 203.406)"><g id="g3062"><path id="rect4031" d="M-131.2 90.5l46.1.2 68.4-.2c22.9-.1 36.1 15.9 36.1 40.4v154.6c0 12.3-14 27.7-21.4 35.7s-22.1 24.3-33.6 24.3h-113c-22.9 0-41.3-5.6-41.3-30.2l-.3-162.3c0-6.4 17.3-24.3 24.8-32.4 7.4-8 22.7-30.2 34.2-30.1z"/><path id="rect3767" fill="#005f00" d="M-122.4 103.2h104.5c13.8 0 24.8 11.1 24.9 24.9l.9 152.4c0 2-12.6 32-25.8 32h-104.5c-13.8 0-24.9-11.1-24.9-24.9V128.1c0-13.8 11.1-24.9 24.9-24.9z"/><path id="rect3861" fill="#cddacd" d="M-137.4 118.1h99.6c13.7 0 24.9 11.2 24.9 24.9v159.5c0 13.8-11.1 24.9-24.9 24.9h-99.6c-13.7 0-24.9-11.2-24.9-24.9V143.1c0-13.8 11.2-25 24.9-25z"/><path id="rect3765" d="M-147.3 133.1h104.5c13.7 0 24.9 11.2 24.9 24.9v149.5c0 13.8-11.1 24.9-24.9 24.9h-104.5c-13.7 0-24.9-11.2-24.9-24.9V158c0-13.7 11.1-24.9 24.9-24.9z" class="st345"/><linearGradient id="rect3008_1_" x1="-324.883" x2="-324.883" y1="569.587" y2="531.068" gradientTransform="matrix(4.9807 0 0 -4.9841 1515.62 2981.96)" gradientUnits="userSpaceOnUse"><stop offset="0" stop-color="#d0e4cc"/><stop offset="1" stop-color="#fbffec"/></linearGradient><path id="rect3008" fill="url(#rect3008_1_)" d="M-157.3 143.1h109.5c11 0 19.9 8.9 19.9 19.9v149.5c0 11-8.9 19.9-19.9 19.9h-109.5c-11 0-19.9-8.9-19.9-19.9V163c0-11 8.9-19.9 19.9-19.9z"/><path id="path3932" d="M2.2 115.7c0 1.5-1.3 2.8-2.8 2.8s-2.8-1.3-2.8-2.8 1.3-2.8 2.8-2.8 2.8 1.2 2.8 2.8z" class="st345"/><g id="path3936" filter="url(#filter3970-5)"><linearGradient id="SVGID_1_" x1="-315.771" x2="-318.887" y1="590.47" y2="587.001" gradientTransform="matrix(7.1013 0 0 -6.6887 2243.616 4061.265)" gradientUnits="userSpaceOnUse"><stop offset="0" stop-color="#fff"/><stop offset="1" stop-color="#fff" stop-opacity="0"/></linearGradient><path fill="url(#SVGID_1_)" d="M-2.8 114.3l-28.8 24.6 8.2 6 25.2-28.3z"/></g><path id="path3882" d="M-15 137.6c0 4.8-3.9 8.7-8.7 8.7-4.8 0-8.7-3.9-8.7-8.7 0-4.8 3.9-8.7 8.7-8.7 4.7 0 8.7 3.9 8.7 8.7z" class="st345"/><g id="g5021" class="st344" transform="matrix(.9994 0 0 1 1.365 -203.394)"><g id="g5432" transform="matrix(2.9639 0 0 2.9677 60.694 76.783)"><path id="path5434" d="M-70.7 117a6.7 6.7 0 1113.4 0 6.7 6.7 0 01-13.4 0z" class="st346"/><g id="g5436" transform="rotate(-45 17.625 29.531)"><path id="path5438" d="M-101.6 33.7s1.2-1 2.7-1c1.5 0 2.7 1 2.7 1s-1.2 1-2.7 1c-1.4 0-2.7-1-2.7-1z" class="st345"/><path id="path5440" d="M-102.3 33.7s-1.2 1-2.7 1c-1.5 0-2.7-1-2.7-1s1.2-1 2.7-1c1.5 0 2.7 1 2.7 1z" class="st345"/><path id="path5442" d="M-101.9 33.3s-1-1.2-1-2.7c0-1.5 1-2.7 1-2.7s1 1.2 1 2.7c0 1.5-1 2.7-1 2.7z" class="st345"/><path id="path5444" d="M-101.9 34s1 1.2 1 2.7-1 2.7-1 2.7-1-1.2-1-2.7 1-2.7 1-2.7z" class="st345"/></g></g><g id="g5773" transform="matrix(2.9639 0 0 2.9677 10.917 76.783)"><path id="path5775" d="M-37.1 117a6.7 6.7 0 1113.4 0 6.7 6.7 0 01-13.4 0z" class="st346"/><g id="g5777" transform="rotate(-45 17.625 29.531)"><path id="path5779" d="M-77.8 57.5s1.2-1 2.7-1c1.5 0 2.7 1 2.7 1s-1.2 1-2.7 1c-1.5 0-2.7-1-2.7-1z" class="st345"/><path id="path5781" d="M-78.5 57.5s-1.2 1-2.7 1c-1.5 0-2.7-1-2.7-1s1.2-1 2.7-1c1.5 0 2.7 1 2.7 1z" class="st345"/><path id="path5783" d="M-78.2 57.1s-1-1.2-1-2.7c0-1.5 1-2.7 1-2.7s1 1.2 1 2.7c0 1.5-1 2.7-1 2.7z" class="st345"/><path id="path5785" d="M-78.2 57.8s1 1.2 1 2.7c0 1.5-1 2.7-1 2.7s-1-1.2-1-2.7c0-1.5 1-2.7 1-2.7z" class="st345"/></g></g><g id="g5787" transform="matrix(2.9639 0 0 2.9677 60.694 124.13)"><path id="path5789" d="M-70.7 85.1a6.7 6.7 0 1113.4 0 6.7 6.7 0 01-13.4 0z" class="st346"/><g id="g5791" transform="rotate(-45 17.625 29.531)"><path id="path5793" d="M-79 11.1s1.2-1 2.7-1c1.5 0 2.7 1 2.7 1s-1.2 1-2.7 1c-1.5 0-2.7-1-2.7-1z" class="st345"/><path id="path5795" d="M-79.7 11.1s-1.2 1-2.7 1c-1.5 0-2.7-1-2.7-1s1.2-1 2.7-1c1.5 0 2.7 1 2.7 1z" class="st345"/><path id="path5797" d="M-79.3 10.8s-1-1.2-1-2.7 1-2.7 1-2.7 1 1.2 1 2.7-1 2.7-1 2.7z" class="st345"/><path id="path5799" d="M-79.3 11.5s1 1.2 1 2.7-1 2.7-1 2.7-1-1.2-1-2.7 1-2.7 1-2.7z" class="st345"/></g></g><g id="g5801" transform="matrix(2.9639 0 0 2.9677 10.917 124.13)"><path id="path5803" d="M-37.1 85.1a6.7 6.7 0 1113.4 0 6.7 6.7 0 01-13.4 0z" class="st346"/><g id="g5805" transform="rotate(-45 17.625 29.531)"><path id="path5807" d="M-55.2 34.9s1.2-1 2.7-1 2.7 1 2.7 1-1.2 1-2.7 1-2.7-1-2.7-1z" class="st345"/><path id="path5809" d="M-55.9 34.9s-1.2 1-2.7 1c-1.5 0-2.7-1-2.7-1s1.2-1 2.7-1c1.4 0 2.7 1 2.7 1z" class="st345"/><path id="path5811" d="M-55.6 34.5s-1-1.2-1-2.7 1-2.7 1-2.7 1 1.2 1 2.7-1 2.7-1 2.7z" class="st345"/><path id="path5813" d="M-55.6 35.2s1 1.2 1 2.7c0 1.5-1 2.7-1 2.7s-1-1.2-1-2.7c0-1.5 1-2.7 1-2.7z" class="st345"/></g></g><g id="g5488" transform="matrix(2.9639 0 0 2.9677 35.806 15.063)"><path id="path5490" d="M-53.9 158.6a6.7 6.7 0 1113.4 0 6.7 6.7 0 01-13.4 0z" class="st347"/><g id="g5492" transform="rotate(-45 17.625 29.531)"><path id="path5494" d="M-119.1 75s1.2-1 2.7-1c1.5 0 2.7 1 2.7 1s-1.2 1-2.7 1c-1.5 0-2.7-1-2.7-1z" class="st345"/><path id="path5496" d="M-119.8 75s-1.2 1-2.7 1c-1.5 0-2.7-1-2.7-1s1.2-1 2.7-1c1.5 0 2.7 1 2.7 1z" class="st345"/><path id="path5498" d="M-119.4 74.6s-1-1.2-1-2.7c0-1.5 1-2.7 1-2.7s1 1.2 1 2.7c0 1.5-1 2.7-1 2.7z" class="st345"/><path id="path5500" d="M-119.4 75.3s1 1.2 1 2.7c0 1.5-1 2.7-1 2.7s-1-1.2-1-2.7c0-1.5 1-2.7 1-2.7z" class="st345"/></g></g><g id="g5887" transform="matrix(2.9639 0 0 2.9677 75.628 35)"><path id="path5889" d="M-80.7 145.2a6.7 6.7 0 1113.4 0 6.7 6.7 0 01-13.4 0z" class="st347"/><g id="g5891" transform="rotate(-45 17.625 29.531)"><path id="path5893" d="M-128.6 46.5s1.2-1 2.7-1c1.5 0 2.7 1 2.7 1s-1.2 1-2.7 1c-1.5 0-2.7-1-2.7-1z" class="st345"/><path id="path5895" d="M-129.3 46.5s-1.2 1-2.7 1c-1.5 0-2.7-1-2.7-1s1.2-1 2.7-1c1.5 0 2.7 1 2.7 1z" class="st345"/><path id="path5897" d="M-128.9 46.1s-1-1.2-1-2.7 1-2.7 1-2.7 1 1.2 1 2.7-1 2.7-1 2.7z" class="st345"/><path id="path5899" d="M-128.9 46.8s1 1.2 1 2.7c0 1.5-1 2.7-1 2.7s-1-1.2-1-2.7c0-1.5 1-2.7 1-2.7z" class="st345"/></g></g><g id="g5901" transform="matrix(2.9639 0 0 2.9677 -4.016 -4.873)"><path id="path5903" d="M-27 172a6.7 6.7 0 1113.4 0 6.7 6.7 0 01-13.4 0z" class="st347"/><g id="g5905" transform="rotate(-45 17.625 29.531)"><path id="path5907" d="M-109.6 103.5s1.2-1 2.7-1c1.5 0 2.7 1 2.7 1s-1.2 1-2.7 1c-1.5 0-2.7-1-2.7-1z" class="st345"/><path id="path5909" d="M-110.3 103.5s-1.2 1-2.7 1c-1.5 0-2.7-1-2.7-1s1.2-1 2.7-1c1.5 0 2.7 1 2.7 1z" class="st345"/><path id="path5911" d="M-109.9 103.1s-1-1.2-1-2.7c0-1.5 1-2.7 1-2.7s1 1.2 1 2.7c0 1.5-1 2.7-1 2.7z" class="st345"/><path id="path5913" d="M-109.9 103.8s1 1.2 1 2.7c0 1.5-1 2.7-1 2.7s-1-1.2-1-2.7c0-1.5 1-2.7 1-2.7z" class="st345"/></g></g></g></g></g></g></switch></svg>