<svg xmlns="http://www.w3.org/2000/svg" id="svg2985" x="0" y="0" enable-background="new -192 293.9 210 255" version="1.1" viewBox="-192 293.9 210 255" xml:space="preserve"><style>.st38{fill:#fff}</style><switch><g><filter id="filter3970-5" width="1.217" height="1.215" x="-.109" y="-.108" color-interpolation-filters="sRGB"><feGaussianBlur id="feGaussianBlur3972-8" stdDeviation=".128"/></filter><g id="g4630" transform="matrix(1.0006 0 0 1 -1.376 203.406)"><g id="g3062"><path id="rect4031" d="M-131.2 90.5l46.1.2 68.4-.2c22.9-.1 36.1 15.9 36.1 40.4v154.6c0 12.3-14 27.7-21.4 35.7s-22.1 24.3-33.6 24.3h-113c-22.9 0-41.3-5.6-41.3-30.2l-.3-162.3c0-6.4 17.3-24.3 24.8-32.4 7.4-8 22.7-30.2 34.2-30.1z"/><path id="rect3767" fill="#005f00" d="M-122.4 103.2h104.5c13.8 0 24.8 11.1 24.9 24.9l.9 152.4c0 2-12.6 32-25.8 32h-104.5c-13.8 0-24.9-11.1-24.9-24.9V128.1c0-13.8 11.1-24.9 24.9-24.9z"/><path id="rect3861" fill="#cddacd" d="M-137.4 118.1h99.6c13.7 0 24.9 11.2 24.9 24.9v159.5c0 13.8-11.1 24.9-24.9 24.9h-99.6c-13.7 0-24.9-11.2-24.9-24.9V143.1c0-13.8 11.2-25 24.9-25z"/><path id="rect3765" d="M-147.3 133.1h104.5c13.7 0 24.9 11.2 24.9 24.9v149.5c0 13.8-11.1 24.9-24.9 24.9h-104.5c-13.7 0-24.9-11.2-24.9-24.9V158c0-13.7 11.1-24.9 24.9-24.9z" class="st38"/><linearGradient id="rect3008_1_" x1="-324.883" x2="-324.883" y1="569.587" y2="531.068" gradientTransform="matrix(4.9807 0 0 -4.9841 1515.62 2981.96)" gradientUnits="userSpaceOnUse"><stop offset="0" stop-color="#d0e4cc"/><stop offset="1" stop-color="#fbffec"/></linearGradient><path id="rect3008" fill="url(#rect3008_1_)" d="M-157.3 143.1h109.5c11 0 19.9 8.9 19.9 19.9v149.5c0 11-8.9 19.9-19.9 19.9h-109.5c-11 0-19.9-8.9-19.9-19.9V163c0-11 8.9-19.9 19.9-19.9z"/><path id="path3932" d="M2.2 115.7c0 1.5-1.3 2.8-2.8 2.8s-2.8-1.3-2.8-2.8 1.3-2.8 2.8-2.8 2.8 1.2 2.8 2.8z" class="st38"/><g id="path3936" filter="url(#filter3970-5)"><linearGradient id="SVGID_1_" x1="-315.771" x2="-318.887" y1="590.47" y2="587.001" gradientTransform="matrix(7.1013 0 0 -6.6887 2243.616 4061.265)" gradientUnits="userSpaceOnUse"><stop offset="0" stop-color="#fff"/><stop offset="1" stop-color="#fff" stop-opacity="0"/></linearGradient><path fill="url(#SVGID_1_)" d="M-2.8 114.3l-28.8 24.6 8.2 6 25.2-28.3z"/></g><path id="path3882" d="M-15 137.6c0 4.8-3.9 8.7-8.7 8.7-4.8 0-8.7-3.9-8.7-8.7 0-4.8 3.9-8.7 8.7-8.7 4.7 0 8.7 3.9 8.7 8.7z" class="st38"/></g></g><path fill="#2a3b92" d="M-144.9 382.9c1.5-.7-6.7 6.8-5.2 6.7 7.5-1.1 22.2-.4 25.2 2.7 19.2 11.5 8.5 31.4 8.6 47.7 1.9 2.7 7.7-2.3 9.3-3.5 6.7-5.4 15.7-16.8 15.7-25.6.1-8.5 2.8-16 5.2-24.1 5.7.3 3.8 14.7 9.3 8.6 5.1-5.9 12.1-16.6 21.7-16.5 5.7-.1 7.8 4.9 10 9.2 3.8 7.7-17.6 35.3-14.4 38.9 3 .4 5.5 1.9 7.6 4.2 1.2 5.1 5.7 7.3 4.2 13.5-3.9 1.3-7.7-.3-11.4.5-5.9 1.1-6.5 3.5-12.5 3.8l-5.3.5c-1.6 7.9 2.9 21 2.9 32.1-2.5-.2-5.6 7.1-7.3 5.7-6.1.2-6.7-3.7-9.3-7.3-10.7-8.3-2.3-39.1-2.7-55-5.4 5.2-6.9 10.4-12.7 15.4-3.1 2.6-6.7 4.7-9.4 7.8-3.8 4.4-2.4 13.2-2.8 18.5-.7 8.5-1.6 17.5 3.3 24.8.5 4.4 6.3 7.2 2.8 11.9-6.9-.5-10.2-5.1-15.7-7.7-1.4-.7-3-1.1-4.4-1.8-9-3.7.6-28.1-.4-35.2-4.4-3.6-16 8.8-20.7 10.3-6.6 2.4-7.7-1.4-11.3-4.7-2.7-4.3-2.1-7 .7-10 2.9-3.1 17.6-4.9 22.7-8.7 3.4-2.6 6.6-2.8 11-1.3 2.4-7.6 4.2-30.7-1-37.7-11-4.3-19.7 5-30 2.3-3.2-.9-5.2-3.4-8.3-4.7-3-4.1-3.8-5.9-2.7-11.3 13-10.9 12.9-3.3 27.3-10zm65.4 48.8c3.2-1.4 11.4-5.4 16.6-7.8 2.6-4.7 13.5-20.2 12.2-25.5-6.6 1.1-29.4 8.6-27.4 17.1-1.1 2.1-1.3 3.5-1.5 5.8.2 1.3-1.7 11.2.1 10.4z"/></g></switch></svg>