<svg xmlns="http://www.w3.org/2000/svg" id="svg2985" x="0" y="0" enable-background="new -214.5 316.4 255 210" version="1.1" viewBox="-214.5 316.4 255 210" xml:space="preserve"><style>.st369{enable-background:new}.st370{fill:#fff}.st371{fill:#bf3718}.st372{fill:#2a3b92}.st373{fill:#038249}</style><switch><g><filter id="filter3970-5" width="1.217" height="1.215" x="-.109" y="-.108" color-interpolation-filters="sRGB"><feGaussianBlur id="feGaussianBlur3972-8" stdDeviation=".128"/></filter><g id="g4630" class="st369" transform="matrix(1.0006 0 0 1 -1.376 203.406)"><g id="g3062"><path id="rect4031" d="M42 263.8l-.2-46.2.2-68.4c.1-22.9-15.9-36.1-40.4-36.1h-154.5c-12.3 0-27.6 14-35.7 21.5-8 7.5-24.3 22.1-24.3 33.6v113.1c0 22.9 5.6 41.3 30.1 41.3l162.2.3c6.4 0 24.3-17.4 32.3-24.8 8.1-7.5 30.3-22.9 30.3-34.3z"/><path id="rect3767" fill="#005f00" d="M29.3 255V150.4c0-13.8-11.1-24.8-24.9-24.9l-152.4-.9c-2 0-32 12.6-32 25.8V255c0 13.8 11.1 24.9 24.9 24.9H4.4c13.8 0 24.9-11.1 24.9-24.9z"/><path id="rect3861" fill="#cddacd" d="M14.3 269.9v-99.6c0-13.8-11.2-24.9-24.9-24.9H-170c-13.8 0-24.9 11.1-24.9 24.9v99.6c0 13.8 11.2 24.9 24.9 24.9h159.4c13.8 0 24.9-11.1 24.9-24.9z"/><path id="rect3765" d="M-.6 279.9V175.3c0-13.8-11.2-24.9-24.9-24.9H-175c-13.8 0-24.9 11.1-24.9 24.9v104.6c0 13.8 11.2 24.9 24.9 24.9h149.4c13.8 0 25-11.1 25-24.9z" class="st370"/><linearGradient id="rect3008_1_" x1="-324.883" x2="-324.883" y1="569.587" y2="531.068" gradientTransform="matrix(0 -4.9837 4.9812 0 -2847.785 -1384.036)" gradientUnits="userSpaceOnUse"><stop offset="0" stop-color="#d0e4cc"/><stop offset="1" stop-color="#fbffec"/></linearGradient><path id="rect3008" fill="url(#rect3008_1_)" d="M-10.6 289.9V180.3c0-11-8.9-19.9-19.9-19.9h-149.4c-11 0-19.9 8.9-19.9 19.9v109.6c0 11 8.9 19.9 19.9 19.9h149.4c11 0 19.9-8.9 19.9-19.9z"/><path id="path3932" d="M16.8 130.2c-1.5 0-2.8 1.3-2.8 2.8s1.3 2.8 2.8 2.8 2.8-1.3 2.8-2.8-1.2-2.8-2.8-2.8z" class="st370"/><g id="path3936" filter="url(#filter3970-5)"><linearGradient id="SVGID_1_" x1="-315.771" x2="-318.887" y1="590.47" y2="587.001" gradientTransform="matrix(0 -7.1056 6.6848 0 -3926.45 -2112.465)" gradientUnits="userSpaceOnUse"><stop offset="0" stop-color="#fff"/><stop offset="1" stop-color="#fff" stop-opacity="0"/></linearGradient><path fill="url(#SVGID_1_)" d="M18.2 135.3l-24.6 28.8-6-8.2 28.3-25.2z"/></g><path id="path3882" d="M-5.1 147.5c-4.8 0-8.7 3.9-8.7 8.7 0 4.8 3.9 8.7 8.7 8.7 4.8 0 8.7-3.9 8.7-8.7 0-4.8-3.9-8.7-8.7-8.7z" class="st370"/><g id="g7499" class="st369" transform="matrix(4.97481 0 0 4.98413 196.315 -191.185)"><g id="g5773" transform="matrix(.59543 0 0 .59543 -31.994 9.514)"><path id="path5775" d="M-48.1 120.9a6.7 6.7 0 106.7 6.7c.1-3.7-2.9-6.7-6.7-6.7z" class="st371"/><g id="g5777" transform="rotate(-45 17.625 29.531)"><path id="path5779" d="M-98.6 52.5s-1.2-1-2.7-1c-1.5 0-2.7 1-2.7 1s1.2 1 2.7 1c1.5 0 2.7-1 2.7-1z" class="st370"/><path id="path5781" d="M-97.9 52.5s1.2 1 2.7 1 2.7-1 2.7-1-1.2-1-2.7-1c-1.4 0-2.7 1-2.7 1z" class="st370"/><path id="path5783" d="M-98.2 52.1s1-1.2 1-2.7c0-1.5-1-2.7-1-2.7s-1 1.2-1 2.7c0 1.5 1 2.7 1 2.7z" class="st370"/><path id="path5785" d="M-98.2 52.8s-1 1.2-1 2.7c0 1.5 1 2.7 1 2.7s1-1.2 1-2.7c0-1.5-1-2.7-1-2.7z" class="st370"/></g></g><g id="g7345" transform="matrix(.59543 0 0 .59543 -22.994 9.514)"><path id="path7347" d="M-63.2 105.8a6.7 6.7 0 100 13.4 6.7 6.7 0 000-13.4z" class="st371"/><g id="g7349" transform="rotate(-45 17.625 29.531)"><path id="path7351" d="M-98.6 31.1s-1.2-1-2.7-1c-1.5 0-2.7 1-2.7 1s1.2 1 2.7 1c1.5 0 2.7-1 2.7-1z" class="st370"/><path id="path7353" d="M-97.9 31.1s1.2 1 2.7 1 2.7-1 2.7-1-1.2-1-2.7-1c-1.5 0-2.7 1-2.7 1z" class="st370"/><path id="path7355" d="M-98.2 30.8s1-1.2 1-2.7c0-1.5-1-2.7-1-2.7s-1 1.2-1 2.7c0 1.4 1 2.7 1 2.7z" class="st370"/><path id="path7357" d="M-98.2 31.5s-1 1.2-1 2.7c0 1.5 1 2.7 1 2.7s1-1.2 1-2.7c0-1.5-1-2.7-1-2.7z" class="st370"/></g></g><g id="g7359" transform="matrix(.59543 0 0 .59543 -40.994 9.514)"><path id="path7361" d="M-32.9 136a6.7 6.7 0 100 13.4 6.7 6.7 0 000-13.4z" class="st371"/><g id="g7363" transform="rotate(-45 17.625 29.531)"><path id="path7365" d="M-98.5 73.8s-1.2-1-2.7-1c-1.5 0-2.7 1-2.7 1s1.2 1 2.7 1c1.4 0 2.7-1 2.7-1z" class="st370"/><path id="path7367" d="M-97.8 73.8s1.2 1 2.7 1c1.5 0 2.7-1 2.7-1s-1.2-1-2.7-1c-1.5 0-2.7 1-2.7 1z" class="st370"/><path id="path7369" d="M-98.2 73.5s1-1.2 1-2.7c0-1.5-1-2.7-1-2.7s-1 1.2-1 2.7c0 1.5 1 2.7 1 2.7z" class="st370"/><path id="path7371" d="M-98.2 74.2s-1 1.2-1 2.7c0 1.5 1 2.7 1 2.7s1-1.2 1-2.7c0-1.5-1-2.7-1-2.7z" class="st370"/></g></g><g id="g7373" transform="matrix(.59543 0 0 .59543 -31.994 -1.986)"><path id="path7375" d="M-28.7 140.3a6.7 6.7 0 100 13.4 6.7 6.7 0 000-13.4z" class="st372"/><g id="g7377" transform="rotate(-45 17.625 29.531)"><path id="path7379" d="M-98.5 79.8s-1.2-1-2.7-1c-1.5 0-2.7 1-2.7 1s1.2 1 2.7 1c1.5 0 2.7-1 2.7-1z" class="st370"/><path id="path7381" d="M-97.8 79.8s1.2 1 2.7 1c1.5 0 2.7-1 2.7-1s-1.2-1-2.7-1c-1.5 0-2.7 1-2.7 1z" class="st370"/><path id="path7383" d="M-98.2 79.4s1-1.2 1-2.7c0-1.5-1-2.7-1-2.7s-1 1.2-1 2.7c0 1.5 1 2.7 1 2.7z" class="st370"/><path id="path7385" d="M-98.2 80.1s-1 1.2-1 2.7c0 1.5 1 2.7 1 2.7s1-1.2 1-2.7c0-1.4-1-2.7-1-2.7z" class="st370"/></g></g><g id="g7387" transform="matrix(.59543 0 0 .59543 -22.994 -1.986)"><path id="path7389" d="M-43.8 125.2a6.7 6.7 0 100 13.4 6.7 6.7 0 000-13.4z" class="st372"/><g id="g7391" transform="rotate(-45 17.625 29.531)"><path id="path7393" d="M-98.6 58.4s-1.2-1-2.7-1-2.7 1-2.7 1 1.2 1 2.7 1c1.5 0 2.7-1 2.7-1z" class="st370"/><path id="path7395" d="M-97.9 58.4s1.2 1 2.7 1c1.5 0 2.7-1 2.7-1s-1.2-1-2.7-1c-1.4 0-2.7 1-2.7 1z" class="st370"/><path id="path7397" d="M-98.2 58.1s1-1.2 1-2.7c0-1.5-1-2.7-1-2.7s-1 1.2-1 2.7c0 1.5 1 2.7 1 2.7z" class="st370"/><path id="path7399" d="M-98.2 58.8s-1 1.2-1 2.7c0 1.5 1 2.7 1 2.7s1-1.2 1-2.7c0-1.5-1-2.7-1-2.7z" class="st370"/></g></g><g id="g7401" transform="matrix(.59543 0 0 .59543 -40.994 -1.986)"><path id="path7403" d="M-13.6 155.4a6.7 6.7 0 100 13.4 6.7 6.7 0 000-13.4z" class="st372"/><g id="g7405" transform="rotate(-45 17.625 29.531)"><path id="path7407" d="M-98.5 101.2s-1.2-1-2.7-1c-1.5 0-2.7 1-2.7 1s1.2 1 2.7 1c1.5 0 2.7-1 2.7-1z" class="st370"/><path id="path7409" d="M-97.8 101.2s1.2 1 2.7 1c1.5 0 2.7-1 2.7-1s-1.2-1-2.7-1c-1.5 0-2.7 1-2.7 1z" class="st370"/><path id="path7411" d="M-98.2 100.8s1-1.2 1-2.7c0-1.5-1-2.7-1-2.7s-1 1.2-1 2.7c0 1.5 1 2.7 1 2.7z" class="st370"/><path id="path7413" d="M-98.2 101.5s-1 1.2-1 2.7c0 1.5 1 2.7 1 2.7s1-1.2 1-2.7-1-2.7-1-2.7z" class="st370"/></g></g><g id="g7457" transform="matrix(.59543 0 0 .59543 -31.994 21.014)"><path id="path7459" d="M-67.4 101.6a6.7 6.7 0 100 13.4 6.7 6.7 0 000-13.4z" class="st373"/><g id="g7461" transform="rotate(-45 17.625 29.531)"><path id="path7463" d="M-98.6 25.1s-1.2-1-2.7-1c-1.5 0-2.7 1-2.7 1s1.2 1 2.7 1c1.5 0 2.7-1 2.7-1z" class="st370"/><path id="path7465" d="M-97.9 25.1s1.2 1 2.7 1c1.5 0 2.7-1 2.7-1s-1.2-1-2.7-1c-1.5 0-2.7 1-2.7 1z" class="st370"/><path id="path7467" d="M-98.2 24.8s1-1.2 1-2.7c0-1.5-1-2.7-1-2.7s-1 1.2-1 2.7c0 1.5 1 2.7 1 2.7z" class="st370"/><path id="path7469" d="M-98.2 25.5s-1 1.2-1 2.7c0 1.5 1 2.7 1 2.7s1-1.2 1-2.7c0-1.5-1-2.7-1-2.7z" class="st370"/></g></g><g id="g7471" transform="matrix(.59543 0 0 .59543 -22.994 21.014)"><path id="path7473" d="M-82.5 86.5a6.7 6.7 0 100 13.4 6.7 6.7 0 000-13.4z" class="st373"/><g id="g7475" transform="rotate(-45 17.625 29.531)"><path id="path7477" d="M-98.6 3.8s-1.2-1-2.7-1c-1.5 0-2.7 1-2.7 1s1.2 1 2.7 1c1.5 0 2.7-1 2.7-1z" class="st370"/><path id="path7479" d="M-97.9 3.8s1.2 1 2.7 1c1.5 0 2.7-1 2.7-1s-1.2-1-2.7-1c-1.5 0-2.7 1-2.7 1z" class="st370"/><path id="path7481" d="M-98.2 3.4s1-1.2 1-2.7c0-1.5-1-2.7-1-2.7s-1 1.2-1 2.7c0 1.5 1 2.7 1 2.7z" class="st370"/><path id="path7483" d="M-98.2 4.1s-1 1.2-1 2.7c0 1.5 1 2.7 1 2.7s1-1.2 1-2.7c0-1.5-1-2.7-1-2.7z" class="st370"/></g></g><g id="g7485" transform="matrix(.59543 0 0 .59543 -40.994 21.014)"><path id="path7487" d="M-52.3 116.7a6.7 6.7 0 100 13.4 6.7 6.7 0 000-13.4z" class="st373"/><g id="g7489" transform="rotate(-45 17.625 29.531)"><path id="path7491" d="M-98.6 46.5s-1.2-1-2.7-1c-1.5 0-2.7 1-2.7 1s1.2 1 2.7 1c1.5 0 2.7-1 2.7-1z" class="st370"/><path id="path7493" d="M-97.9 46.5s1.2 1 2.7 1c1.5 0 2.7-1 2.7-1s-1.2-1-2.7-1c-1.5 0-2.7 1-2.7 1z" class="st370"/><path id="path7495" d="M-98.2 46.1s1-1.2 1-2.7-1-2.7-1-2.7-1 1.2-1 2.7c0 1.5 1 2.7 1 2.7z" class="st370"/><path id="path7497" d="M-98.2 46.8s-1 1.2-1 2.7c0 1.5 1 2.7 1 2.7s1-1.2 1-2.7c0-1.4-1-2.7-1-2.7z" class="st370"/></g></g></g></g></g></g></switch></svg>