<svg xmlns="http://www.w3.org/2000/svg" id="svg2985" x="0" y="0" enable-background="new -214.5 269.4 255 361.9" version="1.1" viewBox="-214.5 269.4 255 361.9" xml:space="preserve"><style>.st222{enable-background:new}.st223{fill:#005f00}.st224{fill:#cddacd}.st225{fill:#fff}.st226{filter:url(#filter3970-5)}.st231{stroke-width:1.378;stroke-linecap:round}.st232,.st233,.st235,.st231{fill:none;stroke:#038249}.st232{stroke-width:1.6285;stroke-linecap:round}.st233,.st235{stroke-width:1.5}.st235{fill:#bf3718;stroke-linecap:round}</style><switch><g><filter id="filter3970-5" width="1.217" height="1.215" x="-.109" y="-.108" color-interpolation-filters="sRGB"><feGaussianBlur id="feGaussianBlur3972-8" stdDeviation=".128"/></filter><g id="g4630" class="st222" transform="matrix(1.0006 0 0 1 -1.376 203.406)"><g id="g3062"><path id="rect4031" d="M42 368.9l-.2-46.2.1-75.4c0-5.5-4.5-14.9-10-14.7 5.5.3 10-9.1 10-14.5l.1-115.8c.1-22.9-15.9-36.1-40.4-36.1h-154.5c-12.3 0-27.6 14-35.7 21.5-8 7.5-24.3 22.1-24.3 33.6v124.8c0 5.1 3.9 14.2 9 14.5-5 0-9 9-9 14v111.7c0 22.9 5.6 41.3 30.1 41.3l162.2.3c6.4 0 24.3-17.4 32.3-24.8 8.1-7.4 30.3-22.8 30.3-34.2z"/><path id="rect3767" d="M29.3 360.1V255.5c0-13.8-11.1-24.8-24.9-24.9l-152.4-.9c-2 0-32 12.6-32 25.8v104.6c0 13.8 11.1 24.9 24.9 24.9H4.4c13.8 0 24.9-11.1 24.9-24.9z" class="st223"/><path id="rect3861" d="M14.3 375.1v-99.6c0-13.8-11.2-24.9-24.9-24.9H-170c-13.8 0-24.9 11.1-24.9 24.9v99.6c0 13.8 11.2 24.9 24.9 24.9h159.4c13.8 0 24.9-11.2 24.9-24.9z" class="st224"/><path id="rect3765" d="M-.6 385V280.4c0-13.8-11.2-24.9-24.9-24.9H-175c-13.8 0-24.9 11.1-24.9 24.9V385c0 13.8 11.2 24.9 24.9 24.9h149.4c13.8 0 25-11.1 25-24.9z" class="st225"/><linearGradient id="rect3008_2_" x1="-303.791" x2="-303.791" y1="569.587" y2="531.068" gradientTransform="matrix(0 4.9837 4.9812 0 -2847.785 1854.184)" gradientUnits="userSpaceOnUse"><stop offset="0" stop-color="#d0e4cc"/><stop offset="1" stop-color="#fbffec"/></linearGradient><path id="rect3008" fill="url(#rect3008_2_)" d="M-10.6 285.4V395c0 11-8.9 19.9-19.9 19.9h-149.4c-11 0-19.9-8.9-19.9-19.9V285.4c0-11 8.9-19.9 19.9-19.9h149.4c11 0 19.9 8.9 19.9 19.9z"/><path id="path3932" d="M16.8 235.4c-1.5 0-2.8 1.3-2.8 2.8s1.3 2.8 2.8 2.8 2.8-1.3 2.8-2.8-1.2-2.8-2.8-2.8z" class="st225"/><g id="path3936" class="st226"><linearGradient id="SVGID_1_" x1="-330.564" x2="-333.68" y1="590.47" y2="587.001" gradientTransform="matrix(0 -7.1056 6.6848 0 -3926.449 -2112.465)" gradientUnits="userSpaceOnUse"><stop offset="0" stop-color="#fff"/><stop offset="1" stop-color="#fff" stop-opacity="0"/></linearGradient><path fill="url(#SVGID_1_)" d="M18.2 240.4l-24.6 28.8-6-8.2 28.3-25.2z"/></g><path id="path3882" d="M-5.1 252.7c-4.8 0-8.7 3.9-8.7 8.7 0 4.8 3.9 8.7 8.7 8.7 4.8 0 8.7-3.9 8.7-8.7 0-4.8-3.9-8.7-8.7-8.7z" class="st225"/></g></g><g id="g4630_1_" class="st222" transform="matrix(1.0006 0 0 1 -1.376 203.406)"><g id="g3062_1_"><path id="rect3767_1_" d="M29.3 209.1V104.5c0-13.8-11.1-24.8-24.9-24.9l-152.4-.9c-2 0-32 12.6-32 25.8v104.6c0 13.8 11.1 24.9 24.9 24.9H4.4c13.8 0 24.9-11.1 24.9-24.9z" class="st223"/><path id="rect3861_1_" d="M14.3 224.1v-99.6c0-13.8-11.2-24.9-24.9-24.9H-170c-13.8 0-24.9 11.1-24.9 24.9v99.6c0 13.8 11.2 24.9 24.9 24.9h159.4c13.8 0 24.9-11.2 24.9-24.9z" class="st224"/><path id="rect3765_1_" d="M-.6 234V129.4c0-13.8-11.2-24.9-24.9-24.9H-175c-13.8 0-24.9 11.1-24.9 24.9V234c0 13.8 11.2 24.9 24.9 24.9h149.4c13.8 0 25-11.1 25-24.9z" class="st225"/><linearGradient id="rect3008_3_" x1="-334.09" x2="-334.09" y1="569.587" y2="531.068" gradientTransform="matrix(0 4.9837 4.9812 0 -2847.785 1854.184)" gradientUnits="userSpaceOnUse"><stop offset="0" stop-color="#d0e4cc"/><stop offset="1" stop-color="#fbffec"/></linearGradient><path id="rect3008_1_" fill="url(#rect3008_3_)" d="M-10.6 134.4V244c0 11-8.9 19.9-19.9 19.9h-149.4c-11 0-19.9-8.9-19.9-19.9V134.4c0-11 8.9-19.9 19.9-19.9h149.4c11 0 19.9 8.9 19.9 19.9z"/><path id="path3932_1_" d="M16.8 84.4c-1.5 0-2.8 1.3-2.8 2.8 0 1.5 1.3 2.8 2.8 2.8s2.8-1.3 2.8-2.8c0-1.6-1.2-2.8-2.8-2.8z" class="st225"/><g id="path3936_1_" class="st226"><linearGradient id="SVGID_2_" x1="-309.313" x2="-312.429" y1="590.47" y2="587.001" gradientTransform="matrix(0 -7.1056 6.6848 0 -3926.449 -2112.465)" gradientUnits="userSpaceOnUse"><stop offset="0" stop-color="#fff"/><stop offset="1" stop-color="#fff" stop-opacity="0"/></linearGradient><path fill="url(#SVGID_2_)" d="M18.2 89.4l-24.6 28.8-6-8.2 28.3-25.2z"/></g><path id="path3882_1_" d="M-5.1 101.7c-4.8 0-8.7 3.9-8.7 8.7 0 4.8 3.9 8.7 8.7 8.7 4.8 0 8.7-3.9 8.7-8.7 0-4.8-3.9-8.7-8.7-8.7z" class="st225"/></g></g><g id="g3855" class="st222" transform="matrix(4.97804 0 0 4.98098 1.619 -203.22)"><path id="path4291" d="M-21.8 137.4c-6.9 0-12.5 5.6-12.5 12.5s5.6 12.5 12.5 12.5 12.5-5.6 12.5-12.5-5.5-12.5-12.5-12.5z" class="st231"/><path id="path4295" d="M-21.8 139.3c-5.8 0-10.6 4.7-10.6 10.6s4.7 10.6 10.6 10.6 10.6-4.7 10.6-10.6-4.7-10.6-10.6-10.6z" class="st232"/><path id="path4327" d="M-11.2 149.9h-3.6" class="st233"/><path id="path4346" d="M-21.8 160.4v-3.6" class="st233"/><path id="path4356" d="M-32.3 149.9h3.6" class="st233"/><path id="path4358" d="M-21.8 139.4v3.6" class="st233"/><path id="path4360" d="M-14.3 157.3l-2.5-2.5" class="st233"/><path id="path4362" d="M-29.2 157.3l2.5-2.5" class="st233"/><path id="path4364" d="M-29.2 142.5l2.5 2.5" class="st233"/><path id="path4366" d="M-14.3 142.5l-2.5 2.5" class="st233"/><path id="path4376" d="M-12 153.9l-3.3-1.4" class="st233"/><path id="path4378" d="M-25.8 159.6l1.4-3.3" class="st233"/><path id="path4380" d="M-31.5 145.9l3.3 1.4" class="st233"/><path id="path4382" d="M-17.7 140.2l-1.4 3.3" class="st233"/><path id="path4384" d="M-17.7 159.6l-1.4-3.3" class="st233"/><path id="path4386" d="M-31.5 153.9l3.3-1.4" class="st233"/><path id="path4388" d="M-25.8 140.2l1.4 3.3" class="st233"/><path id="path4390" d="M-12 145.9l-3.3 1.4" class="st233"/><path id="path4301" d="M-21.8 142.5c-4.1 0-7.4 3.3-7.4 7.4s3.3 7.4 7.4 7.4 7.4-3.3 7.4-7.4-3.3-7.4-7.4-7.4z" class="st235"/><g id="g3849" transform="rotate(-45 17.625 29.531)"><path id="path4497" d="M-95.7 86.8s-1.3-1.1-3-1.1c-1.6 0-3 1.1-3 1.1s1.3 1.1 3 1.1c1.6 0 3-1.1 3-1.1z" class="st225"/><path id="path4533" d="M-95 86.8s1.3 1.1 3 1.1 3-1.1 3-1.1-1.3-1.1-3-1.1c-1.6 0-3 1.1-3 1.1z" class="st225"/><path id="path4575" d="M-95.3 86.4s1.1-1.3 1.1-3c0-1.6-1.1-3-1.1-3s-1.1 1.3-1.1 3 1.1 3 1.1 3z" class="st225"/><path id="path4577" d="M-95.3 87.2s-1.1 1.3-1.1 3c0 1.6 1.1 3 1.1 3s1.1-1.3 1.1-3-1.1-3-1.1-3z" class="st225"/></g></g><g id="g3855_1_" class="st222" transform="matrix(4.97804 0 0 4.98098 1.619 -203.22)"><path id="path4291_1_" d="M-21.8 107.1c-6.9 0-12.5 5.6-12.5 12.5s5.6 12.5 12.5 12.5 12.5-5.6 12.5-12.5-5.5-12.5-12.5-12.5z" class="st231"/><path id="path4295_1_" d="M-21.8 109c-5.8 0-10.6 4.7-10.6 10.6 0 5.8 4.7 10.6 10.6 10.6s10.6-4.7 10.6-10.6c0-5.8-4.7-10.6-10.6-10.6z" class="st232"/><path id="path4327_1_" d="M-11.2 119.6h-3.6" class="st233"/><path id="path4346_1_" d="M-21.8 130.1v-3.6" class="st233"/><path id="path4356_1_" d="M-32.3 119.6h3.6" class="st233"/><path id="path4358_1_" d="M-21.8 109.1v3.6" class="st233"/><path id="path4360_1_" d="M-14.3 127l-2.5-2.5" class="st233"/><path id="path4362_1_" d="M-29.2 127l2.5-2.5" class="st233"/><path id="path4364_1_" d="M-29.2 112.2l2.5 2.5" class="st233"/><path id="path4366_1_" d="M-14.3 112.2l-2.5 2.5" class="st233"/><path id="path4376_1_" d="M-12 123.6l-3.3-1.4" class="st233"/><path id="path4378_1_" d="M-25.8 129.3l1.4-3.3" class="st233"/><path id="path4380_1_" d="M-31.5 115.6l3.3 1.4" class="st233"/><path id="path4382_1_" d="M-17.7 109.9l-1.4 3.3" class="st233"/><path id="path4384_1_" d="M-17.7 129.3l-1.4-3.3" class="st233"/><path id="path4386_1_" d="M-31.5 123.6l3.3-1.4" class="st233"/><path id="path4388_1_" d="M-25.8 109.9l1.4 3.3" class="st233"/><path id="path4390_1_" d="M-12 115.6l-3.3 1.4" class="st233"/><path id="path4301_1_" d="M-21.8 112.2c-4.1 0-7.4 3.3-7.4 7.4 0 4.1 3.3 7.4 7.4 7.4s7.4-3.3 7.4-7.4c0-4.1-3.3-7.4-7.4-7.4z" class="st235"/><g id="g3849_1_" transform="rotate(-45 17.625 29.531)"><path id="path4497_1_" d="M-74.3 65.4s-1.3-1.1-3-1.1c-1.6 0-3 1.1-3 1.1s1.3 1.1 3 1.1 3-1.1 3-1.1z" class="st225"/><path id="path4533_1_" d="M-73.5 65.4s1.3 1.1 3 1.1c1.6 0 3-1.1 3-1.1s-1.3-1.1-3-1.1-3 1.1-3 1.1z" class="st225"/><path id="path4575_1_" d="M-73.9 65s1.1-1.3 1.1-3c0-1.6-1.1-3-1.1-3s-1.1 1.3-1.1 3 1.1 3 1.1 3z" class="st225"/><path id="path4577_1_" d="M-73.9 65.8s-1.1 1.3-1.1 3c0 1.6 1.1 3 1.1 3s1.1-1.3 1.1-3-1.1-3-1.1-3z" class="st225"/></g></g></g></switch></svg>