<svg xmlns="http://www.w3.org/2000/svg" id="svg2985" x="0" y="0" enable-background="new -214.5 269.4 255 361.9" version="1.1" viewBox="-214.5 269.4 255 361.9" xml:space="preserve"><style>.st414{enable-background:new}.st415{fill:#005f00}.st416{fill:#cddacd}.st417{fill:#fff}.st418{filter:url(#filter3970-5)}.st419{fill:#bf3718}.st420{fill:#038249}.st421{fill:#2a3b92}</style><switch><g><filter id="filter3970-5" width="1.217" height="1.215" x="-.109" y="-.108" color-interpolation-filters="sRGB"><feGaussianBlur id="feGaussianBlur3972-8" stdDeviation=".128"/></filter><g id="g4630" class="st414" transform="matrix(1.0006 0 0 1 -1.376 203.406)"><g id="g3062"><path id="rect4031" d="M42 368.9l-.2-46.2.1-75.4c0-5.5-4.5-14.9-10-14.7 5.5.3 10-9.1 10-14.5l.1-115.8c.1-22.9-15.9-36.1-40.4-36.1h-154.5c-12.3 0-27.6 14-35.7 21.5-8 7.5-24.3 22.1-24.3 33.6v124.8c0 5.1 3.9 14.2 9 14.5-5 0-9 9-9 14v111.7c0 22.9 5.6 41.3 30.1 41.3l162.2.3c6.4 0 24.3-17.4 32.3-24.8 8.1-7.4 30.3-22.8 30.3-34.2z"/><path id="rect3767" d="M29.3 360.1V255.5c0-13.8-11.1-24.8-24.9-24.9l-152.4-.9c-2 0-32 12.6-32 25.8v104.6c0 13.8 11.1 24.9 24.9 24.9H4.4c13.8 0 24.9-11.1 24.9-24.9z" class="st415"/><path id="rect3861" d="M14.3 375.1v-99.6c0-13.8-11.2-24.9-24.9-24.9H-170c-13.8 0-24.9 11.1-24.9 24.9v99.6c0 13.8 11.2 24.9 24.9 24.9h159.4c13.8 0 24.9-11.2 24.9-24.9z" class="st416"/><path id="rect3765" d="M-.6 385V280.4c0-13.8-11.2-24.9-24.9-24.9H-175c-13.8 0-24.9 11.1-24.9 24.9V385c0 13.8 11.2 24.9 24.9 24.9h149.4c13.8 0 25-11.1 25-24.9z" class="st417"/><linearGradient id="rect3008_2_" x1="-303.791" x2="-303.791" y1="569.587" y2="531.068" gradientTransform="matrix(0 4.9837 4.9812 0 -2847.785 1854.184)" gradientUnits="userSpaceOnUse"><stop offset="0" stop-color="#d0e4cc"/><stop offset="1" stop-color="#fbffec"/></linearGradient><path id="rect3008" fill="url(#rect3008_2_)" d="M-10.6 285.4V395c0 11-8.9 19.9-19.9 19.9h-149.4c-11 0-19.9-8.9-19.9-19.9V285.4c0-11 8.9-19.9 19.9-19.9h149.4c11 0 19.9 8.9 19.9 19.9z"/><path id="path3932" d="M16.8 235.4c-1.5 0-2.8 1.3-2.8 2.8s1.3 2.8 2.8 2.8 2.8-1.3 2.8-2.8-1.2-2.8-2.8-2.8z" class="st417"/><g id="path3936" class="st418"><linearGradient id="SVGID_1_" x1="-330.564" x2="-333.68" y1="590.47" y2="587.001" gradientTransform="matrix(0 -7.1056 6.6848 0 -3926.449 -2112.465)" gradientUnits="userSpaceOnUse"><stop offset="0" stop-color="#fff"/><stop offset="1" stop-color="#fff" stop-opacity="0"/></linearGradient><path fill="url(#SVGID_1_)" d="M18.2 240.4l-24.6 28.8-6-8.2 28.3-25.2z"/></g><path id="path3882" d="M-5.1 252.7c-4.8 0-8.7 3.9-8.7 8.7 0 4.8 3.9 8.7 8.7 8.7 4.8 0 8.7-3.9 8.7-8.7 0-4.8-3.9-8.7-8.7-8.7z" class="st417"/></g></g><g id="g4630_1_" class="st414" transform="matrix(1.0006 0 0 1 -1.376 203.406)"><g id="g3062_1_"><path id="rect3767_1_" d="M29.3 209.1V104.5c0-13.8-11.1-24.8-24.9-24.9l-152.4-.9c-2 0-32 12.6-32 25.8v104.6c0 13.8 11.1 24.9 24.9 24.9H4.4c13.8 0 24.9-11.1 24.9-24.9z" class="st415"/><path id="rect3861_1_" d="M14.3 224.1v-99.6c0-13.8-11.2-24.9-24.9-24.9H-170c-13.8 0-24.9 11.1-24.9 24.9v99.6c0 13.8 11.2 24.9 24.9 24.9h159.4c13.8 0 24.9-11.2 24.9-24.9z" class="st416"/><path id="rect3765_1_" d="M-.6 234V129.4c0-13.8-11.2-24.9-24.9-24.9H-175c-13.8 0-24.9 11.1-24.9 24.9V234c0 13.8 11.2 24.9 24.9 24.9h149.4c13.8 0 25-11.1 25-24.9z" class="st417"/><linearGradient id="rect3008_3_" x1="-334.09" x2="-334.09" y1="569.587" y2="531.068" gradientTransform="matrix(0 4.9837 4.9812 0 -2847.785 1854.184)" gradientUnits="userSpaceOnUse"><stop offset="0" stop-color="#d0e4cc"/><stop offset="1" stop-color="#fbffec"/></linearGradient><path id="rect3008_1_" fill="url(#rect3008_3_)" d="M-10.6 134.4V244c0 11-8.9 19.9-19.9 19.9h-149.4c-11 0-19.9-8.9-19.9-19.9V134.4c0-11 8.9-19.9 19.9-19.9h149.4c11 0 19.9 8.9 19.9 19.9z"/><path id="path3932_1_" d="M16.8 84.4c-1.5 0-2.8 1.3-2.8 2.8 0 1.5 1.3 2.8 2.8 2.8s2.8-1.3 2.8-2.8c0-1.6-1.2-2.8-2.8-2.8z" class="st417"/><g id="path3936_1_" class="st418"><linearGradient id="SVGID_2_" x1="-309.313" x2="-312.429" y1="590.47" y2="587.001" gradientTransform="matrix(0 -7.1056 6.6848 0 -3926.449 -2112.465)" gradientUnits="userSpaceOnUse"><stop offset="0" stop-color="#fff"/><stop offset="1" stop-color="#fff" stop-opacity="0"/></linearGradient><path fill="url(#SVGID_2_)" d="M18.2 89.4l-24.6 28.8-6-8.2 28.3-25.2z"/></g><path id="path3882_1_" d="M-5.1 101.7c-4.8 0-8.7 3.9-8.7 8.7 0 4.8 3.9 8.7 8.7 8.7 4.8 0 8.7-3.9 8.7-8.7 0-4.8-3.9-8.7-8.7-8.7z" class="st417"/></g></g><path d="M-70.8 541.6c0 1.1.4 2 1.2 2.8.8.8 1.7 1.2 2.8 1.2s2-.4 2.8-1.2c.8-.8 1.2-1.7 1.2-2.8s-.4-2.1-1.2-2.9c-.8-.8-1.7-1.2-2.8-1.2s-2 .4-2.8 1.2c-.9.8-1.2 1.8-1.2 2.9zM-69.7 524.8c.8.8 1.7 1.2 2.8 1.2s2-.4 2.8-1.2c.8-.8 1.2-1.7 1.2-2.8s-.4-2.1-1.2-2.9c-.8-.8-1.7-1.2-2.8-1.2s-2 .4-2.8 1.2c-.8.8-1.2 1.8-1.2 2.9s.4 2.1 1.2 2.8zM-87.7 512.4c0 1.1.4 2 1.2 2.8.8.8 1.7 1.2 2.8 1.2s2-.4 2.8-1.2c.8-.8 1.2-1.7 1.2-2.8s-.4-2.1-1.2-2.9c-.8-.8-1.7-1.2-2.8-1.2s-2 .4-2.8 1.2c-.8.8-1.2 1.8-1.2 2.9zM-184.1 528.1l2.3-7.8-2-.8-2.6 8.1-3.1-10.3-2 .8 2.9 10.3-6-4.6-1.4 1.8 9 7.1c1.5-.9 4.2-1.5 8.1-1.9 3.6-.4 9.6-.4 15.7-.2v-3.7c-6.1-.3-13.8.1-20.9 1.2zM-184.1 556.5l2.3-7.8-2-.8-2.6 8.1-3.1-10.3-2 .8 2.9 10.3-6-4.6-1.4 1.8 9 7.1c1.5-.9 4.2-1.5 8.1-1.9 3.7-.4 9.6-.4 15.7-.2v-3.7c-6.2-.2-13.8.2-20.9 1.2zM-46 531.9c0-1.1-.4-2.1-1.2-2.9-.8-.8-1.7-1.2-2.8-1.2s-2 .4-2.8 1.2c-.8.8-1.2 1.8-1.2 2.9s.4 2 1.2 2.8c.8.8 1.7 1.2 2.8 1.2s2-.4 2.8-1.2c.8-.8 1.2-1.7 1.2-2.8zM-118.3 531.9c0-1-.3-1.8-1-2.5s-1.5-1-2.4-1c-1 0-1.8.3-2.5 1s-1 1.5-1 2.5.3 1.8 1 2.4c.7.7 1.5 1 2.5 1s1.8-.3 2.4-1c.7-.6 1-1.4 1-2.4zM-87.7 531.9c0 1.1.4 2 1.2 2.8.8.8 1.7 1.2 2.8 1.2s2-.4 2.8-1.2c.8-.8 1.2-1.7 1.2-2.8s-.4-2.1-1.2-2.9c-.8-.8-1.7-1.2-2.8-1.2s-2 .4-2.8 1.2c-.8.9-1.2 1.8-1.2 2.9zM-96.7 561.1c0-1.1-.4-2.1-1.2-2.9-.8-.8-1.7-1.2-2.8-1.2-1.1 0-2 .4-2.8 1.2-.8.8-1.2 1.8-1.2 2.9s.4 2 1.2 2.8c.8.8 1.7 1.2 2.8 1.2 1.1 0 2-.4 2.8-1.2.9-.7 1.2-1.7 1.2-2.8zM-62.9 561.1c0-1.1-.4-2.1-1.2-2.9-.8-.8-1.7-1.2-2.8-1.2s-2 .4-2.8 1.2c-.8.8-1.2 1.8-1.2 2.9s.4 2 1.2 2.8c.8.8 1.7 1.2 2.8 1.2s2-.4 2.8-1.2c.8-.7 1.2-1.7 1.2-2.8zM-80.9 548.6c-.8-.8-1.7-1.2-2.8-1.2s-2 .4-2.8 1.2c-.8.8-1.2 1.8-1.2 2.9s.4 2 1.2 2.8c.8.8 1.7 1.2 2.8 1.2s2-.4 2.8-1.2c.8-.8 1.2-1.7 1.2-2.8s-.4-2.1-1.2-2.9zM-103.4 524.8c.8.8 1.7 1.2 2.8 1.2 1.1 0 2-.4 2.8-1.2.8-.8 1.2-1.7 1.2-2.8s-.4-2.1-1.2-2.9c-.8-.8-1.7-1.2-2.8-1.2-1.1 0-2 .4-2.8 1.2-.8.8-1.2 1.8-1.2 2.9s.4 2.1 1.2 2.8zM-53.9 551.5c0 1.1.4 2 1.2 2.8.8.8 1.7 1.2 2.8 1.2s2-.4 2.8-1.2c.8-.8 1.2-1.7 1.2-2.8s-.4-2.1-1.2-2.9c-.8-.8-1.7-1.2-2.8-1.2s-2 .4-2.8 1.2c-.8.8-1.2 1.8-1.2 2.9zM-103.4 544.4c.8.8 1.7 1.2 2.8 1.2 1.1 0 2-.4 2.8-1.2.8-.8 1.2-1.7 1.2-2.8s-.4-2.1-1.2-2.9c-.8-.8-1.7-1.2-2.8-1.2-1.1 0-2 .4-2.8 1.2-.8.8-1.2 1.8-1.2 2.9s.4 2 1.2 2.8zM-79.7 571c0-1.1-.4-2.1-1.2-2.9-.8-.8-1.7-1.2-2.8-1.2s-2 .4-2.8 1.2c-.8.8-1.2 1.8-1.2 2.9s.4 2 1.2 2.8c.8.8 1.7 1.2 2.8 1.2s2-.4 2.8-1.2c.8-.7 1.2-1.7 1.2-2.8z" class="st419"/><path d="M-141.5 551.8l-.2.2.1.2z"/><path d="M-121.5 614.8c.7-.2.9-.9.6-2.1-2.6-10.8-5.8-19.5-9.4-25.9 1.2-1.4 2.3-2.8 3.3-4.3 3.7 7.2 6.9 13.9 9.7 20.2 3.1 7.1 5.2 10.3 6.3 9.6 1-.7.6-3.4-1.4-8.2-1.9-4.8-5.3-11.7-9.9-20.9l-2.2-4.5c.1-.1.1-.1.1-.2 8.5 13.6 14.3 22.9 17.5 27.8 3.3 5.1 5.4 7.4 6.4 6.7 1-.7-.8-4.4-5.2-11.3-4.3-6.8-9.8-16-16.4-27.5.4-.9.8-1.8 1.2-2.9 2 2.7 4.3 4.7 6.9 6 3.6 1.8 5.1.5 4.5-3.8-.3-2.2-.3-4 0-5.5 0-.2 0-.3.1-.5-.1-.2-2.3-2.3-2.6-3.7l-2.5-7.7 2.7-8.3c.3-1.2 1-2.5-.4-3 0-.1.7-1.3 1.1-2.5.7-2.5 1-3.8 1-3.8.3-1.3.5-3.4.4-4.9-.1-2.7-.5-5.2-1.2-7.4-.1-.2-.4-1.2-.5-1.4-.2-.7-.5-1.3-.9-2-.2-.4-.9-1.8-1.5-2.5-1.5-2.4-3.3-2.9-5.5-3.3-3.1-7.1-7.2-13.3-12.2-18.5-8.9-9.3-18.6-16.1-29.2-20.3-.8-.2-1.2.4-1.2 1.9.1 4.8.2 13.3.2 25.5-1.8.4-2.7 2.7-2.5 6.7.1 3.3.2 7.5.4 12.6 0 0 .3 14.2.3 18.8 0 2.8.4 18.9.4 21 .1 3.4.9 5.2 2.5 5.3-.1 7.7-.1 12.6-.1 14.8 0 9.5-.1 16.9-.2 22.1 0 1.5.4 2.1 1.1 1.9 9.9-4.2 19-10.8 27.2-19.8 3.6 5.8 6.7 13.5 9.2 23.1.6 2 1.2 2.9 1.9 2.7zm-10-32.1l-.3-.9 3-9 1.4 4.2c-1.2 1.9-2.6 3.8-4.1 5.7zm-18.6-22.4l3 8.8-3 8.9-3-8.9 3-8.8zm-4.3 4.8l-.1-.3c.1-.1.3-.3.3-.4l-.2.7zm27.4-11.6h.3l.9 2.6-3 9-3.1-9 .9-2.5c1.3.1 2.6.1 4-.1zm-7.3 2.6l-3 9-3.1-9 2.1-6c0 .1 0 .1.1.2.7.9 1.6 1.6 2.6 2.2l1.3 3.6zm-8.6 0l-3 9.1-2.4-7.3c1.4-1.4 2.7-2.6 4-3.7.2-.2.4-.4.7-.5l.7 2.4zm-3 16.8l3 9-3 8.9-3-9 3-8.9zm1.3-3.8l3.1-9.1 3 9-3 9.1-3.1-9zm11.6-9.2l3 9-3 9-3.1-9 3.1-9zm7.4 14.5l-1.9-5.5 3-9 2.6 7.8c-1.2 2.3-2.4 4.5-3.7 6.7zm13.6-2.6c.3 3.4-.9 3.8-3.6 1.3-1.1-1-2.1-2.1-3-3.2l-.3-1 3-8.9 3.9 11.8zm-8.3-6.7l-3-9 1.3-4c1-.4 2-.8 2.9-1.3l1.8 5.4-3 8.9zm4.3-12.7l-1-3c.7-.6 1.3-1.2 1.9-1.8.4-.4.8-.9 1.2-1.4l-2.1 6.2zm-5.9-35.1c-1.8.3-3.6.9-5.2 1.9l-.4-1.4 2.1-6.4c1.2 1.8 2.3 3.8 3.5 5.9zm-26.3-2.7c-1-.9-2-1.8-3.1-2.7l1.1-3.2 2 5.9zm-.6-9.7l3-9 3 9.1-3 8.9-3-9zm7.2 3.7l3 9.1-1.6 5.1c-1.2-1.5-2.6-3-4.2-4.6l-.2-.5 3-9.1zm4.3 13.1l2.5 7.6-.2 1.5c-.2-.4-.4-.7-.5-1.1-.7-1.5-1.7-3-3-4.6l1.2-3.4zm1.3-4.1l3-8.8 3 8.9-2 5.7c-.5.7-1 1.4-1.3 2.1l-2.7-7.9zm8.8-8.8l-1.6 5.1-3-8.8.4-1.3c1.5 1.5 2.9 3.2 4.2 5zm-9.2-10.2l2.1 6.3-3 8.9-3-9.1 2.4-7.4c.5.5 1 .9 1.5 1.3zm-3.3-2.9l-1.9 5.4-3-9.1v-.1c1.7 1.2 3.3 2.4 4.9 3.8zm-8.3-6.4l.9 2.7-3 9-3.1-9.1 1.6-4.9c1.2.7 2.4 1.5 3.6 2.3zm-5.5-3.6l-.9 2.5-1.2-3.6c.6.3 1.3.7 2.1 1.1zm-5.8 13.8c.1-6.4 0-11.3-.1-14.5 0-1.2.3-1.8.8-1.8l3 8.8-3.1 9-.6-1.5zm1.8 5.2l3.1-9 3 9.1-1.8 5.4c-.4-.4-.8-.7-1.2-1.1-.7-.6-1.4-1.1-2.1-1.6l-1-2.8zm-3.5 57.1c-.2-7.3-.3-13.2-.3-17.9 0-6.2-.1-12.5-.3-18.9-.2-5.1-.4-9.3-.4-12.6-.1-4.5 1.9-5.1 6.3-1.6 9.4 8 15.7 15 18.8 21 3.1 6 5 8.9 5.7 8.7.7-.2.6-.9-.1-2s-1.2-2.4-1.3-3.7c-.5-4.3.7-8 3.6-11.1 2.4-2.6 5.3-4 8.7-4.2 2.4-.1 4.5 1.4 6.2 4.6 1.3 2.5 2.1 5.7 2.3 9.8.2 4.5-1.4 8.6-4.7 12.3-2.8 2.9-6.3 4.6-10.5 5.2-4.4.6-7.4-.2-9.1-2.3-2.7-3.4-5.1-7.2-7.3-11.3-2.1-4.1-3.4-6-3.9-5.8s-.2 1.7.8 4.3c1 2.7 3.2 6.5 6.8 11.5-.3.1-2.2 1.7-5.7 4.7s-7.5 7.2-11.9 12.5c-2.5 2.9-3.6 1.9-3.7-3.2zm3 7c.5-.4 1.1-1.1 1.6-1.9l.7 2.1-2.3 7v-7.2zm.6 13.3l3-9.1 3 8.9-3 9.1-3-8.9zm-1 20c.1-4 .2-9 .2-15.1l2.5 7.5-2.7 8.1v-.5zm2.3 1.2l1.6-4.9 1.2 3.5c-.9.5-1.8 1-2.8 1.4zm4.9-2.6l-2-5.9 3.1-9 3 9-1.4 4.3c-1 .5-1.9 1.1-2.7 1.6zm7-5l-.3-1.1 3-9 2 6c-1.6 1.5-3.2 2.9-4.7 4.1zm6.5-5.9l-2.6-7.9 3.1-9.2 3 9-2.3 7-1.2 1.1z" class="st420"/><path d="M-116.4 506.5c-.2-1-.7-1.5-1.5-1.3-.9.1-1.4 4.1-1.5 11.9v.2c.8.1 1.7.4 2.4.8.8.3 1.5.7 2.1 1.4 4-6.8 5.5-10.6 4.6-11.4-.7-.5-1.3-.4-1.9.4-.6.8-2.2 3.9-4.8 9.5l-.2-.1c.7-6.7 1-10.4.8-11.4z" class="st419"/><path d="M-78.1 590.6c3.3-3.3 4.9-7.3 4.9-12v-.7c.7 1.2 1.6 2.4 2.7 3.5 3.3 3.3 7.3 4.9 11.9 4.9s8.6-1.6 11.9-4.9c3.2-3.2 4.9-7.1 4.9-11.6 2.2 1.1 4.6 1.6 7.3 1.6 4.6 0 8.6-1.6 11.9-4.9s4.9-7.3 4.9-12c0-4.6-1.6-8.6-4.9-11.9-1-1-2.1-1.9-3.3-2.5 1.2-.7 2.3-1.6 3.3-2.6 3.3-3.3 4.9-7.3 4.9-12 0-4.6-1.6-8.6-4.9-11.9-3.3-3.3-7.3-4.9-11.9-4.9-2.6 0-5.1.5-7.3 1.6-.3-4.2-1.9-7.8-4.9-10.8-3.3-3.3-7.3-4.9-11.9-4.9s-8.6 1.6-11.9 4.9c-1.3 1.3-2.4 2.7-3.2 4.3-.7-3-2.2-5.7-4.5-8-3.3-3.3-7.3-4.9-11.9-4.9-2.6 0-4.9.5-7 1.5 4.7-8.4 7-12.9 6.8-13.5-.2-.8-.7-1-1.4-.5s-4.4 6.2-10.9 17.1c.1-2.5.4-6.7 1.1-12.7.7-6 .4-8.9-.8-8.7-.7-.1-1.2 1.1-1.6 3.8-1.2 7.3-1.9 13.5-2.2 18.6-.3 5.1-.7 9-1.2 11.6-.4 1.8-3 6.2-6.9 12.4.3.3.4.6.6 1l2.4-1.8c-.2 1.4-.5 3.3-.7 4.9.2.5.3.4.4 1 4 3.6 4.2 7.9 1.4 11.4-.1.6-.2 1.1-.4 1.5-.1.4-.2.8-.4 1.1-.1.6-.3 1.1-.6 1.6-.3 1.1-1.1 1.9-1.9 2.4.5.6.9 1.3 1.1 2.2.2.5.3 1.1.3 1.8v.2c.5 5.1 1.2 9.2-.3 16.2.2.4.4.8.6 1.1.2.4.8 1.1.9 1.3.4.5.8.8 1.2 1.2.9 1.1 1.9 2 2.8 2.7v8.2c0 4.7 1.6 8.7 4.9 12 3.3 3.3 7.3 4.9 11.9 4.9 4.6.1 8.6-1.5 11.9-4.8zm-5.5-11.6c-2.2 0-4.1-.8-5.7-2.3-1.6-1.5-2.4-3.4-2.4-5.6s.8-4.1 2.4-5.7c1.6-1.6 3.5-2.4 5.7-2.4s4.1.8 5.7 2.4c1.6 1.6 2.4 3.5 2.4 5.7s-.8 4.1-2.4 5.6c-1.6 1.6-3.5 2.3-5.7 2.3zm11.1-12.2c-1.6-1.5-2.4-3.4-2.4-5.6s.8-4.1 2.4-5.7c1.6-1.6 3.5-2.4 5.7-2.4s4.1.8 5.7 2.4c1.6 1.6 2.4 3.5 2.4 5.7s-.8 4.1-2.4 5.6c-1.6 1.5-3.5 2.3-5.7 2.3s-4.1-.7-5.7-2.3zm5 4.4c-.3 2.1-.6 3.5-.9 4.1-.4.7-1 .7-2-.1-.9-.7-2.1-3.1-3.6-7 1.9 1.9 4 2.9 6.5 3zm3.6 7.1c-.4-.4-.7-2.7-1.1-7.1 1.2-.2 2.2-.6 3.2-1.2-.4 4.9-.8 7.6-1 8.1-.3.4-.7.5-1.1.2zm7.3 1.1c-.5.5-1.2-.9-1.8-4l-1.5-6.9c.1-.1.2-.1.3-.2 1.1-1.2 1.9-2.5 2.4-4l1.1 10.4c.2 2.7 0 4.2-.5 4.7zm6.6-8.5c.5 2.6.4 4.3-.2 5.1-.7.8-1.4-.2-2.3-3l-4.6-14.5c.1 0 .1 0 .2.1 1.4 1.5 3 2.4 4.9 2.7l2 9.6zm6.9-5.1c-.4.3-1 .1-1.8-.5-.7-.6-1.9-1.9-3.4-3.8 1-.1 2-.4 2.9-.9 1.8 3.1 2.6 4.9 2.3 5.2zm5.6-2.2c-.2.4-1 .4-2.2-.1-1.2-.5-2.8-1.7-4.8-3.5.7-.4 1.2-.9 1.8-1.4.3-.3.5-.6.8-.9 3.1 3.5 4.6 5.5 4.4 5.9zm4.8-3.4c-.7.6-3.7-.4-8.9-3.1.8-1 1.3-2.2 1.5-3.4 5.7 3.6 8.2 5.8 7.4 6.5zm2.7-4.1c-.7.2-4.1-.7-10.1-2.6.1-.6.2-1.2.2-1.9 0-.6 0-1.1-.1-1.6 5.6 2.4 8.8 4 9.7 4.6.8.7 1 1.2.3 1.5zm4-6.3c-.1 1.3-4.8 1.3-14-.1-.2-1.3-.7-2.5-1.5-3.6 10.4 1.1 15.5 2.3 15.5 3.7zm-15.9 1.8c0 2.2-.8 4.1-2.4 5.6-1.6 1.5-3.5 2.3-5.7 2.3s-4.1-.8-5.7-2.3c-1.6-1.5-2.4-3.4-2.4-5.6s.8-4.1 2.4-5.7c1.6-1.6 3.5-2.4 5.7-2.4s4.1.8 5.7 2.4c1.6 1.6 2.4 3.5 2.4 5.7zm11.7-8.6c-.1.9-3.9 1.8-11.4 2.9-.3-.4-.7-.9-1.1-1.3-.7-.7-1.5-1.3-2.3-1.8 9.8-.8 14.8-.7 14.8.2zm-28.6-1.3c0 2.2-.8 4.1-2.4 5.6-1.6 1.5-3.5 2.3-5.7 2.3s-4.1-.8-5.7-2.3c-1.6-1.5-2.4-3.4-2.4-5.6s.8-4.1 2.4-5.7c1.6-1.6 3.5-2.4 5.7-2.4s4.1.8 5.7 2.4c1.6 1.6 2.4 3.5 2.4 5.7zm3.3-4.1c-1.6-1.5-2.4-3.4-2.4-5.6s.8-4.1 2.4-5.7c1.6-1.6 3.5-2.4 5.7-2.4s4.1.8 5.7 2.4c1.6 1.6 2.4 3.5 2.4 5.7s-.8 4.1-2.4 5.6c-1.6 1.5-3.5 2.3-5.7 2.3s-4.2-.8-5.7-2.3zm-13-25.4c-.5-2.9-.7-4.9-.4-6.2.2-1.3.7-1.6 1.3-.9.7.7 1.3 3.1 2 7-.4-.1-.8-.1-1.2-.1-.6.1-1.1.2-1.7.2zm-2.9 1c-.8.4-1.5 1-2.2 1.5.4-2 .5-3.9.3-5.8.5 1.3 1.1 2.8 1.9 4.3zm-6.6-6.4c1.6 1.6 2.4 3.5 2.4 5.7s-.8 4.1-2.4 5.6c-1.6 1.5-3.5 2.3-5.7 2.3s-4.1-.8-5.7-2.3c-1.6-1.5-2.4-3.4-2.4-5.6 0-2.2.8-4.1 2.4-5.7 1.6-1.6 3.5-2.4 5.7-2.4s4.2.8 5.7 2.4zm5.5 9.7c1.6-1.6 3.5-2.4 5.7-2.4s4.1.8 5.7 2.4c1.6 1.6 2.4 3.5 2.4 5.7s-.8 4.1-2.4 5.6c-1.6 1.5-3.5 2.3-5.7 2.3s-4.1-.8-5.7-2.3c-1.6-1.5-2.4-3.4-2.4-5.6s.9-4.2 2.4-5.7zm42.3 20.6c1.3.5 1.8 1.1 1.3 1.8-.4.6-5 .6-13.7 0 1-1 1.8-2.2 2.2-3.4 5.5.5 8.9 1 10.2 1.6zm3.7-5.6c.4 1-4.2 2.3-13.8 3.7.3-1 .4-2.1.4-3.2v-.1c8.4-1.4 12.9-1.5 13.4-.4zm-3-6c.5.6-3 2.6-10.4 5.9-.1-1-.3-2-.5-3 6.7-2.6 10.4-3.5 10.9-2.9zm-3.1-3.9c.6.7-2.1 2.9-7.9 6.8-.2-.7-.5-1.4-1-2 5.3-3.9 8.3-5.5 8.9-4.8zm-4.7-2c-.8 1.3-2.5 3.3-4.9 5.9l-.5-.5c-.7-.7-1.5-1.3-2.2-1.8 5.2-4.5 8-6.6 8.5-6.3.3.3 0 1.1-.9 2.7zm-4.3-4.5c.4.3-.8 3-3.6 8-.9-.5-1.9-.8-3.1-1 2-2.4 3.4-4.2 4.4-5.5 1-1.4 1.7-1.9 2.3-1.5zm-13.2-12.2c.2.7-.2 7.7-1.3 20.9 2-6.3 3.6-11 4.8-14 1.1-3 1.9-4.6 2.3-4.6.4 0 .7.2.8.5.1.3-.6 5.7-2.3 16.3-.8.1-1.6.2-2.3.4l.3-2.1c.8-4 .6-4.3-.5-1.1l-1.3 3.7c-1 .5-1.8 1.2-2.5 2-.1.1-.3.3-.4.3.4-1 .5-2 .5-3.2 0-2.5-.7-4.6-2.2-6.4.7-4 1.1-7 1.4-9 .4-2.4.9-3.8 1.5-4.3.5-.3.9-.1 1.2.6zm-7-.4c.8-.1 1.2 1 1.2 3.2 0 1.9-.1 4.7-.2 8.5-.9-.7-1.8-1.2-2.9-1.5 0-3.3.1-5.8.3-7.4.3-1.8.8-2.7 1.6-2.8zm-30.3-6.8c.8 1.2 1.9 3.8 3.4 8-.7.4-1.4 1-2 1.6-.3.2-.5.5-.8.8-1.2-4.8-1.8-7.9-1.9-9.6 0-1.7.4-2 1.3-.8zm-4.4 3.7c.6.8 2 3.5 4.2 8-.9 1.5-1.3 3.1-1.3 5.1v.5c-2.6-7.8-3.8-12.2-3.8-13.2-.1-1.2.2-1.3.9-.4zm-5.6 3.6c.1-2.1.5-2.4 1.4-1.1.7 1.2 2.4 5.1 5.1 11.5-1.5-.9-3.1-1.3-4.9-1.3h-.8c-.7-4.3-.9-7.3-.8-9.1zm-2.2 4l1.4 5.4c-1.2.3-2.4.8-3.4 1.5 1.2-2 1.9-4.3 2-6.9zm-1.9 20.7c-1.6-1.5-2.4-3.4-2.4-5.6s.8-4.1 2.4-5.7c1.6-1.6 3.5-2.4 5.7-2.4s4.1.8 5.7 2.4c1.6 1.6 2.4 3.5 2.4 5.7s-.8 4.1-2.4 5.6c-1.6 1.5-3.5 2.3-5.7 2.3s-4.1-.7-5.7-2.3zm14.6 4.3c0-2.2.8-4.1 2.4-5.7 1.6-1.6 3.5-2.4 5.7-2.4s4.1.8 5.7 2.4c1.6 1.6 2.4 3.5 2.4 5.7s-.8 4.1-2.4 5.6c-1.6 1.5-3.5 2.3-5.7 2.3s-4.1-.8-5.7-2.3c-1.6-1.5-2.4-3.4-2.4-5.6zm-14.6 15.3c-1.6-1.5-2.4-3.4-2.4-5.6s.8-4.1 2.4-5.7c1.6-1.6 3.5-2.4 5.7-2.4s4.1.8 5.7 2.4c1.6 1.6 2.4 3.5 2.4 5.7s-.8 4.1-2.4 5.6c-1.6 1.5-3.5 2.3-5.7 2.3s-4.1-.8-5.7-2.3zm16.9-1.4c1.6-1.6 3.5-2.4 5.7-2.4s4.1.8 5.7 2.4c1.6 1.6 2.4 3.5 2.4 5.7s-.8 4.1-2.4 5.6c-1.6 1.5-3.5 2.3-5.7 2.3s-4.1-.8-5.7-2.3c-1.6-1.5-2.4-3.4-2.4-5.6s.9-4.1 2.4-5.7zm-16.9 20.9c-1.6-1.5-2.4-3.4-2.4-5.6s.8-4.1 2.4-5.7c1.6-1.6 3.5-2.4 5.7-2.4s4.1.8 5.7 2.4c1.6 1.6 2.4 3.5 2.4 5.7s-.8 4.1-2.4 5.6c-1.6 1.5-3.5 2.3-5.7 2.3s-4.1-.7-5.7-2.3zm4.3 4.3c.4.1.9.1 1.3.1 1 0 2-.1 3-.4-2.5 7.3-4.2 10.8-5.1 10.5-.9-.2-.6-3.6.8-10.2zm5.8-.9c1-.4 1.9-1.1 2.7-2 .1-.1.1-.2.2-.3-.3 1-.4 2-.4 3.2 0 .8.1 1.6.3 2.4-2.5 6.8-4.2 10.2-5.1 10.2-1 0-.2-4.5 2.3-13.5z" class="st421"/><g><path d="M-70.8 390.6c0 1.1.4 2 1.2 2.8.8.8 1.7 1.2 2.8 1.2s2-.4 2.8-1.2c.8-.8 1.2-1.7 1.2-2.8s-.4-2.1-1.2-2.9c-.8-.8-1.7-1.2-2.8-1.2s-2 .4-2.8 1.2c-.9.8-1.2 1.8-1.2 2.9zM-69.7 373.8c.8.8 1.7 1.2 2.8 1.2s2-.4 2.8-1.2c.8-.8 1.2-1.7 1.2-2.8s-.4-2.1-1.2-2.9c-.8-.8-1.7-1.2-2.8-1.2s-2 .4-2.8 1.2c-.8.8-1.2 1.8-1.2 2.9s.4 2.1 1.2 2.8zM-87.7 361.4c0 1.1.4 2 1.2 2.8.8.8 1.7 1.2 2.8 1.2s2-.4 2.8-1.2c.8-.8 1.2-1.7 1.2-2.8s-.4-2.1-1.2-2.9c-.8-.8-1.7-1.2-2.8-1.2s-2 .4-2.8 1.2c-.8.8-1.2 1.8-1.2 2.9zM-184.1 377.1l2.3-7.8-2-.8-2.6 8.1-3.1-10.3-2 .8 2.9 10.3-6-4.6-1.4 1.8 9 7.1c1.5-.9 4.2-1.5 8.1-1.9 3.6-.4 9.6-.4 15.7-.2v-3.7c-6.1-.3-13.8.1-20.9 1.2zM-184.1 405.5l2.3-7.8-2-.8-2.6 8.1-3.1-10.3-2 .8 2.9 10.3-6-4.6-1.4 1.8 9 7.1c1.5-.9 4.2-1.5 8.1-1.9 3.7-.4 9.6-.4 15.7-.2v-3.7c-6.2-.2-13.8.2-20.9 1.2zM-46 380.9c0-1.1-.4-2.1-1.2-2.9-.8-.8-1.7-1.2-2.8-1.2s-2 .4-2.8 1.2c-.8.8-1.2 1.8-1.2 2.9s.4 2 1.2 2.8c.8.8 1.7 1.2 2.8 1.2s2-.4 2.8-1.2c.8-.8 1.2-1.7 1.2-2.8zM-118.3 380.9c0-1-.3-1.8-1-2.5s-1.5-1-2.4-1c-1 0-1.8.3-2.5 1s-1 1.5-1 2.5.3 1.8 1 2.4c.7.7 1.5 1 2.5 1s1.8-.3 2.4-1c.7-.6 1-1.4 1-2.4zM-87.7 380.9c0 1.1.4 2 1.2 2.8.8.8 1.7 1.2 2.8 1.2s2-.4 2.8-1.2c.8-.8 1.2-1.7 1.2-2.8s-.4-2.1-1.2-2.9c-.8-.8-1.7-1.2-2.8-1.2s-2 .4-2.8 1.2c-.8.9-1.2 1.8-1.2 2.9zM-96.7 410.1c0-1.1-.4-2.1-1.2-2.9-.8-.8-1.7-1.2-2.8-1.2-1.1 0-2 .4-2.8 1.2-.8.8-1.2 1.8-1.2 2.9s.4 2 1.2 2.8c.8.8 1.7 1.2 2.8 1.2 1.1 0 2-.4 2.8-1.2.9-.7 1.2-1.7 1.2-2.8zM-62.9 410.1c0-1.1-.4-2.1-1.2-2.9-.8-.8-1.7-1.2-2.8-1.2s-2 .4-2.8 1.2c-.8.8-1.2 1.8-1.2 2.9s.4 2 1.2 2.8c.8.8 1.7 1.2 2.8 1.2s2-.4 2.8-1.2c.8-.7 1.2-1.7 1.2-2.8zM-80.9 397.6c-.8-.8-1.7-1.2-2.8-1.2s-2 .4-2.8 1.2c-.8.8-1.2 1.8-1.2 2.9s.4 2 1.2 2.8c.8.8 1.7 1.2 2.8 1.2s2-.4 2.8-1.2c.8-.8 1.2-1.7 1.2-2.8s-.4-2.1-1.2-2.9zM-103.4 373.8c.8.8 1.7 1.2 2.8 1.2 1.1 0 2-.4 2.8-1.2.8-.8 1.2-1.7 1.2-2.8s-.4-2.1-1.2-2.9c-.8-.8-1.7-1.2-2.8-1.2-1.1 0-2 .4-2.8 1.2-.8.8-1.2 1.8-1.2 2.9s.4 2.1 1.2 2.8zM-53.9 400.5c0 1.1.4 2 1.2 2.8.8.8 1.7 1.2 2.8 1.2s2-.4 2.8-1.2c.8-.8 1.2-1.7 1.2-2.8s-.4-2.1-1.2-2.9c-.8-.8-1.7-1.2-2.8-1.2s-2 .4-2.8 1.2c-.8.8-1.2 1.8-1.2 2.9zM-103.4 393.4c.8.8 1.7 1.2 2.8 1.2 1.1 0 2-.4 2.8-1.2.8-.8 1.2-1.7 1.2-2.8s-.4-2.1-1.2-2.9c-.8-.8-1.7-1.2-2.8-1.2-1.1 0-2 .4-2.8 1.2-.8.8-1.2 1.8-1.2 2.9s.4 2 1.2 2.8zM-79.7 420c0-1.1-.4-2.1-1.2-2.9-.8-.8-1.7-1.2-2.8-1.2s-2 .4-2.8 1.2c-.8.8-1.2 1.8-1.2 2.9s.4 2 1.2 2.8c.8.8 1.7 1.2 2.8 1.2s2-.4 2.8-1.2c.8-.7 1.2-1.7 1.2-2.8z" class="st419"/><path d="M-141.5 400.8l-.2.2.1.2z"/><path d="M-121.5 463.8c.7-.2.9-.9.6-2.1-2.6-10.8-5.8-19.5-9.4-25.9 1.2-1.4 2.3-2.8 3.3-4.3 3.7 7.2 6.9 13.9 9.7 20.2 3.1 7.1 5.2 10.3 6.3 9.6 1-.7.6-3.4-1.4-8.2-1.9-4.8-5.3-11.7-9.9-20.9l-2.2-4.5c.1-.1.1-.1.1-.2 8.5 13.6 14.3 22.9 17.5 27.8 3.3 5.1 5.4 7.4 6.4 6.7 1-.7-.8-4.4-5.2-11.3-4.3-6.8-9.8-16-16.4-27.5.4-.9.8-1.8 1.2-2.9 2 2.7 4.3 4.7 6.9 6 3.6 1.8 5.1.5 4.5-3.8-.3-2.2-.3-4 0-5.5 0-.2 0-.3.1-.5-.1-.2-2.3-2.3-2.6-3.7l-2.5-7.7 2.7-8.3c.3-1.2 1-2.5-.4-3 0-.1.7-1.3 1.1-2.5.7-2.5 1-3.8 1-3.8.3-1.3.5-3.4.4-4.9-.1-2.7-.5-5.2-1.2-7.4-.1-.2-.4-1.2-.5-1.4-.2-.7-.5-1.3-.9-2-.2-.4-.9-1.8-1.5-2.5-1.5-2.4-3.3-2.9-5.5-3.3-3.1-7.1-7.2-13.3-12.2-18.5-8.9-9.3-18.6-16.1-29.2-20.3-.8-.2-1.2.4-1.2 1.9.1 4.8.2 13.3.2 25.5-1.8.4-2.7 2.7-2.5 6.7.1 3.3.2 7.5.4 12.6 0 0 .3 14.2.3 18.8 0 2.8.4 18.9.4 21 .1 3.4.9 5.2 2.5 5.3-.1 7.7-.1 12.6-.1 14.8 0 9.5-.1 16.9-.2 22.1 0 1.5.4 2.1 1.1 1.9 9.9-4.2 19-10.8 27.2-19.8 3.6 5.8 6.7 13.5 9.2 23.1.6 2 1.2 2.9 1.9 2.7zm-10-32.1l-.3-.9 3-9 1.4 4.2c-1.2 1.9-2.6 3.8-4.1 5.7zm-18.6-22.4l3 8.8-3 8.9-3-8.9 3-8.8zm-4.3 4.8l-.1-.3c.1-.1.3-.3.3-.4l-.2.7zm27.4-11.6h.3l.9 2.6-3 9-3.1-9 .9-2.5c1.3.1 2.6.1 4-.1zm-7.3 2.6l-3 9-3.1-9 2.1-6c0 .1 0 .1.1.2.7.9 1.6 1.6 2.6 2.2l1.3 3.6zm-8.6 0l-3 9.1-2.4-7.3c1.4-1.4 2.7-2.6 4-3.7.2-.2.4-.4.7-.5l.7 2.4zm-3 16.8l3 9-3 8.9-3-9 3-8.9zm1.3-3.8l3.1-9.1 3 9-3 9.1-3.1-9zm11.6-9.2l3 9-3 9-3.1-9 3.1-9zm7.4 14.5l-1.9-5.5 3-9 2.6 7.8c-1.2 2.3-2.4 4.5-3.7 6.7zm13.6-2.6c.3 3.4-.9 3.8-3.6 1.3-1.1-1-2.1-2.1-3-3.2l-.3-1 3-8.9 3.9 11.8zm-8.3-6.7l-3-9 1.3-4c1-.4 2-.8 2.9-1.3l1.8 5.4-3 8.9zm4.3-12.7l-1-3c.7-.6 1.3-1.2 1.9-1.8.4-.4.8-.9 1.2-1.4l-2.1 6.2zm-5.9-35.1c-1.8.3-3.6.9-5.2 1.9l-.4-1.4 2.1-6.4c1.2 1.8 2.3 3.8 3.5 5.9zm-26.3-2.7c-1-.9-2-1.8-3.1-2.7l1.1-3.2 2 5.9zm-.6-9.7l3-9 3 9.1-3 8.9-3-9zm7.2 3.7l3 9.1-1.6 5.1c-1.2-1.5-2.6-3-4.2-4.6l-.2-.5 3-9.1zm4.3 13.1l2.5 7.6-.2 1.5c-.2-.4-.4-.7-.5-1.1-.7-1.5-1.7-3-3-4.6l1.2-3.4zm1.3-4.1l3-8.8 3 8.9-2 5.7c-.5.7-1 1.4-1.3 2.1l-2.7-7.9zm8.8-8.8l-1.6 5.1-3-8.8.4-1.3c1.5 1.5 2.9 3.2 4.2 5zm-9.2-10.2l2.1 6.3-3 8.9-3-9.1 2.4-7.4c.5.5 1 .9 1.5 1.3zm-3.3-2.9l-1.9 5.4-3-9.1v-.1c1.7 1.2 3.3 2.4 4.9 3.8zm-8.3-6.4l.9 2.7-3 9-3.1-9.1 1.6-4.9c1.2.7 2.4 1.5 3.6 2.3zm-5.5-3.6l-.9 2.5-1.2-3.6c.6.3 1.3.7 2.1 1.1zm-5.8 13.8c.1-6.4 0-11.3-.1-14.5 0-1.2.3-1.8.8-1.8l3 8.8-3.1 9-.6-1.5zm1.8 5.2l3.1-9 3 9.1-1.8 5.4c-.4-.4-.8-.7-1.2-1.1-.7-.6-1.4-1.1-2.1-1.6l-1-2.8zm-3.5 57.1c-.2-7.3-.3-13.2-.3-17.9 0-6.2-.1-12.5-.3-18.9-.2-5.1-.4-9.3-.4-12.6-.1-4.5 1.9-5.1 6.3-1.6 9.4 8 15.7 15 18.8 21 3.1 6 5 8.9 5.7 8.7.7-.2.6-.9-.1-2s-1.2-2.4-1.3-3.7c-.5-4.3.7-8 3.6-11.1 2.4-2.6 5.3-4 8.7-4.2 2.4-.1 4.5 1.4 6.2 4.6 1.3 2.5 2.1 5.7 2.3 9.8.2 4.5-1.4 8.6-4.7 12.3-2.8 2.9-6.3 4.6-10.5 5.2-4.4.6-7.4-.2-9.1-2.3-2.7-3.4-5.1-7.2-7.3-11.3-2.1-4.1-3.4-6-3.9-5.8s-.2 1.7.8 4.3c1 2.7 3.2 6.5 6.8 11.5-.3.1-2.2 1.7-5.7 4.7s-7.5 7.2-11.9 12.5c-2.5 2.9-3.6 1.9-3.7-3.2zm3 7c.5-.4 1.1-1.1 1.6-1.9l.7 2.1-2.3 7v-7.2zm.6 13.3l3-9.1 3 8.9-3 9.1-3-8.9zm-1 20c.1-4 .2-9 .2-15.1l2.5 7.5-2.7 8.1v-.5zm2.3 1.2l1.6-4.9 1.2 3.5c-.9.5-1.8 1-2.8 1.4zm4.9-2.6l-2-5.9 3.1-9 3 9-1.4 4.3c-1 .5-1.9 1.1-2.7 1.6zm7-5l-.3-1.1 3-9 2 6c-1.6 1.5-3.2 2.9-4.7 4.1zm6.5-5.9l-2.6-7.9 3.1-9.2 3 9-2.3 7-1.2 1.1z" class="st420"/></g><path d="M-116.4 355.5c-.2-1-.7-1.5-1.5-1.3-.9.1-1.4 4.1-1.5 11.9v.2c.8.1 1.7.4 2.4.8.8.3 1.5.7 2.1 1.4 4-6.8 5.5-10.6 4.6-11.4-.7-.5-1.3-.4-1.9.4-.6.8-2.2 3.9-4.8 9.5l-.2-.1c.7-6.7 1-10.4.8-11.4z" class="st419"/><path d="M-78.1 439.6c3.3-3.3 4.9-7.3 4.9-12v-.7c.7 1.2 1.6 2.4 2.7 3.5 3.3 3.3 7.3 4.9 11.9 4.9s8.6-1.6 11.9-4.9c3.2-3.2 4.9-7.1 4.9-11.6 2.2 1.1 4.6 1.6 7.3 1.6 4.6 0 8.6-1.6 11.9-4.9s4.9-7.3 4.9-12c0-4.6-1.6-8.6-4.9-11.9-1-1-2.1-1.9-3.3-2.5 1.2-.7 2.3-1.6 3.3-2.6 3.3-3.3 4.9-7.3 4.9-12 0-4.6-1.6-8.6-4.9-11.9s-7.3-4.9-11.9-4.9c-2.6 0-5.1.5-7.3 1.6-.3-4.2-1.9-7.8-4.9-10.8-3.3-3.3-7.3-4.9-11.9-4.9s-8.6 1.6-11.9 4.9c-1.3 1.3-2.4 2.7-3.2 4.3-.7-3-2.2-5.7-4.5-8-3.3-3.3-7.3-4.9-11.9-4.9-2.6 0-4.9.5-7 1.5 4.7-8.4 7-12.9 6.8-13.5-.2-.8-.7-1-1.4-.5s-4.4 6.2-10.9 17.1c.1-2.5.4-6.7 1.1-12.7.7-6 .4-8.9-.8-8.7-.7-.1-1.2 1.1-1.6 3.8-1.2 7.3-1.9 13.5-2.2 18.6-.3 5.1-.7 9-1.2 11.6-.4 1.8-3 6.2-6.9 12.4.3.3.4.6.6 1l2.4-1.8c-.2 1.4-.5 3.3-.7 4.9.2.5.3.4.4 1 4 3.6 4.2 7.9 1.4 11.4-.1.6-.2 1.1-.4 1.5-.1.4-.2.8-.4 1.1-.1.6-.3 1.1-.6 1.6-.3 1.1-1.1 1.9-1.9 2.4.5.6.9 1.3 1.1 2.2.2.5.3 1.1.3 1.8v.2c.5 5.1 1.2 9.2-.3 16.2.2.4.4.8.6 1.1.2.4.8 1.1.9 1.3.4.5.8.8 1.2 1.2.9 1.1 1.9 2 2.8 2.7v8.2c0 4.7 1.6 8.7 4.9 12 3.3 3.3 7.3 4.9 11.9 4.9 4.6.1 8.6-1.5 11.9-4.8zm-5.5-11.6c-2.2 0-4.1-.8-5.7-2.3-1.6-1.5-2.4-3.4-2.4-5.6s.8-4.1 2.4-5.7c1.6-1.6 3.5-2.4 5.7-2.4s4.1.8 5.7 2.4c1.6 1.6 2.4 3.5 2.4 5.7s-.8 4.1-2.4 5.6c-1.6 1.6-3.5 2.3-5.7 2.3zm11.1-12.2c-1.6-1.5-2.4-3.4-2.4-5.6s.8-4.1 2.4-5.7c1.6-1.6 3.5-2.4 5.7-2.4s4.1.8 5.7 2.4c1.6 1.6 2.4 3.5 2.4 5.7s-.8 4.1-2.4 5.6c-1.6 1.5-3.5 2.3-5.7 2.3s-4.1-.7-5.7-2.3zm5 4.4c-.3 2.1-.6 3.5-.9 4.1-.4.7-1 .7-2-.1-.9-.7-2.1-3.1-3.6-7 1.9 1.9 4 2.9 6.5 3zm3.6 7.1c-.4-.4-.7-2.7-1.1-7.1 1.2-.2 2.2-.6 3.2-1.2-.4 4.9-.8 7.6-1 8.1-.3.4-.7.5-1.1.2zm7.3 1.1c-.5.5-1.2-.9-1.8-4l-1.5-6.9c.1-.1.2-.1.3-.2 1.1-1.2 1.9-2.5 2.4-4l1.1 10.4c.2 2.7 0 4.2-.5 4.7zm6.6-8.5c.5 2.6.4 4.3-.2 5.1-.7.8-1.4-.2-2.3-3l-4.6-14.5c.1 0 .1 0 .2.1 1.4 1.5 3 2.4 4.9 2.7l2 9.6zm6.9-5.1c-.4.3-1 .1-1.8-.5-.7-.6-1.9-1.9-3.4-3.8 1-.1 2-.4 2.9-.9 1.8 3.1 2.6 4.9 2.3 5.2zm5.6-2.2c-.2.4-1 .4-2.2-.1-1.2-.5-2.8-1.7-4.8-3.5.7-.4 1.2-.9 1.8-1.4.3-.3.5-.6.8-.9 3.1 3.5 4.6 5.5 4.4 5.9zm4.8-3.4c-.7.6-3.7-.4-8.9-3.1.8-1 1.3-2.2 1.5-3.4 5.7 3.6 8.2 5.8 7.4 6.5zm2.7-4.1c-.7.2-4.1-.7-10.1-2.6.1-.6.2-1.2.2-1.9 0-.6 0-1.1-.1-1.6 5.6 2.4 8.8 4 9.7 4.6.8.7 1 1.2.3 1.5zm4-6.3c-.1 1.3-4.8 1.3-14-.1-.2-1.3-.7-2.5-1.5-3.6 10.4 1.1 15.5 2.3 15.5 3.7zm-15.9 1.8c0 2.2-.8 4.1-2.4 5.6-1.6 1.5-3.5 2.3-5.7 2.3s-4.1-.8-5.7-2.3c-1.6-1.5-2.4-3.4-2.4-5.6s.8-4.1 2.4-5.7c1.6-1.6 3.5-2.4 5.7-2.4s4.1.8 5.7 2.4c1.6 1.6 2.4 3.5 2.4 5.7zm11.7-8.6c-.1.9-3.9 1.8-11.4 2.9-.3-.4-.7-.9-1.1-1.3-.7-.7-1.5-1.3-2.3-1.8 9.8-.8 14.8-.7 14.8.2zm-28.6-1.3c0 2.2-.8 4.1-2.4 5.6-1.6 1.5-3.5 2.3-5.7 2.3s-4.1-.8-5.7-2.3c-1.6-1.5-2.4-3.4-2.4-5.6s.8-4.1 2.4-5.7c1.6-1.6 3.5-2.4 5.7-2.4s4.1.8 5.7 2.4c1.6 1.6 2.4 3.5 2.4 5.7zm3.3-4.1c-1.6-1.5-2.4-3.4-2.4-5.6s.8-4.1 2.4-5.7c1.6-1.6 3.5-2.4 5.7-2.4s4.1.8 5.7 2.4c1.6 1.6 2.4 3.5 2.4 5.7s-.8 4.1-2.4 5.6c-1.6 1.5-3.5 2.3-5.7 2.3s-4.2-.8-5.7-2.3zm-13-25.4c-.5-2.9-.7-4.9-.4-6.2.2-1.3.7-1.6 1.3-.9.7.7 1.3 3.1 2 7-.4-.1-.8-.1-1.2-.1-.6.1-1.1.2-1.7.2zm-2.9 1c-.8.4-1.5 1-2.2 1.5.4-2 .5-3.9.3-5.8.5 1.3 1.1 2.8 1.9 4.3zm-6.6-6.4c1.6 1.6 2.4 3.5 2.4 5.7s-.8 4.1-2.4 5.6c-1.6 1.5-3.5 2.3-5.7 2.3s-4.1-.8-5.7-2.3c-1.6-1.5-2.4-3.4-2.4-5.6s.8-4.1 2.4-5.7c1.6-1.6 3.5-2.4 5.7-2.4s4.2.8 5.7 2.4zm5.5 9.7c1.6-1.6 3.5-2.4 5.7-2.4s4.1.8 5.7 2.4c1.6 1.6 2.4 3.5 2.4 5.7s-.8 4.1-2.4 5.6c-1.6 1.5-3.5 2.3-5.7 2.3s-4.1-.8-5.7-2.3c-1.6-1.5-2.4-3.4-2.4-5.6s.9-4.2 2.4-5.7zm42.3 20.6c1.3.5 1.8 1.1 1.3 1.8-.4.6-5 .6-13.7 0 1-1 1.8-2.2 2.2-3.4 5.5.5 8.9 1 10.2 1.6zm3.7-5.6c.4 1-4.2 2.3-13.8 3.7.3-1 .4-2.1.4-3.2v-.1c8.4-1.4 12.9-1.5 13.4-.4zm-3-6c.5.6-3 2.6-10.4 5.9-.1-1-.3-2-.5-3 6.7-2.6 10.4-3.5 10.9-2.9zm-3.1-3.9c.6.7-2.1 2.9-7.9 6.8-.2-.7-.5-1.4-1-2 5.3-3.9 8.3-5.5 8.9-4.8zm-4.7-2c-.8 1.3-2.5 3.3-4.9 5.9l-.5-.5c-.7-.7-1.5-1.3-2.2-1.8 5.2-4.5 8-6.6 8.5-6.3.3.3 0 1.1-.9 2.7zm-4.3-4.5c.4.3-.8 3-3.6 8-.9-.5-1.9-.8-3.1-1 2-2.4 3.4-4.2 4.4-5.5 1-1.4 1.7-1.9 2.3-1.5zm-13.2-12.2c.2.7-.2 7.7-1.3 20.9 2-6.3 3.6-11 4.8-14 1.1-3 1.9-4.6 2.3-4.6.4 0 .7.2.8.5.1.3-.6 5.7-2.3 16.3-.8.1-1.6.2-2.3.4l.3-2.1c.8-4 .6-4.3-.5-1.1l-1.3 3.7c-1 .5-1.8 1.2-2.5 2-.1.1-.3.3-.4.3.4-1 .5-2 .5-3.2 0-2.5-.7-4.6-2.2-6.4.7-4 1.1-7 1.4-9 .4-2.4.9-3.8 1.5-4.3.5-.3.9-.1 1.2.6zm-7-.4c.8-.1 1.2 1 1.2 3.2 0 1.9-.1 4.7-.2 8.5-.9-.7-1.8-1.2-2.9-1.5 0-3.3.1-5.8.3-7.4.3-1.8.8-2.7 1.6-2.8zm-30.3-6.8c.8 1.2 1.9 3.8 3.4 8-.7.4-1.4 1-2 1.6-.3.2-.5.5-.8.8-1.2-4.8-1.8-7.9-1.9-9.6 0-1.7.4-2 1.3-.8zm-4.4 3.7c.6.8 2 3.5 4.2 8-.9 1.5-1.3 3.1-1.3 5.1v.5c-2.6-7.8-3.8-12.2-3.8-13.2-.1-1.2.2-1.3.9-.4zm-5.6 3.6c.1-2.1.5-2.4 1.4-1.1.7 1.2 2.4 5.1 5.1 11.5-1.5-.9-3.1-1.3-4.9-1.3h-.8c-.7-4.3-.9-7.3-.8-9.1zm-2.2 4l1.4 5.4c-1.2.3-2.4.8-3.4 1.5 1.2-2 1.9-4.3 2-6.9zm-1.9 20.7c-1.6-1.5-2.4-3.4-2.4-5.6s.8-4.1 2.4-5.7c1.6-1.6 3.5-2.4 5.7-2.4s4.1.8 5.7 2.4c1.6 1.6 2.4 3.5 2.4 5.7s-.8 4.1-2.4 5.6c-1.6 1.5-3.5 2.3-5.7 2.3s-4.1-.7-5.7-2.3zm14.6 4.3c0-2.2.8-4.1 2.4-5.7 1.6-1.6 3.5-2.4 5.7-2.4s4.1.8 5.7 2.4c1.6 1.6 2.4 3.5 2.4 5.7s-.8 4.1-2.4 5.6c-1.6 1.5-3.5 2.3-5.7 2.3s-4.1-.8-5.7-2.3c-1.6-1.5-2.4-3.4-2.4-5.6zm-14.6 15.3c-1.6-1.5-2.4-3.4-2.4-5.6s.8-4.1 2.4-5.7c1.6-1.6 3.5-2.4 5.7-2.4s4.1.8 5.7 2.4c1.6 1.6 2.4 3.5 2.4 5.7s-.8 4.1-2.4 5.6c-1.6 1.5-3.5 2.3-5.7 2.3s-4.1-.8-5.7-2.3zm16.9-1.4c1.6-1.6 3.5-2.4 5.7-2.4s4.1.8 5.7 2.4c1.6 1.6 2.4 3.5 2.4 5.7s-.8 4.1-2.4 5.6c-1.6 1.5-3.5 2.3-5.7 2.3s-4.1-.8-5.7-2.3c-1.6-1.5-2.4-3.4-2.4-5.6s.9-4.1 2.4-5.7zm-16.9 20.9c-1.6-1.5-2.4-3.4-2.4-5.6s.8-4.1 2.4-5.7c1.6-1.6 3.5-2.4 5.7-2.4s4.1.8 5.7 2.4c1.6 1.6 2.4 3.5 2.4 5.7s-.8 4.1-2.4 5.6c-1.6 1.5-3.5 2.3-5.7 2.3s-4.1-.7-5.7-2.3zm4.3 4.3c.4.1.9.1 1.3.1 1 0 2-.1 3-.4-2.5 7.3-4.2 10.8-5.1 10.5-.9-.2-.6-3.6.8-10.2zm5.8-.9c1-.4 1.9-1.1 2.7-2 .1-.1.1-.2.2-.3-.3 1-.4 2-.4 3.2 0 .8.1 1.6.3 2.4-2.5 6.8-4.2 10.2-5.1 10.2-1 0-.2-4.5 2.3-13.5z" class="st421"/></g></switch></svg>