<svg xmlns="http://www.w3.org/2000/svg" id="svg2985" x="0" y="0" enable-background="new -214.5 316.4 255 210" version="1.1" viewBox="-214.5 316.4 255 210" xml:space="preserve"><style>.st199{enable-background:new}.st200{fill:#fff}.st201{fill:#bf3718}</style><switch><g><filter id="filter3970-5" width="1.217" height="1.215" x="-.109" y="-.108" color-interpolation-filters="sRGB"><feGaussianBlur id="feGaussianBlur3972-8" stdDeviation=".128"/></filter><g id="g4630" class="st199" transform="matrix(1.0006 0 0 1 -1.376 203.406)"><g id="g3062"><path id="rect4031" d="M42 263.8l-.2-46.2.2-68.4c.1-22.9-15.9-36.1-40.4-36.1h-154.5c-12.3 0-27.6 14-35.7 21.5-8 7.5-24.3 22.1-24.3 33.6v113.1c0 22.9 5.6 41.3 30.1 41.3l162.2.3c6.4 0 24.3-17.4 32.3-24.8 8.1-7.5 30.3-22.9 30.3-34.3z"/><path id="rect3767" fill="#005f00" d="M29.3 255V150.4c0-13.8-11.1-24.8-24.9-24.9l-152.4-.9c-2 0-32 12.6-32 25.8V255c0 13.8 11.1 24.9 24.9 24.9H4.4c13.8 0 24.9-11.1 24.9-24.9z"/><path id="rect3861" fill="#cddacd" d="M14.3 269.9v-99.6c0-13.8-11.2-24.9-24.9-24.9H-170c-13.8 0-24.9 11.1-24.9 24.9v99.6c0 13.8 11.2 24.9 24.9 24.9h159.4c13.8 0 24.9-11.1 24.9-24.9z"/><path id="rect3765" d="M-.6 279.9V175.3c0-13.8-11.2-24.9-24.9-24.9H-175c-13.8 0-24.9 11.1-24.9 24.9v104.6c0 13.8 11.2 24.9 24.9 24.9h149.4c13.8 0 25-11.1 25-24.9z" class="st200"/><linearGradient id="rect3008_1_" x1="-324.883" x2="-324.883" y1="569.587" y2="531.068" gradientTransform="matrix(0 -4.9837 4.9812 0 -2847.785 -1384.036)" gradientUnits="userSpaceOnUse"><stop offset="0" stop-color="#d0e4cc"/><stop offset="1" stop-color="#fbffec"/></linearGradient><path id="rect3008" fill="url(#rect3008_1_)" d="M-10.6 289.9V180.3c0-11-8.9-19.9-19.9-19.9h-149.4c-11 0-19.9 8.9-19.9 19.9v109.6c0 11 8.9 19.9 19.9 19.9h149.4c11 0 19.9-8.9 19.9-19.9z"/><path id="path3932" d="M16.8 130.2c-1.5 0-2.8 1.3-2.8 2.8s1.3 2.8 2.8 2.8 2.8-1.3 2.8-2.8-1.2-2.8-2.8-2.8z" class="st200"/><g id="path3936" filter="url(#filter3970-5)"><linearGradient id="SVGID_1_" x1="-315.771" x2="-318.887" y1="590.47" y2="587.001" gradientTransform="matrix(0 -7.1056 6.6848 0 -3926.45 -2112.465)" gradientUnits="userSpaceOnUse"><stop offset="0" stop-color="#fff"/><stop offset="1" stop-color="#fff" stop-opacity="0"/></linearGradient><path fill="url(#SVGID_1_)" d="M18.2 135.3l-24.6 28.8-6-8.2 28.3-25.2z"/></g><path id="path3882" d="M-5.1 147.5c-4.8 0-8.7 3.9-8.7 8.7 0 4.8 3.9 8.7 8.7 8.7 4.8 0 8.7-3.9 8.7-8.7 0-4.8-3.9-8.7-8.7-8.7z" class="st200"/><g id="g3661" class="st199" transform="matrix(4.96327 0 0 4.98168 220.285 -219.446)"><g id="g3889" transform="matrix(.74429 0 0 .74429 -33.497 1.805)"><path id="path4301" d="M-31 105.4a6.7 6.7 0 100 13.4 6.7 6.7 0 000-13.4z" class="st201"/><g id="g3847" transform="rotate(-45 17.625 29.531)"><path id="path3849" d="M-75.5 53.6s-1.2-1-2.7-1c-1.5 0-2.7 1-2.7 1s1.2 1 2.7 1c1.5 0 2.7-1 2.7-1z" class="st200"/><path id="path3851" d="M-74.8 53.6s1.2 1 2.7 1c1.5 0 2.7-1 2.7-1s-1.2-1-2.7-1c-1.5 0-2.7 1-2.7 1z" class="st200"/><path id="path3853" d="M-75.1 53.2s1-1.2 1-2.7-1-2.7-1-2.7-1 1.2-1 2.7c0 1.5 1 2.7 1 2.7z" class="st200"/><path id="path3855" d="M-75.1 53.9s-1 1.2-1 2.7 1 2.7 1 2.7 1-1.2 1-2.7-1-2.7-1-2.7z" class="st200"/></g></g><g id="g5324" transform="matrix(.74429 0 0 .74429 -45.497 1.805)"><path id="path5326" d="M-14.9 121.5a6.7 6.7 0 106.7 6.7c.1-3.7-2.9-6.7-6.7-6.7z" class="st201"/><g id="g5328" transform="rotate(-45 17.625 29.531)"><path id="path5330" d="M-75.5 76.3s-1.2-1-2.7-1c-1.5 0-2.7 1-2.7 1s1.2 1 2.7 1c1.5 0 2.7-1 2.7-1z" class="st200"/><path id="path5332" d="M-74.8 76.3s1.2 1 2.7 1c1.5 0 2.7-1 2.7-1s-1.2-1-2.7-1c-1.5 0-2.7 1-2.7 1z" class="st200"/><path id="path5334" d="M-75.1 76s1-1.2 1-2.7c0-1.5-1-2.7-1-2.7s-1 1.2-1 2.7c0 1.5 1 2.7 1 2.7z" class="st200"/><path id="path5336" d="M-75.1 76.7s-1 1.2-1 2.7c0 1.5 1 2.7 1 2.7s1-1.2 1-2.7c0-1.5-1-2.7-1-2.7z" class="st200"/></g></g><g id="g5340" transform="matrix(.74429 0 0 .74429 -45.497 19.805)"><path id="path5342" d="M-39.1 97.3a6.7 6.7 0 100 13.4 6.7 6.7 0 000-13.4z" class="st201"/><g id="g5344" transform="rotate(-45 17.625 29.531)"><path id="path5346" d="M-75.5 42.1s-1.2-1-2.7-1c-1.5 0-2.7 1-2.7 1s1.2 1 2.7 1c1.5 0 2.7-1 2.7-1z" class="st200"/><path id="path5348" d="M-74.8 42.1s1.2 1 2.7 1c1.5 0 2.7-1 2.7-1s-1.2-1-2.7-1c-1.5 0-2.7 1-2.7 1z" class="st200"/><path id="path5350" d="M-75.2 41.7s1-1.2 1-2.7c0-1.5-1-2.7-1-2.7s-1 1.2-1 2.7 1 2.7 1 2.7z" class="st200"/><path id="path5352" d="M-75.2 42.4s-1 1.2-1 2.7c0 1.5 1 2.7 1 2.7s1-1.2 1-2.7c0-1.5-1-2.7-1-2.7z" class="st200"/></g></g><g id="g5354" transform="matrix(.74429 0 0 .74429 -33.497 19.805)"><path id="path5356" d="M-55.2 81.2a6.7 6.7 0 100 13.4 6.7 6.7 0 000-13.4z" class="st201"/><g id="g5358" transform="rotate(-45 17.625 29.531)"><path id="path5360" d="M-75.5 19.3s-1.2-1-2.7-1c-1.5 0-2.7 1-2.7 1s1.2 1 2.7 1c1.4 0 2.7-1 2.7-1z" class="st200"/><path id="path5362" d="M-74.8 19.3s1.2 1 2.7 1c1.5 0 2.7-1 2.7-1s-1.2-1-2.7-1c-1.5 0-2.7 1-2.7 1z" class="st200"/><path id="path5364" d="M-75.2 19s1-1.2 1-2.7c0-1.5-1-2.7-1-2.7s-1 1.2-1 2.7c0 1.4 1 2.7 1 2.7z" class="st200"/><path id="path5366" d="M-75.2 19.7s-1 1.2-1 2.7 1 2.7 1 2.7 1-1.2 1-2.7-1-2.7-1-2.7z" class="st200"/></g></g></g><g id="g3081" class="st199"><path id="path5370" d="M-105.2 210.2c-13.7 0-24.8 11.1-24.8 24.9 0 13.7 11.1 24.9 24.8 24.9s24.8-11.1 24.8-24.9c0-13.8-11.1-24.9-24.8-24.9z" class="st201"/><g id="g5372" class="st199" transform="scale(3.70269 3.7007) rotate(-45 -33.076 -.673)"><path id="path5374" d="M-75.5 48s-1.2-1-2.7-1-2.7 1-2.7 1 1.2 1 2.7 1c1.5 0 2.7-1 2.7-1z" class="st200"/><path id="path5376" d="M-74.8 48s1.2 1 2.7 1c1.5 0 2.7-1 2.7-1s-1.2-1-2.7-1c-1.5 0-2.7 1-2.7 1z" class="st200"/><path id="path5378" d="M-75.2 47.7s1-1.2 1-2.7c0-1.5-1-2.7-1-2.7s-1 1.2-1 2.7c0 1.5 1 2.7 1 2.7z" class="st200"/><path id="path5380" d="M-75.2 48.4s-1 1.2-1 2.7c0 1.5 1 2.7 1 2.7s1-1.2 1-2.7-1-2.7-1-2.7z" class="st200"/></g></g></g></g></g></switch></svg>