<svg xmlns="http://www.w3.org/2000/svg" id="svg2985" x="0" y="0" enable-background="new -214.5 316.4 255 210" version="1.1" viewBox="-214.5 316.4 255 210" xml:space="preserve"><style>.st508{fill:#fff}.st509{fill:#038249;stroke:#038249;stroke-width:2;stroke-miterlimit:10}</style><switch><g><filter id="filter3970-5" width="1.217" height="1.215" x="-.109" y="-.108" color-interpolation-filters="sRGB"><feGaussianBlur id="feGaussianBlur3972-8" stdDeviation=".128"/></filter><g id="g4630" transform="matrix(1.0006 0 0 1 -1.376 203.406)"><g id="g3062"><path id="rect4031" d="M42 263.8l-.2-46.2.2-68.4c.1-22.9-15.9-36.1-40.4-36.1h-154.5c-12.3 0-27.6 14-35.7 21.5-8 7.5-24.3 22.1-24.3 33.6v113.1c0 22.9 5.6 41.3 30.1 41.3l162.2.3c6.4 0 24.3-17.4 32.3-24.8 8.1-7.5 30.3-22.9 30.3-34.3z"/><path id="rect3767" fill="#005f00" d="M29.3 255V150.4c0-13.8-11.1-24.8-24.9-24.9l-152.4-.9c-2 0-32 12.6-32 25.8V255c0 13.8 11.1 24.9 24.9 24.9H4.4c13.8 0 24.9-11.1 24.9-24.9z"/><path id="rect3861" fill="#cddacd" d="M14.3 269.9v-99.6c0-13.8-11.2-24.9-24.9-24.9H-170c-13.8 0-24.9 11.1-24.9 24.9v99.6c0 13.8 11.2 24.9 24.9 24.9h159.4c13.8 0 24.9-11.1 24.9-24.9z"/><path id="rect3765" d="M-.6 279.9V175.3c0-13.8-11.2-24.9-24.9-24.9H-175c-13.8 0-24.9 11.1-24.9 24.9v104.6c0 13.8 11.2 24.9 24.9 24.9h149.4c13.8 0 25-11.1 25-24.9z" class="st508"/><linearGradient id="rect3008_1_" x1="-324.883" x2="-324.883" y1="569.587" y2="531.068" gradientTransform="matrix(0 -4.9837 4.9812 0 -2847.785 -1384.036)" gradientUnits="userSpaceOnUse"><stop offset="0" stop-color="#d0e4cc"/><stop offset="1" stop-color="#fbffec"/></linearGradient><path id="rect3008" fill="url(#rect3008_1_)" d="M-10.6 289.9V180.3c0-11-8.9-19.9-19.9-19.9h-149.4c-11 0-19.9 8.9-19.9 19.9v109.6c0 11 8.9 19.9 19.9 19.9h149.4c11 0 19.9-8.9 19.9-19.9z"/><path id="path3932" d="M16.8 130.2c-1.5 0-2.8 1.3-2.8 2.8s1.3 2.8 2.8 2.8 2.8-1.3 2.8-2.8-1.2-2.8-2.8-2.8z" class="st508"/><g id="path3936" filter="url(#filter3970-5)"><linearGradient id="SVGID_1_" x1="-315.771" x2="-318.887" y1="590.47" y2="587.001" gradientTransform="matrix(0 -7.1056 6.6848 0 -3926.45 -2112.465)" gradientUnits="userSpaceOnUse"><stop offset="0" stop-color="#fff"/><stop offset="1" stop-color="#fff" stop-opacity="0"/></linearGradient><path fill="url(#SVGID_1_)" d="M18.2 135.3l-24.6 28.8-6-8.2 28.3-25.2z"/></g><path id="path3882" d="M-5.1 147.5c-4.8 0-8.7 3.9-8.7 8.7 0 4.8 3.9 8.7 8.7 8.7 4.8 0 8.7-3.9 8.7-8.7 0-4.8-3.9-8.7-8.7-8.7z" class="st508"/></g></g><path d="M-28.4 493.6c.9 3.2 1.9 4.8 3.2 4.8 1.3 0 2.4-1.6 3.2-4.8.8-3.2 1.2-6.9 1.2-11.3s-.4-8.1-1.2-11.3c-.8-3.1-1.9-4.7-3.2-4.7-1.2 0-2.3 1.6-3.2 4.7-.1.2-.1.5-.2.9h-25.7c.9-1 .6-2.8-.9-5.5-.1-.2-.2-.5-.3-.8l21.3-19.3c.3.1.5.3.7.4 2.8 1.8 4.7 2.2 5.6 1.4 1-.9.7-2.7-.9-5.6-.7-1.4-1.5-2.8-2.6-4.3 1.1-1.4 2-2.8 2.6-4.2 1.5-2.9 1.8-4.7.9-5.6-1-.9-2.8-.4-5.6 1.3-.1.1-.4.3-.7.5l-21.3-19.3c.1-.3.3-.5.3-.8 1.5-2.9 1.8-4.8.9-5.7-.2-.1-.4-.3-.7-.3h26.3c.1.4.2.9.3 1.3.9 3.2 1.9 4.8 3.2 4.8 1.3 0 2.4-1.6 3.2-4.8.8-3.2 1.2-6.9 1.2-11.3s-.4-8.1-1.2-11.3c-.8-3.1-1.9-4.7-3.2-4.7-1.2 0-2.3 1.6-3.2 4.7-.1.2-.1.5-.2.9h-28.8c-.1-.4-.1-.7-.2-.9-.8-3.1-1.9-4.7-3.2-4.7-1.2 0-2.2 1.6-3.2 4.7-.1.2-.1.5-.2.9h-16.4c.6-1.6.5-2.7-.1-3.3-.9-.8-2.7-.4-5.5 1.3-1 .6-1.9 1.2-2.9 2h-4c-.1-.4-.1-.7-.2-.9-.8-3.1-1.9-4.7-3.2-4.7-1.2 0-2.2 1.6-3.1 4.7-.9 3.1-1.4 6.9-1.4 11.3v3.3c-.1.4-.3.7-.4 1.1-1.5 2.9-1.8 4.8-.9 5.6.5.5 1.3.6 2.3.2l.3 1.1c1 3.1 2 4.7 3.2 4.7 1.3 0 2.4-1.6 3.2-4.8 0-.4.1-.7.2-1l18.7 16.8c-.2.4-.4.8-.7 1.2-1.4 3-1.7 4.9-.9 5.7 1 .9 2.9.4 5.6-1.4.4-.3.7-.5 1.1-.8l13.5 12.2-13.5 12.2c-.4-.2-.7-.5-1.1-.8-2.7-1.8-4.6-2.2-5.6-1.3-.8.7-.5 2.6.9 5.6.2.4.4.8.7 1.2l-18.5 16.7h-.1c-.1-.4-.1-.7-.2-.9-.8-3.1-1.9-4.7-3.2-4.7-1.2 0-2.2 1.6-3.2 4.7-.1.3-.2.6-.3 1-1-.4-1.8-.3-2.3.2-.9.8-.6 2.7.9 5.7l.4 1v3.3c0 4.3.5 8.1 1.4 11.3.9 3.2 2 4.8 3.1 4.8 1.3 0 2.4-1.6 3.2-4.8.1-.4.2-.9.3-1.3h3.2c1.2 1 2.3 1.8 3.5 2.5 2.8 1.7 4.6 2.1 5.5 1.3.7-.7.6-1.9-.1-3.8h16.5c.1.4.3.9.3 1.3 1 3.2 2 4.8 3.2 4.8 1.3 0 2.4-1.6 3.2-4.8.1-.4.2-.9.3-1.3h28.6c.1.8.2 1.3.3 1.7zM-56 404.4c-.4.1-.8.2-1.4.4.1-.1.1-.3.2-.4h1.2zm-41.7-3.1c-.4-2-.6-4.2-.6-6.8 0-2.6.2-4.9.6-6.8.4-1.9.9-2.8 1.6-2.8.6 0 1.1 1 1.6 2.9.1.7.3 1.5.4 2.4h29c-.1 1.3-.1 2.7-.1 4.3s0 3 .1 4.5h-29.1c-.1.8-.2 1.6-.3 2.3-.5 2-1.1 3-1.6 3-.7 0-1.2-1-1.6-3zm35.3 0c-.5-2-.7-4.2-.7-6.8 0-2.6.2-4.9.7-6.8.5-1.9 1-2.8 1.6-2.8.7 0 1.2.9 1.6 2.8.4 1.9.6 4.1.6 6.8 0 2.6-.2 4.8-.6 6.8-.4 2-.9 3-1.6 3-.6 0-1.1-1-1.6-3zm35.6 0c-.2-.7-.4-1.5-.4-2.3h-29.2c.1-1.5.2-3 .2-4.5s0-3-.1-4.3h29.1c.1-.9.2-1.7.4-2.4.4-1.9.9-2.9 1.5-2.9s1.1.9 1.6 2.8.7 4.1.7 6.8c0 2.6-.2 4.8-.7 6.8-.5 2-1 3-1.6 3-.6 0-1.1-1-1.5-3zm-58.4 3.1h13.1l6.7 6c-1 1-1.9 2-3 3.1-1 1.2-2 2.3-2.9 3.5l-13.9-12.6zm13.7 19.3c-.4-.4-.2-1.4.8-3.2 1-1.8 2.3-3.6 4.1-5.4 1.8-2 3.4-3.5 5.1-4.5l.1-.2c.2.1.5.2.8.2.7 0 1.2-.4 1.8-1.2.1 0 .3 0 .4.1.4.4.2 1.5-.8 3.2-1 1.7-2.3 3.5-4.1 5.4-1.7 1.9-3.4 3.5-5 4.7-1.7 1.1-2.8 1.4-3.2.9zm6.7-1c1-1 2-2.1 3.1-3.2 1-1.2 1.9-2.3 2.7-3.3l9.4 8.6c-.7 1-.3 2.8 1 5.5.2.4.4.8.7 1.2l-3.6 3.3-13.3-12.1zm21.6 11.9c-.5-.7-1-1.4-1.4-2.1-1-1.7-1.2-2.7-.7-3.2.4-.4 1.5 0 3.1 1 1.6 1.1 3.3 2.5 5.1 4.4 1.7 1.9 3 3.8 4 5.5 1 1.8 1.3 2.9.8 3.2-.5.5-1.6.1-3.2-1.1-.6-.4-1.2-.9-1.8-1.4L-59 460.6c-.9-1.2-1.8-2.3-2.9-3.4-1-1.2-2-2.2-3-3.1l21.7-19.5zm-28.3 18.6c.4-.4 1.5-.1 3.1 1.1 1.6 1.2 3.3 2.7 5 4.6 1.8 2 3.1 3.8 4.1 5.4 1 1.6 1.2 2.7.8 3.1-.1.1-.3.1-.5.1-.5-.7-1.1-1.1-1.6-1.1-.2 0-.4 0-.7.1-.1-.1-.1-.1-.2-.1-1.6-1.1-3.3-2.6-5.1-4.5-1.8-1.9-3.1-3.8-4.1-5.5-1-1.8-1.3-2.9-.8-3.2zm-13.1 18.9l13.4-12.1c.9 1.1 1.8 2.2 2.9 3.4 1 1.2 2 2.2 3 3.1l-6.3 5.6h-13zm-13.1 17.1c-.4-2-.6-4.2-.6-6.8 0-2.6.2-4.9.6-6.8.4-1.9.9-2.8 1.6-2.8.6 0 1.1 1 1.6 2.9.1.7.3 1.5.4 2.4h29c-.1 1.3-.1 2.7-.1 4.3s0 3 .1 4.5h-29.1c-.1.8-.2 1.6-.3 2.3-.5 2-1.1 3-1.6 3-.7 0-1.2-1-1.6-3zm35.3 0c-.5-2-.7-4.2-.7-6.8 0-2.6.2-4.9.7-6.8.5-1.9 1-2.8 1.6-2.8.7 0 1.2.9 1.6 2.8.4 1.9.6 4.1.6 6.8 0 2.6-.2 4.8-.6 6.8-.4 2-.9 3-1.6 3-.6 0-1.1-1-1.6-3zm35.6 0c-.2-.7-.4-1.5-.4-2.3h-29.2c.1-1.5.2-3 .2-4.5s0-3-.1-4.3h29.1c.1-.9.2-1.7.4-2.4.4-1.9.9-2.9 1.5-2.9s1.1.9 1.6 2.8.7 4.1.7 6.8c0 2.6-.2 4.8-.7 6.8-.5 2-1 3-1.6 3-.6 0-1.1-1-1.5-3zM-121 384.7h-3.3c-1.2-1-2.3-1.8-3.4-2.5-2.8-1.7-4.6-2.1-5.5-1.3-.7.7-.7 1.9 0 3.8h-16.4c-.1-.4-.3-.9-.3-1.3-1-3.2-2-4.8-3.2-4.8-1.3 0-2.4 1.6-3.2 4.8-.1.4-.2.9-.3 1.3h-28.6c-.1-.4-.2-.9-.3-1.3-.9-3.2-1.9-4.8-3.2-4.8-1.3 0-2.4 1.6-3.2 4.8-.8 3.2-1.2 6.9-1.2 11.3s.4 8.1 1.2 11.3c.8 3.1 1.9 4.7 3.2 4.7 1.2 0 2.3-1.6 3.2-4.7.1-.2.1-.5.2-.9h25.6c-.8 1-.5 2.8 1 5.5.1.2.2.5.3.8l-21.3 19.3c-.3-.1-.5-.3-.7-.4-2.8-1.8-4.7-2.2-5.6-1.4-1 .9-.7 2.7.9 5.6.7 1.4 1.5 2.8 2.6 4.3-1.1 1.4-2 2.8-2.6 4.2-1.5 2.9-1.8 4.7-.9 5.6 1 .9 2.8.4 5.6-1.3.1-.1.4-.3.7-.5l21.3 19.3c-.1.3-.3.5-.3.8-1.5 2.9-1.8 4.8-.9 5.7.1.1.4.3.7.3h-26.3c-.1-.4-.2-.9-.3-1.3-.9-3.2-1.9-4.8-3.2-4.8-1.3 0-2.4 1.6-3.2 4.8-.8 3.2-1.2 6.9-1.2 11.3s.4 8.1 1.2 11.3c.8 3.1 1.9 4.7 3.2 4.7 1.2 0 2.3-1.6 3.2-4.7.1-.2.1-.5.2-.9h28.8c.1.4.1.7.2.9.8 3.1 1.9 4.7 3.2 4.7 1.2 0 2.2-1.6 3.2-4.7.1-.2.1-.5.2-.9h16.3c-.5 1.6-.4 2.7.2 3.3.9.8 2.7.4 5.5-1.3 1-.6 1.9-1.2 2.9-2h4c.1.4.1.7.2.9.8 3.1 1.9 4.7 3.2 4.7 1.2 0 2.2-1.6 3.1-4.7.9-3.1 1.4-6.9 1.4-11.3 0-1.2 0-2.3-.1-3.3.2-.4.4-.7.5-1.1 1.5-2.9 1.8-4.8.9-5.6-.6-.5-1.4-.6-2.4-.2l-.2-1.1c-1-3.1-2-4.7-3.2-4.7-1.3 0-2.4 1.6-3.2 4.8-.1.4-.1.7-.2 1l-18.7-16.8c.2-.4.4-.8.7-1.2 1.4-3 1.7-4.9.9-5.7-1-.9-2.9-.4-5.6 1.4-.4.3-.7.5-1.1.8l-13.5-12.2 13.5-12.2c.4.2.7.5 1.1.8 2.7 1.8 4.6 2.2 5.6 1.3.8-.7.5-2.6-.9-5.6-.2-.4-.4-.8-.7-1.2l18.5-16.7h.2c.1.4.1.7.2.9.8 3.1 1.9 4.7 3.2 4.7 1.2 0 2.2-1.6 3.2-4.7.1-.3.1-.6.2-1 1 .4 1.8.3 2.4-.2.9-.8.6-2.7-.9-5.7l-.5-1c.1-1 .1-2.1.1-3.3 0-4.3-.5-8.1-1.4-11.3-.9-3.2-2-4.8-3.1-4.8-1.3 0-2.4 1.6-3.2 4.8-.1.1-.2.5-.4.9zm-67.4 88c.6 0 1.1 1 1.6 3 .1.7.3 1.5.3 2.3h29.1c-.1 1.5-.1 3-.1 4.5s0 3 .1 4.3h-29c-.1.9-.3 1.7-.4 2.4-.5 1.9-1.1 2.9-1.6 2.9-.7 0-1.2-.9-1.6-2.8-.4-1.9-.6-4.1-.6-6.8 0-2.6.2-4.8.6-6.8.4-2 .9-3 1.6-3zm35.4 0c.6 0 1.1 1 1.6 3s.7 4.2.7 6.8c0 2.6-.2 4.9-.7 6.8-.5 1.9-1 2.8-1.6 2.8-.7 0-1.2-.9-1.6-2.8-.4-1.9-.6-4.1-.6-6.8 0-2.6.2-4.8.6-6.8.4-2 .9-3 1.6-3zm35.4 0c.6 0 1.1 1 1.6 3s.7 4.2.7 6.8c0 2.6-.2 4.9-.7 6.8-.5 1.9-1 2.8-1.6 2.8-.7 0-1.2-1-1.5-2.9-.2-.7-.4-1.5-.4-2.4h-29.1c.1-1.3.1-2.7.1-4.3s-.1-3-.2-4.5h29.2c.1-.8.2-1.6.4-2.3.4-2 .9-3 1.5-3zm-38.9-.5c0 .1 0 .3-.1.4h-1.3c.5-.1.9-.2 1.4-.4zm8.1-5.6c1-1 1.9-2 3-3.1 1-1.2 2-2.3 2.9-3.5l14 12.6h-13.1l-6.8-6zm-6.1-2.2c1-1.7 2.3-3.5 4.1-5.4 1.7-1.9 3.4-3.5 5-4.7 1.6-1.2 2.7-1.6 3.1-1 .4.4.2 1.4-.8 3.2-1 1.8-2.3 3.6-4.1 5.4-1.8 2-3.4 3.5-5.1 4.5l-.2.2c-.2-.1-.4-.2-.7-.2-.7 0-1.2.4-1.8 1.2-.2 0-.4 0-.4-.1-.3-.4 0-1.4.9-3.1zm-10.7-17.7c-.2-.4-.4-.8-.7-1.2l3.6-3.3 13.3 12.1c-1 1-2.1 2.1-3.1 3.2-1 1.2-1.9 2.3-2.7 3.3l-9.4-8.6c.6-1 .3-2.8-1-5.5zm10.4-30.3c.9 1.2 1.8 2.3 2.9 3.4 1 1.2 2 2.2 3 3.1l-21.5 19.6c.5.7 1 1.4 1.3 2.1 1 1.7 1.2 2.7.8 3.2-.4.4-1.5 0-3.1-1-1.6-1.1-3.3-2.5-5.1-4.4-1.8-1.9-3.1-3.8-4.1-5.5-1-1.8-1.2-2.9-.9-3.2.5-.5 1.6-.1 3.2 1.1.7.4 1.3.9 1.9 1.4l21.6-19.8zm0-7c.5.7 1.1 1.1 1.8 1.1.2 0 .4 0 .5-.1.1.1.3.1.3.1 1.6 1.1 3.3 2.6 5.1 4.5 1.8 1.9 3.1 3.8 4.1 5.5 1 1.8 1.2 2.9.8 3.2-.4.4-1.5.1-3.1-1.1-1.6-1.2-3.3-2.7-5-4.6-1.8-2-3.1-3.8-4.1-5.4-1-1.6-1.2-2.7-.8-3.1.1 0 .2-.1.4-.1zm25.6-4.5l-13.4 12.1c-.9-1.1-1.8-2.2-2.9-3.4-1-1.2-2-2.2-3-3.1l6.2-5.6h13.1zm-59.2-20.1c.6 0 1.1 1 1.6 3 .1.7.3 1.5.3 2.3h29.1c-.1 1.5-.1 3-.1 4.5s0 3 .1 4.3h-29c-.1.9-.3 1.7-.4 2.4-.5 1.9-1.1 2.9-1.6 2.9-.7 0-1.2-.9-1.6-2.8-.4-1.9-.6-4.1-.6-6.8 0-2.6.2-4.8.6-6.8.4-2 .9-3 1.6-3zm35.4 0c.6 0 1.1 1 1.6 3s.7 4.2.7 6.8c0 2.6-.2 4.9-.7 6.8-.5 1.9-1 2.8-1.6 2.8-.7 0-1.2-.9-1.6-2.8-.4-1.9-.6-4.1-.6-6.8 0-2.6.2-4.8.6-6.8.4-2 .9-3 1.6-3zm35.4 0c.6 0 1.1 1 1.6 3s.7 4.2.7 6.8c0 2.6-.2 4.9-.7 6.8-.5 1.9-1 2.8-1.6 2.8-.7 0-1.2-1-1.5-2.9-.2-.7-.4-1.5-.4-2.4h-29.1c.1-1.3.1-2.7.1-4.3s-.1-3-.2-4.5h29.2c.1-.8.2-1.6.4-2.3.4-2 .9-3 1.5-3z" class="st509"/></g></switch></svg>