<svg xmlns="http://www.w3.org/2000/svg" id="svg2985" x="0" y="0" enable-background="new -214.5 269.4 255 361.9" version="1.1" viewBox="-214.5 269.4 255 361.9" xml:space="preserve"><style>.st440{enable-background:new}.st441{fill:#005f00}.st442{fill:#cddacd}.st443{fill:#fff}.st444{filter:url(#filter3970-5)}.st445{fill:#038249;stroke:#038249;stroke-width:2;stroke-miterlimit:10}</style><switch><g><filter id="filter3970-5" width="1.217" height="1.215" x="-.109" y="-.108" color-interpolation-filters="sRGB"><feGaussianBlur id="feGaussianBlur3972-8" stdDeviation=".128"/></filter><g id="g4630" class="st440" transform="matrix(1.0006 0 0 1 -1.376 203.406)"><g id="g3062"><path id="rect4031" d="M42 368.9l-.2-46.2.1-75.4c0-5.5-4.5-14.9-10-14.7 5.5.3 10-9.1 10-14.5l.1-115.8c.1-22.9-15.9-36.1-40.4-36.1h-154.5c-12.3 0-27.6 14-35.7 21.5-8 7.5-24.3 22.1-24.3 33.6v124.8c0 5.1 3.9 14.2 9 14.5-5 0-9 9-9 14v111.7c0 22.9 5.6 41.3 30.1 41.3l162.2.3c6.4 0 24.3-17.4 32.3-24.8 8.1-7.4 30.3-22.8 30.3-34.2z"/><path id="rect3767" d="M29.3 360.1V255.5c0-13.8-11.1-24.8-24.9-24.9l-152.4-.9c-2 0-32 12.6-32 25.8v104.6c0 13.8 11.1 24.9 24.9 24.9H4.4c13.8 0 24.9-11.1 24.9-24.9z" class="st441"/><path id="rect3861" d="M14.3 375.1v-99.6c0-13.8-11.2-24.9-24.9-24.9H-170c-13.8 0-24.9 11.1-24.9 24.9v99.6c0 13.8 11.2 24.9 24.9 24.9h159.4c13.8 0 24.9-11.2 24.9-24.9z" class="st442"/><path id="rect3765" d="M-.6 385V280.4c0-13.8-11.2-24.9-24.9-24.9H-175c-13.8 0-24.9 11.1-24.9 24.9V385c0 13.8 11.2 24.9 24.9 24.9h149.4c13.8 0 25-11.1 25-24.9z" class="st443"/><linearGradient id="rect3008_2_" x1="-303.791" x2="-303.791" y1="569.587" y2="531.068" gradientTransform="matrix(0 4.9837 4.9812 0 -2847.785 1854.184)" gradientUnits="userSpaceOnUse"><stop offset="0" stop-color="#d0e4cc"/><stop offset="1" stop-color="#fbffec"/></linearGradient><path id="rect3008" fill="url(#rect3008_2_)" d="M-10.6 285.4V395c0 11-8.9 19.9-19.9 19.9h-149.4c-11 0-19.9-8.9-19.9-19.9V285.4c0-11 8.9-19.9 19.9-19.9h149.4c11 0 19.9 8.9 19.9 19.9z"/><path id="path3932" d="M16.8 235.4c-1.5 0-2.8 1.3-2.8 2.8s1.3 2.8 2.8 2.8 2.8-1.3 2.8-2.8-1.2-2.8-2.8-2.8z" class="st443"/><g id="path3936" class="st444"><linearGradient id="SVGID_1_" x1="-330.564" x2="-333.68" y1="590.47" y2="587.001" gradientTransform="matrix(0 -7.1056 6.6848 0 -3926.449 -2112.465)" gradientUnits="userSpaceOnUse"><stop offset="0" stop-color="#fff"/><stop offset="1" stop-color="#fff" stop-opacity="0"/></linearGradient><path fill="url(#SVGID_1_)" d="M18.2 240.4l-24.6 28.8-6-8.2 28.3-25.2z"/></g><path id="path3882" d="M-5.1 252.7c-4.8 0-8.7 3.9-8.7 8.7 0 4.8 3.9 8.7 8.7 8.7 4.8 0 8.7-3.9 8.7-8.7 0-4.8-3.9-8.7-8.7-8.7z" class="st443"/></g></g><g id="g4630_1_" class="st440" transform="matrix(1.0006 0 0 1 -1.376 203.406)"><g id="g3062_1_"><path id="rect3767_1_" d="M29.3 209.1V104.5c0-13.8-11.1-24.8-24.9-24.9l-152.4-.9c-2 0-32 12.6-32 25.8v104.6c0 13.8 11.1 24.9 24.9 24.9H4.4c13.8 0 24.9-11.1 24.9-24.9z" class="st441"/><path id="rect3861_1_" d="M14.3 224.1v-99.6c0-13.8-11.2-24.9-24.9-24.9H-170c-13.8 0-24.9 11.1-24.9 24.9v99.6c0 13.8 11.2 24.9 24.9 24.9h159.4c13.8 0 24.9-11.2 24.9-24.9z" class="st442"/><path id="rect3765_1_" d="M-.6 234V129.4c0-13.8-11.2-24.9-24.9-24.9H-175c-13.8 0-24.9 11.1-24.9 24.9V234c0 13.8 11.2 24.9 24.9 24.9h149.4c13.8 0 25-11.1 25-24.9z" class="st443"/><linearGradient id="rect3008_3_" x1="-334.09" x2="-334.09" y1="569.587" y2="531.068" gradientTransform="matrix(0 4.9837 4.9812 0 -2847.785 1854.184)" gradientUnits="userSpaceOnUse"><stop offset="0" stop-color="#d0e4cc"/><stop offset="1" stop-color="#fbffec"/></linearGradient><path id="rect3008_1_" fill="url(#rect3008_3_)" d="M-10.6 134.4V244c0 11-8.9 19.9-19.9 19.9h-149.4c-11 0-19.9-8.9-19.9-19.9V134.4c0-11 8.9-19.9 19.9-19.9h149.4c11 0 19.9 8.9 19.9 19.9z"/><path id="path3932_1_" d="M16.8 84.4c-1.5 0-2.8 1.3-2.8 2.8 0 1.5 1.3 2.8 2.8 2.8s2.8-1.3 2.8-2.8c0-1.6-1.2-2.8-2.8-2.8z" class="st443"/><g id="path3936_1_" class="st444"><linearGradient id="SVGID_2_" x1="-309.313" x2="-312.429" y1="590.47" y2="587.001" gradientTransform="matrix(0 -7.1056 6.6848 0 -3926.449 -2112.465)" gradientUnits="userSpaceOnUse"><stop offset="0" stop-color="#fff"/><stop offset="1" stop-color="#fff" stop-opacity="0"/></linearGradient><path fill="url(#SVGID_2_)" d="M18.2 89.4l-24.6 28.8-6-8.2 28.3-25.2z"/></g><path id="path3882_1_" d="M-5.1 101.7c-4.8 0-8.7 3.9-8.7 8.7 0 4.8 3.9 8.7 8.7 8.7 4.8 0 8.7-3.9 8.7-8.7 0-4.8-3.9-8.7-8.7-8.7z" class="st443"/></g></g><path d="M-120.8 569.7h-28.6c-.1-.4-.3-.9-.3-1.3-1-3.2-2-4.8-3.2-4.8-1.3 0-2.4 1.6-3.2 4.8-.1.4-.2.9-.3 1.3H-185c-.1-.4-.2-.9-.3-1.3-.9-3.2-1.9-4.8-3.2-4.8-1.3 0-2.4 1.6-3.2 4.8-.8 3.2-1.2 6.9-1.2 11.3s.4 8.1 1.2 11.3c.8 3.1 1.9 4.7 3.2 4.7 1.2 0 2.3-1.6 3.2-4.7.1-.2.1-.5.2-.9h28.8c.1.4.1.7.2.9.8 3.1 1.9 4.7 3.2 4.7 1.2 0 2.2-1.6 3.2-4.7.1-.2.1-.5.2-.9h28.8c.1.4.1.7.2.9.8 3.1 1.9 4.7 3.2 4.7 1.2 0 2.2-1.6 3.1-4.7.9-3.1 1.4-6.9 1.4-11.3 0-4.3-.5-8.1-1.4-11.3-.9-3.2-2-4.8-3.1-4.8-1.3 0-2.4 1.6-3.2 4.8 0 .4-.2.8-.3 1.3zm-67.5.1c.6 0 1.1 1 1.6 3 .1.7.3 1.5.3 2.3h29.1c-.1 1.5-.1 3-.1 4.5s0 3 .1 4.3h-29c-.1.9-.3 1.7-.4 2.4-.5 1.9-1.1 2.9-1.6 2.9-.7 0-1.2-.9-1.6-2.8-.4-1.9-.6-4.1-.6-6.8 0-2.6.2-4.8.6-6.8.5-2 1-3 1.6-3zm35.4 0c.6 0 1.1 1 1.6 3s.7 4.2.7 6.8c0 2.6-.2 4.9-.7 6.8-.5 1.9-1 2.8-1.6 2.8-.7 0-1.2-.9-1.6-2.8-.4-1.9-.6-4.1-.6-6.8 0-2.6.2-4.8.6-6.8.4-2 1-3 1.6-3zm35.5 0c.6 0 1.1 1 1.6 3s.7 4.2.7 6.8c0 2.6-.2 4.9-.7 6.8-.5 1.9-1 2.8-1.6 2.8-.7 0-1.2-1-1.5-2.9-.2-.7-.4-1.5-.4-2.4h-29.1c.1-1.3.1-2.7.1-4.3s-.1-3-.2-4.5h29.2c.1-.8.2-1.6.4-2.3.3-2 .8-3 1.5-3zM-28.5 533.7h-28.6c-.1-.4-.3-.9-.3-1.3-1-3.2-2-4.8-3.2-4.8-1.3 0-2.4 1.6-3.2 4.8-.1.4-.2.9-.3 1.3h-28.6c-.1-.4-.2-.9-.3-1.3-.9-3.2-1.9-4.8-3.2-4.8-1.3 0-2.4 1.6-3.2 4.8-.8 3.2-1.2 6.9-1.2 11.3s.4 8.1 1.2 11.3c.8 3.1 1.9 4.7 3.2 4.7 1.2 0 2.3-1.6 3.2-4.7.1-.2.1-.5.2-.9H-64c.1.4.1.7.2.9.8 3.1 1.9 4.7 3.2 4.7 1.2 0 2.2-1.6 3.2-4.7.1-.2.1-.5.2-.9h28.8c.1.4.1.7.2.9.8 3.1 1.9 4.7 3.2 4.7 1.2 0 2.2-1.6 3.1-4.7.9-3.1 1.4-6.9 1.4-11.3 0-4.3-.5-8.1-1.4-11.3-.9-3.2-2-4.8-3.1-4.8-1.3 0-2.4 1.6-3.2 4.8-.1.5-.2.9-.3 1.3zm-67.5.1c.6 0 1.1 1 1.6 3 .1.7.3 1.5.3 2.3H-65c-.1 1.5-.1 3-.1 4.5s0 3 .1 4.3h-29c-.1.9-.3 1.7-.4 2.4-.5 1.9-1.1 2.9-1.6 2.9-.7 0-1.2-.9-1.6-2.8-.4-1.9-.6-4.1-.6-6.8 0-2.6.2-4.8.6-6.8.4-2 1-3 1.6-3zm35.4 0c.6 0 1.1 1 1.6 3s.7 4.2.7 6.8c0 2.6-.2 4.9-.7 6.8-.5 1.9-1 2.8-1.6 2.8-.7 0-1.2-.9-1.6-2.8-.4-1.9-.6-4.1-.6-6.8 0-2.6.2-4.8.6-6.8.4-2 .9-3 1.6-3zm35.5 0c.6 0 1.1 1 1.6 3s.7 4.2.7 6.8c0 2.6-.2 4.9-.7 6.8-.5 1.9-1 2.8-1.6 2.8-.7 0-1.2-1-1.5-2.9-.2-.7-.4-1.5-.4-2.4h-29.1c.1-1.3.1-2.7.1-4.3s-.1-3-.2-4.5H-27c.1-.8.2-1.6.4-2.3.3-2 .8-3 1.5-3zM-120.8 497.8h-28.6c-.1-.4-.3-.9-.3-1.3-1-3.2-2-4.8-3.2-4.8-1.3 0-2.4 1.6-3.2 4.8-.1.4-.2.9-.3 1.3H-185c-.1-.4-.2-.9-.3-1.3-.9-3.2-1.9-4.8-3.2-4.8-1.3 0-2.4 1.6-3.2 4.8-.8 3.2-1.2 6.9-1.2 11.3s.4 8.1 1.2 11.3c.8 3.1 1.9 4.7 3.2 4.7 1.2 0 2.3-1.6 3.2-4.7.1-.2.1-.5.2-.9h28.8c.1.4.1.7.2.9.8 3.1 1.9 4.7 3.2 4.7 1.2 0 2.2-1.6 3.2-4.7.1-.2.1-.5.2-.9h28.8c.1.4.1.7.2.9.8 3.1 1.9 4.7 3.2 4.7 1.2 0 2.2-1.6 3.1-4.7.9-3.1 1.4-6.9 1.4-11.3 0-4.3-.5-8.1-1.4-11.3-.9-3.2-2-4.8-3.1-4.8-1.3 0-2.4 1.6-3.2 4.8 0 .4-.2.8-.3 1.3zm-67.5.1c.6 0 1.1 1 1.6 3 .1.7.3 1.5.3 2.3h29.1c-.1 1.5-.1 3-.1 4.5s0 3 .1 4.3h-29c-.1.9-.3 1.7-.4 2.4-.5 1.9-1.1 2.9-1.6 2.9-.7 0-1.2-.9-1.6-2.8-.4-1.9-.6-4.1-.6-6.8 0-2.6.2-4.8.6-6.8.5-2 1-3 1.6-3zm35.4 0c.6 0 1.1 1 1.6 3s.7 4.2.7 6.8c0 2.6-.2 4.9-.7 6.8-.5 1.9-1 2.8-1.6 2.8-.7 0-1.2-.9-1.6-2.8-.4-1.9-.6-4.1-.6-6.8 0-2.6.2-4.8.6-6.8.4-2 1-3 1.6-3zm35.5 0c.6 0 1.1 1 1.6 3s.7 4.2.7 6.8c0 2.6-.2 4.9-.7 6.8-.5 1.9-1 2.8-1.6 2.8-.7 0-1.2-1-1.5-2.9-.2-.7-.4-1.5-.4-2.4h-29.1c.1-1.3.1-2.7.1-4.3s-.1-3-.2-4.5h29.2c.1-.8.2-1.6.4-2.3.3-2 .8-3 1.5-3z" class="st445"/><g><path d="M-120.8 418.7h-28.6c-.1-.4-.3-.9-.3-1.3-1-3.2-2-4.8-3.2-4.8-1.3 0-2.4 1.6-3.2 4.8-.1.4-.2.9-.3 1.3H-185c-.1-.4-.2-.9-.3-1.3-.9-3.2-1.9-4.8-3.2-4.8-1.3 0-2.4 1.6-3.2 4.8-.8 3.2-1.2 6.9-1.2 11.3s.4 8.1 1.2 11.3c.8 3.1 1.9 4.7 3.2 4.7 1.2 0 2.3-1.6 3.2-4.7.1-.2.1-.5.2-.9h28.8c.1.4.1.7.2.9.8 3.1 1.9 4.7 3.2 4.7 1.2 0 2.2-1.6 3.2-4.7.1-.2.1-.5.2-.9h28.8c.1.4.1.7.2.9.8 3.1 1.9 4.7 3.2 4.7 1.2 0 2.2-1.6 3.1-4.7.9-3.1 1.4-6.9 1.4-11.3 0-4.3-.5-8.1-1.4-11.3-.9-3.2-2-4.8-3.1-4.8-1.3 0-2.4 1.6-3.2 4.8 0 .4-.2.8-.3 1.3zm-67.5.1c.6 0 1.1 1 1.6 3 .1.7.3 1.5.3 2.3h29.1c-.1 1.5-.1 3-.1 4.5s0 3 .1 4.3h-29c-.1.9-.3 1.7-.4 2.4-.5 1.9-1.1 2.9-1.6 2.9-.7 0-1.2-.9-1.6-2.8-.4-1.9-.6-4.1-.6-6.8 0-2.6.2-4.8.6-6.8.5-2 1-3 1.6-3zm35.4 0c.6 0 1.1 1 1.6 3s.7 4.2.7 6.8c0 2.6-.2 4.9-.7 6.8-.5 1.9-1 2.8-1.6 2.8-.7 0-1.2-.9-1.6-2.8-.4-1.9-.6-4.1-.6-6.8 0-2.6.2-4.8.6-6.8.4-2 1-3 1.6-3zm35.5 0c.6 0 1.1 1 1.6 3s.7 4.2.7 6.8c0 2.6-.2 4.9-.7 6.8-.5 1.9-1 2.8-1.6 2.8-.7 0-1.2-1-1.5-2.9-.2-.7-.4-1.5-.4-2.4h-29.1c.1-1.3.1-2.7.1-4.3s-.1-3-.2-4.5h29.2c.1-.8.2-1.6.4-2.3.3-2 .8-3 1.5-3zM-28.5 382.7h-28.6c-.1-.4-.3-.9-.3-1.3-1-3.2-2-4.8-3.2-4.8-1.3 0-2.4 1.6-3.2 4.8-.1.4-.2.9-.3 1.3h-28.6c-.1-.4-.2-.9-.3-1.3-.9-3.2-1.9-4.8-3.2-4.8-1.3 0-2.4 1.6-3.2 4.8-.8 3.2-1.2 6.9-1.2 11.3s.4 8.1 1.2 11.3c.8 3.1 1.9 4.7 3.2 4.7 1.2 0 2.3-1.6 3.2-4.7.1-.2.1-.5.2-.9H-64c.1.4.1.7.2.9.8 3.1 1.9 4.7 3.2 4.7 1.2 0 2.2-1.6 3.2-4.7.1-.2.1-.5.2-.9h28.8c.1.4.1.7.2.9.8 3.1 1.9 4.7 3.2 4.7 1.2 0 2.2-1.6 3.1-4.7.9-3.1 1.4-6.9 1.4-11.3 0-4.3-.5-8.1-1.4-11.3-.9-3.2-2-4.8-3.1-4.8-1.3 0-2.4 1.6-3.2 4.8-.1.5-.2.9-.3 1.3zm-67.5.1c.6 0 1.1 1 1.6 3 .1.7.3 1.5.3 2.3H-65c-.1 1.5-.1 3-.1 4.5s0 3 .1 4.3h-29c-.1.9-.3 1.7-.4 2.4-.5 1.9-1.1 2.9-1.6 2.9-.7 0-1.2-.9-1.6-2.8-.4-1.9-.6-4.1-.6-6.8 0-2.6.2-4.8.6-6.8.4-2 1-3 1.6-3zm35.4 0c.6 0 1.1 1 1.6 3s.7 4.2.7 6.8c0 2.6-.2 4.9-.7 6.8-.5 1.9-1 2.8-1.6 2.8-.7 0-1.2-.9-1.6-2.8-.4-1.9-.6-4.1-.6-6.8 0-2.6.2-4.8.6-6.8.4-2 .9-3 1.6-3zm35.5 0c.6 0 1.1 1 1.6 3s.7 4.2.7 6.8c0 2.6-.2 4.9-.7 6.8-.5 1.9-1 2.8-1.6 2.8-.7 0-1.2-1-1.5-2.9-.2-.7-.4-1.5-.4-2.4h-29.1c.1-1.3.1-2.7.1-4.3s-.1-3-.2-4.5H-27c.1-.8.2-1.6.4-2.3.3-2 .8-3 1.5-3zM-120.8 346.8h-28.6c-.1-.4-.3-.9-.3-1.3-1-3.2-2-4.8-3.2-4.8-1.3 0-2.4 1.6-3.2 4.8-.1.4-.2.9-.3 1.3H-185c-.1-.4-.2-.9-.3-1.3-.9-3.2-1.9-4.8-3.2-4.8-1.3 0-2.4 1.6-3.2 4.8-.8 3.2-1.2 6.9-1.2 11.3s.4 8.1 1.2 11.3c.8 3.1 1.9 4.7 3.2 4.7 1.2 0 2.3-1.6 3.2-4.7.1-.2.1-.5.2-.9h28.8c.1.4.1.7.2.9.8 3.1 1.9 4.7 3.2 4.7 1.2 0 2.2-1.6 3.2-4.7.1-.2.1-.5.2-.9h28.8c.1.4.1.7.2.9.8 3.1 1.9 4.7 3.2 4.7 1.2 0 2.2-1.6 3.1-4.7.9-3.1 1.4-6.9 1.4-11.3 0-4.3-.5-8.1-1.4-11.3-.9-3.2-2-4.8-3.1-4.8-1.3 0-2.4 1.6-3.2 4.8 0 .4-.2.8-.3 1.3zm-67.5.1c.6 0 1.1 1 1.6 3 .1.7.3 1.5.3 2.3h29.1c-.1 1.5-.1 3-.1 4.5s0 3 .1 4.3h-29c-.1.9-.3 1.7-.4 2.4-.5 1.9-1.1 2.9-1.6 2.9-.7 0-1.2-.9-1.6-2.8-.4-1.9-.6-4.1-.6-6.8 0-2.6.2-4.8.6-6.8.5-2 1-3 1.6-3zm35.4 0c.6 0 1.1 1 1.6 3s.7 4.2.7 6.8c0 2.6-.2 4.9-.7 6.8-.5 1.9-1 2.8-1.6 2.8-.7 0-1.2-.9-1.6-2.8-.4-1.9-.6-4.1-.6-6.8 0-2.6.2-4.8.6-6.8.4-2 1-3 1.6-3zm35.5 0c.6 0 1.1 1 1.6 3s.7 4.2.7 6.8c0 2.6-.2 4.9-.7 6.8-.5 1.9-1 2.8-1.6 2.8-.7 0-1.2-1-1.5-2.9-.2-.7-.4-1.5-.4-2.4h-29.1c.1-1.3.1-2.7.1-4.3s-.1-3-.2-4.5h29.2c.1-.8.2-1.6.4-2.3.3-2 .8-3 1.5-3z" class="st445"/></g></g></switch></svg>