<svg xmlns="http://www.w3.org/2000/svg" id="svg2985" x="0" y="0" enable-background="new -214.5 316.4 255 210" version="1.1" viewBox="-214.5 316.4 255 210" xml:space="preserve"><style>.st333{enable-background:new}.st334{fill:#fff}.st335{fill:#bf3718}.st336{fill:#038249}</style><switch><g><filter id="filter3970-5" width="1.217" height="1.215" x="-.109" y="-.108" color-interpolation-filters="sRGB"><feGaussianBlur id="feGaussianBlur3972-8" stdDeviation=".128"/></filter><g id="g4630" class="st333" transform="matrix(1.0006 0 0 1 -1.376 203.406)"><g id="g3062"><path id="rect4031" d="M42 263.8l-.2-46.2.2-68.4c.1-22.9-15.9-36.1-40.4-36.1h-154.5c-12.3 0-27.6 14-35.7 21.5-8 7.5-24.3 22.1-24.3 33.6v113.1c0 22.9 5.6 41.3 30.1 41.3l162.2.3c6.4 0 24.3-17.4 32.3-24.8 8.1-7.5 30.3-22.9 30.3-34.3z"/><path id="rect3767" fill="#005f00" d="M29.3 255V150.4c0-13.8-11.1-24.8-24.9-24.9l-152.4-.9c-2 0-32 12.6-32 25.8V255c0 13.8 11.1 24.9 24.9 24.9H4.4c13.8 0 24.9-11.1 24.9-24.9z"/><path id="rect3861" fill="#cddacd" d="M14.3 269.9v-99.6c0-13.8-11.2-24.9-24.9-24.9H-170c-13.8 0-24.9 11.1-24.9 24.9v99.6c0 13.8 11.2 24.9 24.9 24.9h159.4c13.8 0 24.9-11.1 24.9-24.9z"/><path id="rect3765" d="M-.6 279.9V175.3c0-13.8-11.2-24.9-24.9-24.9H-175c-13.8 0-24.9 11.1-24.9 24.9v104.6c0 13.8 11.2 24.9 24.9 24.9h149.4c13.8 0 25-11.1 25-24.9z" class="st334"/><linearGradient id="rect3008_1_" x1="-324.883" x2="-324.883" y1="569.587" y2="531.068" gradientTransform="matrix(0 4.9837 4.9812 0 -2847.785 1854.184)" gradientUnits="userSpaceOnUse"><stop offset="0" stop-color="#d0e4cc"/><stop offset="1" stop-color="#fbffec"/></linearGradient><path id="rect3008" fill="url(#rect3008_1_)" d="M-10.6 180.3v109.6c0 11-8.9 19.9-19.9 19.9h-149.4c-11 0-19.9-8.9-19.9-19.9V180.3c0-11 8.9-19.9 19.9-19.9h149.4c11 0 19.9 8.9 19.9 19.9z"/><path id="path3932" d="M16.8 130.2c-1.5 0-2.8 1.3-2.8 2.8s1.3 2.8 2.8 2.8 2.8-1.3 2.8-2.8-1.2-2.8-2.8-2.8z" class="st334"/><g id="path3936" filter="url(#filter3970-5)"><linearGradient id="SVGID_1_" x1="-315.771" x2="-318.887" y1="590.47" y2="587.001" gradientTransform="matrix(0 -7.1056 6.6848 0 -3926.45 -2112.465)" gradientUnits="userSpaceOnUse"><stop offset="0" stop-color="#fff"/><stop offset="1" stop-color="#fff" stop-opacity="0"/></linearGradient><path fill="url(#SVGID_1_)" d="M18.2 135.3l-24.6 28.8-6-8.2 28.3-25.2z"/></g><path id="path3882" d="M-5.1 147.5c-4.8 0-8.7 3.9-8.7 8.7 0 4.8 3.9 8.7 8.7 8.7 4.8 0 8.7-3.9 8.7-8.7 0-4.8-3.9-8.7-8.7-8.7z" class="st334"/><g id="g5021" class="st333" transform="matrix(.9994 0 0 1 1.365 -203.394)"><g id="g5432" transform="matrix(2.9639 0 0 2.9677 60.694 76.783)"><path id="path5434" d="M-62.2 137a6.7 6.7 0 110-13.4 6.7 6.7 0 010 13.4z" class="st335"/><g id="g5436" transform="rotate(-45 17.625 29.531)"><path id="path5438" d="M-110.1 43.9s-1-1.2-1-2.7c0-1.5 1-2.7 1-2.7s1 1.2 1 2.7c0 1.5-1 2.7-1 2.7z" class="st334"/><path id="path5440" d="M-110.1 44.6s1 1.2 1 2.7c0 1.5-1 2.7-1 2.7s-1-1.2-1-2.7c0-1.5 1-2.7 1-2.7z" class="st334"/><path id="path5442" d="M-110.4 44.3s-1.2 1-2.7 1c-1.5 0-2.7-1-2.7-1s1.2-1 2.7-1 2.7 1 2.7 1z" class="st334"/><path id="path5444" d="M-109.7 44.3s1.2-1 2.7-1c1.5 0 2.7 1 2.7 1s-1.2 1-2.7 1-2.7-1-2.7-1z" class="st334"/></g></g><g id="g5773" transform="matrix(2.9639 0 0 2.9677 10.917 76.783)"><path id="path5775" d="M-45.5 120.2a6.7 6.7 0 116.7-6.7c.1 3.7-2.9 6.7-6.7 6.7z" class="st335"/><g id="g5777" transform="rotate(-45 17.625 29.531)"><path id="path5779" d="M-86.3 43.9s-1-1.2-1-2.7c0-1.5 1-2.7 1-2.7s1 1.2 1 2.7c0 1.5-1 2.7-1 2.7z" class="st334"/><path id="path5781" d="M-86.3 44.6s1 1.2 1 2.7c0 1.5-1 2.7-1 2.7s-1-1.2-1-2.7c0-1.4 1-2.7 1-2.7z" class="st334"/><path id="path5783" d="M-86.7 44.3s-1.2 1-2.7 1c-1.5 0-2.7-1-2.7-1s1.2-1 2.7-1 2.7 1 2.7 1z" class="st334"/><path id="path5785" d="M-86 44.3s1.2-1 2.7-1c1.5 0 2.7 1 2.7 1s-1.2 1-2.7 1-2.7-1-2.7-1z" class="st334"/></g></g><g id="g5787" transform="matrix(2.9639 0 0 2.9677 60.694 124.13)"><path id="path5789" d="M-78.2 121a6.7 6.7 0 110-13.4 6.7 6.7 0 010 13.4z" class="st335"/><g id="g5791" transform="rotate(-45 17.625 29.531)"><path id="path5793" d="M-110.1 21.4s-1-1.2-1-2.7c0-1.5 1-2.7 1-2.7s1 1.2 1 2.7c0 1.4-1 2.7-1 2.7z" class="st334"/><path id="path5795" d="M-110.1 22.1s1 1.2 1 2.7c0 1.5-1 2.7-1 2.7s-1-1.2-1-2.7c0-1.5 1-2.7 1-2.7z" class="st334"/><path id="path5797" d="M-110.4 21.7s-1.2 1-2.7 1c-1.5 0-2.7-1-2.7-1s1.2-1 2.7-1c1.4 0 2.7 1 2.7 1z" class="st334"/><path id="path5799" d="M-109.7 21.7s1.2-1 2.7-1 2.7 1 2.7 1-1.2 1-2.7 1c-1.5 0-2.7-1-2.7-1z" class="st334"/></g></g><g id="g5801" transform="matrix(2.9639 0 0 2.9677 10.917 124.13)"><path id="path5803" d="M-61.4 104.2a6.7 6.7 0 110-13.4 6.7 6.7 0 010 13.4z" class="st335"/><g id="g5805" transform="rotate(-45 17.625 29.531)"><path id="path5807" d="M-86.4 21.4s-1-1.2-1-2.7c0-1.5 1-2.7 1-2.7s1 1.2 1 2.7c0 1.5-1 2.7-1 2.7z" class="st334"/><path id="path5809" d="M-86.4 22.1s1 1.2 1 2.7c0 1.5-1 2.7-1 2.7s-1-1.2-1-2.7c0-1.5 1-2.7 1-2.7z" class="st334"/><path id="path5811" d="M-86.7 21.7s-1.2 1-2.7 1c-1.5 0-2.7-1-2.7-1s1.2-1 2.7-1c1.5 0 2.7 1 2.7 1z" class="st334"/><path id="path5813" d="M-86 21.7s1.2-1 2.7-1 2.7 1 2.7 1-1.2 1-2.7 1c-1.5 0-2.7-1-2.7-1z" class="st334"/></g></g><g id="g5488" transform="matrix(2.9639 0 0 2.9677 35.806 15.063)"><path id="path5490" d="M-33 149.4a6.7 6.7 0 110-13.4 6.7 6.7 0 010 13.4z" class="st336"/><g id="g5492" transform="rotate(-45 17.625 29.531)"><path id="path5494" d="M-98.2 73.4s-1-1.2-1-2.7c0-1.5 1-2.7 1-2.7s1 1.2 1 2.7c0 1.5-1 2.7-1 2.7z" class="st334"/><path id="path5496" d="M-98.2 74.1s1 1.2 1 2.7c0 1.5-1 2.7-1 2.7s-1-1.2-1-2.7c0-1.5 1-2.7 1-2.7z" class="st334"/><path id="path5498" d="M-98.5 73.7s-1.2 1-2.7 1c-1.5 0-2.7-1-2.7-1s1.2-1 2.7-1c1.4 0 2.7 1 2.7 1z" class="st334"/><path id="path5500" d="M-97.8 73.7s1.2-1 2.7-1c1.5 0 2.7 1 2.7 1s-1.2 1-2.7 1c-1.5 0-2.7-1-2.7-1z" class="st334"/></g></g><g id="g5887" transform="matrix(2.9639 0 0 2.9677 75.628 35)"><path id="path5889" d="M-53.2 156.1a6.7 6.7 0 110-13.4 6.7 6.7 0 010 13.4z" class="st336"/><g id="g5891" transform="rotate(-45 17.625 29.531)"><path id="path5893" d="M-117.2 63.8s-1-1.2-1-2.7c0-1.5 1-2.7 1-2.7s1 1.2 1 2.7c0 1.5-1 2.7-1 2.7z" class="st334"/><path id="path5895" d="M-117.2 64.5s1 1.2 1 2.7c0 1.5-1 2.7-1 2.7s-1-1.2-1-2.7c0-1.4 1-2.7 1-2.7z" class="st334"/><path id="path5897" d="M-117.5 64.2s-1.2 1-2.7 1c-1.5 0-2.7-1-2.7-1s1.2-1 2.7-1 2.7 1 2.7 1z" class="st334"/><path id="path5899" d="M-116.8 64.2s1.2-1 2.7-1c1.5 0 2.7 1 2.7 1s-1.2 1-2.7 1c-1.5 0-2.7-1-2.7-1z" class="st334"/></g></g><g id="g5901" transform="matrix(2.9639 0 0 2.9677 -4.016 -4.873)"><path id="path5903" d="M-12.9 142.7a6.7 6.7 0 116.7-6.7c.1 3.7-2.9 6.7-6.7 6.7z" class="st336"/><g id="g5905" transform="rotate(-45 17.625 29.531)"><path id="path5907" d="M-79.2 82.9s-1-1.2-1-2.7c0-1.5 1-2.7 1-2.7s1 1.2 1 2.7c0 1.5-1 2.7-1 2.7z" class="st334"/><path id="path5909" d="M-79.2 83.6s1 1.2 1 2.7c0 1.5-1 2.7-1 2.7s-1-1.2-1-2.7c0-1.5 1-2.7 1-2.7z" class="st334"/><path id="path5911" d="M-79.5 83.2s-1.2 1-2.7 1c-1.5 0-2.7-1-2.7-1s1.2-1 2.7-1c1.4 0 2.7 1 2.7 1z" class="st334"/><path id="path5913" d="M-78.8 83.2s1.2-1 2.7-1c1.5 0 2.7 1 2.7 1s-1.2 1-2.7 1c-1.5 0-2.7-1-2.7-1z" class="st334"/></g></g></g></g></g></g></switch></svg>